<svg xmlns="http://www.w3.org/2000/svg" xmlns:xlink="http://www.w3.org/1999/xlink" width="1150" height="125" viewBox="0 0 1150 125">
  <defs>
    <clipPath id="clip-path">
      <rect id="長方形_654" data-name="長方形 654" width="463" height="125" transform="translate(0 -0.49)" fill="none"/>
    </clipPath>
    <clipPath id="clip-path-2">
      <rect id="長方形_655" data-name="長方形 655" width="463" height="125" transform="translate(0.28 -0.49)" fill="none"/>
    </clipPath>
  </defs>
  <g id="グループ_27073" data-name="グループ 27073" transform="translate(-185 -373)">
    <g id="グループ_92" data-name="グループ 92" transform="translate(185 373.49)">
      <g id="グループ_91" data-name="グループ 91" transform="translate(0 0)" clip-path="url(#clip-path)">
        <path id="パス_45" data-name="パス 45" d="M89.364,87.179h21.711v12.54H89.364v21.162H76.1V99.719H55.3V87.179H76.1V52.17a169.9,169.9,0,0,1-42.9,55.517c-1.427-1.959-3.9-5.225-12.612-9.795C52.18,75.162,67.916,45.245,71.035,38.716H23.318V26.958H76.1V.832l12.741.916c1.561.129,3.381.259,3.381,1.827,0,1.175-1.169,1.829-2.861,2.482v20.9h53.174V38.716H94.177c10.271,19.724,26.782,40.366,50.833,57.476-5.2,3.788-7.414,5.75-10.533,10.581A152.349,152.349,0,0,1,89.364,51.518Z" transform="translate(27.711 0.994)" fill="#fff"/>
        <path id="パス_46" data-name="パス 46" d="M187.76,120.787H175.277V92.7c-13.258,12.276-30.941,23.119-40.952,27.171-4.68-6.141-7.41-7.841-9.879-9.538C143.166,103.676,160.2,92.572,169.168,85H122.625V74.414h52.652v-6.4h-37.7V58.083h37.7v-6.27H129.125V41.364h30.163a65.066,65.066,0,0,0-5.2-9.668l7.152-2.22H122.625V18.9h21.711a107.927,107.927,0,0,0-7.538-11.1l10.66-6.4a127.014,127.014,0,0,1,9.362,14.763,31.428,31.428,0,0,0-6.371,2.743h12.48V1l12.349.655c1.172,0,2.6.261,2.6,1.7,0,1.307-1.04,1.7-2.6,2.223V18.9h11.7V1.13l12.352.523c1.169,0,2.73.393,2.73,1.568,0,1.3-1.821,2.088-2.73,2.482V18.9h13.13a36.914,36.914,0,0,0-7.541-2.743c5.2-7.579,6.763-9.8,8.712-14.631l13,5.093A1.828,1.828,0,0,1,227.8,8.052c0,1.568-1.429,1.832-4.03,1.439-2.079,3.136-3.9,6.006-6.5,9.406h23.142V29.476H212.071a1.594,1.594,0,0,1,.78,1.309c0,.782-.651,1.959-3.77,1.959-1.3,2.873-2.99,6.27-4.162,8.62h27.693V51.813H187.76v6.27h36.663v9.929H187.76v6.4h52.783V85H194.78c8.71,7.838,22.751,16.981,44.462,24.3-5.589,4.443-7.41,6.793-9.1,10.059C220,115.823,200.76,105.5,187.76,92.05ZM166.438,29.476a54.438,54.438,0,0,1,4.811,10.059,61.881,61.881,0,0,0-7.8,1.829H191.01A83.1,83.1,0,0,0,196.6,29.476Z" transform="translate(164.778 1.219)" fill="#fff"/>
        <path id="パス_47" data-name="パス 47" d="M22.6,124.286H0V0H22.6V5.983H5.954V118.3H22.6Z" transform="translate(0.055 -0.133)" fill="#fff"/>
        <path id="パス_48" data-name="パス 48" d="M210.574,124.286h-22.6V118.3H204.62V5.983H187.973V0h22.6Z" transform="translate(252.56 -0.133)" fill="#fff"/>
      </g>
    </g>
    <g id="グループ_95" data-name="グループ 95" transform="translate(871.72 373.357)">
      <g id="グループ_94" data-name="グループ 94" transform="translate(0 0.133)">
        <g id="グループ_93" data-name="グループ 93" transform="translate(0 0)" clip-path="url(#clip-path-2)">
          <g id="グループ_98" data-name="グループ 98" transform="translate(43.738 16.261)">
            <path id="パス_49" data-name="パス 49" d="M25.593,92.608Q18.6,85.969,18.6,74.886V31.323q0-11.083,6.99-17.722T44.129,6.963q11.543,0,18.6,6.7T69.783,31.45v4.9a1.5,1.5,0,0,1-.45,1.1,1.481,1.481,0,0,1-1.09.452H53.235a1.473,1.473,0,0,1-1.09-.452,1.493,1.493,0,0,1-.45-1.1V31.193a9.258,9.258,0,0,0-2.05-6.251,6.914,6.914,0,0,0-5.516-2.385,6.759,6.759,0,0,0-5.387,2.385,9.236,9.236,0,0,0-2.053,6.251v43.82a9.238,9.238,0,0,0,2.053,6.254,6.757,6.757,0,0,0,5.387,2.383,6.912,6.912,0,0,0,5.516-2.383,9.261,9.261,0,0,0,2.05-6.254V64.7a.567.567,0,0,0-.64-.643H45.41a1.471,1.471,0,0,1-1.09-.45,1.5,1.5,0,0,1-.45-1.1V51.042a1.5,1.5,0,0,1,.45-1.095,1.473,1.473,0,0,1,1.09-.452H68.244a1.481,1.481,0,0,1,1.09.452,1.5,1.5,0,0,1,.45,1.095V74.886q0,11.086-7.056,17.722t-18.6,6.635q-11.547,0-18.536-6.635" transform="translate(-18.603 -6.963)" fill="#fff"/>
            <path id="パス_50" data-name="パス 50" d="M51.219,92.286q-7.055-6.958-7.053-18.558V32.481q0-11.6,7.053-18.558t18.857-6.96q11.8,0,18.922,6.96t7.119,18.558V73.728q0,11.6-7.119,18.558T70.076,99.244q-11.8,0-18.857-6.958M75.85,81.137A9.786,9.786,0,0,0,78.031,74.5V31.709a9.786,9.786,0,0,0-2.182-6.637,7.28,7.28,0,0,0-5.774-2.515,7.081,7.081,0,0,0-5.708,2.515,9.975,9.975,0,0,0-2.116,6.637V74.5a9.975,9.975,0,0,0,2.116,6.637,7.072,7.072,0,0,0,5.708,2.512,7.27,7.27,0,0,0,5.774-2.512" transform="translate(15.736 -6.963)" fill="#fff"/>
            <path id="パス_51" data-name="パス 51" d="M88,92.352Q81,85.458,81.006,73.857V32.1q0-11.468,6.99-18.3t18.536-6.833q11.67,0,18.664,6.833t6.99,18.3v1.42a1.5,1.5,0,0,1-.45,1.095,1.478,1.478,0,0,1-1.09.45l-15.009.645q-1.54,0-1.54-1.417v-3.35a8.812,8.812,0,0,0-2.05-6.058,7.009,7.009,0,0,0-5.516-2.322,6.849,6.849,0,0,0-5.387,2.322,8.791,8.791,0,0,0-2.053,6.058V75.4a8.548,8.548,0,0,0,2.053,5.995,6.937,6.937,0,0,0,5.387,2.256,7.1,7.1,0,0,0,5.516-2.256A8.569,8.569,0,0,0,114.1,75.4v-3.48a1.5,1.5,0,0,1,.45-1.095,1.473,1.473,0,0,1,1.09-.452l15.009.645a1.48,1.48,0,0,1,1.09.452,1.5,1.5,0,0,1,.45,1.095v1.29q0,11.6-7.056,18.495t-18.6,6.894q-11.547,0-18.536-6.894" transform="translate(65.223 -6.963)" fill="#fff"/>
            <path id="パス_52" data-name="パス 52" d="M141.512,18.542a1.7,1.7,0,0,1,.771,1.933l-2.437,15.083q-.13,1.416-1.8,1.029a10.226,10.226,0,0,0-3.463-.516,9.773,9.773,0,0,0-3.335.516,6.815,6.815,0,0,0-4.745,3.546,13.481,13.481,0,0,0-1.8,7.021V82.6a1.532,1.532,0,0,1-1.54,1.547H108.163a1.532,1.532,0,0,1-1.54-1.547V19.573a1.536,1.536,0,0,1,1.54-1.547h15.007a1.536,1.536,0,0,1,1.54,1.547V24.6c0,.346.063.539.192.579s.277-.064.45-.32q3.462-7.6,10.775-7.605a9.627,9.627,0,0,1,5.387,1.288" transform="translate(99.635 6.976)" fill="#fff"/>
            <path id="パス_53" data-name="パス 53" d="M171.632,56.52a1.472,1.472,0,0,1-1.09.452h-28.22a.567.567,0,0,0-.642.643v4.77a8.187,8.187,0,0,0,1.732,5.347,5.454,5.454,0,0,0,4.426,2.128,5.245,5.245,0,0,0,3.974-1.613,8.141,8.141,0,0,0,2.053-4.059,1.612,1.612,0,0,1,1.668-1.288l14.751.772a1.489,1.489,0,0,1,1.092.452,1.334,1.334,0,0,1,.319,1.224q-.9,9.924-6.861,15.015t-17,5.09q-11.42,0-17.83-5.736T123.592,63.8v-25q0-9.794,6.479-15.723t17.767-5.929q11.287,0,17.765,5.929T172.08,38.8V55.425a1.5,1.5,0,0,1-.448,1.095M143.412,34.8a7.937,7.937,0,0,0-1.732,5.284v5.029a.567.567,0,0,0,.642.643h11.03a.568.568,0,0,0,.642-.643V40.085a7.937,7.937,0,0,0-1.732-5.284,5.779,5.779,0,0,0-8.851,0" transform="translate(122.429 6.829)" fill="#fff"/>
            <path id="パス_54" data-name="パス 54" d="M159.726,82.486,145.872,19.2v-.516q0-1.162,1.411-1.161h14.24a1.449,1.449,0,0,1,1.666,1.42l5.516,35.315c.084.257.213.386.384.386s.3-.13.387-.386l5.643-35.315a1.45,1.45,0,0,1,1.668-1.42h12.7a1.451,1.451,0,0,1,1.668,1.42l6.027,35.443c.084.259.213.367.384.323s.3-.193.387-.45l5.387-35.315a1.449,1.449,0,0,1,1.666-1.42l14.111.259c1.111,0,1.54.56,1.282,1.674L206.674,82.486a1.541,1.541,0,0,1-1.668,1.42H190.383a1.447,1.447,0,0,1-1.666-1.42L183.2,49.751c-.087-.259-.216-.386-.384-.386s-.3.127-.387.386l-5.258,32.735a1.451,1.451,0,0,1-1.668,1.42H161.394a1.54,1.54,0,0,1-1.668-1.42" transform="translate(152.358 7.346)" fill="#fff"/>
          </g>
        </g>
      </g>
      <path id="パス_55" data-name="パス 55" d="M0,0V124.286H22.6V118.3H5.954V5.983H22.6V0Z" transform="translate(0.146 0)" fill="#fff"/>
      <path id="パス_56" data-name="パス 56" d="M187.973,0V5.983H204.62V118.3H187.973v5.983h22.6V0Z" transform="translate(252.651 0)" fill="#fff"/>
    </g>
    <g id="グループ_97" data-name="グループ 97" transform="translate(710.802 397.064)">
      <rect id="長方形_656" data-name="長方形 656" width="5" height="78" transform="translate(37.198 -0.064)" fill="#fff"/>
      <rect id="長方形_657" data-name="長方形 657" width="5" height="78" transform="translate(78.198 36.936) rotate(90)" fill="#fff"/>
    </g>
  </g>
</svg>
