<svg xmlns="http://www.w3.org/2000/svg" xmlns:xlink="http://www.w3.org/1999/xlink" width="338" height="236" viewBox="0 0 338 236">
  <defs>
    <clipPath id="clip-path">
      <rect id="長方形_655" data-name="長方形 655" width="338" height="91" transform="translate(0 0.444)" fill="none"/>
    </clipPath>
    <clipPath id="clip-path-2">
      <rect id="長方形_654" data-name="長方形 654" width="337" height="91" transform="translate(-0.219 0)" fill="none"/>
    </clipPath>
  </defs>
  <g id="グループ_27077" data-name="グループ 27077" transform="translate(-4393 304)">
    <g id="グループ_27076" data-name="グループ 27076" transform="translate(4393 -159.444)">
      <g id="グループ_94" data-name="グループ 94" transform="translate(0 0)">
        <g id="グループ_93" data-name="グループ 93" transform="translate(0 0)" clip-path="url(#clip-path)">
          <g id="グループ_98" data-name="グループ 98" transform="translate(32.036 12.326)">
            <path id="パス_49" data-name="パス 49" d="M23.7,69.359Q18.6,64.522,18.6,56.448V24.71q0-8.074,5.093-12.912T37.2,6.963q8.41,0,13.55,4.884T55.89,24.8v3.568a1.094,1.094,0,0,1-.328.8,1.079,1.079,0,0,1-.794.329H43.834a1.073,1.073,0,0,1-.794-.329,1.087,1.087,0,0,1-.328-.8V24.616a6.745,6.745,0,0,0-1.494-4.554A5.037,5.037,0,0,0,37.2,18.324a4.924,4.924,0,0,0-3.925,1.738,6.729,6.729,0,0,0-1.5,4.554V56.54a6.73,6.73,0,0,0,1.5,4.556A4.923,4.923,0,0,0,37.2,62.832,5.036,5.036,0,0,0,41.218,61.1a6.747,6.747,0,0,0,1.494-4.556V49.029a.413.413,0,0,0-.466-.468H38.133a1.072,1.072,0,0,1-.794-.328,1.093,1.093,0,0,1-.328-.8V39.076a1.089,1.089,0,0,1,.328-.8,1.073,1.073,0,0,1,.794-.329H54.768a1.079,1.079,0,0,1,.794.329,1.1,1.1,0,0,1,.328.8V56.448q0,8.077-5.14,12.911T37.2,74.193q-8.412,0-13.5-4.834" transform="translate(-18.603 -6.963)" fill="#fff"/>
            <path id="パス_50" data-name="パス 50" d="M49.3,69.124q-5.139-5.069-5.139-13.52V25.554q0-8.45,5.139-13.52T63.042,6.963q8.6,0,13.786,5.071t5.186,13.52V55.6q0,8.45-5.186,13.52T63.042,74.193q-8.6,0-13.738-5.069M67.249,61a7.129,7.129,0,0,0,1.589-4.836V24.991a7.129,7.129,0,0,0-1.589-4.836,5.3,5.3,0,0,0-4.207-1.832,5.159,5.159,0,0,0-4.159,1.832,7.267,7.267,0,0,0-1.542,4.836V56.166A7.267,7.267,0,0,0,58.884,61a5.153,5.153,0,0,0,4.159,1.83A5.3,5.3,0,0,0,67.249,61" transform="translate(-0.525 -6.963)" fill="#fff"/>
            <path id="パス_51" data-name="パス 51" d="M86.1,69.172Q81,64.15,81.006,55.7V25.273q0-8.355,5.093-13.332T99.6,6.963q8.5,0,13.6,4.978t5.093,13.332v1.034a1.093,1.093,0,0,1-.328.8,1.077,1.077,0,0,1-.794.328l-10.935.47q-1.122,0-1.122-1.033V24.429a6.42,6.42,0,0,0-1.494-4.414A5.106,5.106,0,0,0,99.6,18.324a4.989,4.989,0,0,0-3.925,1.691,6.4,6.4,0,0,0-1.5,4.414V56.823a6.228,6.228,0,0,0,1.5,4.367A5.054,5.054,0,0,0,99.6,62.834a5.174,5.174,0,0,0,4.019-1.643,6.243,6.243,0,0,0,1.494-4.367V54.288a1.089,1.089,0,0,1,.328-.8,1.073,1.073,0,0,1,.794-.329l10.935.47a1.079,1.079,0,0,1,.794.329,1.1,1.1,0,0,1,.328.8v.94q0,8.45-5.14,13.474T99.6,74.195q-8.412,0-13.5-5.023" transform="translate(25.528 -6.963)" fill="#fff"/>
            <path id="パス_52" data-name="パス 52" d="M132.041,18.192A1.237,1.237,0,0,1,132.6,19.6l-1.775,10.989q-.095,1.032-1.309.75a7.45,7.45,0,0,0-2.523-.376,7.12,7.12,0,0,0-2.429.376,4.965,4.965,0,0,0-3.457,2.583,9.821,9.821,0,0,0-1.309,5.115V64.86a1.116,1.116,0,0,1-1.122,1.127H107.745a1.116,1.116,0,0,1-1.122-1.127V18.944a1.119,1.119,0,0,1,1.122-1.127h10.933a1.119,1.119,0,0,1,1.122,1.127v3.662c0,.252.046.393.14.422s.2-.046.328-.233q2.522-5.54,7.85-5.541a7.014,7.014,0,0,1,3.925.938" transform="translate(43.644 0.399)" fill="#fff"/>
            <path id="パス_53" data-name="パス 53" d="M158.591,45.831a1.072,1.072,0,0,1-.794.329h-20.56a.413.413,0,0,0-.468.468V50.1a5.964,5.964,0,0,0,1.262,3.9,3.973,3.973,0,0,0,3.225,1.551,3.821,3.821,0,0,0,2.9-1.175,5.931,5.931,0,0,0,1.5-2.957,1.174,1.174,0,0,1,1.216-.938l10.747.563a1.085,1.085,0,0,1,.8.329.972.972,0,0,1,.232.892q-.656,7.23-5,10.939t-12.382,3.709q-8.32,0-12.99-4.179t-4.674-11.6V32.919a14.785,14.785,0,0,1,4.72-11.455q4.717-4.318,12.944-4.319T154.2,21.464a14.784,14.784,0,0,1,4.719,11.455V45.033a1.091,1.091,0,0,1-.326.8m-20.56-15.822a5.782,5.782,0,0,0-1.262,3.849v3.664a.413.413,0,0,0,.468.468h8.036a.414.414,0,0,0,.468-.468V33.858a5.782,5.782,0,0,0-1.262-3.849,4.21,4.21,0,0,0-6.448,0" transform="translate(55.644 0.321)" fill="#fff"/>
            <path id="パス_54" data-name="パス 54" d="M155.965,64.852l-10.093-46.1v-.376q0-.847,1.028-.846h10.375a1.056,1.056,0,0,1,1.214,1.034l4.019,25.729c.061.187.155.281.28.281s.219-.094.282-.281l4.111-25.729a1.057,1.057,0,0,1,1.216-1.034h9.251a1.057,1.057,0,0,1,1.216,1.034l4.391,25.821c.061.189.155.268.28.235s.219-.141.282-.328l3.925-25.729a1.056,1.056,0,0,1,1.214-1.034l10.281.189c.809,0,1.122.408.934,1.22l-10,45.917a1.123,1.123,0,0,1-1.216,1.034H178.3a1.054,1.054,0,0,1-1.214-1.034L173.068,41c-.063-.189-.157-.281-.28-.281s-.22.093-.282.281l-3.831,23.849a1.057,1.057,0,0,1-1.216,1.034H157.18a1.122,1.122,0,0,1-1.215-1.034" transform="translate(71.4 0.594)" fill="#fff"/>
          </g>
        </g>
      </g>
      <path id="パス_55" data-name="パス 55" d="M0,0V90.547H16.464V86.188H4.338V4.359H16.464V0Z" transform="translate(0.277 0.382)" fill="#fff"/>
      <path id="パス_56" data-name="パス 56" d="M187.973,0V4.359H200.1V86.188H187.973v4.359h16.464V0Z" transform="translate(133.209 0.382)" fill="#fff"/>
    </g>
    <g id="グループ_27074" data-name="グループ 27074" transform="translate(4394.219 -304)">
      <g id="グループ_91" data-name="グループ 91" transform="translate(0 0)" clip-path="url(#clip-path-2)">
        <path id="パス_45" data-name="パス 45" d="M70.694,63.739H86.511v9.136H70.694V88.293H61.033V72.875H45.88V63.739H61.033V38.234A123.78,123.78,0,0,1,29.776,78.68c-1.04-1.427-2.841-3.806-9.188-7.136A121.8,121.8,0,0,0,57.34,28.432H22.577V19.866H61.033V.832l9.282.667c1.137.094,2.463.189,2.463,1.331,0,.856-.852,1.333-2.084,1.808V19.866h38.74v8.567H74.2a119.69,119.69,0,0,0,37.034,41.874c-3.79,2.76-5.4,4.189-7.674,7.709A110.992,110.992,0,0,1,70.694,37.759Z" transform="translate(14.085 1.277)" fill="#fff"/>
        <path id="パス_46" data-name="パス 46" d="M170.078,88.269h-9.094V67.81c-9.659,8.944-22.542,16.843-29.835,19.8a26.023,26.023,0,0,0-7.2-6.949,113.717,113.717,0,0,0,32.582-18.462H122.625V54.485h38.359V49.821H133.517V42.587h27.467V38.019H127.361V30.406h21.975a47.405,47.405,0,0,0-3.79-7.043l5.21-1.618H122.625V14.038h15.817a78.625,78.625,0,0,0-5.492-8.09l7.766-4.664a92.532,92.532,0,0,1,6.82,10.755,22.9,22.9,0,0,0-4.642,2h9.092V1l9,.477c.854,0,1.895.19,1.895,1.237,0,.952-.758,1.238-1.895,1.619v9.707h8.526V1.094l9,.381c.852,0,1.989.286,1.989,1.142,0,.95-1.327,1.522-1.989,1.808v9.613h9.565a26.892,26.892,0,0,0-5.494-2c3.79-5.522,4.927-7.138,6.347-10.659l9.47,3.71a1.332,1.332,0,0,1,.854,1.046c0,1.142-1.041,1.335-2.936,1.048-1.514,2.285-2.841,4.376-4.736,6.853h16.86v7.707H187.79a1.161,1.161,0,0,1,.568.954c0,.57-.475,1.427-2.747,1.427-.948,2.093-2.178,4.568-3.032,6.28h20.176v7.613H170.078v4.568h26.711v7.234H170.078v4.664h38.454v7.709h-33.34c6.346,5.71,16.575,12.371,32.392,17.7-4.072,3.237-5.4,4.949-6.629,7.328-7.389-2.57-21.406-10.088-30.878-19.89ZM154.544,21.745a39.658,39.658,0,0,1,3.5,7.328,45.084,45.084,0,0,0-5.683,1.333h20.08a60.543,60.543,0,0,0,4.073-8.661Z" transform="translate(86.244 1.396)" fill="#fff"/>
        <path id="パス_47" data-name="パス 47" d="M16.466,90.547H0V0H16.466V4.359H4.338v81.83H16.466Z" transform="translate(-0.475 0.682)" fill="#fff"/>
        <path id="パス_48" data-name="パス 48" d="M204.439,90.547H187.973V86.188H200.1V4.359H187.973V0h16.466Z" transform="translate(132.458 0.682)" fill="#fff"/>
      </g>
    </g>
    <g id="グループ_27075" data-name="グループ 27075" transform="translate(4542.802 -208.936)">
      <rect id="長方形_656" data-name="長方形 656" width="3" height="42" transform="translate(20.198 -0.064)" fill="#fff"/>
      <rect id="長方形_657" data-name="長方形 657" width="3" height="42" transform="translate(42.198 19.936) rotate(90)" fill="#fff"/>
    </g>
  </g>
</svg>
