<svg id="グループ_79" data-name="グループ 79" xmlns="http://www.w3.org/2000/svg" width="77.243" height="719.742" viewBox="0 0 77.243 719.742">
  <g id="グループ_123" data-name="グループ 123" transform="translate(0 0)">
    <path id="パス_28" data-name="パス 28" d="M30.8,63.13,10.033,101.977,0,96.61,33.6,33.734a39.959,39.959,0,0,0,3.616-13.649,3.279,3.279,0,0,0-3.5-2.683H3.033V5.736H33.714q13.3.945,14.815,14.349a47.529,47.529,0,0,1-4.9,19.015L37.8,50.065,57.277,97.193,46.663,101.51Z" transform="translate(9.391 -5.736)" fill="#fff"/>
    <path id="パス_29" data-name="パス 29" d="M120.27,101.1l-2.45-42.812H94.374V46.852h22.863l-1.282-21.465h-18.9V14.072h18.2l-.466-7.815,11.432-.7.466,8.515h14.932V25.387H127.386l1.166,21.465h15.632V58.284H129.253L131.7,100.4Z" transform="translate(-84.486 127.733)" fill="#fff"/>
    <path id="パス_30" data-name="パス 30" d="M241.8,39.916a30.862,30.862,0,0,1-8.165,19.6L216.949,75.962l16.1,21.465-9.1,6.766L200.968,73.513a37.39,37.39,0,0,1-6.65-19.715V41.317h11.433V53.8a26.712,26.712,0,0,0,4.316,12.948l15.631-15.4a20.3,20.3,0,0,0,4.783-11.432V20.552a3.438,3.438,0,0,0-3.5-3.384H188.836V5.736h38.146Q240.4,7.021,241.8,20.552Z" transform="translate(-178.761 254.634)" fill="#fff"/>
    <path id="パス_31" data-name="パス 31" d="M349.506,46.778h-7.233v9.215h7.233v12.6h-7.233V88.075q0,4.9-.117,7.7a31.411,31.411,0,0,1-.64,5.249,7.8,7.8,0,0,1-1.459,3.5,8.171,8.171,0,0,1-2.683,1.865,10.089,10.089,0,0,1-3.674.935q-1.925.113-5.308.116-2.45,0-10.616-.583l-.466-12.6q7.232.7,9.215.7,2.915,0,3.324-.7t.409-5.156V68.593h-18.2q5.014,7.7,10.732,17.032l-8.049,9.1q-6.185-9.563-12.365-17.848l5.95-8.282h-6.3v29.4h-16.1v6.533H274.963V6.533h27.064V34.18h17.615V23.448H304.011V11.2h15.631V0h12.016V11.2h15.164V23.448H331.658V34.18h17.848Zm-63.577-1.867h5.482V19.831h-5.482Zm0,40.246h5.482V57.743h-5.482Zm16.1-29.164h28.23V46.778h-28.23Z" transform="translate(-272.263 374.789)" fill="#fff"/>
    <path id="パス_32" data-name="パス 32" d="M380.258,106.465H368.709V3.227h34.53V48.955H380.258Zm0-84.69h12.715V15.009H380.258Zm0,16.8h12.715V31.806H380.258ZM428.2,106.115q-3.848,0-11.432-.583l-.233-7.7H397.407v5.134H386.791V55.021h36.63V93.167a29.373,29.373,0,0,0,3.033.117q2.683,0,3.091-.759t.409-4.724V48.955h-23.8V3.227H441.5V87.1q0,4.783-.116,7.523a30.023,30.023,0,0,1-.642,5.134A8.909,8.909,0,0,1,439.4,103.2a6.463,6.463,0,0,1-2.508,1.808,11.289,11.289,0,0,1-3.616.933q-1.925.176-5.075.174m-30.8-34.646h15.4V65.636h-15.4Zm0,16.215h15.4V81.269h-15.4Zm32.547-72.677H416.422v6.766h13.532Zm0,16.8H416.422v6.766h13.532Z" transform="translate(-368.709 494.964)" fill="#fff"/>
    <path id="パス_33" data-name="パス 33" d="M508.273,83.35a41.815,41.815,0,0,0,4.316-16.331V25.84a4.484,4.484,0,0,0-4.549-4.55h-5.133V48.937a90.436,90.436,0,0,1-3.383,21.815L494.158,87.2a34.676,34.676,0,0,1-4.666,8.867,12.1,12.1,0,0,1-8.982,4.9,9.549,9.549,0,0,1-8.515-6.3,23.353,23.353,0,0,1-2.1-9.681V25.84q1.287-14.7,15.9-15.981h22.212q14.61,1.4,15.9,15.981V67.019a54.618,54.618,0,0,1-5.717,21.931l-6.764,12.132-9.916-5.717Zm-16.8-34.413V21.29h-5.6a4.482,4.482,0,0,0-4.549,4.55V84.984a10.72,10.72,0,0,0,.233,2.332,22.029,22.029,0,0,0,1.75-3.616l5.249-16.448a76.913,76.913,0,0,0,2.917-18.315" transform="translate(-460.502 618.66)" fill="#fff"/>
  </g>
</svg>
