<svg id="グループ_81" data-name="グループ 81" xmlns="http://www.w3.org/2000/svg" width="77.198" height="728.198" viewBox="0 0 77.198 728.198">
  <g id="グループ_124" data-name="グループ 124" transform="translate(0 0)">
    <path id="パス_34" data-name="パス 34" d="M53.173,35.98H76.287V49.189h-6.6V104.3H58.639V49.189H52.491q-1.255,20.153-4.271,32.45a80.753,80.753,0,0,1-9.28,22.66L30.97,94.163a96.607,96.607,0,0,0,5.579-13.207l-5.92,9.338a41.385,41.385,0,0,1-4.441-7.515v22.545H14.8V82.778A51.233,51.233,0,0,1,5.921,99.517L0,88.244A68.642,68.642,0,0,0,11.842,68.432H2.05V56.361H14.8V50.213H2.05V38.486H9.223Q8.083,30.971,6.49,23.114h-4.1V10.931H14.8V0H26.188V10.931H40.535V23.114H36.549q-1.365,8.429-3.188,15.372h6.945V50.213H26.188v6.147H39.282V68.432H27.327q3.756,5.236,9.336,12.3.795-2.5,1.48-5.123A151.383,151.383,0,0,0,41.56,51.125Q42.7,35.753,42.7,9.336,60.572,7.4,72.757,1.367l2.733,13.207a90.674,90.674,0,0,1-21.975,6.719ZM19.356,38.486h3.53a157.135,157.135,0,0,0,3.643-15.372H16.852q1.365,7.857,2.5,15.372" transform="translate(0)" fill="#fff"/>
    <path id="パス_35" data-name="パス 35" d="M140.17,65.911l10.7,2.391L147,85.5q-4.1,12.98-17.65,14.119H117.4q-14.346-1.367-15.485-15.6V5.337h11.044V84.015q.227,4.1,4.441,4.441h11.955a8.022,8.022,0,0,0,6.832-5.465Z" transform="translate(-88.249 120.668)" fill="#fff"/>
    <path id="パス_36" data-name="パス 36" d="M197.1,97.829q-13.321-1.937-14.007-15.487V11.635h11.047V82.342a4.173,4.173,0,0,0,2.96,4.441,8.247,8.247,0,0,0,5.693-5.58l4.441-15.941,10.587,2.961-4.44,15.941a20.9,20.9,0,0,1-5.921,9.45A16.331,16.331,0,0,1,197.1,97.829M235.47,23.135,243.44,43.4a72.991,72.991,0,0,1,4.1,21.292V87.011H236.381V64.694a62.805,62.805,0,0,0-3.3-17.193l-7.97-20.381Z" transform="translate(-177.172 237.175)" fill="#fff"/>
    <path id="パス_37" data-name="パス 37" d="M282.226,33.755v70.822h-10.7V58.462a15.6,15.6,0,0,1-3.073,7.856l-3.3-17.078Q273.573,28.859,276.42.962l9.907.911q-.115,2.278-.342,4.44a163.807,163.807,0,0,0,29.035-4.9l1.822,11.272q-6.378,1.6-11.159,2.506v5.92h10.7v2.62h2.961q.111-13.665.113-22.773h10.361q0,8.882-.227,22.773h12.752v9.109q0,26.758-.228,39.625a190.236,190.236,0,0,1-1.195,20.21q-.968,7.345-2.335,8.481a6.924,6.924,0,0,1-4.44,1.139,60.083,60.083,0,0,1-10.362-1.139l-.113-11.044a122.924,122.924,0,0,1-4.554,14.348l-5.58-5.124a266.661,266.661,0,0,1-30.287,4.1l-.569-11.727q6.259-.453,11.613-1.024V85.561H283.708V75.086H294.3V70.759H284.049V35.918H294.3V31.7H283.934V24.3q-.8,4.9-1.708,9.451m12.07-12.64V16.788q-3.3.457-7.629.683l-.911-8.312q-.683,6.263-1.48,11.955Zm.569,23.912h-2.278v4.9h2.278Zm0,11.841h-2.278v4.9h2.278Zm10.362-6.945h2.5v-4.9h-2.5Zm0,11.842h2.5v-4.9h-2.5ZM313.88,31.7h-8.2v4.213h8.2ZM319,36.259H315.93v34.5H305.683v4.327h9.11v7.63q3.3-16.74,4.212-46.457M305.683,89.434q.342-.113,3.53-.57t4.326-.682q.342-1.367.683-2.62h-8.54Zm24.025-.342q.453,0,.968-2.562t.739-12.98q.226-10.42.228-30.459V36.259h-2.277q-.8,26.076-3.076,41.1-.912,5.58-2.049,10.7a23.741,23.741,0,0,0,5.465,1.024" transform="translate(-265.148 362.568)" fill="#fff"/>
    <path id="パス_38" data-name="パス 38" d="M375.985,99.913Q361.75,98.544,360.5,84.427V69.51h11.046V84.427a4.375,4.375,0,0,0,4.441,4.441h17.079V99.913Zm20.153-37.121-2.391-11.955H370.177V39.679h21.406l-2.96-14.915H372.34V13.718h14.005l-1.252-6.832L395.91,4.724l1.822,8.994h17.534V24.764H399.9l2.96,14.915h14.689V50.837H405.018l2.05,9.907A15.062,15.062,0,0,1,404.222,73.5a9.339,9.339,0,0,1-6.718,2.96,7.238,7.238,0,0,0-1.139-.115l-6.49-.569,1.252-11.16,5.123.57a8.355,8.355,0,0,0-.113-2.391" transform="translate(-350.877 495.461)" fill="#fff"/>
    <path id="パス_39" data-name="パス 39" d="M478.575,101.084l-.456-13.664q10.816,1.14,15.827,1.139a3.776,3.776,0,0,0,3.473-2.163q1.195-2.163,1.935-9.336t.739-21.521v-.91H476.64q-1.824,16.51-7.175,27.781a79.923,79.923,0,0,1-16.054,21.975L445.669,93a65.476,65.476,0,0,0,12.639-16.169,63.141,63.141,0,0,0,5.921-19.13q1.82-11.273,1.821-30.059H445.441V14.776h30.515V.087h12.07V14.776h30.628V27.642H478.232q0,8.2-.341,14.005h34.045V51.78q0,11.615-.284,19.528t-1.082,13.663a59.52,59.52,0,0,1-1.822,9.053,11.461,11.461,0,0,1-3.074,5.182,10.116,10.116,0,0,1-4.213,2.447,22.486,22.486,0,0,1-5.579.569,139.1,139.1,0,0,1-17.307-1.138" transform="translate(-442.367 623.814)" fill="#fff"/>
  </g>
</svg>
