<svg xmlns="http://www.w3.org/2000/svg" xmlns:xlink="http://www.w3.org/1999/xlink" width="170" height="105" viewBox="0 0 170 105">
  <defs>
    <clipPath id="clip-path">
      <rect id="長方形_22386" data-name="長方形 22386" width="170" height="105" transform="translate(313.611 2182.611)" fill="#fff" stroke="#707070" stroke-width="1"/>
    </clipPath>
  </defs>
  <g id="グループ_26833" data-name="グループ 26833" transform="translate(8227 7901)">
    <g id="グループ_26832" data-name="グループ 26832">
      <g id="グループ_26831" data-name="グループ 26831">
        <g id="グループ_26830" data-name="グループ 26830">
          <g id="グループ_26829" data-name="グループ 26829" transform="translate(-8540.611 -10083.611)" clip-path="url(#clip-path)">
            <g id="グループ_26827" data-name="グループ 26827" transform="translate(7 19.091)">
              <g id="楕円形_114" data-name="楕円形 114" transform="translate(314.611 2184.521)" fill="none" stroke="#282828" stroke-width="5">
                <circle cx="33.5" cy="33.5" r="33.5" stroke="none"/>
                <circle cx="33.5" cy="33.5" r="31" fill="none"/>
              </g>
              <path id="パス_212" data-name="パス 212" d="M367.111,2237.779v-38.238" transform="translate(-19.045 -5.416)" fill="none" stroke="#282828" stroke-linecap="round" stroke-linejoin="round" stroke-width="4"/>
              <circle id="楕円形_115" data-name="楕円形 115" cx="3.5" cy="3.5" r="3.5" transform="translate(344.611 2214.521)" fill="#282828"/>
              <path id="パス_215" data-name="パス 215" d="M6.986-1.736H3.318L2.73,0H.224L3.78-9.828H6.552L10.108,0H7.574ZM6.37-3.584l-1.218-3.6-1.2,3.6ZM21.9-9.828V0H19.5V-5.894L17.3,0H15.372L13.16-5.908V0H10.766V-9.828h2.828l2.758,6.8,2.73-6.8Z" transform="translate(351.611 2222.521)" fill="#282828"/>
            </g>
            <g id="グループ_26828" data-name="グループ 26828" transform="translate(97 19.091)">
              <g id="楕円形_116" data-name="楕円形 116" transform="translate(314.611 2184.521)" fill="none" stroke="#282828" stroke-width="5">
                <circle cx="33.5" cy="33.5" r="33.5" stroke="none"/>
                <circle cx="33.5" cy="33.5" r="31" fill="none"/>
              </g>
              <path id="パス_213" data-name="パス 213" d="M367.111,2221.168v-21.627" transform="translate(-19.045 -5.416)" fill="none" stroke="#282828" stroke-linecap="round" stroke-linejoin="round" stroke-width="4"/>
              <circle id="楕円形_117" data-name="楕円形 117" cx="3.5" cy="3.5" r="3.5" transform="translate(344.611 2214.521)" fill="#282828"/>
              <path id="パス_214" data-name="パス 214" d="M8.358-6.664A3.165,3.165,0,0,1,7.966-5.1a2.882,2.882,0,0,1-1.2,1.141,4.239,4.239,0,0,1-2.016.434H3.262V0H.868V-9.828H4.746a4.413,4.413,0,0,1,1.988.406A2.79,2.79,0,0,1,7.952-8.3,3.255,3.255,0,0,1,8.358-6.664ZM4.564-5.432a1.428,1.428,0,0,0,1.022-.322,1.2,1.2,0,0,0,.336-.91,1.2,1.2,0,0,0-.336-.91A1.428,1.428,0,0,0,4.564-7.9h-1.3v2.464Zm15.75-4.4V0H17.92V-5.894L15.722,0H13.79L11.578-5.908V0H9.184V-9.828h2.828l2.758,6.8,2.73-6.8Z" transform="translate(352.611 2222.521)" fill="#282828"/>
            </g>
            <path id="多角形_6" data-name="多角形 6" d="M5,0l5,9H0Z" transform="translate(405.111 2232.111) rotate(90)" fill="#282828"/>
          </g>
        </g>
      </g>
    </g>
  </g>
</svg>
