<svg xmlns="http://www.w3.org/2000/svg" xmlns:xlink="http://www.w3.org/1999/xlink" width="105" height="105" viewBox="0 0 105 105">
  <defs>
    <clipPath id="clip-path">
      <rect id="長方形_22385" data-name="長方形 22385" width="105" height="105" transform="translate(314.611 2184.611)" fill="#fff" stroke="#707070" stroke-width="1"/>
    </clipPath>
  </defs>
  <g id="グループ_26826" data-name="グループ 26826" transform="translate(8196 8077)">
    <g id="マスクグループ_46" data-name="マスクグループ 46" transform="translate(-8510.611 -10261.611)" clip-path="url(#clip-path)">
      <g id="グループ_26825" data-name="グループ 26825" transform="translate(0 20)">
        <path id="パス_210" data-name="パス 210" d="M1.035-14.375v-2.392H5.819V0H3.174V-14.375ZM15.64-12.88a5.315,5.315,0,0,1,2.587.621,4.42,4.42,0,0,1,1.794,1.84,6.14,6.14,0,0,1,.656,2.944V0h-2.6V-7.084a3.678,3.678,0,0,0-.851-2.61A3.029,3.029,0,0,0,14.9-10.6a3.066,3.066,0,0,0-2.335.908,3.647,3.647,0,0,0-.862,2.61V0H9.085V-17.02h2.622V-11.2a4.4,4.4,0,0,1,1.69-1.242A5.652,5.652,0,0,1,15.64-12.88Z" transform="translate(397.611 2266.611)" fill="#282828"/>
        <path id="パス_209" data-name="パス 209" d="M9.982-9.085h2.9V-7.2l-3.887.046L8.28-5.8v.69h4.6V-3.22H8.28V0H5.658V-3.22h-4.6V-5.106h4.6V-5.8L4.945-7.153,1.058-7.2V-9.085H3.933l-3.588-6.9H3.266l3.68,7.8,3.68-7.8H13.57Zm4.278-5.29v-2.392h4.784V0H16.4V-14.375Zm18.515-.138h-7.7v4.577a3.643,3.643,0,0,1,1.438-1.081,4.832,4.832,0,0,1,2.035-.437,5.443,5.443,0,0,1,3.139.828,4.638,4.638,0,0,1,1.725,2.093,6.978,6.978,0,0,1,.517,2.668A6.723,6.723,0,0,1,33.27-2.84,4.875,4.875,0,0,1,31.314-.759,6.221,6.221,0,0,1,28.129,0,6.159,6.159,0,0,1,24.1-1.242a5.029,5.029,0,0,1-1.817-3.289H24.84a2.844,2.844,0,0,0,1.127,1.714,3.63,3.63,0,0,0,2.185.633A2.993,2.993,0,0,0,30.6-3.174,3.988,3.988,0,0,0,31.418-5.8a3.585,3.585,0,0,0-.828-2.542,3.178,3.178,0,0,0-2.438-.885,3.127,3.127,0,0,0-1.9.563,3.156,3.156,0,0,0-1.115,1.53H22.655v-9.683h10.12Zm3.2,5.911a12.11,12.11,0,0,1,1.345-6.222q1.345-2.242,4.635-2.242t4.634,2.242A12.11,12.11,0,0,1,47.932-8.6a12.35,12.35,0,0,1-1.346,6.291Q45.241-.046,41.952-.046T37.317-2.312A12.35,12.35,0,0,1,35.972-8.6Zm9.384,0a17.439,17.439,0,0,0-.242-3.151,4.232,4.232,0,0,0-.977-2.1,2.792,2.792,0,0,0-2.185-.816,2.792,2.792,0,0,0-2.185.816,4.232,4.232,0,0,0-.978,2.1A17.439,17.439,0,0,0,38.548-8.6a19.2,19.2,0,0,0,.23,3.243,4.058,4.058,0,0,0,.978,2.116,2.852,2.852,0,0,0,2.2.805,2.852,2.852,0,0,0,2.2-.805,4.058,4.058,0,0,0,.978-2.116A19.2,19.2,0,0,0,45.356-8.6Zm4.669,0a12.11,12.11,0,0,1,1.345-6.222q1.345-2.242,4.635-2.242t4.634,2.242A12.11,12.11,0,0,1,61.985-8.6a12.35,12.35,0,0,1-1.346,6.291Q59.294-.046,56.005-.046T51.37-2.312A12.35,12.35,0,0,1,50.025-8.6Zm9.384,0a17.439,17.439,0,0,0-.242-3.151,4.232,4.232,0,0,0-.977-2.1,2.792,2.792,0,0,0-2.185-.816,2.792,2.792,0,0,0-2.185.816,4.232,4.232,0,0,0-.978,2.1A17.439,17.439,0,0,0,52.6-8.6a19.2,19.2,0,0,0,.23,3.243,4.058,4.058,0,0,0,.978,2.116,2.852,2.852,0,0,0,2.2.805,2.852,2.852,0,0,0,2.2-.805,4.058,4.058,0,0,0,.978-2.116A19.2,19.2,0,0,0,59.409-8.6Z" transform="translate(316.611 2266.611)" fill="#282828"/>
        <rect id="長方形_22384" data-name="長方形 22384" width="28.661" height="1.056" transform="translate(377.412 2266.69) rotate(-45)" fill="#282828"/>
      </g>
      <g id="楕円形_112" data-name="楕円形 112" transform="translate(316.611 2185.611)" fill="none" stroke="#282828" stroke-width="5">
        <circle cx="38.5" cy="38.5" r="38.5" stroke="none"/>
        <circle cx="38.5" cy="38.5" r="36" fill="none"/>
      </g>
      <g id="楕円形_113" data-name="楕円形 113" transform="translate(366.611 2210.611)" fill="#fff" stroke="#282828" stroke-width="5">
        <circle cx="26" cy="26" r="26" stroke="none"/>
        <circle cx="26" cy="26" r="23.5" fill="none"/>
      </g>
      <path id="パス_208" data-name="パス 208" d="M356.561,2218.976l12.126,8.079v-27.514" transform="translate(-13.626 -2.892)" fill="none" stroke="#282828" stroke-linecap="round" stroke-linejoin="round" stroke-width="4"/>
      <path id="パス_211" data-name="パス 211" d="M11.1,0H15.9V-3.942H21.06V-6.264H15.9v-1.62H21.06v-2.322H16.848l6.264-9.99H17.55l-2,4.536c-.945,2.133-1.242,2.835-1.917,4.266h-.162c-.648-1.431-.891-2.025-1.917-4.266L9.5-20.2H3.834l6.264,9.99H5.886v2.322H11.1v1.62H5.886v2.322H11.1Z" transform="translate(379.611 2247.611)" fill="#282828"/>
    </g>
  </g>
</svg>
