<svg xmlns="http://www.w3.org/2000/svg" xmlns:xlink="http://www.w3.org/1999/xlink" width="105" height="105" viewBox="0 0 105 105">
  <defs>
    <clipPath id="clip-path">
      <rect id="長方形_81" data-name="長方形 81" width="105" height="105" transform="translate(314.611 2184.611)" fill="#fff" stroke="#707070" stroke-width="1"/>
    </clipPath>
  </defs>
  <g id="マスクグループ_18" data-name="マスクグループ 18" transform="translate(-314.611 -2184.611)" clip-path="url(#clip-path)">
    <g id="グループ_172" data-name="グループ 172" transform="translate(0 20)">
      <path id="パス_182" data-name="パス 182" d="M96.255-63.71,77.625,0H60.26L48.645-44.505,37.03,0H19.55L.805-63.71h16.33L28.4-15.18l12.19-48.53h17.02L69.575-15.3,80.845-63.71Z" transform="translate(318.611 2231.611)" fill="#282828"/>
      <path id="パス_183" data-name="パス 183" d="M35.383-22.878,29.192,0H21.443L17.835-14.842,14.1,0H6.4L.164-22.878H7.175L10.414-6.519l3.854-16.359h7.421L25.584-6.6l3.2-16.277ZM47.232.328a12.628,12.628,0,0,1-6.048-1.435,10.507,10.507,0,0,1-4.223-4.1,12.251,12.251,0,0,1-1.538-6.232,12.153,12.153,0,0,1,1.558-6.211,10.572,10.572,0,0,1,4.264-4.121,12.749,12.749,0,0,1,6.068-1.435,12.749,12.749,0,0,1,6.068,1.435,10.572,10.572,0,0,1,4.264,4.121A12.153,12.153,0,0,1,59.2-11.439a12.029,12.029,0,0,1-1.578,6.212,10.674,10.674,0,0,1-4.305,4.12A12.87,12.87,0,0,1,47.232.328Zm0-6.068a4.567,4.567,0,0,0,3.424-1.476,5.864,5.864,0,0,0,1.414-4.223A5.973,5.973,0,0,0,50.7-15.662a4.439,4.439,0,0,0-3.383-1.476,4.449,4.449,0,0,0-3.4,1.456,6.017,6.017,0,0,0-1.353,4.243,6.091,6.091,0,0,0,1.333,4.223A4.313,4.313,0,0,0,47.232-5.74ZM68.716-19.065a9.249,9.249,0,0,1,3.075-2.972,7.929,7.929,0,0,1,4.1-1.087V-15.7H73.964a5.907,5.907,0,0,0-3.936,1.127q-1.312,1.128-1.312,3.957V0H61.7V-22.878h7.011ZM92,0l-6.97-9.594V0H78.023V-30.34h7.011v16.769l6.929-9.307h8.651L91.1-11.4,100.7,0Z" transform="translate(316.611 2266.611)" fill="#282828"/>
    </g>
  </g>
</svg>
