<svg xmlns="http://www.w3.org/2000/svg" xmlns:xlink="http://www.w3.org/1999/xlink" width="105" height="105" viewBox="0 0 105 105">
  <defs>
    <clipPath id="clip-path">
      <rect id="長方形_81" data-name="長方形 81" width="105" height="105" transform="translate(314.611 2184.611)" fill="#fff" stroke="#707070" stroke-width="1"/>
    </clipPath>
  </defs>
  <g id="マスクグループ_18" data-name="マスクグループ 18" transform="translate(-314.611 -2184.611)" clip-path="url(#clip-path)">
    <path id="working_shift_icon_149841" d="M12.037,94.708A10.71,10.71,0,0,1,1.2,83.847v-63.8A10.711,10.711,0,0,1,12.037,9.188h9.489V2.4h5.416V9.188H68.264V2.4h5.421V9.188h9.484A10.705,10.705,0,0,1,94.006,20.049V41.766H6.622V84.529a5.346,5.346,0,0,0,5.416,5.43h35.23a2.715,2.715,0,0,1,0,5.43Zm0-80.095a5.354,5.354,0,0,0-5.416,5.435V36.336H87.908V20.049a5.346,5.346,0,0,0-5.416-5.43H73V24.8H67.588V14.619H26.942V24.8H21.521V14.619H12.037Zm6.1,38.013H39.813v5.43H18.135v-5.43Zm0,20.364H39.813v5.43H18.135v-5.43Zm59.614,5.43V62.807h5.421V72.991h10.16v5.43Zm2.71,23.075A25.467,25.467,0,1,1,98.75,94.032,25.006,25.006,0,0,1,80.459,101.5Zm0-46.831a21.041,21.041,0,1,0,21,21.041,21.124,21.124,0,0,0-21-21.041Z" transform="translate(313.412 2185.163)" fill="#282828"/>
  </g>
</svg>
