<svg xmlns="http://www.w3.org/2000/svg" width="1500.109" height="352.988" viewBox="0 0 1500.109 352.988">
  <g id="グループ_27077" data-name="グループ 27077" transform="translate(-9.496 -3861.956)">
    <path id="パス_201" data-name="パス 201" d="M-384.047,0q-5.423,0-6.409-5.423l-66.555-333.268-.493-1.972q0-4.437,5.423-4.437h60.146q5.916,0,6.409,5.423l28.1,177.48q.493,1.972,1.479,1.972t1.479-1.972l26.622-177.48q.493-5.423,6.409-5.423h49.793q5.916,0,6.409,5.423l29.087,177.48q.493,1.972,1.479,1.972t1.479-1.972l25.143-177.48q.493-5.423,6.409-5.423h58.174q6.409,0,5.423,6.409L-200.651-5.423Q-201.144,0-207.06,0H-260.3q-5.916,0-6.409-5.423L-295.8-187.833q-.493-1.972-1.479-1.972t-1.479,1.972L-324.887-5.423Q-325.38,0-331.3,0Z" transform="translate(467 4211)" fill="#fff" opacity="0.321"/>
    <path id="パス_200" data-name="パス 200" d="M-1042.695,0q-5.423,0-6.409-5.423l-66.555-333.268-.493-1.972q0-4.437,5.423-4.437h60.146q5.916,0,6.409,5.423l28.1,177.48q.493,1.972,1.479,1.972t1.479-1.972l26.622-177.48q.493-5.423,6.409-5.423h49.793q5.916,0,6.409,5.423l29.087,177.48q.493,1.972,1.479,1.972t1.479-1.972l25.143-177.48q.493-5.423,6.409-5.423h58.174q6.409,0,5.423,6.409L-859.3-5.423Q-859.792,0-865.708,0h-53.244q-5.916,0-6.409-5.423l-29.087-182.41q-.493-1.972-1.479-1.972t-1.479,1.972L-983.535-5.423Q-984.028,0-989.944,0Zm393.414,3.944q-45.356,0-72.471-26.622T-748.867-93.67V-251.43q0-44.37,27.115-70.992t72.471-26.622q45.356,0,72.717,26.622T-549.2-251.43V-93.67q0,44.37-27.362,70.992T-649.281,3.944Zm0-59.653q13.8,0,22.185-9.613t8.381-25.39V-254.388q0-15.776-8.381-25.39t-22.185-9.613q-13.8,0-21.939,9.613t-8.134,25.39V-90.712q0,15.776,8.134,25.39T-649.281-55.709ZM-345.593,0q-5.423,0-6.9-4.93L-390.456-141q-.986-1.972-2.465-1.972h-16.762a2.179,2.179,0,0,0-2.465,2.465V-5.916a5.705,5.705,0,0,1-1.726,4.19A5.705,5.705,0,0,1-418.064,0h-57.681a5.705,5.705,0,0,1-4.19-1.726,5.705,5.705,0,0,1-1.726-4.19V-339.184a5.705,5.705,0,0,1,1.726-4.19,5.705,5.705,0,0,1,4.19-1.725h99.586q27.115,0,48.314,13.065t32.785,36.729q11.585,23.664,11.585,54.23,0,29.087-11.092,51.272t-30.812,34.51a3.721,3.721,0,0,0-1.479,1.232,1.626,1.626,0,0,0,0,1.726L-281.5-6.9l.493,1.972q0,4.93-5.423,4.93Zm-64.09-285.447a2.179,2.179,0,0,0-2.465,2.465v84.3a2.179,2.179,0,0,0,2.465,2.465H-387.5a30.364,30.364,0,0,0,24.9-12.079q9.613-12.078,9.613-32.291,0-20.706-9.613-32.785a30.364,30.364,0,0,0-24.9-12.078ZM-214.455,0a5.705,5.705,0,0,1-4.191-1.726,5.705,5.705,0,0,1-1.725-4.19V-339.184a5.705,5.705,0,0,1,1.725-4.19,5.705,5.705,0,0,1,4.191-1.725h57.681a5.705,5.705,0,0,1,4.19,1.725,5.705,5.705,0,0,1,1.726,4.19v124.236q0,1.972,1.232,2.219t1.725-1.726l63.6-126.208q2.465-4.437,6.9-4.437h61.132q3.451,0,4.683,1.725t-.246,5.177L-84.8-196.214a13.485,13.485,0,0,0-.493,2.958L-7.888-6.9a6.866,6.866,0,0,1,.493,2.958Q-7.395,0-12.325,0H-73.95q-5.423,0-6.9-4.437L-132.124-133.6q-.493-1.479-1.479-1.232a4.361,4.361,0,0,0-1.972,1.232l-14.3,25.636a7.568,7.568,0,0,0-.986,2.958V-5.916a5.705,5.705,0,0,1-1.726,4.19A5.705,5.705,0,0,1-156.774,0Z" transform="translate(1517 4211)" fill="#fff" opacity="0.321"/>
  </g>
</svg>
