<svg id="グループ_132" data-name="グループ 132" xmlns="http://www.w3.org/2000/svg" width="143" height="35" viewBox="0 0 143 35">
  <path id="パス_49" data-name="パス 49" d="M21.284,39.446A8.779,8.779,0,0,1,18.6,32.724V16.2A8.78,8.78,0,0,1,21.284,9.48a9.961,9.961,0,0,1,7.109-2.517,9.995,9.995,0,0,1,7.134,2.542,8.819,8.819,0,0,1,2.706,6.745v1.857a.587.587,0,0,1-.591.588H31.886a.587.587,0,0,1-.59-.588V16.153a3.486,3.486,0,0,0-.786-2.371,2.666,2.666,0,0,0-2.116-.9,2.605,2.605,0,0,0-2.066.9,3.478,3.478,0,0,0-.787,2.371v16.62a3.478,3.478,0,0,0,.787,2.372,2.6,2.6,0,0,0,2.066.9,2.665,2.665,0,0,0,2.116-.9,3.487,3.487,0,0,0,.786-2.372v-3.91a.216.216,0,0,0-.245-.244H28.885a.586.586,0,0,1-.59-.587V23.681a.587.587,0,0,1,.59-.587h8.758a.587.587,0,0,1,.591.587v9.043a8.742,8.742,0,0,1-2.706,6.722,10.051,10.051,0,0,1-7.134,2.516,9.96,9.96,0,0,1-7.109-2.516" transform="translate(-18.603 -6.963)" fill="#fff"/>
  <path id="パス_50" data-name="パス 50" d="M46.871,39.323a9.383,9.383,0,0,1-2.705-7.039V16.641A9.385,9.385,0,0,1,46.871,9.6,9.914,9.914,0,0,1,54.1,6.963,10,10,0,0,1,61.362,9.6a9.34,9.34,0,0,1,2.731,7.039V32.285a9.339,9.339,0,0,1-2.731,7.039A10,10,0,0,1,54.1,41.962a9.917,9.917,0,0,1-7.233-2.639m9.447-4.228a3.685,3.685,0,0,0,.837-2.517V16.348a3.685,3.685,0,0,0-.837-2.517,2.806,2.806,0,0,0-2.215-.954,2.73,2.73,0,0,0-2.189.954,3.755,3.755,0,0,0-.812,2.517V32.578a3.755,3.755,0,0,0,.812,2.517,2.726,2.726,0,0,0,2.189.953,2.8,2.8,0,0,0,2.215-.953" transform="translate(-21.19 -6.963)" fill="#fff"/>
  <path id="パス_51" data-name="パス 51" d="M83.687,39.348a9.345,9.345,0,0,1-2.681-7.014V16.495a9.2,9.2,0,0,1,2.681-6.94A9.794,9.794,0,0,1,90.8,6.963a9.867,9.867,0,0,1,7.159,2.591,9.207,9.207,0,0,1,2.681,6.94v.538a.586.586,0,0,1-.59.586l-5.757.245q-.591,0-.591-.538V16.055a3.319,3.319,0,0,0-.786-2.3,2.7,2.7,0,0,0-2.116-.88,2.64,2.64,0,0,0-2.066.88,3.311,3.311,0,0,0-.787,2.3V32.92a3.22,3.22,0,0,0,.787,2.274,2.675,2.675,0,0,0,2.066.855,2.739,2.739,0,0,0,2.116-.855A3.228,3.228,0,0,0,93.7,32.92V31.6a.587.587,0,0,1,.591-.587l5.757.245a.587.587,0,0,1,.59.587v.489a9.3,9.3,0,0,1-2.706,7.014,11.006,11.006,0,0,1-14.243,0" transform="translate(-24.919 -6.963)" fill="#fff"/>
  <path id="パス_52" data-name="パス 52" d="M120,17.742a.641.641,0,0,1,.3.733l-.935,5.721q-.05.537-.689.39a3.963,3.963,0,0,0-1.328-.2,3.787,3.787,0,0,0-1.279.2,2.612,2.612,0,0,0-1.82,1.345,5.068,5.068,0,0,0-.689,2.663V42.037a.565.565,0,0,1-.172.416.574.574,0,0,1-.419.171h-5.756a.571.571,0,0,1-.419-.171.562.562,0,0,1-.172-.416v-23.9a.564.564,0,0,1,.172-.415.575.575,0,0,1,.419-.171h5.756a.578.578,0,0,1,.419.171.568.568,0,0,1,.172.415V20.04c0,.131.024.2.074.22s.106-.024.173-.121a4.351,4.351,0,0,1,4.133-2.884,3.725,3.725,0,0,1,2.066.488" transform="translate(-27.512 -8.064)" fill="#fff"/>
  <path id="パス_53" data-name="パス 53" d="M142.018,32.079a.568.568,0,0,1-.418.171H130.776a.216.216,0,0,0-.246.244V34.3a3.082,3.082,0,0,0,.664,2.028,2.1,2.1,0,0,0,1.7.807,2.023,2.023,0,0,0,1.524-.612,3.075,3.075,0,0,0,.787-1.54.617.617,0,0,1,.64-.488l5.658.293a.575.575,0,0,1,.419.171.5.5,0,0,1,.122.464,8.056,8.056,0,0,1-2.632,5.695,9.831,9.831,0,0,1-6.519,1.931,9.969,9.969,0,0,1-6.839-2.175,7.638,7.638,0,0,1-2.461-6.038V25.357a7.655,7.655,0,0,1,2.485-5.963,11.449,11.449,0,0,1,13.628,0,7.654,7.654,0,0,1,2.484,5.963v6.306a.565.565,0,0,1-.172.415m-10.824-8.237a2.988,2.988,0,0,0-.664,2v1.907a.216.216,0,0,0,.246.244h4.231a.217.217,0,0,0,.246-.244V25.845a2.988,2.988,0,0,0-.664-2,2.233,2.233,0,0,0-3.395,0" transform="translate(-29.23 -8.053)" fill="#fff"/>
  <path id="パス_54" data-name="パス 54" d="M151.186,42.164l-5.314-24v-.2q0-.441.541-.44h5.462a.554.554,0,0,1,.639.538l2.116,13.394c.032.1.082.146.147.146s.115-.049.148-.146l2.164-13.394a.554.554,0,0,1,.64-.538h4.87a.555.555,0,0,1,.64.538l2.312,13.442c.032.1.082.139.147.122s.115-.073.148-.171l2.066-13.394a.554.554,0,0,1,.639-.538l5.412.1c.426,0,.59.213.492.635l-5.264,23.9a.589.589,0,0,1-.64.538h-5.608a.553.553,0,0,1-.639-.538L160.19,29.749c-.033-.1-.083-.146-.147-.146s-.116.048-.148.146l-2.017,12.415a.555.555,0,0,1-.64.538h-5.412a.588.588,0,0,1-.64-.538" transform="translate(-31.485 -8.093)" fill="#fff"/>
</svg>
