<svg xmlns="http://www.w3.org/2000/svg" width="551.283" height="244.091" viewBox="0 0 551.283 244.091">
  <g id="グループ_26413" data-name="グループ 26413" transform="translate(-3648.58 946.091)">
    <g id="グループ_26411" data-name="グループ 26411" transform="translate(3646.719 -987.06)">
      <path id="パス_177" data-name="パス 177" d="M43.818-59.078a60.426,60.426,0,0,1,.763,9.81c0,17.876-2.616,29.43-16.459,39.022A43.07,43.07,0,0,1,16.677-4.251L29.321,6.1c29.757-15.914,30.3-38.15,30.3-65.182ZM95.375-81.859c-1.962.654-7.957.981-11.009.981H25.615a86.413,86.413,0,0,1-13.3-1.09v15.151c5.123-.436,8.72-.763,13.3-.763H82.4C79.57-62.239,71.068-52.647,62.348-47.306l11.227,9.047c10.791-7.63,21.146-21.364,26.269-29.866a54.881,54.881,0,0,1,4.251-5.668ZM114.668,4.8a63.135,63.135,0,0,0,19.4-31.283c2.943-11.009,3.27-34.008,3.27-46.87a69.517,69.517,0,0,1,.763-9.81H122.08a39.787,39.787,0,0,1,.981,9.919c0,13.189-.109,33.79-3.161,43.164-3.052,9.265-8.938,19.293-18.53,26.051Zm46.216.327a27.788,27.788,0,0,1,4.8-3.27c12.208-6.213,27.9-17.985,36.951-29.757l-8.393-11.99c-7.3,10.573-18.094,19.184-26.923,23V-73.9a55.348,55.348,0,0,1,.763-9.483H151.837a48.323,48.323,0,0,1,.872,9.374v63.547a41.477,41.477,0,0,1-.872,8.066ZM281.329-79.461a36.537,36.537,0,0,1-8.611.872H222.36c-3.6,0-9.81-.545-13.08-.872v15.369c2.834-.218,8.066-.436,12.971-.436h50.794c-1.417,9.265-5.559,21.691-12.753,30.738C251.463-22.781,239.146-13.3,217.564-8.284L229.445,4.8c19.4-6.213,33.9-17,43.818-30.084,9.047-12.1,13.843-28.994,16.35-39.676a44.389,44.389,0,0,1,2.4-7.63Z" transform="translate(0.281 126.06)" fill="#282828"/>
      <path id="パス_180" data-name="パス 180" d="M64.227-45.5a44.159,44.159,0,0,1-7.663.632H21.33a63.542,63.542,0,0,1-8.769-.711v12.166a87.321,87.321,0,0,1,8.769-.474H53.562c-1.659,2.923-6.083,7.663-10.033,10.665.158-2.528.237-5.056.316-7.584H30.652a29.971,29.971,0,0,1,.711,6.162c0,9.8-1.738,15.8-9.717,21.33A32.821,32.821,0,0,1,14.615.474L24.648,8.453C40.527-.237,42.9-11.771,43.529-23.068l9.4,6.478c4.819-3.95,12.561-14.062,15.563-18.881A34.108,34.108,0,0,1,71.258-39.1Z" transform="translate(294.281 123.06)" fill="#282828"/>
      <path id="パス_179" data-name="パス 179" d="M8.924-29.682c3.589-.291,10.088-.485,15.617-.485H76.63c4.074,0,9.021.388,11.349.485V-44.911c-2.522.194-6.887.582-11.349.582H24.541c-5.044,0-12.125-.291-15.617-.582Z" transform="translate(374.281 125.06)" fill="#282828"/>
      <path id="パス_178" data-name="パス 178" d="M98.863-70.959A144.355,144.355,0,0,0,88.617-87.091L79.57-82.84A102.058,102.058,0,0,1,89.707-66.49ZM84.257-64.637c-2.507-4.9-6.867-11.881-9.919-16.459l-9.156,3.924a88.809,88.809,0,0,1,9.592,16.786ZM45.78-71.5a118.541,118.541,0,0,1,.981-13.189h-17A76.915,76.915,0,0,1,30.847-71.5V-8.829a118.03,118.03,0,0,1-1.09,15.151H46.87c-.545-4.469-1.09-12.1-1.09-15.151V-39.676C57.552-35.752,73.9-29.43,85.238-23.435l6.1-15.151c-10.028-4.9-31.065-12.644-45.562-17Z" transform="translate(454.281 128.06)" fill="#282828"/>
    </g>
    <g id="グループ_26412" data-name="グループ 26412" transform="translate(3646.719 -888.042)">
      <path id="パス_183" data-name="パス 183" d="M20.224-66.755C16.116-55.537,8.927-44.319,1.58-37.209a62.8,62.8,0,0,1,5.056,9.638,90.027,90.027,0,0,0,6-7.031V6.715h8.927V-48.348a132.091,132.091,0,0,0,7.347-15.563Zm19.2,11.534H62.568v10.586H39.421ZM75.84-20.7V-29.23H55.458v-7.11H71.969v-27.1H30.494v27.1H45.978v7.11H25.28V-20.7H41.475A56.753,56.753,0,0,1,22.436-3.634a38.8,38.8,0,0,1,6.478,7.5A63.35,63.35,0,0,0,45.978-13.114V6.873h9.48V-13.509c4.5,7.031,10.27,13.43,16.037,17.538a39.995,39.995,0,0,1,6.636-7.5A59.453,59.453,0,0,1,60.04-20.7Zm59.8-8.374H107.124v-5.056h28.519ZM107.124-16.116v-5.135h28.519v5.135Zm46.531-32.469v-8.848H115.1c.948-2.449,1.738-4.9,2.528-7.347l-9.717-2.212a78.817,78.817,0,0,1-3.081,9.559H83.582v8.848h17.3c-4.74,9.164-11.3,17.459-19.671,23.068a52.946,52.946,0,0,1,6.162,7.189A57.9,57.9,0,0,0,97.8-27.571V6.794h9.322V-8.3h28.519v4.74c0,1.106-.474,1.5-1.817,1.58-1.343,0-5.925,0-9.954-.237a38.992,38.992,0,0,1,2.844,9.085c6.4,0,10.9-.079,13.983-1.58,3.239-1.422,4.108-3.95,4.108-8.611V-42.344H108.23a66.049,66.049,0,0,0,3.16-6.241Zm46.689,30.257v-7.584c.474.474.79.869,1.106,1.185a50.113,50.113,0,0,0,3.634-5.688,83.634,83.634,0,0,0,5.372,15.563,38.808,38.808,0,0,1-13.9,11.929,73.577,73.577,0,0,0-6.557-4.187,31.928,31.928,0,0,0,4.187-11.218Zm-22.673,0h7.663a24.02,24.02,0,0,1-3,7.189c-2.291-1.106-4.582-2.054-6.952-3ZM220.173-44a84.53,84.53,0,0,1-4.266,18.565A99.682,99.682,0,0,1,211.088-44Zm14.141,0v-8.69H213.3c1.027-4.187,1.9-8.532,2.528-12.956l-9.48-1.264c-1.9,14.062-5.688,27.492-12.4,35.55a54.776,54.776,0,0,1,6.4,5.451h-18.8l1.9-3.792-3.4-.711H185.1v-9.559c3.081,2.449,6.4,5.214,8.137,6.873l4.977-6.478c-1.738-1.185-7.347-4.5-11.139-6.636h12.956v-7.426h-7.505c1.9-2.449,4.345-5.767,6.794-9.164l-7.9-3.16a76.308,76.308,0,0,1-5.293,10.033l5.214,2.291H185.1V-66.913h-8.611v13.272H169.85l5.056-2.212a33.657,33.657,0,0,0-4.74-9.8l-6.794,2.844a42.084,42.084,0,0,1,4.108,9.164h-6v7.426H173.8a41.967,41.967,0,0,1-13.9,9.875,28.422,28.422,0,0,1,4.74,6.794,56.938,56.938,0,0,0,11.85-9.164v7.584l-1.738-.4c-.79,1.738-1.738,3.634-2.686,5.609H160.607v7.584h7.505c-1.975,3.792-3.95,7.347-5.688,10.112l8.216,2.528.869-1.5a45.555,45.555,0,0,1,4.424,2.133c-3.713,2.054-8.69,3.4-15.01,4.187a21.723,21.723,0,0,1,3.713,7.821c8.453-1.738,14.773-4.029,19.434-7.505a74.865,74.865,0,0,1,8.216,5.925l3.555-3.634a35.674,35.674,0,0,1,3,5.372A51.311,51.311,0,0,0,215.512-5.846,42.879,42.879,0,0,0,228.784,6.715a36.276,36.276,0,0,1,6.478-8.137,37.078,37.078,0,0,1-13.983-13.114c4.266-7.979,6.952-17.775,8.611-29.467Z" transform="translate(0.281 142.042)" fill="#282828"/>
      <path id="パス_181" data-name="パス 181" d="M101.232,0H79.952L31.768-72.808V0H10.488V-106.248h21.28l48.184,72.96v-72.96h21.28ZM155.04,1.368a44.354,44.354,0,0,1-21.888-5.4A38.855,38.855,0,0,1,117.876-19.3a45.773,45.773,0,0,1-5.548-22.8,44.8,44.8,0,0,1,5.7-22.8,39.61,39.61,0,0,1,15.58-15.276,45.218,45.218,0,0,1,22.04-5.4,45.218,45.218,0,0,1,22.04,5.4A39.61,39.61,0,0,1,193.268-64.9a44.8,44.8,0,0,1,5.7,22.8,43.887,43.887,0,0,1-5.852,22.8A40.524,40.524,0,0,1,177.308-4.028,45.967,45.967,0,0,1,155.04,1.368Zm0-18.544a22.137,22.137,0,0,0,10.868-2.812,20.436,20.436,0,0,0,8.132-8.436,28.429,28.429,0,0,0,3.04-13.68q0-12.008-6.308-18.468a20.736,20.736,0,0,0-15.428-6.46,20.248,20.248,0,0,0-15.276,6.46q-6.156,6.46-6.156,18.468t6,18.468A19.769,19.769,0,0,0,155.04-17.176Zm64.448,18.24a13.164,13.164,0,0,1-9.5-3.572,11.819,11.819,0,0,1-3.724-8.892,11.819,11.819,0,0,1,3.724-8.892,13.164,13.164,0,0,1,9.5-3.572,12.7,12.7,0,0,1,9.272,3.572,11.94,11.94,0,0,1,3.648,8.892,11.94,11.94,0,0,1-3.648,8.892A12.7,12.7,0,0,1,219.488,1.064Z" transform="translate(255.281 182.042)" fill="#282828"/>
      <path id="パス_182" data-name="パス 182" d="M20.748-100.62q-1.716.936-9.048,4.056Q10.452-96.1,7.8-95a45.514,45.514,0,0,0-4.368,2.028V-112.32q18.72-9.672,22.932-14.04H46.8V0H20.748Z" transform="translate(492.281 186.042)" fill="#282828"/>
      <path id="パス_184" data-name="パス 184" d="M6.95-2.75v-5.6h11.1v5.6Zm11.1-13.925V-11.3H6.95v-5.375Zm-14.175-3V1.875H6.95V.25h11.1V1.825h3.2v-21.5ZM39.05-5.075v-5.5a27.863,27.863,0,0,0,3.975,5.5Zm-7.05,0a29.132,29.132,0,0,0,3.925-5.45v5.45Zm16.525-8.25v-3H39.05V-21.15H35.925v4.825h-9.4v3H34.15a22.208,22.208,0,0,1-8.6,9.375,14.7,14.7,0,0,1,2.175,2.475,22.3,22.3,0,0,0,3.9-3.2V-2.05h4.3V2.175H39.05V-2.05H43.2V-4.9a20.453,20.453,0,0,0,4.075,3.35,12.639,12.639,0,0,1,2.3-2.7,21.839,21.839,0,0,1-8.725-9.075Zm16.35-.35A38.186,38.186,0,0,1,71.225-8.1l2.65-2.05A40.951,40.951,0,0,0,67.4-15.4h6.15v-2.9H63.975v-2.9h-3.05v2.9h-9.45v2.9H67.25ZM57.45-15.2a19.169,19.169,0,0,1-6.325,5.025,24.34,24.34,0,0,1,2.5,2.3A28.018,28.018,0,0,0,60.525-14Zm8,4.275A13.809,13.809,0,0,1,62.525-6.15a14.873,14.873,0,0,1-2.875-4.625l-2.85.85a21.432,21.432,0,0,0,3.45,5.75,24.755,24.755,0,0,1-9.425,3.6,16.106,16.106,0,0,1,1.875,2.8A27.334,27.334,0,0,0,62.45-2.05,21.606,21.606,0,0,0,72.3,2.175,13.438,13.438,0,0,1,74.225-.65a21.8,21.8,0,0,1-9.4-3.5A18.547,18.547,0,0,0,68.65-10Zm24.25-1.85v1.35H86.825v-1.35Zm5.6,1.35H92.35v-1.35H95.3ZM92.35-7.95v-1.4H95.3v1.4Zm-5.525,0v-1.4H89.7v1.4Zm0,2.15H89.7v3.65h2.65V-5.8H95.3v1.15c0,.25-.075.35-.375.375-.25,0-1.125,0-1.9-.025a8.129,8.129,0,0,1,.725,2.325A7.524,7.524,0,0,0,97.125-2.4c.8-.4,1.025-1.025,1.025-2.225v-10.3H95.125c-.425-.25-.95-.5-1.5-.775a28.455,28.455,0,0,0,4.45-3.375L96.3-20.5l-.575.15H84.25v2.25h8.9a23.1,23.1,0,0,1-2,1.325c-1.025-.45-2.075-.85-2.95-1.175l-1.925,1.6c1.025.4,2.225.9,3.35,1.425h-5.6V-2.05h2.8Zm-4.175-11a21.413,21.413,0,0,0-4.35-3.85l-2.05,1.9a20.294,20.294,0,0,1,4.175,4.075Zm-.75,5.325H75.875V-8.75H79.05V-3.3a34.412,34.412,0,0,1-3.5,2.275L76.925,1.95c1.4-1.05,2.575-2.025,3.725-3,1.5,1.925,3.475,2.65,6.475,2.775,3.05.125,8.35.075,11.425-.075a12.285,12.285,0,0,1,.925-2.9c-3.425.275-9.35.35-12.325.225-2.55-.1-4.275-.8-5.25-2.475Zm39.55-5.575a36.6,36.6,0,0,0-1.975-3.425l-1.975.8a28.991,28.991,0,0,1,1.825,3.225l-.175-.1a7.875,7.875,0,0,1-2.175.3H111.95l.075-.125c.3-.55.95-1.675,1.55-2.55l-3.675-1.2a10.93,10.93,0,0,1-1.125,2.625,21.39,21.39,0,0,1-7.8,8.025l2.8,2.1a27.447,27.447,0,0,0,6.3-6.05h7.05a17.685,17.685,0,0,1-3.55,6.8A20,20,0,0,1,103.5-.425l2.95,2.65A23.284,23.284,0,0,0,116.525-4.85,25.231,25.231,0,0,0,120.9-13.2a10.593,10.593,0,0,1,.825-1.775l-2.125-1.3Zm-1-3.75a23.793,23.793,0,0,1,2,3.45l2-.85a35.7,35.7,0,0,0-2.025-3.4Zm8.6,21.9a14.481,14.481,0,0,0,4.45-7.175c.675-2.525.75-7.8.75-10.75a15.942,15.942,0,0,1,.175-2.25H130.75a9.126,9.126,0,0,1,.225,2.275c0,3.025-.025,7.75-.725,9.9A11.794,11.794,0,0,1,126-.925Zm10.6.075a6.374,6.374,0,0,1,1.1-.75A27.527,27.527,0,0,0,149.225-6.4L147.3-9.15a15.831,15.831,0,0,1-6.175,5.275V-16.95a12.693,12.693,0,0,1,.175-2.175h-3.725a11.082,11.082,0,0,1,.2,2.15V-2.4a9.513,9.513,0,0,1-.2,1.85ZM152.3-7.65c.925-.075,2.6-.125,4.025-.125H169.75c1.05,0,2.325.1,2.925.125v-3.925c-.65.05-1.775.15-2.925.15H156.325c-1.3,0-3.125-.075-4.025-.15Zm42.725-9.25a1.446,1.446,0,0,1-1.45-1.425,1.451,1.451,0,0,1,1.45-1.45,1.446,1.446,0,0,1,1.425,1.45A1.441,1.441,0,0,1,195.025-16.9Zm-15.95-.85a27.836,27.836,0,0,1-2.975-.2v3.525c.65-.05,1.825-.1,2.975-.1h11.65a16.054,16.054,0,0,1-2.95,7.05c-2.025,2.55-4.825,4.7-9.8,5.875L180.7,1.375a19.785,19.785,0,0,0,10.05-6.9c2.1-2.775,3.175-6.65,3.75-9.1l.2-.75a1.426,1.426,0,0,0,.325.025A3,3,0,0,0,198-18.325a3,3,0,0,0-2.975-3,3.009,3.009,0,0,0-3,3,2.77,2.77,0,0,0,.05.475,11.067,11.067,0,0,1-1.425.1Zm24.675,3.625h5.7c-.125,3.075-.975,6.775-5.7,9.225Zm17.55-2.9h-8.75v-4.15h-3.075v4.15h-8.7V2.225h2.975v-7.05a12.1,12.1,0,0,1,2.075,2.2,12.976,12.976,0,0,0,5.375-5.75,52.286,52.286,0,0,1,4.7,5.225l2.45-1.925a62.464,62.464,0,0,0-6.175-6.225,18.946,18.946,0,0,0,.35-2.825h5.825V-1.3c0,.45-.15.575-.625.6-.475,0-2.15.025-3.625-.05a9.75,9.75,0,0,1,.975,2.95c2.225,0,3.825-.05,4.85-.525,1.05-.475,1.375-1.3,1.375-2.9Z" transform="translate(2.281 181.042)" fill="#282828"/>
    </g>
  </g>
</svg>
