<svg xmlns="http://www.w3.org/2000/svg" width="220.518" height="48.231" viewBox="0 0 220.518 48.231">
  <g id="グループ_26414" data-name="グループ 26414" transform="translate(-3745.794 457.231)">
    <g id="グループ_26410" data-name="グループ 26410" transform="translate(3743.719 -481)">
      <path id="パス_185" data-name="パス 185" d="M34.293-9.177H15.111L11.937,0H1.794L19.113-48.231H30.36L47.679,0H37.467Zm-2.622-7.728L24.7-37.053,17.733-16.905Z" transform="translate(0.281 72)" fill="#282828"/>
      <path id="LPHARD" d="M158.884.5H147.16V-32.608h11.724a19.759,19.759,0,0,1,9.13,2.033,14.687,14.687,0,0,1,6.139,5.831,17.354,17.354,0,0,1,2.159,8.735,17.1,17.1,0,0,1-2.16,8.692,14.771,14.771,0,0,1-6.138,5.783A19.759,19.759,0,0,1,158.884.5ZM148.16-.5h10.724a18.773,18.773,0,0,0,8.672-1.923,13.787,13.787,0,0,0,5.73-5.4,16.116,16.116,0,0,0,2.026-8.19,16.369,16.369,0,0,0-2.027-8.239,13.7,13.7,0,0,0-5.729-5.439,18.773,18.773,0,0,0-8.672-1.923H148.16Zm-5.1,1h-8.619l-7.084-12.512h-2.244V.5h-7.44V-32.608h12.552a14.628,14.628,0,0,1,6.572,1.364,9.691,9.691,0,0,1,4.14,3.736,10.2,10.2,0,0,1,1.38,5.244,10.093,10.093,0,0,1-1.934,6.019,9.726,9.726,0,0,1-5.122,3.527Zm-8.036-1h6.285l-7.572-12.832.637-.169a9.01,9.01,0,0,0,5.2-3.328,9.112,9.112,0,0,0,1.746-5.435A9.217,9.217,0,0,0,140.076-27a8.709,8.709,0,0,0-3.726-3.348,13.648,13.648,0,0,0-6.124-1.258H118.674V-.5h5.44V-13.012h3.827ZM114.561.5h-7.875L104.57-5.618H92.494L90.378.5H82.549L94.454-32.654h8.2ZM107.4-.5h5.741L101.952-31.654H95.158L83.971-.5h5.7l2.116-6.118h13.5ZM79.39.5H71.95V-13.162H59.2V.5h-7.44V-32.608H59.2v13.2H71.95v-13.2h7.44Zm-6.44-1h5.44V-31.608H72.95v13.2H58.2v-13.2h-5.44V-.5H58.2V-14.162H72.95ZM31.228.5h-7.44V-32.608H36.11a14.842,14.842,0,0,1,6.568,1.339,9.5,9.5,0,0,1,4.145,3.739A10.506,10.506,0,0,1,48.2-22.172,10.539,10.539,0,0,1,46.923-17.1,9.483,9.483,0,0,1,42.9-13.266a14.438,14.438,0,0,1-6.789,1.438H31.228Zm-6.44-1h5.44V-12.828H36.11a13.466,13.466,0,0,0,6.321-1.322,8.5,8.5,0,0,0,3.613-3.43A9.55,9.55,0,0,0,47.2-22.172a9.519,9.519,0,0,0-1.243-4.855,8.522,8.522,0,0,0-3.721-3.345,13.862,13.862,0,0,0-6.128-1.237H24.788ZM20.694.5H2.674V-32.608h7.44v27h10.58ZM3.674-.5h16.02V-4.606H9.114v-27H3.674Zm154.98-4.474H153.6V-27.18h5.054c3.5,0,6.249,1,8.178,2.98a11.28,11.28,0,0,1,2.9,8.192c0,3.464-.978,6.2-2.906,8.128S162.149-4.974,158.654-4.974Zm-4.054-1h4.054c3.22,0,5.732-.879,7.466-2.614s2.614-4.231,2.614-7.42a10.323,10.323,0,0,0-2.618-7.494c-1.734-1.777-4.244-2.678-7.462-2.678H154.6Zm-50.72-4.8h-10.7l5.348-15.462Zm-9.292-1h7.888l-3.944-11.4ZM130-16.842h-5.882v-10.43H130a6,6,0,0,1,4.254,1.356,4.989,4.989,0,0,1,1.444,3.79,5.207,5.207,0,0,1-1.438,3.876A5.871,5.871,0,0,1,130-16.842Zm-4.882-1H130a4.935,4.935,0,0,0,3.56-1.122,4.2,4.2,0,0,0,1.138-3.162,3.982,3.982,0,0,0-1.132-3.064A5.066,5.066,0,0,0,130-26.272h-4.882Zm-89.28.816H30.228V-27.364h5.606a6.236,6.236,0,0,1,4.266,1.3,4.973,4.973,0,0,1,1.478,3.892,4.989,4.989,0,0,1-1.444,3.79A6.074,6.074,0,0,1,35.834-17.026Zm-4.606-1h4.606a5.142,5.142,0,0,0,3.612-1.082,3.982,3.982,0,0,0,1.132-3.064,3.978,3.978,0,0,0-1.144-3.146,5.3,5.3,0,0,0-3.6-1.046H31.228Z" transform="translate(46.281 61)" fill="#707070"/>
    </g>
  </g>
</svg>
