<svg xmlns="http://www.w3.org/2000/svg" width="649.124" height="286.071" viewBox="0 0 649.124 286.071">
  <g id="グループ_26414" data-name="グループ 26414" transform="translate(-3521.88 725.071)">
    <g id="グループ_26413" data-name="グループ 26413" transform="translate(3576.719 -1310.06)">
      <g id="グループ_6" data-name="グループ 6" transform="translate(-57.101 653.704)">
        <path id="パス_182" data-name="パス 182" d="M24.064-79.43C19.176-66.082,10.622-52.734,1.88-44.274A74.721,74.721,0,0,1,7.9-32.806a107.122,107.122,0,0,0,7.144-8.366V7.99H25.662V-57.528A157.172,157.172,0,0,0,34.4-76.046ZM46.906-65.706H74.448v12.6H46.906ZM90.24-24.628V-34.78H65.988v-8.46H85.634V-75.482H36.284V-43.24H54.708v8.46H30.08v10.152H49.35C43.522-16.356,35.156-8.742,26.7-4.324A46.161,46.161,0,0,1,34.4,4.606a75.379,75.379,0,0,0,20.3-20.21V8.178h11.28V-16.074C71.346-7.708,78.208-.094,85.07,4.794a47.588,47.588,0,0,1,7.9-8.93A70.741,70.741,0,0,1,71.44-24.628ZM161.4-34.592H127.464v-6.016H161.4ZM127.464-19.176v-6.11H161.4v6.11ZM182.83-57.81V-68.338H136.958c1.128-2.914,2.068-5.828,3.008-8.742L128.4-79.712a93.779,93.779,0,0,1-3.666,11.374H99.452V-57.81h20.586c-5.64,10.9-13.442,20.774-23.406,27.448a63,63,0,0,1,7.332,8.554,68.9,68.9,0,0,0,12.408-11V8.084h11.092V-9.87H161.4v5.64c0,1.316-.564,1.786-2.162,1.88-1.6,0-7.05,0-11.844-.282a46.4,46.4,0,0,1,3.384,10.81c7.614,0,12.972-.094,16.638-1.88,3.854-1.692,4.888-4.7,4.888-10.246V-50.384H128.78a78.593,78.593,0,0,0,3.76-7.426Zm55.554,36v-9.024c.564.564.94,1.034,1.316,1.41a59.626,59.626,0,0,0,4.324-6.768,99.513,99.513,0,0,0,6.392,18.518A46.177,46.177,0,0,1,233.872-3.478a87.552,87.552,0,0,0-7.8-4.982,37.99,37.99,0,0,0,4.982-13.348Zm-26.978,0h9.118a28.581,28.581,0,0,1-3.572,8.554c-2.726-1.316-5.452-2.444-8.272-3.572Zm50.572-30.55a100.58,100.58,0,0,1-5.076,22.09,118.608,118.608,0,0,1-5.734-22.09Zm16.826,0V-62.7h-25c1.222-4.982,2.256-10.152,3.008-15.416l-11.28-1.5c-2.256,16.732-6.768,32.712-14.758,42.3a65.177,65.177,0,0,1,7.614,6.486H216.012l2.256-4.512-4.042-.846h6.016V-47.564c3.666,2.914,7.614,6.2,9.682,8.178l5.922-7.708c-2.068-1.41-8.742-5.358-13.254-7.9h15.416v-8.836h-8.93c2.256-2.914,5.17-6.862,8.084-10.9l-9.4-3.76a90.8,90.8,0,0,1-6.3,11.938l6.2,2.726h-7.426V-79.618H210v15.792h-7.9l6.016-2.632c-.752-3.29-3.2-8.084-5.64-11.656l-8.084,3.384a50.075,50.075,0,0,1,4.888,10.9h-7.144v8.836H206.8a49.935,49.935,0,0,1-16.544,11.75,33.818,33.818,0,0,1,5.64,8.084A67.749,67.749,0,0,0,210-46.06v9.024l-2.068-.47c-.94,2.068-2.068,4.324-3.2,6.674H191.1v9.024h8.93c-2.35,4.512-4.7,8.742-6.768,12.032l9.776,3.008,1.034-1.786a54.2,54.2,0,0,1,5.264,2.538C204.92-3.572,199-1.974,191.478-1.034A25.847,25.847,0,0,1,195.9,8.272C205.954,6.2,213.474,3.478,219.02-.658a89.081,89.081,0,0,1,9.776,7.05l4.23-4.324A42.448,42.448,0,0,1,236.6,8.46,61.054,61.054,0,0,0,256.432-6.956,51.02,51.02,0,0,0,272.224,7.99a43.164,43.164,0,0,1,7.708-9.682,44.118,44.118,0,0,1-16.638-15.6c5.076-9.494,8.272-21.15,10.246-35.062Z" transform="translate(0.383 168.356)" fill="#fff"/>
        <path id="パス_184" data-name="パス 184" d="M113.886,0H89.946L35.739-81.909V0H11.8V-119.529h23.94l54.207,82.08v-82.08h23.94ZM174.42,1.539A49.9,49.9,0,0,1,149.8-4.531a43.712,43.712,0,0,1-17.186-17.186q-6.241-11.115-6.242-25.65t6.412-25.65A44.561,44.561,0,0,1,150.309-90.2,50.87,50.87,0,0,1,175.1-96.273,50.87,50.87,0,0,1,199.9-90.2a44.561,44.561,0,0,1,17.528,17.185q6.412,11.115,6.412,25.65t-6.583,25.65A45.589,45.589,0,0,1,199.471-4.531,51.713,51.713,0,0,1,174.42,1.539Zm0-20.862a24.9,24.9,0,0,0,12.227-3.164,22.991,22.991,0,0,0,9.148-9.49,31.982,31.982,0,0,0,3.42-15.39q0-13.509-7.1-20.777a23.328,23.328,0,0,0-17.357-7.268,22.779,22.779,0,0,0-17.185,7.268q-6.926,7.268-6.926,20.777t6.755,20.777A22.24,22.24,0,0,0,174.42-19.323Zm72.5,20.52a14.809,14.809,0,0,1-10.687-4.019,13.3,13.3,0,0,1-4.189-10,13.3,13.3,0,0,1,4.189-10,14.809,14.809,0,0,1,10.688-4.019,14.293,14.293,0,0,1,10.431,4.019,13.433,13.433,0,0,1,4.1,10,13.433,13.433,0,0,1-4.1,10A14.293,14.293,0,0,1,246.924,1.2Z" transform="translate(303.383 212.356)" fill="#fff"/>
        <path id="パス_185" data-name="パス 185" d="M23.408-113.52q-1.936,1.056-10.208,4.576-1.408.528-4.4,1.76A51.352,51.352,0,0,0,3.872-104.9V-126.72q21.12-10.912,25.872-15.84H52.8V0H23.408Z" transform="translate(572.383 217.356)" fill="#fff"/>
        <path id="パス_183" data-name="パス 183" d="M8.618-3.41v-6.944H22.382V-3.41ZM22.382-20.677v6.665H8.618v-6.665ZM4.8-24.4V2.325H8.618V.31H22.382V2.263H26.35V-24.4Zm43.617,18.1v-6.82a34.55,34.55,0,0,0,4.929,6.82Zm-8.742,0a36.123,36.123,0,0,0,4.867-6.758v6.758Zm20.491-10.23v-3.72H48.422v-5.983H44.547v5.983H32.891v3.72h9.455A27.538,27.538,0,0,1,31.682-4.9a18.226,18.226,0,0,1,2.7,3.069A27.652,27.652,0,0,0,39.215-5.8v3.255h5.332V2.7h3.875V-2.542h5.146V-6.076a25.362,25.362,0,0,0,5.053,4.154A15.672,15.672,0,0,1,61.473-5.27,27.081,27.081,0,0,1,50.654-16.523Zm20.274-.434a47.351,47.351,0,0,1,7.874,6.913L91.6-12.586a50.778,50.778,0,0,0-8.029-6.51H91.2v-3.6H79.329v-3.6H75.547v3.6H63.829v3.6H83.39Zm-9.207-1.891A23.77,23.77,0,0,1,63.4-12.617a30.183,30.183,0,0,1,3.1,2.852,34.743,34.743,0,0,0,8.556-7.6Zm9.92,5.3a17.123,17.123,0,0,1-3.627,5.921,18.442,18.442,0,0,1-3.565-5.735l-3.534,1.054a26.575,26.575,0,0,0,4.278,7.13A30.7,30.7,0,0,1,63.023-.713a19.972,19.972,0,0,1,2.325,3.472,33.9,33.9,0,0,0,12.09-5.3A26.791,26.791,0,0,0,89.652,2.7a16.663,16.663,0,0,1,2.387-3.5,27.034,27.034,0,0,1-11.656-4.34A23,23,0,0,0,85.126-12.4Zm30.07-2.294v1.674h-3.565v-1.674Zm6.944,1.674h-3.658v-1.674h3.658Zm-3.658,4.309v-1.736h3.658v1.736Zm-6.851,0v-1.736h3.565v1.736Zm0,2.666h3.565v4.526h3.286V-7.192h3.658v1.426c0,.31-.093.434-.465.465-.31,0-1.4,0-2.356-.031a10.08,10.08,0,0,1,.9,2.883c1.86,0,3.193,0,4.185-.527.992-.5,1.271-1.271,1.271-2.759V-18.507h-3.751c-.527-.31-1.178-.62-1.86-.961a35.285,35.285,0,0,0,5.518-4.185l-2.2-1.767-.713.186H104.47v2.79h11.036a28.641,28.641,0,0,1-2.48,1.643c-1.271-.558-2.573-1.054-3.658-1.457l-2.387,1.984c1.271.5,2.759,1.116,4.154,1.767h-6.944V-2.542h3.472Zm-5.177-13.64a26.552,26.552,0,0,0-5.394-4.774L94.55-23.25A25.165,25.165,0,0,1,99.727-18.2Zm-.93,6.6H94.085v3.379h3.937v6.758a42.67,42.67,0,0,1-4.34,2.821l1.705,3.689c1.736-1.3,3.193-2.511,4.619-3.72,1.86,2.387,4.309,3.286,8.029,3.441,3.782.155,10.354.093,14.167-.093a15.234,15.234,0,0,1,1.147-3.6c-4.247.341-11.594.434-15.283.279-3.162-.124-5.3-.992-6.51-3.069ZM150.6-21.142a45.389,45.389,0,0,0-2.449-4.247L145.7-24.4a35.946,35.946,0,0,1,2.263,4l-.217-.124a9.765,9.765,0,0,1-2.7.372h-6.231l.093-.155c.372-.682,1.178-2.077,1.922-3.162l-4.557-1.488a13.554,13.554,0,0,1-1.4,3.255,26.524,26.524,0,0,1-9.672,9.951l3.472,2.6a34.034,34.034,0,0,0,7.812-7.5h8.742a21.93,21.93,0,0,1-4.4,8.432c-2.728,3.1-6.169,5.8-12.493,7.688L132,2.759c5.828-2.325,9.548-5.146,12.493-8.773a31.286,31.286,0,0,0,5.425-10.354,13.135,13.135,0,0,1,1.023-2.2L148.3-20.181Zm-1.24-4.65a29.5,29.5,0,0,1,2.48,4.278l2.48-1.054a44.261,44.261,0,0,0-2.511-4.216ZM160.022,1.364a17.956,17.956,0,0,0,5.518-8.9c.837-3.131.93-9.672.93-13.33a19.772,19.772,0,0,1,.217-2.79H162.13a11.316,11.316,0,0,1,.279,2.821c0,3.751-.031,9.61-.9,12.276a14.624,14.624,0,0,1-5.27,7.409Zm13.144.093a7.9,7.9,0,0,1,1.364-.93,34.133,34.133,0,0,0,10.509-8.463l-2.387-3.41A19.631,19.631,0,0,1,174.995-4.8V-21.018a15.74,15.74,0,0,1,.217-2.7h-4.619a13.744,13.744,0,0,1,.248,2.666V-2.976a11.8,11.8,0,0,1-.248,2.294ZM188.852-9.486c1.147-.093,3.224-.155,4.991-.155H210.49c1.3,0,2.883.124,3.627.155v-4.867c-.806.062-2.2.186-3.627.186H193.843c-1.612,0-3.875-.093-4.991-.186Zm52.979-11.47a1.793,1.793,0,0,1-1.8-1.767,1.8,1.8,0,0,1,1.8-1.8,1.793,1.793,0,0,1,1.767,1.8A1.786,1.786,0,0,1,241.831-20.956ZM222.053-22.01a34.517,34.517,0,0,1-3.689-.248v4.371c.806-.062,2.263-.124,3.689-.124H236.5a19.907,19.907,0,0,1-3.658,8.742c-2.511,3.162-5.983,5.828-12.152,7.285l3.379,3.689A24.533,24.533,0,0,0,236.53-6.851c2.6-3.441,3.937-8.246,4.65-11.284l.248-.93a1.768,1.768,0,0,0,.4.031,3.718,3.718,0,0,0,3.689-3.689,3.725,3.725,0,0,0-3.689-3.72,3.731,3.731,0,0,0-3.72,3.72,3.433,3.433,0,0,0,.062.589,13.724,13.724,0,0,1-1.767.124Zm30.6,4.5h7.068c-.155,3.813-1.209,8.4-7.068,11.439Zm21.762-3.6h-10.85v-5.146h-3.813v5.146H248.961V2.759h3.689V-5.983a15,15,0,0,1,2.573,2.728,16.091,16.091,0,0,0,6.665-7.13,64.833,64.833,0,0,1,5.828,6.479l3.038-2.387a77.454,77.454,0,0,0-7.657-7.719,23.494,23.494,0,0,0,.434-3.5h7.223v15.9c0,.558-.186.713-.775.744-.589,0-2.666.031-4.495-.062a12.091,12.091,0,0,1,1.209,3.658c2.759,0,4.743-.062,6.014-.651,1.3-.589,1.7-1.612,1.7-3.6Z" transform="translate(0.383 211.356)" fill="#fff"/>
      </g>
      <g id="グループ_5" data-name="グループ 5" transform="translate(-63.553 535.553)">
        <path id="パス_178" data-name="パス 178" d="M51.858-69.918a71.513,71.513,0,0,1,.9,11.61c0,21.156-3.1,34.83-19.479,46.182A50.972,50.972,0,0,1,19.737-5.031L34.7,7.224C69.918-11.61,70.563-37.926,70.563-69.918Zm61.017-26.961c-2.322.774-9.417,1.161-13.029,1.161H30.315a102.269,102.269,0,0,1-15.738-1.29v17.931c6.063-.516,10.32-.9,15.738-.9H97.524C94.17-73.659,84.108-62.307,73.788-55.986L87.075-45.279c12.771-9.03,25.026-25.284,31.089-35.346a64.951,64.951,0,0,1,5.031-6.708ZM135.708,5.676A74.72,74.72,0,0,0,158.67-31.347c3.483-13.029,3.87-40.248,3.87-55.47a82.271,82.271,0,0,1,.9-11.61H144.48a47.087,47.087,0,0,1,1.161,11.739c0,15.609-.129,39.99-3.741,51.084-3.612,10.965-10.578,22.833-21.93,30.831Zm54.7.387a32.887,32.887,0,0,1,5.676-3.87C210.528-5.16,229.1-19.092,239.811-33.024l-9.933-14.19C221.235-34.7,208.464-24.51,198.015-20V-87.462a65.5,65.5,0,0,1,.9-11.223H179.7a57.188,57.188,0,0,1,1.032,11.094v75.207A49.086,49.086,0,0,1,179.7-2.838Zm142.545-100.1a43.241,43.241,0,0,1-10.191,1.032h-59.6c-4.257,0-11.61-.645-15.48-1.032v18.189c3.354-.258,9.546-.516,15.351-.516h60.114C321.468-65.4,316.566-50.7,308.052-39.99,297.6-26.961,283.026-15.738,257.484-9.8l14.061,15.48c22.962-7.353,40.119-20.124,51.858-35.6,10.707-14.319,16.383-34.314,19.35-46.956a52.535,52.535,0,0,1,2.838-9.03Z" transform="translate(-0.166 149.507)" fill="#fff"/>
        <path id="パス_179" data-name="パス 179" d="M76.422-54.144a52.544,52.544,0,0,1-9.118.752H25.38a75.607,75.607,0,0,1-10.434-.846v14.476a103.9,103.9,0,0,1,10.434-.564H63.732c-1.974,3.478-7.238,9.118-11.938,12.69.188-3.008.282-6.016.376-9.024h-15.7a35.662,35.662,0,0,1,.846,7.332c0,11.656-2.068,18.8-11.562,25.38A39.053,39.053,0,0,1,17.39.564l11.938,9.494C48.222-.282,51.042-14.006,51.794-27.448L62.98-19.74c5.734-4.7,14.946-16.732,18.518-22.466a40.584,40.584,0,0,1,3.29-4.324Z" transform="translate(349.834 145.507)" fill="#fff"/>
        <path id="パス_180" data-name="パス 180" d="M10.58-35.19c4.255-.345,11.96-.575,18.515-.575H90.85c4.83,0,10.695.46,13.455.575V-53.245c-2.99.23-8.165.69-13.455.69H29.095c-5.98,0-14.375-.345-18.515-.69Z" transform="translate(444.834 147.507)" fill="#fff"/>
        <path id="パス_181" data-name="パス 181" d="M117-83.979a170.842,170.842,0,0,0-12.126-19.092L94.17-98.04a120.786,120.786,0,0,1,12,19.35ZM99.717-76.5C96.75-82.3,91.59-90.558,87.978-95.976L77.142-91.332A105.1,105.1,0,0,1,88.494-71.466ZM54.18-84.624a140.291,140.291,0,0,1,1.161-15.609H35.217a91.028,91.028,0,0,1,1.29,15.609v74.175a139.687,139.687,0,0,1-1.29,17.931H55.47c-.645-5.289-1.29-14.319-1.29-17.931V-46.956c13.932,4.644,33.282,12.126,46.7,19.221L108.1-45.666C96.234-51.471,71.337-60.63,54.18-65.79Z" transform="translate(540.834 152.507)" fill="#fff"/>
      </g>
    </g>
  </g>
</svg>
