<svg xmlns="http://www.w3.org/2000/svg" width="375.982" height="185.104" viewBox="0 0 375.982 185.104">
  <g id="グループ_26410" data-name="グループ 26410" transform="translate(-4137.96 549.104)">
    <g id="グループ_21" data-name="グループ 21" transform="translate(4176.071 -556.656)">
      <path id="パス_178" data-name="パス 178" d="M60.55-48.51c-1.26-2.45-3.71-7-5.46-9.59l-6.58,2.66a68.741,68.741,0,0,1,4.69,8.4,27.058,27.058,0,0,1-6.44.77H35.49c1.05-1.82,2.73-4.69,4.34-6.93L27.44-57.26a36.508,36.508,0,0,1-3.71,8.33A63.5,63.5,0,0,1,1.96-27.02l9.52,7.07A86.789,86.789,0,0,0,29.12-36.68H46.55c-.91,4.55-4.83,12.6-9.24,17.5C31.36-12.53,24.08-6.58,8.96-1.96L19.04,7C32.2,1.61,40.67-4.83,47.46-13.16A73.377,73.377,0,0,0,59.57-36.12a31.312,31.312,0,0,1,2.73-5.74l-7.14-4.41ZM57.12-58.8a78.082,78.082,0,0,1,5.53,9.66l6.58-2.8a99.913,99.913,0,0,0-5.53-9.52ZM82.11,3.85A42.1,42.1,0,0,0,94.64-16.73c1.82-7.07,2.03-21.7,2.03-30.31a55.33,55.33,0,0,1,.56-7.07H84.77a27.155,27.155,0,0,1,.77,7.21c0,8.75-.07,21.63-2.03,27.37C81.69-14,78.12-7.42,71.75-3.01Zm29.33.35a22.711,22.711,0,0,1,3.36-2.31c7.77-3.99,17.99-11.76,23.66-18.97l-6.51-9.38c-4.34,6.16-10.29,11.2-15.54,13.37V-47.53a42.522,42.522,0,0,1,.56-6.58h-12.6A36.627,36.627,0,0,1,105-47.6V-7.42a26.775,26.775,0,0,1-.63,5.81Zm34.58-24.43c2.87-.21,8.12-.42,12.11-.42H195.3c2.87,0,6.79.35,8.61.42V-33.6c-2.03.14-5.46.49-8.61.49H158.13c-3.43,0-9.31-.28-12.11-.49Zm119.63-28a3.735,3.735,0,0,1-3.71-3.71,3.735,3.735,0,0,1,3.71-3.71,3.735,3.735,0,0,1,3.71,3.71A3.735,3.735,0,0,1,265.65-48.23Zm-44.52-2.45c-2.31,0-6.93-.35-9.1-.63v11.97c1.82-.14,5.67-.35,9.1-.35h30.8a39.323,39.323,0,0,1-7.7,18.06c-5.53,6.86-13.44,13.02-27.51,16.17l9.24,10.15C238.28.7,248.15-6.51,254.45-14.98c6.02-8.12,8.89-18.76,10.57-25.34.21-.84.49-1.89.84-2.94a8.777,8.777,0,0,0,8.47-8.68,8.724,8.724,0,0,0-8.68-8.68,8.724,8.724,0,0,0-8.68,8.68,3.991,3.991,0,0,0,.07.91,36.484,36.484,0,0,1-5.04.35Z" transform="translate(-40.071 185.656)" fill="#282828"/>
      <g id="グループ_18" data-name="グループ 18">
        <path id="パス_177" data-name="パス 177" d="M27.244-10.78V-32.732H70.756V-10.78ZM70.756-65.366V-44.3H27.244v-21.07ZM15.19-77.126V7.35H27.244V.98H70.756V7.154H83.3v-84.28ZM153.076-19.894v-21.56a109.221,109.221,0,0,0,15.582,21.56Zm-27.636,0a114.2,114.2,0,0,0,15.386-21.364v21.364Zm64.778-32.34v-11.76H153.076V-82.908h-12.25v18.914H103.978v11.76h29.89c-7.546,15.092-19.894,29.2-33.712,36.75a57.618,57.618,0,0,1,8.526,9.7A87.416,87.416,0,0,0,123.97-18.326v10.29h16.856V8.526h12.25V-8.036h16.268V-19.208A80.176,80.176,0,0,0,185.318-6.076a49.545,49.545,0,0,1,9.016-10.584c-14.014-7.35-26.558-20.874-34.2-35.574Zm64.092-1.372c8.82,6.468,19.992,15.582,24.892,21.854l10.388-8.036c-5.488-6.174-16.856-14.8-25.382-20.58h24.108V-71.736H250.782V-83.1H238.826v11.368H201.782v11.368H263.62ZM225.2-59.584c-5.684,7.546-15.582,15.092-24.794,19.7a95.415,95.415,0,0,1,9.8,9.016c9.114-5.684,20.09-14.9,27.048-24.01Zm31.36,16.758A54.131,54.131,0,0,1,245.1-24.108a58.3,58.3,0,0,1-11.27-18.13l-11.172,3.332a84.012,84.012,0,0,0,13.524,22.54C226.38-9.6,213.934-5.1,199.234-2.254a63.137,63.137,0,0,1,7.35,10.976C221.382,5.1,234.22-.294,244.8-8.036,254.7,0,267.344,5.488,283.416,8.526a52.676,52.676,0,0,1,7.546-11.074C275.87-4.9,263.62-9.506,254.114-16.268A72.705,72.705,0,0,0,269.108-39.2Zm95.06-7.252v5.292h-11.27v-5.292Zm21.952,5.292H362.012v-5.292h11.564ZM362.012-31.164v-5.488h11.564v5.488Zm-21.658,0v-5.488h11.27v5.488Zm0,8.428h11.27V-8.428h10.388V-22.736h11.564v4.508c0,.98-.294,1.372-1.47,1.47-.98,0-4.41,0-7.448-.1A31.867,31.867,0,0,1,367.5-7.742c5.88,0,10.094,0,13.23-1.666,3.136-1.568,4.018-4.018,4.018-8.722V-58.506H372.89c-1.666-.98-3.724-1.96-5.88-3.038a111.543,111.543,0,0,0,17.444-13.23L377.5-80.36l-2.254.588H330.26v8.82h34.888a90.549,90.549,0,0,1-7.84,5.194c-4.018-1.764-8.134-3.332-11.564-4.606L338.2-64.092c4.018,1.568,8.722,3.528,13.132,5.586H329.378v50.47h10.976Zm-16.366-43.12c-3.528-4.7-11.074-10.976-17.052-15.092L298.9-73.5c5.978,4.508,13.328,11.27,16.366,15.974Zm-2.94,20.874H297.43V-34.3h12.446v21.364a134.893,134.893,0,0,1-13.72,8.918l5.39,11.662c5.488-4.116,10.094-7.938,14.6-11.76C322.028,3.43,329.77,6.272,341.53,6.762c11.956.49,32.732.294,44.786-.294A48.158,48.158,0,0,1,389.942-4.9c-13.426,1.078-36.652,1.372-48.314.882-10-.392-16.758-3.136-20.58-9.7Z" transform="translate(-52.071 90.656)" fill="#282828"/>
      </g>
    </g>
  </g>
</svg>
