<svg xmlns="http://www.w3.org/2000/svg" xmlns:xlink="http://www.w3.org/1999/xlink" width="588.019" height="183.994" viewBox="0 0 588.019 183.994">
  <defs>
    <filter id="パス_181" x="309.128" y="77.964" width="107.02" height="106.006" filterUnits="userSpaceOnUse">
      <feOffset input="SourceAlpha"/>
      <feGaussianBlur stdDeviation="1.5" result="blur"/>
      <feFlood flood-opacity="0.098"/>
      <feComposite operator="in" in2="blur"/>
      <feComposite in="SourceGraphic"/>
    </filter>
    <filter id="パス_180" x="0" y="102.183" width="149.261" height="81.811" filterUnits="userSpaceOnUse">
      <feOffset input="SourceAlpha"/>
      <feGaussianBlur stdDeviation="2.5" result="blur-2"/>
      <feFlood flood-opacity="0.102"/>
      <feComposite operator="in" in2="blur-2"/>
      <feComposite in="SourceGraphic"/>
    </filter>
  </defs>
  <g id="グループ_26412" data-name="グループ 26412" transform="translate(-4176.559 1229.82)">
    <path id="パス_179" data-name="パス 179" d="M120.27,21.08V96.27c-.4,0-54.752-73.444-57.162-74.553H20V163.866H60.842V88.681c.423,0,54.886,74.124,57.168,75.185h43.114V21.08Z" transform="translate(4311.286 -1216.312)" fill="#fff" fill-rule="evenodd"/>
    <g id="グループ_26411" data-name="グループ 26411" transform="translate(4322.636 -1315)">
      <g transform="matrix(1, 0, 0, 1, -146.08, 85.18)" filter="url(#パス_181)">
        <path id="パス_181-2" data-name="パス 181" d="M53.4,1.352A52.052,52.052,0,0,1,28.477-4.563a43.311,43.311,0,0,1-17.407-16.9Q4.732-32.448,4.732-47.151q0-14.534,6.422-25.6A43.576,43.576,0,0,1,28.73-89.739a52.549,52.549,0,0,1,25.012-5.915,52.549,52.549,0,0,1,25.012,5.915A43.576,43.576,0,0,1,96.33-72.755q6.422,11.07,6.422,25.6t-6.506,25.6A44,44,0,0,1,78.5-4.563,53.048,53.048,0,0,1,53.4,1.352Zm0-25.012a18.826,18.826,0,0,0,14.111-6.084q5.831-6.084,5.83-17.407T67.685-64.558a18.3,18.3,0,0,0-13.943-6.084,18.34,18.34,0,0,0-14.027,6q-5.577,6-5.577,17.492,0,11.323,5.493,17.407A17.776,17.776,0,0,0,53.4-23.66Z" transform="translate(308.9 178.12)" fill="#fff"/>
      </g>
      <path id="パス_182" data-name="パス 182" d="M15.18.825A8.025,8.025,0,0,1,9.158-1.65a8.445,8.445,0,0,1-2.392-6.1,8.166,8.166,0,0,1,2.392-6.022A8.166,8.166,0,0,1,15.18-16.17a7.966,7.966,0,0,1,5.858,2.393A8.166,8.166,0,0,1,23.43-7.755a8.445,8.445,0,0,1-2.392,6.1A7.833,7.833,0,0,1,15.18.825Z" transform="translate(269.364 259)" fill="#fff"/>
      <path id="パス_183" data-name="パス 183" d="M29.526-143.19q-2.442,1.332-12.876,5.772-1.776.666-5.55,2.22a64.771,64.771,0,0,0-6.216,2.886V-159.84q26.64-13.764,32.634-19.98H66.6V0H29.526Z" transform="translate(293.364 265)" fill="#fff"/>
      <path id="パス_37" data-name="パス 37" d="M1.777,69.044V204.369h42.81V133.83L95.8,204.369h43.412V69.044H101.073V135.47L51.317,69.044Z" transform="translate(-1.777 41.058)" fill="none"/>
    </g>
    <g transform="matrix(1, 0, 0, 1, 4176.56, -1229.82)" filter="url(#パス_180)">
      <path id="パス_180-2" data-name="パス 180" d="M44.233-41.677C43.452-39.76,42.6-37.7,41.748-36H28.471l1.207-.213a34.969,34.969,0,0,0-2.414-5.467ZM67.166-10.011v-6.958H39.547v-3.124h21.3V-26.2h-21.3v-3.2H64.184V-36H50.268c1.065-1.7,2.2-3.621,3.337-5.68H66.953v-6.887h-9.23c1.633-2.485,3.55-5.68,5.538-8.946l-8.875-2.13a57.193,57.193,0,0,1-4.473,10.295l2.556.781H46.15V-60.137H38.2v11.573H32.944V-60.137H25.063v11.573H18.6l3.479-1.278a53.725,53.725,0,0,0-5.4-10.011L9.443-57.368a63.642,63.642,0,0,1,4.4,8.8H4.331v6.887H19.17l-.852.142A31.9,31.9,0,0,1,20.732-36H7.242v6.6h24v3.2H10.792v6.106H31.24v3.124H4.118v6.958H24.5C18.389-6.319,10.011-3.337,2.059-1.7a39.382,39.382,0,0,1,5.4,7.029A67.35,67.35,0,0,0,31.24-6.177V6.177h8.307V-6.6A60.6,60.6,0,0,0,63.4,5.4a39.716,39.716,0,0,1,5.68-7.668C60.847-3.55,52.611-6.319,46.576-10.011Zm19.1-29.465H98.69v5.112H86.265Zm0-11.431H98.69v5.112H86.265Zm33.37,5.112H107.21v-5.112h12.425Zm0,11.431H107.21v-5.112h12.425Zm8.8,6.816V-57.723H77.816v30.175H89.1a53.186,53.186,0,0,1-19.17,10.082,39.066,39.066,0,0,1,5.538,6.958,56.942,56.942,0,0,0,12.922-6.6v2.556c0,4.544-1.42,10.508-13.277,14.413A31.209,31.209,0,0,1,80.94,6.674C95.069,1.491,97.128-7.455,97.128-14.2v-4.9H91.093a48.017,48.017,0,0,0,8.52-8.449h7.313a42.84,42.84,0,0,0,8.307,8.52h-5.325V5.964h8.8V-16.472a51.9,51.9,0,0,0,12,5.751,37.892,37.892,0,0,1,5.609-7.242,50.5,50.5,0,0,1-19.454-9.585Z" transform="translate(5.44 169.82)" fill="#fff"/>
    </g>
    <path id="パス_184" data-name="パス 184" d="M25.393-25.326c-2.345,7.7-4.355,11.725-7.035,11.725-2.278,0-4.288-3.015-4.288-8.777,0-6.365,4.891-15.276,14.74-17.956A96.752,96.752,0,0,1,25.393-25.326ZM37.051,3.35C54.337.469,62.578-9.782,62.578-23.718c0-15.075-10.72-26.733-27.6-26.733-17.755,0-31.356,13.4-31.356,29.145,0,11.323,6.3,20.234,14.472,20.234,7.839,0,13.8-8.911,17.755-22.177a138.793,138.793,0,0,0,3.886-17.286c7.638,1.809,11.792,7.906,11.792,16.482,0,8.71-5.628,14.606-14.07,16.683a47.642,47.642,0,0,1-6.5,1.206Z" transform="translate(4702 -1053)" fill="#fff"/>
  </g>
</svg>
