<svg xmlns="http://www.w3.org/2000/svg" width="320.056" height="101.21" viewBox="0 0 320.056 101.21">
  <g id="グループ_26815" data-name="グループ 26815" transform="translate(16588.971 7037.21)">
    <g id="グループ_26814" data-name="グループ 26814" transform="translate(40 110)">
      <path id="パス_196" data-name="パス 196" d="M100.92-101.21,63.8,0H39.15L2.03-101.21H23.78L51.62-20.735,79.315-101.21Z" transform="translate(-16631 -7046)" fill="#282828"/>
      <path id="oice" d="M38.121,1.179A37.359,37.359,0,0,1,28.879.048a35.049,35.049,0,0,1-8.463-3.395,34.258,34.258,0,0,1-7.235-5.4A34.575,34.575,0,0,1,7.62-15.9a33.444,33.444,0,0,1-3.545-8.555,38.153,38.153,0,0,1-1.18-9.6,37.669,37.669,0,0,1,1.18-9.523A33.521,33.521,0,0,1,7.62-52.1a34.575,34.575,0,0,1,5.561-7.148,34.258,34.258,0,0,1,7.235-5.4,35.049,35.049,0,0,1,8.463-3.395,37.359,37.359,0,0,1,9.242-1.131,37.7,37.7,0,0,1,9.3,1.131,34.573,34.573,0,0,1,8.452,3.4,33.953,33.953,0,0,1,7.187,5.4A34.371,34.371,0,0,1,68.574-52.1a33.713,33.713,0,0,1,3.508,8.529,38.038,38.038,0,0,1,1.168,9.522,38.528,38.528,0,0,1-1.168,9.594A33.636,33.636,0,0,1,68.574-15.9,34.151,34.151,0,0,1,63.049-8.75a33.978,33.978,0,0,1-7.224,5.4A35.049,35.049,0,0,1,47.363.048,37.359,37.359,0,0,1,38.121,1.179Zm0-69.355a36.358,36.358,0,0,0-8.994,1.1,34.045,34.045,0,0,0-8.221,3.3,33.257,33.257,0,0,0-7.024,5.244,33.575,33.575,0,0,0-5.4,6.941,32.52,32.52,0,0,0-3.439,8.275,36.668,36.668,0,0,0-1.148,9.27A37.152,37.152,0,0,0,5.043-24.7a32.443,32.443,0,0,0,3.439,8.3,33.575,33.575,0,0,0,5.4,6.941,33.257,33.257,0,0,0,7.024,5.244,34.045,34.045,0,0,0,8.221,3.3,36.358,36.358,0,0,0,8.994,1.1,36.358,36.358,0,0,0,8.994-1.1,34.044,34.044,0,0,0,8.221-3.3,32.976,32.976,0,0,0,7.011-5.243,33.152,33.152,0,0,0,5.363-6.94,32.637,32.637,0,0,0,3.4-8.3,37.528,37.528,0,0,0,1.136-9.345,37.039,37.039,0,0,0-1.136-9.272,32.714,32.714,0,0,0-3.4-8.276,33.372,33.372,0,0,0-5.352-6.941,32.951,32.951,0,0,0-6.975-5.243,33.572,33.572,0,0,0-8.208-3.3A36.705,36.705,0,0,0,38.121-68.176ZM140.844,1.082a38.3,38.3,0,0,1-9.349-1.119,33.944,33.944,0,0,1-8.405-3.36A33.148,33.148,0,0,1,116-8.752a33.664,33.664,0,0,1-5.416-7.1,33.671,33.671,0,0,1-3.434-8.517,39.157,39.157,0,0,1-1.143-9.58,39.3,39.3,0,0,1,1.143-9.592,34.041,34.041,0,0,1,3.433-8.552A33.688,33.688,0,0,1,116-59.233a32.934,32.934,0,0,1,7.092-5.368,33.944,33.944,0,0,1,8.405-3.36,38.3,38.3,0,0,1,9.349-1.119A38.407,38.407,0,0,1,151.63-67.6a33.159,33.159,0,0,1,9.38,4.432,30.553,30.553,0,0,1,7.371,7.051,32.9,32.9,0,0,1,4.753,9.307l.217.657H156.728l-.136-.284a15.767,15.767,0,0,0-6.346-7.058,18.81,18.81,0,0,0-9.5-2.359,19.653,19.653,0,0,0-10.267,2.693,18.458,18.458,0,0,0-6.99,7.607,25.367,25.367,0,0,0-2.516,11.607,25.443,25.443,0,0,0,2.517,11.56,18.393,18.393,0,0,0,6.989,7.654,19.653,19.653,0,0,0,10.267,2.693,18.511,18.511,0,0,0,9.5-2.4,16.063,16.063,0,0,0,6.35-7.109l.136-.284H173.35l-.214.655a33.126,33.126,0,0,1-4.741,9.368,30.037,30.037,0,0,1-7.336,7.041,32.9,32.9,0,0,1-9.369,4.4A39.016,39.016,0,0,1,140.844,1.082Zm0-69.161a37.3,37.3,0,0,0-9.1,1.088,32.944,32.944,0,0,0-8.158,3.261,31.935,31.935,0,0,0-6.876,5.2,32.689,32.689,0,0,0-5.254,6.927,33.039,33.039,0,0,0-3.332,8.3,38.3,38.3,0,0,0-1.112,9.347,38.157,38.157,0,0,0,1.112,9.335,32.67,32.67,0,0,0,3.332,8.264A32.661,32.661,0,0,0,116.7-9.46a32.146,32.146,0,0,0,6.877,5.193,32.944,32.944,0,0,0,8.158,3.261,37.3,37.3,0,0,0,9.1,1.088,38.018,38.018,0,0,0,10.567-1.423A31.9,31.9,0,0,0,160.5-5.6a29.04,29.04,0,0,0,7.093-6.806,31.853,31.853,0,0,0,4.374-8.431H157.355a16.958,16.958,0,0,1-6.607,7.255,19.5,19.5,0,0,1-10,2.542,20.638,20.638,0,0,1-10.782-2.836,19.378,19.378,0,0,1-7.367-8.06,26.429,26.429,0,0,1-2.624-12.011A26.352,26.352,0,0,1,122.6-46.011a19.443,19.443,0,0,1,7.366-8.01,20.638,20.638,0,0,1,10.782-2.836,19.794,19.794,0,0,1,10,2.492,16.658,16.658,0,0,1,6.61,7.208h14.606a31.654,31.654,0,0,0-4.383-8.369,29.557,29.557,0,0,0-7.131-6.82,32.162,32.162,0,0,0-9.1-4.3A37.409,37.409,0,0,0,140.844-68.079ZM224.085.5H183.8V-68.3h40.285v12.058h-25.7V-40.27h22.795V-28.5H198.38v16.945h25.7ZM184.8-.5h38.285V-10.558h-25.7V-29.5h22.795V-39.27H197.38V-57.245h25.7V-67.3H184.8ZM96.918.5H82.338V-68.206h14.58Zm-13.58-1h12.58V-67.206H83.338ZM38.121-10.946a21.534,21.534,0,0,1-11.069-2.833,19.429,19.429,0,0,1-7.516-8.11,26.552,26.552,0,0,1-2.673-12.158,26.251,26.251,0,0,1,2.674-12.111,19.175,19.175,0,0,1,7.518-8.013,21.828,21.828,0,0,1,11.066-2.783A21.563,21.563,0,0,1,49.14-54.17a19.27,19.27,0,0,1,7.468,8.012,26.251,26.251,0,0,1,2.674,12.111,26.552,26.552,0,0,1-2.673,12.158,19.529,19.529,0,0,1-7.465,8.108A21.273,21.273,0,0,1,38.121-10.946Zm0-45.008A20.843,20.843,0,0,0,27.555-53.3a18.191,18.191,0,0,0-7.129,7.6,25.266,25.266,0,0,0-2.564,11.654,25.567,25.567,0,0,0,2.565,11.7,18.445,18.445,0,0,0,7.131,7.7,20.549,20.549,0,0,0,10.562,2.7A20.289,20.289,0,0,0,48.633-14.64a18.544,18.544,0,0,0,7.085-7.7,25.567,25.567,0,0,0,2.565-11.7A25.266,25.266,0,0,0,55.718-45.7a18.286,18.286,0,0,0-7.082-7.605A20.578,20.578,0,0,0,38.121-55.954Z" transform="translate(-16533 -7077)" fill="#707070"/>
    </g>
  </g>
</svg>
