<svg xmlns="http://www.w3.org/2000/svg" xmlns:xlink="http://www.w3.org/1999/xlink" width="105" height="105" viewBox="0 0 105 105">
  <defs>
    <clipPath id="clip-path">
      <rect id="長方形_81" data-name="長方形 81" width="105" height="105" transform="translate(314.611 2184.611)" fill="#fff" stroke="#707070" stroke-width="1"/>
    </clipPath>
  </defs>
  <g id="マスクグループ_18" data-name="マスクグループ 18" transform="translate(-314.611 -2184.611)" clip-path="url(#clip-path)">
    <g id="ダッシュのピクトグラム1" transform="translate(315.61 2159.181)">
      <path id="パス_204" data-name="パス 204" d="M83.724,61.907A10.865,10.865,0,1,0,72.86,51.043,10.865,10.865,0,0,0,83.724,61.907Z" transform="translate(-58.185 -5.716)"/>
      <path id="パス_205" data-name="パス 205" d="M101.478,111.783l-45.132-55,7.222-7.9,14.545-4.287a5.846,5.846,0,0,0-2.384-11.446L61.743,36.153a14.8,14.8,0,0,0-6.57,3.274L20.541,69.369l-15.8,2.8a5.846,5.846,0,1,0,2.218,11.48L21.7,82.414a14.835,14.835,0,0,0,7.822-3.155l8.214-6.027,9.116,9.912-9.82,7.836a8.174,8.174,0,0,0-.418,12.223l22.139,17.685a6.558,6.558,0,1,0,9.34-9.21L50.821,97.143l13.189-6.977,27.636,30.3a6.558,6.558,0,1,0,9.832-8.682Z"/>
    </g>
  </g>
</svg>
