<svg xmlns="http://www.w3.org/2000/svg" xmlns:xlink="http://www.w3.org/1999/xlink" width="105" height="105" viewBox="0 0 105 105">
  <defs>
    <clipPath id="clip-path">
      <rect id="長方形_81" data-name="長方形 81" width="105" height="105" transform="translate(314.611 2184.611)" fill="#fff" stroke="#707070" stroke-width="1"/>
    </clipPath>
    <clipPath id="clip-path-2">
      <rect id="長方形_119" data-name="長方形 119" width="105" height="69.508" fill="none"/>
    </clipPath>
  </defs>
  <g id="マスクグループ_18" data-name="マスクグループ 18" transform="translate(-314.611 -2184.611)" clip-path="url(#clip-path)">
    <g id="グループ_262" data-name="グループ 262" transform="translate(314.611 2209.357)">
      <g id="グループ_262-2" data-name="グループ 262" clip-path="url(#clip-path-2)">
        <path id="パス_133" data-name="パス 133" d="M84.225,27.129a20.669,20.669,0,0,0-7.313,1.33L70.365,17.882l5.374-9.313h6.139a2.354,2.354,0,0,0,2.347-2.347V2.143A2.109,2.109,0,0,0,81.888.009l-16.12,1.47A2.628,2.628,0,0,0,63.431,4.04V6.221a2.354,2.354,0,0,0,2.348,2.347h4.135l-3.727,6.46H34.7L38.679,3.4A2.523,2.523,0,0,0,37.109.2,6.248,6.248,0,0,0,35.776.063L31.321.058,26.756.052h-1.92c-.119,0-.178,0-.417,0-.17.007-.324.017-.476.032a9.583,9.583,0,0,0-1.776.34,8.7,8.7,0,0,0-1.754.73,7.4,7.4,0,0,0-1.62,1.222,7.052,7.052,0,0,0-1.229,1.661,7.358,7.358,0,0,0-.683,1.824c-.081.3-.118.6-.167.891-.027.285-.067.578-.069.85q-.006.207-.012.412v.013l0,.134v.02l0,.039,0,.077.007.154.014.306.007.152c0,.029,0,.043.005.083l.013.112c.035.3.076.6.122.886s.121.526.185.784a8.907,8.907,0,0,0,1.285,2.735,8.593,8.593,0,0,0,1.758,1.848,9.829,9.829,0,0,0,1.615,1.03c.238.116.452.217.646.3.095.041.186.076.272.108l.121.045.056.021.162.052.306.095.006,0a2.557,2.557,0,1,0,1.5-4.888s-.434-.141-.478-.161c-.087-.034-.187-.083-.3-.136a4.1,4.1,0,0,1-1.5-1.259,3.8,3.8,0,0,1-.538-1.15c-.024-.114-.066-.241-.085-.347a2.583,2.583,0,0,0-.049-.294l-.009-.037a.559.559,0,0,1,0-.068l-.007-.152q-.007-.152-.015-.306l-.007-.154,0-.049.006-.19c0-.146.023-.271.03-.408.025-.123.035-.257.069-.368a2.312,2.312,0,0,1,.221-.612,2.06,2.06,0,0,1,.841-.841A3.614,3.614,0,0,1,23.6,5.3a4.544,4.544,0,0,1,.821-.16c.066-.007,7.9.005,8.34,0L24.8,28.352A20.8,20.8,0,1,0,29.6,29.927l2.241-6.544L47.976,49.217l.01.015,0,.007.008.012a2.489,2.489,0,0,0,.162.226c.015.019.031.038.047.056.049.058.1.114.157.168l.053.052a2.576,2.576,0,0,0,.2.169l.024.02a2.538,2.538,0,0,0,.225.146l.019.009c.06.034.123.062.185.091.038.017.074.038.112.053s.1.033.148.05a2.508,2.508,0,0,0,.794.135H63.6a20.775,20.775,0,1,0,20.621-23.3m-48.932,21.6A14.542,14.542,0,1,1,22.748,34.352l-4.36,12.734a2.523,2.523,0,1,0,4.773,1.635L27.552,35.9a14.53,14.53,0,0,1,7.741,12.834m40.44-12.594,5.721,9.242H69.931a14.536,14.536,0,0,1,5.8-9.242M50.044,43,35.718,20.073H63.275ZM63.6,45.381H54.5l13-22.538,4.932,7.966A20.793,20.793,0,0,0,63.6,45.381M84.225,62.422a14.539,14.539,0,0,1-14.295-12H85.987a2.523,2.523,0,0,0,2.071-3.964L80.3,33.929a14.517,14.517,0,1,1,3.926,28.493" transform="translate(0 0)" fill="#1a1311"/>
      </g>
    </g>
  </g>
</svg>
