<svg xmlns="http://www.w3.org/2000/svg" xmlns:xlink="http://www.w3.org/1999/xlink" width="105" height="105" viewBox="0 0 105 105">
  <defs>
    <clipPath id="clip-path">
      <rect id="長方形_81" data-name="長方形 81" width="105" height="105" transform="translate(314.611 2184.611)" fill="#fff" stroke="#707070" stroke-width="1"/>
    </clipPath>
    <clipPath id="clip-path-2">
      <rect id="長方形_110" data-name="長方形 110" width="103.316" height="100.327" fill="#282828"/>
    </clipPath>
  </defs>
  <g id="マスクグループ_18" data-name="マスクグループ 18" transform="translate(-314.611 -2184.611)" clip-path="url(#clip-path)">
    <g id="グループ_256" data-name="グループ 256" transform="translate(315.612 2186.611)">
      <g id="グループ_256-2" data-name="グループ 256" clip-path="url(#clip-path-2)">
        <path id="パス_106" data-name="パス 106" d="M414.227,17.988,407.435,5.912A11.6,11.6,0,0,0,397.322,0L379.439.007a.274.274,0,0,0-.146.506,14.056,14.056,0,0,1,4.585,5.462L396.312,28.08a.712.712,0,0,1-.271.97l-5.106,2.876a.712.712,0,0,0,.271,1.328l20.578,2.286a.712.712,0,0,0,.725-.408l8.71-18.784a.712.712,0,0,0-1-.92L415.2,18.259a.712.712,0,0,1-.97-.271" transform="translate(-333.776 0)" fill="#282828"/>
        <path id="パス_107" data-name="パス 107" d="M177.155,4.823c-2.087-2.647-4.883-4.667-8.348-4.654a8.544,8.544,0,0,0-7.379,4.394l-3.869,6.878c-.016.028-.037.052-.053.081l-8.376,14.891a.386.386,0,0,0,.147.526l17.243,9.712a.386.386,0,0,0,.526-.147c.859-1.526,4.347-7.727,4.352-7.724l8.063-14.335a5.947,5.947,0,0,0-.167-6.213,27.629,27.629,0,0,0-2.14-3.41" transform="translate(-131.235 -0.148)" fill="#282828"/>
        <path id="パス_108" data-name="パス 108" d="M445.673,573.221l13.855-.011a11.6,11.6,0,0,0,10.105-5.924l8.749-15.6a.274.274,0,0,0-.37-.375,14.056,14.056,0,0,1-7.007,1.324l-25.362.021a.712.712,0,0,1-.713-.711l-.008-5.86a.712.712,0,0,0-1.291-.414L431.564,562.5a.712.712,0,0,0,0,.832l12.115,16.79a.712.712,0,0,0,1.29-.418l-.008-5.768a.712.712,0,0,1,.712-.713" transform="translate(-379.785 -480.09)" fill="#282828"/>
        <path id="パス_109" data-name="パス 109" d="M622.685,321.654c3.346-.411,6.522-1.755,8.309-4.724a8.544,8.544,0,0,0,.069-8.588l-3.875-6.875c-.015-.029-.026-.059-.042-.087L618.758,286.5a.386.386,0,0,0-.526-.147l-17.246,9.706a.386.386,0,0,0-.147.526c.86,1.526,4.352,7.724,4.347,7.727l8.075,14.328a5.947,5.947,0,0,0,5.4,3.079,27.641,27.641,0,0,0,4.025-.061" transform="translate(-528.87 -252.028)" fill="#282828"/>
        <path id="パス_110" data-name="パス 110" d="M8.265,305.679,1.484,317.761a11.6,11.6,0,0,0,.21,11.712L11,344.743a.274.274,0,0,0,.507-.138,14.056,14.056,0,0,1,2.28-6.757L26.2,315.731a.712.712,0,0,1,.969-.273l5.112,2.865a.712.712,0,0,0,.994-.922l-8.75-18.765a.712.712,0,0,0-.726-.407L3.228,300.56a.712.712,0,0,0-.268,1.329l5.032,2.82a.712.712,0,0,1,.273.97" transform="translate(0 -262.525)" fill="#282828"/>
        <path id="パス_111" data-name="パス 111" d="M117.73,610.422c-1.281,3.118-1.667,6.545.045,9.558a8.544,8.544,0,0,0,7.452,4.27l7.892-.008c.032,0,.064.006.1.006l17.085-.017a.386.386,0,0,0,.386-.386l-.007-19.79a.386.386,0,0,0-.386-.386c-1.751,0-8.866.008-8.866,0l-16.447.016a5.946,5.946,0,0,0-5.33,3.2,27.631,27.631,0,0,0-1.92,3.539" transform="translate(-102.665 -531.405)" fill="#282828"/>
      </g>
    </g>
  </g>
</svg>
