<svg xmlns="http://www.w3.org/2000/svg" xmlns:xlink="http://www.w3.org/1999/xlink" width="105" height="105" viewBox="0 0 105 105">
  <defs>
    <clipPath id="clip-path">
      <rect id="長方形_81" data-name="長方形 81" width="105" height="105" transform="translate(314.611 2184.611)" fill="#fff" stroke="#707070" stroke-width="1"/>
    </clipPath>
    <clipPath id="clip-path-2">
      <rect id="長方形_118" data-name="長方形 118" width="102" height="102" transform="translate(0 -0.084)" fill="#282828"/>
    </clipPath>
  </defs>
  <g id="マスクグループ_18" data-name="マスクグループ 18" transform="translate(-314.611 -2184.611)" clip-path="url(#clip-path)">
    <g id="グループ_260" data-name="グループ 260" transform="translate(316.611 2186.695)">
      <rect id="長方形_117" data-name="長方形 117" width="5.348" height="11.124" transform="translate(19.961 59.294)" fill="#282828"/>
      <g id="グループ_261" data-name="グループ 261">
        <g id="グループ_260-2" data-name="グループ 260" clip-path="url(#clip-path-2)">
          <path id="パス_126" data-name="パス 126" d="M202.3,271.567a14.115,14.115,0,0,1-1.551.121l-1.12.023v5.7l1.163-.02a19.8,19.8,0,0,0,6.218-1.112Z" transform="translate(-163.934 -223.011)" fill="#282828"/>
          <path id="パス_127" data-name="パス 127" d="M282.5,142.682a19.749,19.749,0,0,0,1.587-3.964,19.892,19.892,0,0,0,18.755-17.065l.181-1.3h-5.735l-.162.951a14.147,14.147,0,0,1-13.742,11.732l-3.777.052-.9,3.668a14.121,14.121,0,0,1-.507,1.627Z" transform="translate(-228.455 -98.833)" fill="#282828"/>
          <path id="パス_128" data-name="パス 128" d="M232.969,133.646a14.16,14.16,0,0,1,12.276-7.665l1.12-.023v-5.7l-1.163.02a19.859,19.859,0,0,0-16.406,9.195Z" transform="translate(-187.886 -98.756)" fill="#282828"/>
          <path id="パス_129" data-name="パス 129" d="M118.922,218.476a19.853,19.853,0,0,0-9.083,14.017l-.181,1.3h5.735l.162-.951a14.025,14.025,0,0,1,3.873-7.525,14.171,14.171,0,0,1,3.66-2.676Z" transform="translate(-90.051 -179.412)" fill="#282828"/>
          <path id="パス_130" data-name="パス 130" d="M399.75,342.747h2.106V331.623H388.626Z" transform="translate(-319.14 -272.329)" fill="#282828"/>
          <path id="パス_131" data-name="パス 131" d="M182.933,338.67H158.465V335.7h21.5l-4.077-4.077h-21.5v11.124h32.621Z" transform="translate(-126.784 -272.329)" fill="#282828"/>
          <path id="パス_132" data-name="パス 132" d="M50.958,0a50.958,50.958,0,1,0,50.958,50.958A50.958,50.958,0,0,0,50.958,0M80.669,21.247a42.025,42.025,0,0,1,3.275,55.744L24.925,17.972a42.025,42.025,0,0,1,55.744,3.275M21.247,80.669a42.025,42.025,0,0,1-3.275-55.744L76.991,83.944a42.025,42.025,0,0,1-55.744-3.275" fill="#282828"/>
        </g>
      </g>
    </g>
  </g>
</svg>
