<svg xmlns="http://www.w3.org/2000/svg" xmlns:xlink="http://www.w3.org/1999/xlink" width="105" height="105" viewBox="0 0 105 105">
  <defs>
    <clipPath id="clip-path">
      <rect id="長方形_81" data-name="長方形 81" width="105" height="105" transform="translate(314.611 2184.611)" fill="#fff" stroke="#707070" stroke-width="1"/>
    </clipPath>
  </defs>
  <g id="マスクグループ_18" data-name="マスクグループ 18" transform="translate(-314.611 -2184.611)" clip-path="url(#clip-path)">
    <path id="前面オブジェクトで型抜き_2" data-name="前面オブジェクトで型抜き 2" d="M50.806,89.69h0a1.675,1.675,0,0,1-1.293-.645h0a.012.012,0,0,0,.012-.008c.013-.032-.041-.158-.545-.648A204.354,204.354,0,0,0,30.626,73.119C14.876,61.026,0,49.6,0,31.036c0-9.472,2.6-17.429,7.512-23.01A23.336,23.336,0,0,1,15.636,2.04,24.367,24.367,0,0,1,25.55,0c.173,0,.349,0,.521.005A27.243,27.243,0,0,1,36.229,2.064a23.085,23.085,0,0,1,7.382,4.99A26.688,26.688,0,0,1,50.8,21.418,26.691,26.691,0,0,1,58,7.054a23.086,23.086,0,0,1,7.383-4.99A27.242,27.242,0,0,1,75.537,0C75.71,0,75.886,0,76.059,0a24.37,24.37,0,0,1,9.914,2.04A23.333,23.333,0,0,1,94.1,8.025c4.914,5.581,7.511,13.538,7.511,23.01,0,18.567-14.876,29.99-30.626,42.084A204.356,204.356,0,0,0,52.627,88.388c-.5.491-.558.617-.545.648a.015.015,0,0,0,.014.009,1.656,1.656,0,0,1-1.289.643h0ZM34.337,30.063V63.555h9.531V45.84c.034,0,1.613,2.138,3.611,4.845,3.737,5.061,9.381,12.705,9.73,12.868H67.272V29.912H57.737V47.628c-.031,0-1.513-1.993-3.39-4.516-3.814-5.128-9.576-12.876-9.95-13.049Z" transform="translate(316.307 2195.921)"/>
  </g>
</svg>
