<svg xmlns="http://www.w3.org/2000/svg" xmlns:xlink="http://www.w3.org/1999/xlink" width="105" height="105" viewBox="0 0 105 105">
  <defs>
    <clipPath id="clip-path">
      <rect id="長方形_81" data-name="長方形 81" width="105" height="105" transform="translate(314.611 2184.611)" fill="#fff" stroke="#707070" stroke-width="1"/>
    </clipPath>
  </defs>
  <g id="マスクグループ_18" data-name="マスクグループ 18" transform="translate(-314.611 -2184.611)" clip-path="url(#clip-path)">
    <g id="公文書の書類アイコン" transform="translate(269.175 2184.611)">
      <path id="パス_117" data-name="パス 117" d="M115.758,0H59.6a2.443,2.443,0,0,0-2.442,2.442V102.558A2.441,2.441,0,0,0,59.6,105h76.674a2.443,2.443,0,0,0,2.442-2.442v-79.6Zm-.73,7.556,16.618,16.618H115.027Zm17.826,91.583H63.018V5.861h47.126V24.305a4.754,4.754,0,0,0,4.755,4.752h17.954Z" transform="translate(0)" fill="#282828"/>
      <rect id="長方形_113" data-name="長方形 113" width="42.977" height="4.884" transform="translate(75.229 38.093)" fill="#282828"/>
      <rect id="長方形_114" data-name="長方形 114" width="42.73" height="4.884" transform="translate(75.229 55.185)" fill="#282828"/>
      <rect id="長方形_115" data-name="長方形 115" width="22.949" height="4.887" transform="translate(75.229 72.277)" fill="#282828"/>
      <path id="パス_118" data-name="パス 118" d="M295.207,329.115a9.766,9.766,0,0,0,0,13.807l.026.026-4.108,6.748,4.544.061,2.147,4.012,4.3-7.069,4.3,7.069,2.153-4.012,4.541-.061-4.111-6.748.029-.026a9.766,9.766,0,1,0-13.814-13.807Zm10.812,6.9a3.826,3.826,0,0,1-.574,2.038,3.974,3.974,0,0,1-.567.727,3.888,3.888,0,0,1-2.48,1.131c-.093.006-.186.013-.285.013s-.189-.006-.279-.013a3.9,3.9,0,0,1-2.487-1.131,4,4,0,0,1-1.141-2.765,3.906,3.906,0,1,1,7.812,0Z" transform="translate(-185.986 -259.343)" fill="#282828"/>
    </g>
  </g>
</svg>
