<svg xmlns="http://www.w3.org/2000/svg" xmlns:xlink="http://www.w3.org/1999/xlink" width="105" height="105" viewBox="0 0 105 105">
  <defs>
    <clipPath id="clip-path">
      <rect id="長方形_81" data-name="長方形 81" width="105" height="105" transform="translate(314.611 2184.611)" fill="#fff" stroke="#707070" stroke-width="1"/>
    </clipPath>
    <clipPath id="clip-path-2">
      <rect id="長方形_109" data-name="長方形 109" width="105" height="78.603" fill="#282828"/>
    </clipPath>
  </defs>
  <g id="マスクグループ_18" data-name="マスクグループ 18" transform="translate(-314.611 -2184.611)" clip-path="url(#clip-path)">
    <g id="グループ_255" data-name="グループ 255" transform="translate(314.611 2197.81)">
      <g id="グループ_255-2" data-name="グループ 255" clip-path="url(#clip-path-2)">
        <path id="パス_103" data-name="パス 103" d="M194.309,13.161C194.309,5.9,188.11,0,180.49,0a13.88,13.88,0,0,0-12.633,7.829A13.88,13.88,0,0,0,155.223,0C147.6,0,141.4,5.9,141.4,13.161a13.529,13.529,0,0,0,4.419,9.67c2.043,1.894,21.046,19.1,21.237,19.27a1.185,1.185,0,0,0,1.591,0c.192-.173,19.195-17.376,21.237-19.27a13.529,13.529,0,0,0,4.419-9.67" transform="translate(-115.357)" fill="#282828"/>
        <path id="パス_104" data-name="パス 104" d="M42.552,70.411l0-.023h0A5.336,5.336,0,0,0,41,67.773l-17.6-16.3a5.216,5.216,0,0,0-7.428.3,5.359,5.359,0,0,0,.339,7.51L27.984,70.095l-1.479,2.858L14.222,61.576a8.512,8.512,0,0,1-.538-11.927,8.282,8.282,0,0,1,1.723-1.444L10.355,28.8A5.287,5.287,0,0,0,3.964,24.92a5.287,5.287,0,0,0-3.8,6.438L11.689,75.632a5.333,5.333,0,0,0,2.45,3.3L29.072,90.07,31.265,98.8h17.24L42.63,70.78q-.032-.186-.077-.369" transform="translate(0 -20.2)" fill="#282828"/>
        <path id="パス_105" data-name="パス 105" d="M351.229,24.92a5.287,5.287,0,0,0-6.391,3.878l-5.052,19.409a8.268,8.268,0,0,1,1.723,1.443,8.512,8.512,0,0,1-.538,11.927L328.688,72.953,327.209,70.1,338.886,59.28a5.359,5.359,0,0,0,.339-7.509,5.216,5.216,0,0,0-7.428-.3l-17.6,16.3a5.34,5.34,0,0,0-1.548,2.614h0l0,.023q-.045.183-.077.369L306.688,98.8h17.24l2.194-8.734,14.932-11.141a5.332,5.332,0,0,0,2.45-3.3l11.525-44.275a5.287,5.287,0,0,0-3.8-6.438" transform="translate(-250.193 -20.201)" fill="#282828"/>
      </g>
    </g>
  </g>
</svg>
