<svg xmlns="http://www.w3.org/2000/svg" xmlns:xlink="http://www.w3.org/1999/xlink" width="105" height="105" viewBox="0 0 105 105">
  <defs>
    <clipPath id="clip-path">
      <rect id="長方形_81" data-name="長方形 81" width="105" height="105" transform="translate(314.611 2184.611)" fill="#fff" stroke="#707070" stroke-width="1"/>
    </clipPath>
  </defs>
  <g id="マスクグループ_18" data-name="マスクグループ 18" transform="translate(-314.611 -2184.611)" clip-path="url(#clip-path)">
    <g id="スーツアイコン1" transform="translate(315.592 2161.646)">
      <path id="パス_119" data-name="パス 119" d="M102.985,118.012,89.94,59.917a13.1,13.1,0,0,0-7.092-8.929L68.27,43.965,51.52,86.939,34.768,43.965,20.189,50.989A13.1,13.1,0,0,0,13.1,59.917L.053,118.012A2.185,2.185,0,0,0,1.7,120.622l10.693,2.415a2.183,2.183,0,0,0,2.6-1.611l9.592-39.3,2.885,19.248-5.16,24.094a2.727,2.727,0,0,0,2.273,3.27l23.568,3.43,3.367-9.357,3.366,9.357,23.568-3.43a2.727,2.727,0,0,0,2.273-3.27l-5.16-24.094,2.885-19.248,9.592,39.3a2.182,2.182,0,0,0,2.6,1.611l10.693-2.415A2.185,2.185,0,0,0,102.985,118.012ZM51.52,114.526a2.04,2.04,0,1,1,2.037-2.04A2.04,2.04,0,0,1,51.52,114.526Zm0-13.794a2.039,2.039,0,1,1,2.037-2.04A2.039,2.039,0,0,1,51.52,100.733Z" transform="translate(0 -11.192)" fill="#282828"/>
      <path id="パス_120" data-name="パス 120" d="M244.1,37.116l.64-2.509-1.138-4.656h-4.974l-1.14,4.656.642,2.509Z" transform="translate(-189.697)" fill="#282828"/>
      <path id="パス_121" data-name="パス 121" d="M244.134,101.918l-.788-18.51h-6.417l-.788,18.51,4,10.423Z" transform="translate(-188.618 -42.693)" fill="#282828"/>
    </g>
  </g>
</svg>
