<svg xmlns="http://www.w3.org/2000/svg" xmlns:xlink="http://www.w3.org/1999/xlink" width="105" height="105" viewBox="0 0 105 105">
  <defs>
    <clipPath id="clip-path">
      <rect id="長方形_81" data-name="長方形 81" width="105" height="105" transform="translate(314.611 2184.611)" fill="#fff" stroke="#707070" stroke-width="1"/>
    </clipPath>
    <clipPath id="clip-path-2">
      <rect id="長方形_112" data-name="長方形 112" width="99.624" height="101.393" fill="#282828"/>
    </clipPath>
  </defs>
  <g id="マスクグループ_18" data-name="マスクグループ 18" transform="translate(-314.611 -2184.611)" clip-path="url(#clip-path)">
    <g id="グループ_258" data-name="グループ 258" transform="translate(316.611 2186.481)">
      <g id="グループ_258-2" data-name="グループ 258" transform="translate(1)" clip-path="url(#clip-path-2)">
        <path id="パス_115" data-name="パス 115" d="M49.99,101.393a22.825,22.825,0,0,1-22.8-22.8V62.712h-.31A26.911,26.911,0,0,1,0,35.831V8.325A5.275,5.275,0,0,1,5.269,3.056H15.621A3.353,3.353,0,0,1,18.956,0h4.775A3.352,3.352,0,0,1,27.08,3.348V13.3a3.352,3.352,0,0,1-3.348,3.348H18.956a3.352,3.352,0,0,1-3.335-3.056H10.538V35.831A16.361,16.361,0,0,0,26.881,52.174H38.765A16.361,16.361,0,0,0,55.108,35.831V13.594H50.025A3.353,3.353,0,0,1,46.69,16.65H41.914A3.352,3.352,0,0,1,38.566,13.3V3.348A3.352,3.352,0,0,1,41.914,0H46.69a3.353,3.353,0,0,1,3.336,3.056H60.377a5.275,5.275,0,0,1,5.269,5.269V35.831A26.911,26.911,0,0,1,38.765,62.712H37.729V78.594A12.274,12.274,0,0,0,49.99,90.854H68.633A12.274,12.274,0,0,0,80.894,78.594V72.178l.588.16a17.85,17.85,0,0,0,9.361,0l.588-.16v6.416a22.824,22.824,0,0,1-22.8,22.8Z" fill="#282828"/>
        <path id="パス_116" data-name="パス 116" d="M422.166,226.321a13.461,13.461,0,1,0,13.462,13.461,13.477,13.477,0,0,0-13.462-13.461m6.4,16.641a2.293,2.293,0,0,1-2.293-2.293,5,5,0,0,0-4.989-4.989,2.293,2.293,0,0,1,0-4.587,9.587,9.587,0,0,1,9.576,9.576,2.293,2.293,0,0,1-2.293,2.293" transform="translate(-336.004 -186.063)" fill="#282828"/>
      </g>
    </g>
  </g>
</svg>
