<svg xmlns="http://www.w3.org/2000/svg" xmlns:xlink="http://www.w3.org/1999/xlink" width="475" height="170" viewBox="0 0 475 170">
  <defs>
    <clipPath id="clip-path">
      <rect id="長方形_105" data-name="長方形 105" width="475" height="170" transform="translate(305 1517)" fill="#32618d" stroke="#707070" stroke-width="1"/>
    </clipPath>
  </defs>
  <g id="グループ_26826" data-name="グループ 26826" transform="translate(4834 12240)">
    <g id="グループ_248" data-name="グループ 248" transform="translate(-5139 -13667)">
      <g id="マスクグループ_22" data-name="マスクグループ 22" transform="translate(0 -90)" clip-path="url(#clip-path)">
        <path id="パス_212" data-name="パス 212" d="M50.76-35.748v-6.318H3.294v6.318H15.876C15.5-22.734,15.066-8.37,1.188-.594A19.216,19.216,0,0,1,5.832,4.59C15.876-1.458,19.764-10.8,21.438-20.79H39.42c-.594,11.556-1.458,16.848-2.862,18.2a3.473,3.473,0,0,1-2.538.7c-1.62,0-5.292,0-9.018-.324A15.434,15.434,0,0,1,27.27,4.1a66.011,66.011,0,0,0,9.4-.054c2.43-.27,4.158-.81,5.778-2.7,2.106-2.376,3.024-8.91,3.834-25.488.108-.81.162-2.862.162-2.862H22.194c.27-2.916.378-5.886.486-8.748ZM30.024,34.644V21.036h13.5V34.644ZM10.908,21.036H23.652V34.644H10.908ZM50,14.664H4.428v46.98h6.48V41.016H43.524V54.084c0,.918-.378,1.242-1.4,1.3-1.08,0-4.59.054-7.668-.162a26.247,26.247,0,0,1,2.322,6.426c4.806,0,8.046-.108,10.206-1.188C49.248,59.43,50,57.648,50,54.138Z" transform="translate(720 1605)" fill="#32618d"/>
        <path id="パス_214" data-name="パス 214" d="M62.075-23.66H36.53V-43.355H58.305v-7.67H6.565v7.67h21.9V-23.66H3.185V-15.8H28.47V5.655h8.06V-15.8H62.075ZM10.53-39.195a65.184,65.184,0,0,1,4.745,13.52l7.54-2.34c-.715-3.64-3.055-9.1-5.2-13.26Zm37.96,13.39A127.179,127.179,0,0,0,55.64-39.39l-8.255-2.08A77.023,77.023,0,0,1,41.73-27.755Zm68.055,6.37c-8.45,3.055-17.42,6.175-23.14,7.93l3.055,7.28c6.175-2.47,14.105-5.655,21.385-8.71ZM104.91-44.72a76.322,76.322,0,0,0,2.99-8.71l-7.865-1.755a58.556,58.556,0,0,1-8.19,18.395v-3.77h-6.11V-54.275H78.26V-40.56H71.305v7.28H78.26v17.875c-3.12,1.17-6.045,2.21-8.385,2.99l2.73,7.865c6.175-2.6,14.1-5.98,21.385-9.23L92.3-20.93c-2.145.91-4.355,1.755-6.565,2.665V-33.28H89.05l-.715.715a47.511,47.511,0,0,1,6.63,4.94c.65-.715,1.235-1.5,1.885-2.34v5.4h18.98v-6.89H97.955c1.235-1.82,2.4-3.77,3.575-5.915h20.6c-.715,22.815-1.625,32.24-3.51,34.255a2.95,2.95,0,0,1-2.665,1.17c-1.69,0-5.135,0-8.905-.325a18.738,18.738,0,0,1,2.6,7.865,58.2,58.2,0,0,0,9.815-.2c2.665-.455,4.355-1.17,6.11-3.64,2.6-3.445,3.51-13.845,4.355-42.77,0-1.04.065-3.705.065-3.705ZM20.8,54.4V44.52H32.045V54.4Zm41.47,0H40.04V44.52H57.2V37.37H40.04v-7.8H58.695V22.1H21.97a41.5,41.5,0,0,0,2.145-5.33L16.25,14.75C13.455,23.135,8.45,31.455,2.6,36.4A59.821,59.821,0,0,1,9.3,41.4a58.415,58.415,0,0,0,8.84-11.83h13.91v7.8H13.065V54.4H2.8v7.41h29.25V75.72h8V61.81H62.27Zm61.945-35.36-1.3.26H96.4v7.6H120.64A75.056,75.056,0,0,1,113.1,49.4a82.769,82.769,0,0,1-7.215-22.035l-7.41,1.365c2.21,10.79,5.265,20.345,9.685,28.275A41.612,41.612,0,0,1,94.12,68.765V15.335H86.58V51.67l-4.94,1.17V22.485H74.425V54.53c-1.625.325-3.12.65-4.485.91l1.755,7.93c4.42-1.17,9.685-2.535,14.885-4.03V75.59h7.54V68.96a29.374,29.374,0,0,1,5.135,6.565A51.788,51.788,0,0,0,112.97,64.28a43.441,43.441,0,0,0,13.39,11.31,27.949,27.949,0,0,1,5.525-6.76A37.734,37.734,0,0,1,118.04,57.325c5.785-9.425,9.685-21.58,11.44-36.79Z" transform="translate(305 1592)" fill="#282828"/>
        <path id="パス_213" data-name="パス 213" d="M86.39-102.853h-54.6v32.437a25.816,25.816,0,0,1,10.188-7.661,34.243,34.243,0,0,1,14.425-3.1q13.692,0,22.25,5.868A32.873,32.873,0,0,1,90.872-60.473,49.454,49.454,0,0,1,94.54-41.565,47.643,47.643,0,0,1,89.895-20.13,34.545,34.545,0,0,1,76.04-5.379Q66.83,0,53.464,0,35.7,0,24.939-8.8T12.062-32.111H30.155a20.152,20.152,0,0,0,7.987,12.143q6.194,4.483,15.485,4.483,11.573,0,17.359-7.009t5.786-18.582q0-11.736-5.868-18.012T53.627-65.363A22.162,22.162,0,0,0,40.18-61.37a22.365,22.365,0,0,0-7.906,10.84H14.67v-68.623H86.39ZM122.576-62.1q-16.952-8.476-16.952-26.732a30.778,30.778,0,0,1,4.4-16.137,30.584,30.584,0,0,1,13.2-11.655q8.8-4.319,21.516-4.319,12.551,0,21.434,4.319a30.507,30.507,0,0,1,13.285,11.655,30.778,30.778,0,0,1,4.4,16.137,28.147,28.147,0,0,1-4.646,16.055A30.868,30.868,0,0,1,166.912-62.1a29.988,29.988,0,0,1,14.67,11.166,31.054,31.054,0,0,1,5.379,18.174,33.25,33.25,0,0,1-5.379,18.745,34.858,34.858,0,0,1-15,12.551,51.929,51.929,0,0,1-21.842,4.4,51.374,51.374,0,0,1-21.76-4.4,34.944,34.944,0,0,1-14.915-12.551,33.25,33.25,0,0,1-5.379-18.745,30.956,30.956,0,0,1,5.379-18.256A30.231,30.231,0,0,1,122.576-62.1ZM166.1-86.553q0-9.128-5.705-14.018t-15.648-4.89q-9.78,0-15.485,4.89T123.554-86.39a16.732,16.732,0,0,0,5.95,13.284q5.949,5.134,15.24,5.134t15.322-5.216A16.874,16.874,0,0,0,166.1-86.553Zm-21.353,32.6q-10.758,0-17.523,5.3t-6.764,15.24a19.209,19.209,0,0,0,6.52,15.078q6.52,5.787,17.767,5.786,11.084,0,17.523-5.868a19.386,19.386,0,0,0,6.438-15q0-9.78-6.6-15.159T144.744-53.953Zm50.367-7.009q0-28.2,9.536-44.092t32.844-15.892q23.309,0,32.845,15.892t9.535,44.092q0,28.525-9.535,44.581T237.491-.326q-23.309,0-32.844-16.056T195.111-60.962Zm66.5,0A123.588,123.588,0,0,0,259.9-83.293a30,30,0,0,0-6.928-14.915q-5.216-5.786-15.485-5.786t-15.485,5.786a30,30,0,0,0-6.928,14.915,123.586,123.586,0,0,0-1.712,22.331A136.084,136.084,0,0,0,215-37.979q1.63,9.291,6.928,15t15.566,5.7q10.269,0,15.566-5.7t6.927-15A136.084,136.084,0,0,0,261.615-60.962Z" transform="translate(438 1667)" fill="#32618d"/>
        <path id="パス_215" data-name="パス 215" d="M11.18,1.3,12.415.754A8.076,8.076,0,0,1,10.088-4.94a8.076,8.076,0,0,1,2.327-5.694L11.18-11.18A8.567,8.567,0,0,0,8.619-4.94,8.567,8.567,0,0,0,11.18,1.3ZM14.209,0h6.448V-1.612H18.564c-.442,0-1.079.052-1.56.1,1.755-1.716,3.2-3.588,3.2-5.33A2.822,2.822,0,0,0,17.173-9.8a3.9,3.9,0,0,0-3.055,1.456l1.04,1.04a2.492,2.492,0,0,1,1.768-.988,1.38,1.38,0,0,1,1.443,1.56c0,1.482-1.547,3.289-4.16,5.629ZM26.117-3.12V-5.1h2.249V-3.12Zm8.294,0H29.965V-5.1H33.4v-1.43H29.965v-1.56H33.7V-9.581H26.351a8.3,8.3,0,0,0,.429-1.066l-1.573-.4a10.025,10.025,0,0,1-2.73,4.329,11.964,11.964,0,0,1,1.339,1,11.683,11.683,0,0,0,1.768-2.366h2.782v1.56h-3.8V-3.12H22.516v1.482h5.85V1.144h1.6V-1.638h4.446Zm4.615,1.794V-2.86h6.019v1.534ZM45.045-5.85v1.534H39.026V-5.85Zm0-2.951v1.495H39.026V-8.8Zm-7.579-1.508V.988h1.56V.182h6.019V.988h1.638v-11.3ZM57.291-6.357a13.255,13.255,0,0,0-2.054-3.12l-1.4.7A13.248,13.248,0,0,1,55.77-5.551Zm-2.379,2.3c-.65.26-1.313.533-1.963.806l-.234-7.033-1.612.065.26,7.592c-.65.26-1.235.468-1.729.637l.52,1.651c1.469-.611,3.393-1.43,5.109-2.2ZM61.971-.169A28.352,28.352,0,0,0,59.085-3.51a20.094,20.094,0,0,0,1.586-6.6l-1.7-.156c-.481,5.343-1.82,8.489-5.941,10.049a9.089,9.089,0,0,1,1.235,1.365,9.282,9.282,0,0,0,3.952-3.159,22.777,22.777,0,0,1,2.431,3.133Zm4.94-10.348-.221.065H63.869V1.131h1.339V-9.074h1.014c-.208.884-.481,2.015-.741,2.834a3.48,3.48,0,0,1,.9,2.275c0,.364-.052.624-.195.728a.673.673,0,0,1-.364.117c-.156,0-.338,0-.572-.013a3.278,3.278,0,0,1,.338,1.313,5.494,5.494,0,0,0,.832-.026,1.856,1.856,0,0,0,.754-.273,1.908,1.908,0,0,0,.572-1.664A4,4,0,0,0,66.794-6.4c.364-1.014.793-2.431,1.131-3.536Zm4.641,8.541H70.447V-3.159h1.105Zm1.183-6.747a5.891,5.891,0,0,1-1.04,1.17,5.372,5.372,0,0,1-1.079-1.17Zm1.04-1.248-.26.052h-2.08c.169-.273.312-.559.455-.845L70.434-11a6.784,6.784,0,0,1-2.769,3.029,4.25,4.25,0,0,1,1,.988,9.64,9.64,0,0,0,1.04-.819,6.694,6.694,0,0,0,.884,1.027,9.444,9.444,0,0,1-2.834,1.092,6.613,6.613,0,0,1,.78,1.209,11.361,11.361,0,0,0,3.185-1.4,9.719,9.719,0,0,0,1.157.611H71.552v.845H68.393v1.261h.715v1.183H67.7v1.3h3.848V1.131h1.495V-.676h2.3v-1.3h-2.3V-3.159h1.911V-4.42H73.047v-.767a11.038,11.038,0,0,0,1.716.533,5.086,5.086,0,0,1,.9-1.248,9.706,9.706,0,0,1-2.782-.884,7.3,7.3,0,0,0,1.846-2.756Zm4.6-1.209-1.235.546A8.076,8.076,0,0,1,79.469-4.94,8.076,8.076,0,0,1,77.142.754l1.235.546a8.567,8.567,0,0,0,2.561-6.24A8.567,8.567,0,0,0,78.377-11.18Z" transform="translate(299 1683)" fill="#282828"/>
      </g>
    </g>
  </g>
</svg>
