<svg xmlns="http://www.w3.org/2000/svg" xmlns:xlink="http://www.w3.org/1999/xlink" width="475" height="230" viewBox="0 0 475 230">
  <defs>
    <clipPath id="clip-path">
      <rect id="長方形_105" data-name="長方形 105" width="475" height="230" transform="translate(305 1517)" fill="#32618d" stroke="#707070" stroke-width="1"/>
    </clipPath>
  </defs>
  <g id="グループ_26828" data-name="グループ 26828" transform="translate(5459 12000)">
    <g id="グループ_26825" data-name="グループ 26825" transform="translate(-5764 -13427)">
      <g id="マスクグループ_22" data-name="マスクグループ 22" transform="translate(0 -90)" clip-path="url(#clip-path)">
        <g id="グループ_250" data-name="グループ 250" transform="translate(0 -25)">
          <path id="パス_217" data-name="パス 217" d="M50.76-35.748v-6.318H3.294v6.318H15.876C15.5-22.734,15.066-8.37,1.188-.594A19.216,19.216,0,0,1,5.832,4.59C15.876-1.458,19.764-10.8,21.438-20.79H39.42c-.594,11.556-1.458,16.848-2.862,18.2a3.473,3.473,0,0,1-2.538.7c-1.62,0-5.292,0-9.018-.324A15.434,15.434,0,0,1,27.27,4.1a66.011,66.011,0,0,0,9.4-.054c2.43-.27,4.158-.81,5.778-2.7,2.106-2.376,3.024-8.91,3.834-25.488.108-.81.162-2.862.162-2.862H22.194c.27-2.916.378-5.886.486-8.748ZM30.024,34.644V21.036h13.5V34.644ZM10.908,21.036H23.652V34.644H10.908ZM50,14.664H4.428v46.98h6.48V41.016H43.524V54.084c0,.918-.378,1.242-1.4,1.3-1.08,0-4.59.054-7.668-.162a26.247,26.247,0,0,1,2.322,6.426c4.806,0,8.046-.108,10.206-1.188C49.248,59.43,50,57.648,50,54.138Z" transform="translate(706 1698)" fill="#32618d"/>
          <path id="パス_219" data-name="パス 219" d="M62.075-23.66H36.53V-43.355H58.305v-7.67H6.565v7.67h21.9V-23.66H3.185V-15.8H28.47V5.655h8.06V-15.8H62.075ZM10.53-39.195a65.184,65.184,0,0,1,4.745,13.52l7.54-2.34c-.715-3.64-3.055-9.1-5.2-13.26Zm37.96,13.39A127.179,127.179,0,0,0,55.64-39.39l-8.255-2.08A77.023,77.023,0,0,1,41.73-27.755Zm68.055,6.37c-8.45,3.055-17.42,6.175-23.14,7.93l3.055,7.28c6.175-2.47,14.105-5.655,21.385-8.71ZM104.91-44.72a76.322,76.322,0,0,0,2.99-8.71l-7.865-1.755a58.556,58.556,0,0,1-8.19,18.395v-3.77h-6.11V-54.275H78.26V-40.56H71.305v7.28H78.26v17.875c-3.12,1.17-6.045,2.21-8.385,2.99l2.73,7.865c6.175-2.6,14.1-5.98,21.385-9.23L92.3-20.93c-2.145.91-4.355,1.755-6.565,2.665V-33.28H89.05l-.715.715a47.511,47.511,0,0,1,6.63,4.94c.65-.715,1.235-1.5,1.885-2.34v5.4h18.98v-6.89H97.955c1.235-1.82,2.4-3.77,3.575-5.915h20.6c-.715,22.815-1.625,32.24-3.51,34.255a2.95,2.95,0,0,1-2.665,1.17c-1.69,0-5.135,0-8.905-.325a18.738,18.738,0,0,1,2.6,7.865,58.2,58.2,0,0,0,9.815-.2c2.665-.455,4.355-1.17,6.11-3.64,2.6-3.445,3.51-13.845,4.355-42.77,0-1.04.065-3.705.065-3.705ZM20.8,54.4V44.52H32.045V54.4Zm41.47,0H40.04V44.52H57.2V37.37H40.04v-7.8H58.695V22.1H21.97a41.5,41.5,0,0,0,2.145-5.33L16.25,14.75C13.455,23.135,8.45,31.455,2.6,36.4A59.821,59.821,0,0,1,9.3,41.4a58.415,58.415,0,0,0,8.84-11.83h13.91v7.8H13.065V54.4H2.8v7.41h29.25V75.72h8V61.81H62.27Zm61.945-35.36-1.3.26H96.4v7.6H120.64A75.056,75.056,0,0,1,113.1,49.4a82.769,82.769,0,0,1-7.215-22.035l-7.41,1.365c2.21,10.79,5.265,20.345,9.685,28.275A41.612,41.612,0,0,1,94.12,68.765V15.335H86.58V51.67l-4.94,1.17V22.485H74.425V54.53c-1.625.325-3.12.65-4.485.91l1.755,7.93c4.42-1.17,9.685-2.535,14.885-4.03V75.59h7.54V68.96a29.374,29.374,0,0,1,5.135,6.565A51.788,51.788,0,0,0,112.97,64.28a43.441,43.441,0,0,0,13.39,11.31,27.949,27.949,0,0,1,5.525-6.76A37.734,37.734,0,0,1,118.04,57.325c5.785-9.425,9.685-21.58,11.44-36.79Z" transform="translate(305 1685)" fill="#282828"/>
          <path id="パス_218" data-name="パス 218" d="M85.086-104.483,39.772,0H21.027l45.8-102.527H6.52v-15.811H85.086ZM112.8-32.274q1.63,8.15,7.009,12.388t14.507,4.238q11.573,0,16.952-9.128t5.379-31.133a25.085,25.085,0,0,1-11,8.558,38.948,38.948,0,0,1-15.4,3.015A42.4,42.4,0,0,1,111-48.655,32.049,32.049,0,0,1,97.393-61.533q-4.971-8.558-4.971-20.783,0-17.93,10.513-28.606T131.867-121.6q22.168,0,31.54,14.752t9.372,45.232q0,21.027-3.5,34.393T157.132-7.009Q148.493-.163,133.171-.163q-17.441,0-26.9-9.128a34.792,34.792,0,0,1-10.6-22.983Zm20.7-27.71q9.78,0,15.4-6.112t5.623-16.219q0-11.247-5.95-17.522t-16.218-6.276q-10.269,0-16.219,6.438T110.188-82.8q0,9.943,5.786,16.382T133.5-59.984Zm45.8-41.891v-16.952h33.9V0H194.459V-101.875Z" transform="translate(461 1760)" fill="#32618d"/>
          <path id="パス_216" data-name="パス 216" d="M10.176-40.608C8.064-33.552,4.512-26.544.672-22.08a39.708,39.708,0,0,1,2.736,6.144,38.292,38.292,0,0,0,2.976-3.936v24h5.424v-33.84a93.3,93.3,0,0,0,3.648-9.312ZM35.136-5.9a20.716,20.716,0,0,1-4.848,2.592A19.37,19.37,0,0,1,25.536-5.9ZM23.328-17.088v1.68L20.3-17.04a16.3,16.3,0,0,1-1.2,1.488v-2.3H27.36a18.24,18.24,0,0,1,3.984,3.936L34.8-15.936a13.11,13.11,0,0,0-1.824-1.92h8.3v1.536c-.336-.336-.672-.624-1.008-.912l-3.5,1.776c.432.384.912.864,1.344,1.3a11.913,11.913,0,0,1-3.12-1.008c-.192,1.344-.432,1.632-1.392,1.632H29.376c-1.3,0-1.584-.144-1.584-1.152v-2.4Zm.384-5.52h13.3v1.488h-13.3Zm13.3-7.584v1.44h-13.3v-1.44Zm0,5.28h-13.3v-1.536h13.3Zm2.448,15.6-.96.192H28.752a13.225,13.225,0,0,0,1.44-1.392h4.032c2.736,0,3.84-.768,4.272-3.216A23.9,23.9,0,0,1,41.568-9.84l3.7-1.968a18.306,18.306,0,0,0-1.92-2.448h3.024V-21.12H42.336V-32.976H32.064l.768-1.68H45.36v-4.08H15.936v4.08H26.928c-.144.576-.24,1.152-.384,1.68h-7.92V-21.12H14.256v6.864h3.6a13.044,13.044,0,0,1-2.5,1.872L18.72-9.7a21.4,21.4,0,0,0,4.608-4.7c.048,1.68.384,2.688,1.392,3.264-2.4,2.112-6.192,4.08-11.184,5.52a14.354,14.354,0,0,1,3.12,3.456c1.584-.624,3.072-1.248,4.416-1.92a21.924,21.924,0,0,0,3.312,2.592A84.984,84.984,0,0,1,13.584.24,17.126,17.126,0,0,1,16.32,4.368,73.3,73.3,0,0,0,30,1.3,55.1,55.1,0,0,0,43.968,4.272a21.915,21.915,0,0,1,2.976-4.56,75.885,75.885,0,0,1-10.56-1.248,18.852,18.852,0,0,0,6.48-5.856ZM79.92-33.36h-8.5v3.312h8.5v1.632H69.072v3.552H96.528v-3.552h-10.9v-1.632h8.832V-33.36H85.632v-1.632h9.984v-3.456H85.632v-2.16H79.92v2.16H70.272v3.456H79.92Zm-26.3,20.784c-.384,4.032-1.056,8.3-2.448,11.136A23.977,23.977,0,0,1,55.344.576a44.059,44.059,0,0,0,2.832-12.384Zm12.768-3.312a26.121,26.121,0,0,1,.672,2.592l4.272-1.92A41.42,41.42,0,0,0,67.2-25.3l-4.08,1.632c.528,1.008,1.056,2.064,1.536,3.168l-4.464.288c3.024-3.84,6.288-8.592,8.928-12.624l-4.656-2.16a77.384,77.384,0,0,1-4.32,7.776,24.144,24.144,0,0,0-1.536-1.872,108.063,108.063,0,0,0,5.424-9.792l-4.944-1.728a58.9,58.9,0,0,1-3.456,8.3c-.384-.336-.768-.672-1.1-1.008l-2.784,3.84a44.174,44.174,0,0,1,5.472,6.72c-.72,1.008-1.44,1.968-2.16,2.832l-3.456.192.384,4.944,6.864-.48V4.176h4.9V-15.648ZM64.272-11.76A33.681,33.681,0,0,1,66.48-3.12L70.7-4.512a35.708,35.708,0,0,0-2.448-8.448ZM77.136-9.12H88.8V-7.1H77.136Zm0-5.328H88.8v2.064H77.136Zm0-5.28H88.8v2.016H77.136ZM94.224-3.552v-19.68H72.048v19.68h4.176A37.327,37.327,0,0,1,66.768.816c1.056,1.008,2.64,2.544,3.5,3.552A42.558,42.558,0,0,0,81.792-1.44L78.576-3.552h8.736l-2.976,2.16a83.138,83.138,0,0,1,7.92,5.616l4.992-2.688c-1.92-1.344-5.232-3.36-8.16-5.088ZM117.072-17.28h4.7v3.456h-4.7Zm0-8.3h4.7v3.36h-4.7Zm15.264,0v3.36h-4.848v-3.36Zm0,11.76h-4.848V-17.28h4.848ZM144.48-8.976v-4.848h-6.528V-17.28h8.208v-4.944h-8.208v-3.36h5.616v-4.848h-16.08V-33.5a138.108,138.108,0,0,0,15.36-2.256l-3.7-4.656c-8.16,1.776-21.5,2.832-33.216,3.168a16.852,16.852,0,0,1,1.3,4.848c4.656-.1,9.6-.288,14.544-.624v2.592H106.224v4.848h5.28v3.36h-8.016v4.944H111.5v3.456h-6.048v4.848H118.08A43.08,43.08,0,0,1,102.48-1.1a28.708,28.708,0,0,1,3.888,4.848,45.792,45.792,0,0,0,15.408-9.168v9.5h5.712v-9.5A44.565,44.565,0,0,0,143.04,3.792a25.654,25.654,0,0,1,4.176-5.232,43.1,43.1,0,0,1-15.792-7.536Zm41.184-4.944c.192-1.392.336-2.832.48-4.272h-5.712a40.07,40.07,0,0,1-.48,4.272h-7.008v4.752h5.808C177.264-5.424,174.48-2.352,168.72-.24a16.145,16.145,0,0,1,3.312,4.416c7.584-2.976,10.992-7.632,12.624-13.344h5.568C189.7-4.7,189.072-2.64,188.4-2.016a1.955,1.955,0,0,1-1.536.528,40.651,40.651,0,0,1-4.128-.24,12.388,12.388,0,0,1,1.536,5.28,36.676,36.676,0,0,0,5.376-.1,5.278,5.278,0,0,0,3.5-1.68c1.392-1.536,2.256-5.232,3.024-13.536.1-.672.192-2.16.192-2.16ZM187.776-31.1a14.586,14.586,0,0,1-3.168,4.08,18.822,18.822,0,0,1-3.984-4.08Zm9.12,0v-4.752h-14.16a32.181,32.181,0,0,0,1.776-3.36l-5.328-1.44a28.615,28.615,0,0,1-9.168,11.424,41.915,41.915,0,0,1,4.656,3.216,28.58,28.58,0,0,0,2.16-2.064A27.14,27.14,0,0,0,180.24-24.1a29.082,29.082,0,0,1-5.856,2.208l.192-1.1-3.456-1.152-.768.24h-2.3l2.352-2.448a26.864,26.864,0,0,0-3.5-2.112,35.829,35.829,0,0,0,7.008-7.92l-3.648-2.3-.864.192h-15.5v4.8h11.52a29.973,29.973,0,0,1-3.024,3.024c-1.3-.576-2.64-1.1-3.792-1.536l-3.6,3.648a69.631,69.631,0,0,1,9.264,4.656H153.264v4.992h6a30.159,30.159,0,0,1-6.816,9.888A31.987,31.987,0,0,1,155.04-3.5a29.082,29.082,0,0,0,6-8.88V-2.112c0,.576-.192.672-.768.72-.624,0-2.544,0-4.32-.048a19.016,19.016,0,0,1,1.632,5.424c2.976,0,5.136-.1,6.768-1.008,1.68-.864,2.064-2.4,2.064-4.992v-16.9h2.544a62.564,62.564,0,0,1-1.536,6.624l3.84,1.776a56.031,56.031,0,0,0,2.352-8.016,18.166,18.166,0,0,1,1.344,2.016,38.42,38.42,0,0,0,9.792-4.032,34.573,34.573,0,0,0,9.792,4.128,21.922,21.922,0,0,1,3.6-4.848,37.35,37.35,0,0,1-8.832-2.832,23.579,23.579,0,0,0,4.8-7.008Zm38.5-.48H216V-34.7h19.392Zm6.1-7.584H210.24v12h31.248Zm-27.744,29.04h23.52v2.112h-23.52Zm0-5.712h23.52v2.064h-23.52Zm0-5.664h23.52v2.064h-23.52ZM243.168-4.128V-25.392H208.08V-4.128h7.44A58.631,58.631,0,0,1,203.232.1a50.208,50.208,0,0,1,4.32,4.08,63.956,63.956,0,0,0,14.88-5.76l-3.648-2.544h13.008L227.808-1.3a127.761,127.761,0,0,1,15.408,5.568L248.256.24c-3.312-1.3-8.208-3.024-12.672-4.368Zm47.664.192V-20.544h16.944v-5.808H290.832V-40.08h-6.144V-3.936H267.5v5.76h43.632v-5.76Zm41.424-28.08v5.424H361.3v-5.424h-12v-8.016h-5.76v8.016ZM344.112-5.952a113.95,113.95,0,0,0-3.408-18.48l-5.136.912a104.243,104.243,0,0,1,2.88,18.768ZM327.984-40.56A49.379,49.379,0,0,1,316.416-22.8a38.628,38.628,0,0,1,3.024,5.952,46.5,46.5,0,0,0,3.936-4.512V4.032H328.8V-29.52a78.279,78.279,0,0,0,4.512-9.264ZM352.56-3.216a186.052,186.052,0,0,0,5.328-20.5l-6.24-1.008a127.059,127.059,0,0,1-4.608,21.5H331.3V2.16H362.3V-3.216Zm98.016.336v-9.36h16.272v9.36Zm8.448-28.08a37.62,37.62,0,0,1-6.672,8.784,67.686,67.686,0,0,0-7.632-6.336c.816-.816,1.584-1.632,2.352-2.448ZM472.8-17.424H455.664A44.435,44.435,0,0,0,466.8-34.176l-3.936-2.064-.96.288h-10.9c.864-1.248,1.68-2.5,2.4-3.744l-6.432-1.2A38.345,38.345,0,0,1,431.04-25.632a19.882,19.882,0,0,1,4.032,4.464,49.4,49.4,0,0,0,5.328-3.648,66.673,66.673,0,0,1,7.344,6.624,53.364,53.364,0,0,1-16.8,8.3A18.242,18.242,0,0,1,434.256-4.8a61.535,61.535,0,0,0,10.608-4.7V4.128h5.712V2.256h16.272v1.92H472.8Z" transform="translate(305 1603)" fill="#282828"/>
          <text id="_10" data-name="10" transform="translate(674 1607)" fill="#282828" font-size="64" font-family="Poppins-Medium, Poppins" font-weight="500" letter-spacing="-0.07em"><tspan x="0" y="0">10</tspan></text>
        </g>
      </g>
    </g>
  </g>
</svg>
