<svg xmlns="http://www.w3.org/2000/svg" xmlns:xlink="http://www.w3.org/1999/xlink" width="475" height="170" viewBox="0 0 475 170">
  <defs>
    <clipPath id="clip-path">
      <path id="パス_208" data-name="パス 208" d="M0,0H475V170H0Z" transform="translate(305 1517)" fill="#32618d" stroke="#707070" stroke-width="1"/>
    </clipPath>
  </defs>
  <g id="グループ_26827" data-name="グループ 26827" transform="translate(5459 12240)">
    <g id="グループ_231" data-name="グループ 231" transform="translate(-5764 -13667)">
      <g id="マスクグループ_46" data-name="マスクグループ 46" transform="translate(0 -90)" clip-path="url(#clip-path)">
        <path id="パス_209" data-name="パス 209" d="M50.76-35.748v-6.318H3.294v6.318H15.876C15.5-22.734,15.066-8.37,1.188-.594A19.216,19.216,0,0,1,5.832,4.59C15.876-1.458,19.764-10.8,21.438-20.79H39.42c-.594,11.556-1.458,16.848-2.862,18.2a3.473,3.473,0,0,1-2.538.7c-1.62,0-5.292,0-9.018-.324A15.434,15.434,0,0,1,27.27,4.1a66.011,66.011,0,0,0,9.4-.054c2.43-.27,4.158-.81,5.778-2.7,2.106-2.376,3.024-8.91,3.834-25.488.108-.81.162-2.862.162-2.862H22.194c.27-2.916.378-5.886.486-8.748ZM30.024,34.644V21.036h13.5V34.644ZM10.908,21.036H23.652V34.644H10.908ZM50,14.664H4.428v46.98h6.48V41.016H43.524V54.084c0,.918-.378,1.242-1.4,1.3-1.08,0-4.59.054-7.668-.162a26.247,26.247,0,0,1,2.322,6.426c4.806,0,8.046-.108,10.206-1.188C49.248,59.43,50,57.648,50,54.138Z" transform="translate(720 1605)" fill="#32618d"/>
        <path id="パス_211" data-name="パス 211" d="M46.15-45.37H18.59v-2.665H46.15Zm0,7.41H18.59v-2.73H46.15Zm7.735-15.015H11.18V-33.02h42.7Zm-3.7,36.79a27.216,27.216,0,0,1-4.42,6.37,25.165,25.165,0,0,1-4.355-6.37ZM15.73-8.45h8.45v2.535c-2.86.26-5.72.455-8.45.65Zm0-8.06h8.45v2.73H15.73Zm8.45-8v2.6H15.73v-2.6ZM54.73-22.36l-1.3.26H33.215v5.915h5.98l-4.29,1.17a39.809,39.809,0,0,0,5.915,9.62,33.371,33.371,0,0,1-9.23,4.68v-23.79H61.36v-6.11H3.575v6.11h5.07v19.76c-2.015.195-3.965.26-5.655.39l.585,6.63C9.3,1.755,16.7,1.105,24.18.39V5.655h7.41V.39a28.733,28.733,0,0,1,3.445,5.2A42.351,42.351,0,0,0,46.085-.455,36.416,36.416,0,0,0,58.175,5.59a32.017,32.017,0,0,1,4.55-6.045,36.339,36.339,0,0,1-11.44-4.81,38.75,38.75,0,0,0,8.19-15.275ZM106.275-4.875H95.03V-9.1h11.245Zm20.8-18.72H74.945V5.655h7.54V-17.16h36.79V-2.665c0,.78-.26.975-1.235,1.04-.715.065-2.73.065-4.94,0v-12.61H88.27V3.25h6.76V.325H111.8a21.924,21.924,0,0,1,1.495,5.2c4.68,0,8.125-.065,10.53-1.235,2.535-1.17,3.25-3.25,3.25-6.825Zm-16.445-7.93H90.35V-35.49h20.28ZM83-40.625v14.3h35.49v-14.3ZM104.26-49.66v-5.46H96.4v5.46H72.345v6.565h56.81V-49.66ZM20.8,54.4V44.52H32.045V54.4Zm41.47,0H40.04V44.52H57.2V37.37H40.04v-7.8H58.695V22.1H21.97a41.5,41.5,0,0,0,2.145-5.33L16.25,14.75C13.455,23.135,8.45,31.455,2.6,36.4A59.821,59.821,0,0,1,9.3,41.4a58.415,58.415,0,0,0,8.84-11.83h13.91v7.8H13.065V54.4H2.8v7.41h29.25V75.72h8V61.81H62.27Zm61.945-35.36-1.3.26H96.4v7.6H120.64A75.056,75.056,0,0,1,113.1,49.4a82.769,82.769,0,0,1-7.215-22.035l-7.41,1.365c2.21,10.79,5.265,20.345,9.685,28.275A41.612,41.612,0,0,1,94.12,68.765V15.335H86.58V51.67l-4.94,1.17V22.485H74.425V54.53c-1.625.325-3.12.65-4.485.91l1.755,7.93c4.42-1.17,9.685-2.535,14.885-4.03V75.59h7.54V68.96a29.374,29.374,0,0,1,5.135,6.565A51.788,51.788,0,0,0,112.97,64.28a43.441,43.441,0,0,0,13.39,11.31,27.949,27.949,0,0,1,5.525-6.76A37.734,37.734,0,0,1,118.04,57.325c5.785-9.425,9.685-21.58,11.44-36.79Z" transform="translate(305 1592)" fill="#282828"/>
        <path id="パス_210" data-name="パス 210" d="M29.829-62.1Q12.877-70.579,12.877-88.835a30.778,30.778,0,0,1,4.4-16.137,30.584,30.584,0,0,1,13.2-11.655q8.8-4.319,21.516-4.319,12.551,0,21.435,4.319a30.507,30.507,0,0,1,13.285,11.655,30.778,30.778,0,0,1,4.4,16.137A28.146,28.146,0,0,1,86.471-72.78,30.868,30.868,0,0,1,74.165-62.1a29.988,29.988,0,0,1,14.67,11.166,31.054,31.054,0,0,1,5.379,18.174,33.25,33.25,0,0,1-5.379,18.745,34.858,34.858,0,0,1-15,12.551A51.929,51.929,0,0,1,52,2.934a51.374,51.374,0,0,1-21.761-4.4A34.944,34.944,0,0,1,15.322-14.018,33.25,33.25,0,0,1,9.943-32.763a30.956,30.956,0,0,1,5.379-18.256A30.231,30.231,0,0,1,29.829-62.1ZM73.35-86.553q0-9.128-5.705-14.018T52-105.461q-9.78,0-15.485,4.89T30.807-86.39a16.732,16.732,0,0,0,5.95,13.284Q42.706-67.971,52-67.971t15.322-5.216A16.874,16.874,0,0,0,73.35-86.553ZM52-53.953q-10.758,0-17.523,5.3T27.71-33.415a19.209,19.209,0,0,0,6.52,15.078Q40.75-12.551,52-12.551q11.084,0,17.522-5.868a19.386,19.386,0,0,0,6.438-15q0-9.78-6.6-15.159T52-53.953Zm125.673-50.53L132.356,0H113.611l45.8-102.527H99.1v-15.811H177.67Zm27.71,72.209q1.63,8.15,7.009,12.388T226.9-15.648q11.573,0,16.952-9.128t5.379-31.133a25.085,25.085,0,0,1-11,8.558,38.948,38.948,0,0,1-15.4,3.015,42.4,42.4,0,0,1-19.234-4.319,32.049,32.049,0,0,1-13.61-12.877Q185-70.09,185-82.315q0-17.93,10.514-28.606T224.451-121.6q22.168,0,31.54,14.752t9.372,45.232q0,21.027-3.5,34.393T249.716-7.009Q241.077-.163,225.755-.163q-17.441,0-26.895-9.128a34.792,34.792,0,0,1-10.6-22.983Zm20.7-27.71q9.78,0,15.4-6.112t5.624-16.219q0-11.247-5.95-17.522t-16.218-6.276q-10.269,0-16.219,6.438T202.772-82.8q0,9.943,5.786,16.382T226.081-59.984Z" transform="translate(440 1667)" fill="#32618d"/>
      </g>
    </g>
  </g>
</svg>
