<svg xmlns="http://www.w3.org/2000/svg" xmlns:xlink="http://www.w3.org/1999/xlink" width="475" height="320" viewBox="0 0 475 320">
  <defs>
    <clipPath id="clip-path">
      <rect id="長方形_105" data-name="長方形 105" width="475" height="320" transform="translate(305 1517)" fill="#32618d" stroke="#707070" stroke-width="1"/>
    </clipPath>
  </defs>
  <g id="グループ_226" data-name="グループ 226" transform="translate(-305 -1427)">
    <g id="マスクグループ_22" data-name="マスクグループ 22" transform="translate(0 -90)" clip-path="url(#clip-path)">
      <g id="グループ_218" data-name="グループ 218" transform="translate(500.074 1671.036) rotate(-37)">
        <g id="グループ_196" data-name="グループ 196" transform="translate(-42.895 -42.898)">
          <path id="合体_3" data-name="合体 3" d="M-11963.675-1412.611l85.558-109.506,81.683-112.427a127.61,127.61,0,0,1,24.771,23.1,135.426,135.426,0,0,1,32.32,82.051,138.965,138.965,0,0,1-131.5,146.049q-4.141.217-8.206.217C-11910.477-1383.124-11938.4-1392.86-11963.675-1412.611Zm-23.951-195.061c15.736-20.14,33.753-33.716,57.45-43.291l52.059,128.845-85.558,109.506A138.967,138.967,0,0,1-11987.626-1607.672Zm57.45-43.291a133.57,133.57,0,0,1,52.059-10.118v138.964Z" transform="translate(12017.09 1661.082)" fill="#32618d"/>
          <path id="パス_73" data-name="パス 73" d="M143.973,139.215,91.916,10.369A133.587,133.587,0,0,1,143.973.25Z" transform="translate(-5.001 -0.25)" fill="none"/>
          <path id="パス_75" data-name="パス 75" d="M139.222,139.768,53.666,249.275A138.966,138.966,0,0,1,29.715,54.212C45.45,34.073,63.468,20.5,87.164,10.922Z" transform="translate(-0.25 -0.803)" fill="none"/>
          <path id="パス_77" data-name="パス 77" d="M142.142,146.414l138.775-7.272a138.966,138.966,0,0,1-131.5,146.048c-34.8,1.823-65.371-7.817-92.828-29.269Z" transform="translate(-3.17 -7.449)" fill="none"/>
          <path id="パス_79" data-name="パス 79" d="M146.819,141.929,253.272,52.6a135.439,135.439,0,0,1,32.322,82.053Z" transform="translate(-7.847 -2.964)" fill="none"/>
          <path id="パス_81" data-name="パス 81" d="M146.819,140.666,228.5,28.24a127.524,127.524,0,0,1,24.772,23.1Z" transform="translate(-7.847 -1.701)" fill="none"/>
          <path id="パス_82" data-name="パス 82" d="M146.819,139.215V.25c31.006,0,56.6,8.314,81.682,26.539Z" transform="translate(-7.847 -0.25)" fill="#57c2fa"/>
          <path id="パス_83" data-name="パス 83" d="M146.819,139.215V.25c31.006,0,56.6,8.314,81.682,26.539Z" transform="translate(-7.847 -0.25)" fill="none"/>
        </g>
        <circle id="楕円形_8" data-name="楕円形 8" cx="90.373" cy="90.373" r="90.373" transform="matrix(0.799, 0.602, -0.602, 0.799, 78.288, -30.482)" fill="#fff"/>
      </g>
      <path id="パス_178" data-name="パス 178" d="M133.64-21.645v-7.67H108.615v-8.32H128.96v-7.67H108.615V-54.99H100.36v9.685H80.6v7.67h19.76v8.32H75.725v7.67h21.06a63.023,63.023,0,0,1-23.27,17.81,39.526,39.526,0,0,1,5.72,6.695A71.381,71.381,0,0,0,100.36-14.56V5.72h8.255V-14.95A68.493,68.493,0,0,0,129.74,2.925a36.838,36.838,0,0,1,5.59-6.7,63.43,63.43,0,0,1-23.14-17.875Zm11.245,4.615c-.52,5.46-1.56,11.245-3.445,15.08A38.207,38.207,0,0,1,147.355.845c1.885-4.16,3.25-10.66,3.9-16.77Zm14.1,1.17a76.913,76.913,0,0,1,3.77,12.09l5.72-2.08a71.665,71.665,0,0,0-4.03-11.7Zm29.77,5.33h11.57v-6.825H188.76V-25.09h-7.605v7.735h-11.05v6.825h11.05v7.6H166.27v6.76h36.725v-6.76H188.76Zm2.015-34.905A32.87,32.87,0,0,1,184.4-37.7a29.441,29.441,0,0,1-6.24-7.735Zm5.265-6.955-1.365.325h-26.91v6.63h7.41l-4.16,1.365a42.135,42.135,0,0,0,7.67,10.6A49.832,49.832,0,0,1,165.75-28.08a64.094,64.094,0,0,0-2.99-5.98l-5.135,2.145c.78,1.43,1.56,3.055,2.275,4.68l-6.24.26c4.1-5.265,8.58-11.83,12.155-17.485l-6.3-2.925a117.882,117.882,0,0,1-5.785,10.53c-.65-.78-1.365-1.69-2.21-2.6,2.34-3.64,4.94-8.645,7.28-13.065L152.1-54.99a82.4,82.4,0,0,1-4.745,11.31c-.52-.455-1.04-.91-1.5-1.3l-3.705,5.265a63.784,63.784,0,0,1,7.67,8.84c-1.04,1.5-2.08,2.925-3.055,4.16l-4.68.195.65,6.695,9.425-.585V5.72h6.695V-20.865l3.315-.26a31.161,31.161,0,0,1,.845,3.315l5.46-2.47a38.806,38.806,0,0,0-2.665-7.67,30.3,30.3,0,0,1,4.1,6.24,58.284,58.284,0,0,0,14.82-6.825,47.618,47.618,0,0,0,14.495,6.5,31.046,31.046,0,0,1,4.745-6.24,46.387,46.387,0,0,1-13.325-4.94,41.258,41.258,0,0,0,10.6-16.835Zm17.81,54.4c2.665-3.64,3.315-9.685,3.64-15.6l-4.29-.845c-.26,5.525-1.04,10.985-3.25,14.3Zm4.225-15.08A76.941,76.941,0,0,1,218.53-1.04l3.51-.455a63.654,63.654,0,0,0-.65-11.9Zm4.42-.325A48.9,48.9,0,0,1,224.51-2.86l3.38-.715a53.539,53.539,0,0,0-2.145-10.465Zm8.19-9.815v-4.03h5.655v-5.85h-5.655v-3.9h5.655v-1.56a36.287,36.287,0,0,1,3.055,5.59,38.236,38.236,0,0,0,5-3.7v3.51h6.63v3.51H239.98v17.16h9.23c-1.755,4.55-5.265,8.84-11.96,12.22.715-3.445,1.105-9.685,1.56-20.41.065-.845.065-2.535.065-2.535Zm-10.595-4.03h4.42v4.03h-4.42Zm4.42-9.75v3.9h-4.42v-3.9Zm0-9.425v3.575h-4.42V-46.41Zm22.425,7.345a48.564,48.564,0,0,0,7.15-9.23,46.138,46.138,0,0,0,7.6,9.23Zm15.99,15.015v5.98H257.6a56.994,56.994,0,0,0,.26-5.72v-.26Zm-16.64,5.98v-5.98h4.745v.195a35.087,35.087,0,0,1-.39,5.785Zm23.2,5.59V-29.64H257.855v-3.51h6.5v-3.575a29.533,29.533,0,0,0,4.225,2.99,45.01,45.01,0,0,1,3.835-6.63c-5.72-2.73-11.375-8.645-15.275-14.625h-6.63a41.493,41.493,0,0,1-14.17,15.6v-3.445h-5.655V-46.41h6.955v-6.24H213.72v35.425h18.59c-.13,2.795-.26,5.2-.39,7.15a37.524,37.524,0,0,0-2.21-5.265l-3.055,1.04a38.091,38.091,0,0,1,2.925,8.385l2.08-.78c-.325,3.38-.65,5.005-1.1,5.655A1.941,1.941,0,0,1,228.8-.2a36.825,36.825,0,0,1-3.965-.26,14.849,14.849,0,0,1,1.56,5.98,25.3,25.3,0,0,0,5.72-.2,5.161,5.161,0,0,0,3.9-2.275,5.294,5.294,0,0,0,.845-1.82,25.863,25.863,0,0,1,3.77,4.55c7.735-3.77,12.09-8.645,14.43-13.91,2.8,6.045,6.76,10.92,12.155,13.715A30.075,30.075,0,0,1,272.09-.52a24.461,24.461,0,0,1-12.155-11.96ZM15.015,28.585V36.45h14.82c.2,2.21.455,4.55.91,7.02l-3.965-.715C23.2,59.85,15.47,72.395,1.95,79.22a61.736,61.736,0,0,1,7.085,6.305c11.31-6.76,19.11-17.55,23.985-32.11C36.6,65.05,43.485,77.335,56.94,85.46a41.616,41.616,0,0,1,6.24-6.76C39.26,64.6,37.505,40.87,37.505,28.585ZM99.125,61.67c-1.365-1.3-6.37-5.785-9.49-8.32a63.09,63.09,0,0,0,7.67-13.91L92.95,36.645l-1.365.325H88.66V25.01H80.99V36.97H71.76v6.955H87.49a48.891,48.891,0,0,1-18.2,18.2,30.981,30.981,0,0,1,3.64,7.345,53.788,53.788,0,0,0,8.06-6.24V85.655h7.67V61.15c2.21,2.4,4.42,5,5.785,6.825Zm18.72,14.56V52.44H130.13V44.965H117.845V25.53h-7.93V44.965H97.565V52.44h12.35V76.23H94.9v7.54h36.79V76.23Zm38.8-19.305-1.17-4.81c-5.98,2.34-12.22,4.745-16.315,6.045l3.64,6.24c3.51-1.56,7.8-3.575,11.9-5.59l.78,4.485c6.24-.455,14.17-1.04,22.035-1.755a25.166,25.166,0,0,1,1.365,3.25l5.85-2.6a26.853,26.853,0,0,0-2.21-4.68A71.71,71.71,0,0,1,192.855,64.6l5.59-4.615a82.6,82.6,0,0,0-13.585-8.32L180.9,54.845c-1.04-1.56-2.21-3.12-3.25-4.485l-5.46,2.275c.78,1.1,1.625,2.275,2.34,3.51l-6.695.325A158.035,158.035,0,0,0,179.92,43.8L173.875,41c-1.625,2.34-3.64,4.94-5.915,7.6-.975-.78-2.08-1.56-3.25-2.4,1.885-2.21,4.03-4.875,6.045-7.475l-1.43-.52h26.91v-6.89H172.77V25.01h-7.93v6.305H141.96V38.2h21.255c-.91,1.625-1.95,3.38-3.055,5.005l-1.56-.975-2.99,3.64a64.812,64.812,0,0,0-9.36-6.175l-5.135,4.225a51.219,51.219,0,0,1,9.75,7.15l4.745-3.965a78.429,78.429,0,0,1,8.19,6.045c-1.235,1.235-2.47,2.47-3.705,3.64Zm30.03-6.565a95.915,95.915,0,0,0,10.01-7.995L189.8,39.05a59.052,59.052,0,0,1-8.775,8.255ZM172.77,62.775h-7.93v4.16H139.88v7.15h24.96v11.57h7.93V74.085h25.48v-7.15H172.77Z" transform="translate(305 1592)" fill="#282828"/>
      <path id="パス_179" data-name="パス 179" d="M17.2-35.814Q7.426-40.7,7.426-51.23a17.749,17.749,0,0,1,2.538-9.306,17.637,17.637,0,0,1,7.614-6.721,27.981,27.981,0,0,1,12.408-2.491,28.051,28.051,0,0,1,12.361,2.491,17.593,17.593,0,0,1,7.661,6.721,17.749,17.749,0,0,1,2.538,9.306,16.232,16.232,0,0,1-2.679,9.259,17.8,17.8,0,0,1-7.1,6.157,17.294,17.294,0,0,1,8.46,6.439,17.908,17.908,0,0,1,3.1,10.481,19.175,19.175,0,0,1-3.1,10.81A20.1,20.1,0,0,1,42.582-.846a29.947,29.947,0,0,1-12.6,2.538A29.627,29.627,0,0,1,17.437-.846a20.152,20.152,0,0,1-8.6-7.238,19.175,19.175,0,0,1-3.1-10.81,17.852,17.852,0,0,1,3.1-10.528A17.434,17.434,0,0,1,17.2-35.814Zm25.1-14.1q0-5.264-3.29-8.084t-9.024-2.82q-5.64,0-8.93,2.82t-3.29,8.178A9.649,9.649,0,0,0,21.2-42.159,12.972,12.972,0,0,0,29.986-39.2a13.024,13.024,0,0,0,8.836-3.008A9.731,9.731,0,0,0,42.3-49.914Zm-12.314,18.8a15.91,15.91,0,0,0-10.1,3.055Q15.98-25,15.98-19.27a11.078,11.078,0,0,0,3.76,8.7Q23.5-7.238,29.986-7.238q6.392,0,10.1-3.384A11.18,11.18,0,0,0,43.8-19.27,10.64,10.64,0,0,0,40-28.012Q36.19-31.114,29.986-31.114Zm43.334,12.5a11.6,11.6,0,0,0,4.042,7.144q3.1,2.444,8.366,2.444,6.674,0,9.776-5.264t3.1-17.954a14.466,14.466,0,0,1-6.345,4.935,22.461,22.461,0,0,1-8.883,1.739,24.454,24.454,0,0,1-11.092-2.491,18.482,18.482,0,0,1-7.849-7.426A23.486,23.486,0,0,1,61.57-47.47q0-10.34,6.063-16.5t16.685-6.157q12.784,0,18.189,8.507t5.4,26.085q0,12.126-2.021,19.834t-7,11.656Q93.906-.094,85.07-.094q-10.058,0-15.51-5.264a20.064,20.064,0,0,1-6.11-13.254Zm11.938-15.98a11.473,11.473,0,0,0,8.883-3.525,13.271,13.271,0,0,0,3.243-9.353q0-6.486-3.431-10.1T84.6-61.194a12.109,12.109,0,0,0-9.353,3.713,13.767,13.767,0,0,0-3.431,9.729,13.6,13.6,0,0,0,3.337,9.447Q78.49-34.592,85.258-34.592Z" transform="translate(551.253 1727.578)" fill="#32618d"/>
      <path id="パス_180" data-name="パス 180" d="M3.024-39.816q0-5.256,3.06-8.244a10.811,10.811,0,0,1,7.884-2.988,10.811,10.811,0,0,1,7.884,2.988q3.06,2.988,3.06,8.244a11.114,11.114,0,0,1-3.06,8.28,10.74,10.74,0,0,1-7.884,3.024,10.74,10.74,0,0,1-7.884-3.024A11.114,11.114,0,0,1,3.024-39.816Zm43.92-10.3L18.216,0H10.152L38.88-50.112ZM13.968-46.08q-4.536,0-4.536,6.264,0,6.336,4.536,6.336a3.975,3.975,0,0,0,3.348-1.548A7.853,7.853,0,0,0,18.5-39.816Q18.5-46.08,13.968-46.08Zm18.36,35.712q0-5.256,3.06-8.244A10.811,10.811,0,0,1,43.272-21.6a10.717,10.717,0,0,1,7.812,2.988q3.06,2.988,3.06,8.244a11.114,11.114,0,0,1-3.06,8.28A10.647,10.647,0,0,1,43.272.936a10.74,10.74,0,0,1-7.884-3.024A11.114,11.114,0,0,1,32.328-10.368ZM43.2-16.632q-4.536,0-4.536,6.264T43.2-4.1q4.536,0,4.536-6.264T43.2-16.632Z" transform="translate(661 1727)" fill="#32618d"/>
      <g id="グループ_228" data-name="グループ 228" transform="translate(311 1525.5)">
        <g id="グループ_229" data-name="グループ 229" transform="translate(0 0)">
          <path id="パス_102" data-name="パス 102" d="M51.231.258A4.484,4.484,0,0,0,49.721,0a4.264,4.264,0,0,0-2.508.783L26.726,15.312,6.239.782A4.262,4.262,0,0,0,3.731,0,4.486,4.486,0,0,0,2.22.258,3.068,3.068,0,0,0,0,3.02V52.874a2.8,2.8,0,0,0,1.225,2.238L24.09,77.03a4.263,4.263,0,0,0,2.507.783c.043,0,.086,0,.128-.005s.086.005.128.005a4.263,4.263,0,0,0,2.507-.783L52.227,55.112a2.8,2.8,0,0,0,1.225-2.238V3.02A3.067,3.067,0,0,0,51.231.258M25.968,73.025,4.36,52.312V4.528L25.968,19.853Z" transform="translate(3 2.063)" fill="#32618d"/>
        </g>
      </g>
    </g>
  </g>
</svg>
