<svg xmlns="http://www.w3.org/2000/svg" xmlns:xlink="http://www.w3.org/1999/xlink" width="475" height="230" viewBox="0 0 475 230">
  <defs>
    <clipPath id="clip-path">
      <rect id="長方形_105" data-name="長方形 105" width="475" height="230" transform="translate(305 1517)" fill="#32618d" stroke="#707070" stroke-width="1"/>
    </clipPath>
  </defs>
  <g id="グループ_251" data-name="グループ 251" transform="translate(-305 -1427)">
    <g id="マスクグループ_22" data-name="マスクグループ 22" transform="translate(0 -90)" clip-path="url(#clip-path)">
      <path id="パス_182" data-name="パス 182" d="M19.738-7.81v-15.9H51.262v15.9ZM51.262-47.357v15.265H19.738V-47.357Zm-40.257-8.52v61.2h8.733V.71H51.262V5.183H60.35v-61.06Z" transform="translate(712 1660)" fill="#32618d"/>
      <path id="パス_178" data-name="パス 178" d="M20.8-15.6v-9.88H32.045v9.88Zm41.47,0H40.04v-9.88H57.2v-7.15H40.04v-7.8H58.695V-47.9H21.97a41.5,41.5,0,0,0,2.145-5.33L16.25-55.25C13.455-46.865,8.45-38.545,2.6-33.6a59.822,59.822,0,0,1,6.7,5,58.415,58.415,0,0,0,8.84-11.83h13.91v7.8H13.065V-15.6H2.8v7.41h29.25V5.72h8V-8.19H62.27ZM91.195-46.995v3.445H81.185v-3.445Zm-10.01,12.35v-3.7h10.01v3.7ZM98.41-29.12V-52.585h-24.9V5.655h7.67V-29.12Zm11.83-5.395V-38.35h10.335v3.835Zm10.335-12.48v3.445H110.24v-3.445ZM95.225-6.045v-4.03H105.95v4.03ZM105.95-19.5v3.9H95.225v-3.9Zm22.425-33.085H102.9V-28.99h17.68V-3.575c0,1.04-.39,1.43-1.56,1.43-.845.065-3.25.065-5.785,0V-25.22H88.205V2.925h7.02V-.39h16.12a28.621,28.621,0,0,1,1.69,6.045c5.59,0,9.36-.195,11.895-1.495,2.6-1.235,3.445-3.51,3.445-7.67Zm-66.3,90.8v-7.54H45.11V15.985H37.44v14.69H20.93v7.54H34.385c-3.77,9.23-9.62,18.265-16.055,23.53V31.455A102.563,102.563,0,0,0,25.025,17.74l-7.67-2.47C13.715,24.955,7.475,34.315.91,40.23a56.125,56.125,0,0,1,4.485,8.125,58.915,58.915,0,0,0,5.33-5.85v33.02h7.6v-13a42.868,42.868,0,0,1,5.265,5.72C28.86,63.37,33.67,56.415,37.44,48.55v27.1h7.67V47.25c3.51,8.19,8.06,15.665,13.13,20.67a27.553,27.553,0,0,1,5.785-6.175c-6.175-5.33-11.83-14.3-15.535-23.53ZM86.32,62.85V48.29h28.86V62.85Zm28.86-36.2V40.62H86.32V26.645Zm-36.855-7.8v56.03h8V70.65h28.86v4.1h8.32v-55.9Z" transform="translate(305 1592)" fill="#282828"/>
      <path id="パス_180" data-name="パス 180" d="M20.049-25.265Q35.7-38.794,44.744-47.514A100.232,100.232,0,0,0,59.821-65.689q6.031-9.454,6.031-18.908,0-9.78-4.646-15.322t-14.588-5.542q-9.617,0-14.915,6.113T26.08-82.967H8.15q.489-18.582,11.165-28.443t27.139-9.862q17.767,0,27.792,9.78t10.025,26.08a46.3,46.3,0,0,1-5.95,22.575,90.911,90.911,0,0,1-14.181,19.4q-8.232,8.557-20.946,19.8l-7.335,6.52H87.531V-1.63H8.313V-15.159Zm72.372-35.7q0-28.2,9.535-44.092T134.8-120.946q23.309,0,32.845,15.892t9.535,44.092q0,28.525-9.535,44.581T134.8-.326q-23.309,0-32.844-16.056T92.421-60.962Zm66.5,0a123.588,123.588,0,0,0-1.711-22.331,30,30,0,0,0-6.928-14.915q-5.216-5.786-15.485-5.786t-15.485,5.786a29.994,29.994,0,0,0-6.927,14.915,123.587,123.587,0,0,0-1.712,22.331,136.085,136.085,0,0,0,1.63,22.983q1.63,9.291,6.927,15t15.566,5.7q10.269,0,15.566-5.7t6.928-15A136.086,136.086,0,0,0,158.925-60.962ZM208.64-32.274q1.63,8.15,7.009,12.388t14.507,4.238q11.573,0,16.952-9.128t5.379-31.133a25.085,25.085,0,0,1-11,8.558,38.948,38.948,0,0,1-15.4,3.015,42.4,42.4,0,0,1-19.234-4.319,32.049,32.049,0,0,1-13.61-12.877q-4.972-8.558-4.972-20.783,0-17.93,10.514-28.606T227.711-121.6q22.168,0,31.54,14.752t9.372,45.232q0,21.027-3.5,34.393T252.976-7.009Q244.337-.163,229.015-.163q-17.441,0-26.895-9.128a34.792,34.792,0,0,1-10.6-22.983Zm20.7-27.71q9.78,0,15.4-6.112t5.624-16.219q0-11.247-5.95-17.522T228.2-106.113q-10.269,0-16.219,6.438T206.032-82.8q0,9.943,5.786,16.382T229.341-59.984Z" transform="translate(438 1667)" fill="#32618d"/>
      <path id="パス_179" data-name="パス 179" d="M11.18,1.3,12.415.754A8.076,8.076,0,0,1,10.088-4.94a8.076,8.076,0,0,1,2.327-5.694L11.18-11.18A8.567,8.567,0,0,0,8.619-4.94,8.567,8.567,0,0,0,11.18,1.3Zm6.5-10.2v1.833H16V-8.9ZM16-3.77V-5.694H17.68V-3.77Zm3.107,1.4v-7.943H14.573v9.061H16V-2.366Zm2.353-1.976a14.353,14.353,0,0,0,.065-1.469v-.2h2.795v1.664Zm2.86-4.719V-7.4H21.528V-9.061Zm1.534-1.43h-5.85v4.68c0,1.976-.195,4.394-2.379,6.006a5.8,5.8,0,0,1,1.157,1.027,6.645,6.645,0,0,0,2.483-4.173h3.055V-.663c0,.221-.078.3-.312.3S23-.338,22.3-.377a5.31,5.31,0,0,1,.546,1.5,5.816,5.816,0,0,0,2.34-.286c.507-.247.676-.663.676-1.482Zm3.211.221a6.745,6.745,0,0,1-.078,1.118,33.666,33.666,0,0,0-.429,5.135A14.352,14.352,0,0,0,29.3.156L30.745.013c-.013-.182-.026-.4-.039-.533a3.009,3.009,0,0,1,.091-.624,32.3,32.3,0,0,1,.871-3.146L30.849-4.8c-.208.468-.429,1.092-.6,1.482a16.717,16.717,0,0,1,.429-5.72,9.952,9.952,0,0,1,.3-1.04ZM39.247-8.008a16.843,16.843,0,0,1-1.937.234c0-.7,0-1.365.013-1.651a6.545,6.545,0,0,1,.065-.871H35.5a5.712,5.712,0,0,1,.143.884c.026.351.052,1.014.065,1.729-.494.013-.988.026-1.456.026a13.52,13.52,0,0,1-1.95-.13v1.638c.637.026,1.43.065,1.989.065.468,0,.962-.013,1.443-.026v.468c0,2.171-.208,3.315-1.2,4.342A5,5,0,0,1,33.033-.273L34.528.9c2.561-1.638,2.795-3.5,2.795-6.539v-.533c.728-.039,1.391-.091,1.911-.156ZM53.365-6.357V-7.865H49.972V-10.8H48.438v2.938h-3.3v1.508h2.691a12.335,12.335,0,0,1-3.211,4.706V-7.709a20.513,20.513,0,0,0,1.339-2.743l-1.534-.494a13.337,13.337,0,0,1-3.289,4.992,11.225,11.225,0,0,1,.9,1.625A11.783,11.783,0,0,0,43.1-5.5v6.6h1.521V-1.5A8.574,8.574,0,0,1,45.669-.351,13.21,13.21,0,0,0,48.438-4.29V1.131h1.534V-4.55A13.289,13.289,0,0,0,52.6-.416a5.511,5.511,0,0,1,1.157-1.235,12.716,12.716,0,0,1-3.107-4.706Zm4.628,3.874c-.234.325-.416.442-.676.442s-.481-.247-.481-.611c0-.806.78-1.677,2.21-1.9A16.651,16.651,0,0,1,57.993-2.483ZM67.015-3.51c-.377-.247-.845-.559-1.378-.858a21.182,21.182,0,0,0,.247-2.392l-1.69-.2a8.348,8.348,0,0,1,.013,1.4c-.013.143-.026.286-.039.442A11.282,11.282,0,0,0,61.4-5.941,24.913,24.913,0,0,1,62.66-8.7a3.013,3.013,0,0,1,.429-.546l-1.027-.806a3.191,3.191,0,0,1-.871.195c-.6.052-1.976.1-2.7.1A10.417,10.417,0,0,1,57.421-9.8l.065,1.664c.325-.052.78-.1,1.053-.117.585-.039,1.69-.078,2.2-.091-.3.611-.663,1.482-1.027,2.314-2.587.117-4.394,1.651-4.394,3.64a1.919,1.919,0,0,0,1.976,2.08,2.2,2.2,0,0,0,2-1.131,26.769,26.769,0,0,0,1.495-3.094A9.024,9.024,0,0,1,63.8-3.5,5.552,5.552,0,0,1,60.528-.26L61.906.858a6.449,6.449,0,0,0,3.263-3.484c.39.286.767.6,1.105.9Zm9.334,1.638c-.013-.585-.039-1.534-.052-2.249.793-.364,1.521-.65,2.093-.871a13.651,13.651,0,0,1,1.534-.546l-.65-1.495c-.468.221-.923.442-1.417.663-.533.234-1.079.455-1.742.767a1.754,1.754,0,0,0-1.716-1,4.029,4.029,0,0,0-1.456.26,7.864,7.864,0,0,0,.741-1.3,41.94,41.94,0,0,0,4.2-.338L77.9-9.49a29.728,29.728,0,0,1-3.64.377c.156-.52.247-.962.312-1.274l-1.69-.143a7.164,7.164,0,0,1-.26,1.469h-.624A16.517,16.517,0,0,1,69.732-9.2V-7.7c.7.065,1.651.091,2.171.091h.156a12.584,12.584,0,0,1-2.834,3.536L70.6-3.042a16.487,16.487,0,0,1,1.2-1.417,3.186,3.186,0,0,1,2.015-.884,1.006,1.006,0,0,1,.9.442c-1.469.754-3.029,1.794-3.029,3.432C71.682.195,73.2.676,75.218.676a35.619,35.619,0,0,0,3.64-.208l.052-1.677a19.691,19.691,0,0,1-3.653.377c-1.261,0-1.872-.2-1.872-.91,0-.637.52-1.144,1.469-1.664-.013.559-.026,1.157-.052,1.534ZM91.117-.624H85.748V-2.236h5.369Zm.156-5.824L91-6.383H84.032v1.352h6.084c-.286.481-.585,1.014-.884,1.469h-5V1.144h1.521V.7h5.369v.442h1.6V-3.562H91.065c.494-.78.988-1.638,1.417-2.457ZM86.749-8.424a10.847,10.847,0,0,0,1.6-1.339,10.1,10.1,0,0,0,1.664,1.339Zm.78-2.6a12.929,12.929,0,0,1-5.317,3.289,6.811,6.811,0,0,1,.845,1.248A17.486,17.486,0,0,0,85.9-7.878v.728h5.018v-.7A17.949,17.949,0,0,0,93.7-6.526a7.152,7.152,0,0,1,.91-1.339,12.853,12.853,0,0,1-5.564-3.159ZM98.007-3.887c0-.754.416-1.261.923-1.261.364,0,.611.3.611.793,0,.728-.234,1.352-.819,1.352C98.345-3,98.007-3.328,98.007-3.887Zm6.812-.13a11.567,11.567,0,0,1,.091,1.586,1.206,1.206,0,0,1-.936,1.3A8.238,8.238,0,0,1,102-.9c-1.521,0-1.664-.286-1.664-.832v-.507a3.413,3.413,0,0,0,.689-2.2,2.2,2.2,0,0,0-.377-1.3V-7.4a20.869,20.869,0,0,0,2.288-.364v-1.56a19.228,19.228,0,0,1-2.288.455,8.968,8.968,0,0,1,.117-1.612H98.956a6.779,6.779,0,0,1,.13,1.625v.1h-.377a15.364,15.364,0,0,1-2.08-.182L96.72-7.41q1.268.117,2.106.117h.26v.858h-.052A2.449,2.449,0,0,0,96.655-3.77c0,1.651.962,2.314,1.9,2.314a1.118,1.118,0,0,0,.208-.013V-1.2c0,.9.13,1.846,3.12,1.846a12.476,12.476,0,0,0,2.795-.273,2.251,2.251,0,0,0,1.911-2.34c.026-.533.013-.78.013-1.508ZM104-8.216a17.506,17.506,0,0,1,2.652,2.574l1.17-1.2a15.934,15.934,0,0,0-2.73-2.457Zm7.02-2.964-1.235.546a8.076,8.076,0,0,1,2.327,5.694A8.076,8.076,0,0,1,109.785.754l1.235.546a8.567,8.567,0,0,0,2.561-6.24A8.567,8.567,0,0,0,111.02-11.18Z" transform="translate(299 1683)" fill="#282828"/>
      <path id="パス_181" data-name="パス 181" d="M7.475-8.645A.982.982,0,0,0,6.5-9.62a.982.982,0,0,0-.975.975A.982.982,0,0,0,6.5-7.67.982.982,0,0,0,7.475-8.645ZM2.21-9.607l-.377.377,4.29,4.29-4.3,4.3L2.2-.26l4.3-4.3,4.29,4.29.377-.377L6.877-4.94l4.29-4.29-.377-.377L6.5-5.317ZM2.8-5.915a.982.982,0,0,0-.975.975.982.982,0,0,0,.975.975A.982.982,0,0,0,3.77-4.94.982.982,0,0,0,2.8-5.915Zm7.41,1.95a.982.982,0,0,0,.975-.975.982.982,0,0,0-.975-.975.982.982,0,0,0-.975.975A.982.982,0,0,0,10.2-3.965Zm-4.68,2.73A.982.982,0,0,0,6.5-.26a.982.982,0,0,0,.975-.975A.982.982,0,0,0,6.5-2.21.982.982,0,0,0,5.525-1.235ZM15.4-8.112h1.4v-.832H18.07v.832h1.417v-.832h1.287v-1.131H19.487V-11H18.07v.923H16.809V-11H15.4v.923H14.248v1.131H15.4Zm.481,2.223v-.962h.871v.962Zm3.159,0h-.871v-.962h.871ZM23.361-8.06c.013-.9.013-1.833.013-2.834H21.957c0,1.014,0,1.95-.013,2.834H20.761v1.43h1.157c-.091,2.405-.377,4.29-1.313,5.681v-.13C19.8-1,18.98-.923,18.174-.858V-1.5h2.262V-2.574H18.174V-3.2h2.4V-4.316h-2.4v-.546h2.275V-7.891H14.573v3.029h2.184v.546H14.4V-3.2h2.353v.624H14.6V-1.5h2.158v.754c-.988.091-1.9.156-2.626.208L14.287.754C15.8.611,17.888.416,19.942.195a4.4,4.4,0,0,1,.845.962c1.885-1.69,2.392-4.29,2.535-7.787h1.222c-.078,4.212-.195,5.759-.442,6.1a.44.44,0,0,1-.429.234,8.749,8.749,0,0,1-1.157-.065,3.731,3.731,0,0,1,.416,1.443,8.839,8.839,0,0,0,1.508-.052A1.409,1.409,0,0,0,25.389.4c.4-.572.507-2.47.6-7.8,0-.169.013-.663.013-.663ZM36.634-3.77c.052-.377.091-.767.13-1.157H35.217a10.852,10.852,0,0,1-.13,1.157h-1.9v1.287h1.573A4.167,4.167,0,0,1,32.045-.065a4.373,4.373,0,0,1,.9,1.2,5.193,5.193,0,0,0,3.419-3.614h1.508a3.958,3.958,0,0,1-.494,1.937.529.529,0,0,1-.416.143,11.01,11.01,0,0,1-1.118-.065,3.355,3.355,0,0,1,.416,1.43A9.933,9.933,0,0,0,37.713.936a1.429,1.429,0,0,0,.949-.455c.377-.416.611-1.417.819-3.666.026-.182.052-.585.052-.585Zm.572-4.654a3.95,3.95,0,0,1-.858,1.1,5.1,5.1,0,0,1-1.079-1.1Zm2.47,0V-9.711H35.841a8.715,8.715,0,0,0,.481-.91l-1.443-.39A7.75,7.75,0,0,1,32.4-7.917a11.352,11.352,0,0,1,1.261.871,7.741,7.741,0,0,0,.585-.559,7.35,7.35,0,0,0,.923,1.079,7.876,7.876,0,0,1-1.586.6l.052-.3-.936-.312-.208.065h-.624l.637-.663a7.276,7.276,0,0,0-.949-.572,9.7,9.7,0,0,0,1.9-2.145l-.988-.624-.234.052h-4.2v1.3h3.12a8.118,8.118,0,0,1-.819.819c-.351-.156-.715-.3-1.027-.416l-.975.988a18.858,18.858,0,0,1,2.509,1.261H27.859v1.352h1.625a8.168,8.168,0,0,1-1.846,2.678,8.663,8.663,0,0,1,.7,1.5,7.876,7.876,0,0,0,1.625-2.4V-.572c0,.156-.052.182-.208.2s-.689,0-1.17-.013a5.15,5.15,0,0,1,.442,1.469A3.834,3.834,0,0,0,30.862.806c.455-.234.559-.65.559-1.352V-5.122h.689a16.945,16.945,0,0,1-.416,1.794l1.04.481a15.175,15.175,0,0,0,.637-2.171,4.92,4.92,0,0,1,.364.546,10.406,10.406,0,0,0,2.652-1.092,9.364,9.364,0,0,0,2.652,1.118,5.937,5.937,0,0,1,.975-1.313,10.116,10.116,0,0,1-2.392-.767,6.386,6.386,0,0,0,1.3-1.9ZM44.564-1.43V-4.342h5.772V-1.43Zm5.772-7.241v2.795H44.564V-8.671Zm-7.371-1.56V.975h1.6V.13h5.772V.949H52v-11.18Zm18.6,7.215V-4.264c.078.078.13.143.182.2a8.246,8.246,0,0,0,.6-.936,13.762,13.762,0,0,0,.884,2.561A6.386,6.386,0,0,1,60.944-.481a12.108,12.108,0,0,0-1.079-.689,5.254,5.254,0,0,0,.689-1.846Zm-3.731,0H59.1A3.953,3.953,0,0,1,58.6-1.833c-.377-.182-.754-.338-1.144-.494Zm6.994-4.225a13.91,13.91,0,0,1-.7,3.055,16.4,16.4,0,0,1-.793-3.055Zm2.327,0v-1.43H63.7c.169-.689.312-1.4.416-2.132l-1.56-.208a12.037,12.037,0,0,1-2.041,5.85,9.014,9.014,0,0,1,1.053.9H58.474l.312-.624-.559-.117h.832V-6.578c.507.4,1.053.858,1.339,1.131l.819-1.066c-.286-.195-1.209-.741-1.833-1.092h2.132V-8.827H60.281c.312-.4.715-.949,1.118-1.508l-1.3-.52A12.557,12.557,0,0,1,59.228-9.2l.858.377H59.059v-2.184H57.642v2.184H56.55l.832-.364A5.539,5.539,0,0,0,56.6-10.8l-1.118.468a6.925,6.925,0,0,1,.676,1.508h-.988V-7.6H57.2A6.906,6.906,0,0,1,54.912-5.98a4.677,4.677,0,0,1,.78,1.118,9.369,9.369,0,0,0,1.95-1.508v1.248l-.286-.065c-.13.286-.286.6-.442.923H55.029v1.248h1.235c-.325.624-.65,1.209-.936,1.664l1.352.416.143-.247a7.5,7.5,0,0,1,.728.351,6.929,6.929,0,0,1-2.47.689,3.575,3.575,0,0,1,.611,1.287,7.976,7.976,0,0,0,3.2-1.235,12.32,12.32,0,0,1,1.352.975l.585-.6a5.87,5.87,0,0,1,.494.884A8.444,8.444,0,0,0,64.064-.962a7.056,7.056,0,0,0,2.184,2.067A5.969,5.969,0,0,1,67.314-.234a6.1,6.1,0,0,1-2.3-2.158A14.628,14.628,0,0,0,66.43-7.241ZM19.474,4.926l.013,1.664a35.631,35.631,0,0,0,5.525,0V4.926A26.268,26.268,0,0,1,19.474,4.926ZM19.032,10.3a7.934,7.934,0,0,0-.221,1.677c0,1.313,1.053,2.119,3.276,2.119a17.894,17.894,0,0,0,3.328-.26l-.039-1.742a14.837,14.837,0,0,1-3.224.338c-1.3,0-1.794-.338-1.794-.91a4.237,4.237,0,0,1,.156-1.079Zm-3.341-6.37a9.619,9.619,0,0,1-.13,1.261,35.7,35.7,0,0,0-.533,5.1,16.435,16.435,0,0,0,.507,4.212l1.482-.1C17,14.208,17,14,16.991,13.857a3.782,3.782,0,0,1,.078-.6,31.038,31.038,0,0,1,.923-3.159l-.806-.624c-.182.416-.39.845-.572,1.3a6.213,6.213,0,0,1-.052-.832,31.83,31.83,0,0,1,.624-4.719A10.819,10.819,0,0,1,17.5,4.081Zm17.381,8.008c0,.845-.3,1.222-1.131,1.222-.9,0-1.547-.234-1.547-.871,0-.546.6-.884,1.6-.884a7.071,7.071,0,0,1,1.066.091C33.072,11.66,33.072,11.816,33.072,11.933Zm5.564.6a10.18,10.18,0,0,0-3.913-2.21c-.065-.949-.117-1.963-.143-2.743,1.04-.026,2.574-.078,3.653-.182l-.065-1.534c-1.066.117-2.574.169-3.588.195V5.121c.026-.507.065-1.131.117-1.508H32.76a8.168,8.168,0,0,1,.13,1.508c.013.546.026,1.313.026,2.093,0,.676.052,1.781.091,2.782a7.388,7.388,0,0,0-.767-.039c-2.366,0-3.51,1.066-3.51,2.4,0,1.755,1.508,2.353,3.341,2.353,2.158,0,2.743-1.092,2.743-2.223,0-.13,0-.273-.013-.442a9.943,9.943,0,0,1,2.847,2.015Zm8.307.689c-.754,0-1.3-.325-1.3-.806,0-.325.312-.611.793-.611.7,0,1.183.546,1.261,1.378A6.787,6.787,0,0,1,46.943,13.22Zm2.834-9.282a6.209,6.209,0,0,1-.988.13c-.728.065-3.484.13-4.16.13-.364,0-.806-.026-1.17-.065l.052,1.677a8.5,8.5,0,0,1,1.053-.1c.676-.052,2.444-.13,3.107-.143C47.034,6.122,45.695,7.2,44.98,7.8c-.767.624-2.314,1.937-3.224,2.678l1.17,1.209c1.378-1.56,2.665-2.613,4.641-2.613,1.495,0,2.665.78,2.665,1.937a1.877,1.877,0,0,1-1.053,1.755,2.592,2.592,0,0,0-2.743-2.2,2.163,2.163,0,0,0-2.314,2c0,1.287,1.352,2.106,3.146,2.106,3.107,0,4.654-1.612,4.654-3.64,0-1.872-1.664-3.237-3.848-3.237a4.329,4.329,0,0,0-1.209.143c.806-.65,2.158-1.794,2.847-2.275q.429-.293.9-.585Z" transform="translate(708 1580)" fill="#32618d"/>
      <path id="パス_184" data-name="パス 184" d="M18.8-9.048h5.694V-26.13H40.326v-5.3H24.492v-17H18.8v17H2.964v5.3H18.8Z" transform="translate(440 1742)" fill="#32618d"/>
      <path id="パス_183" data-name="パス 183" d="M50.907-26.128H25.276v-4.544H50.907ZM25.276-14.484V-19.1H50.907v4.615ZM67.1-43.665v-7.952H32.447c.852-2.2,1.562-4.4,2.272-6.6l-8.733-1.988a70.835,70.835,0,0,1-2.769,8.591H4.118v7.952H19.667C15.407-35.429,9.514-27.974,1.988-22.933a47.585,47.585,0,0,1,5.538,6.461A52.038,52.038,0,0,0,16.9-24.779V6.106h8.378V-7.455H50.907V-3.2c0,.994-.426,1.349-1.633,1.42-1.207,0-5.325,0-8.946-.213a35.043,35.043,0,0,1,2.556,8.165c5.751,0,9.8-.071,12.567-1.42,2.911-1.278,3.692-3.55,3.692-7.739V-38.056H26.27a59.363,59.363,0,0,0,2.84-5.609ZM76.041-18.6c-.568,5.964-1.7,12.283-3.763,16.472A41.733,41.733,0,0,1,78.739.923C80.8-3.621,82.289-10.721,83-17.4Zm15.407,1.278A84.01,84.01,0,0,1,95.566-4.118l6.248-2.272a78.279,78.279,0,0,0-4.4-12.78ZM89.957-34.861c.852,1.562,1.7,3.337,2.485,5.112l-6.816.284C90.1-35.216,95-42.387,98.9-48.564l-6.887-3.195a128.759,128.759,0,0,1-6.319,11.5c-.71-.923-1.562-1.846-2.414-2.84,2.556-3.9,5.4-9.443,7.952-14.271l-7.313-2.7a90.006,90.006,0,0,1-5.183,12.354c-.568-.5-1.136-.994-1.633-1.42l-4.047,5.751a69.672,69.672,0,0,1,8.378,9.656C80.3-32.092,79.165-30.53,78.1-29.181l-5.112.213.71,7.313,10.295-.639V6.248h7.313V-22.791l3.621-.284a34.04,34.04,0,0,1,.923,3.621l5.964-2.7c-.781-4.047-3.55-10.224-6.248-15.052Zm36.991,18.744V-5.041h-15.62V-16.117ZM103.518,6.106h7.81V2.343h15.62V5.822h8.094V-23.572H103.518Zm5.041-43.594a82.3,82.3,0,0,0,9.869-13.135,99.014,99.014,0,0,0,10.437,13.135Zm5.609-21.655c-3.479,6.674-10.721,15.975-17.892,21.158A38.868,38.868,0,0,1,101.1-30.6a55.749,55.749,0,0,0,6.177-5.538v6.319H130.64v-5.822a60.562,60.562,0,0,0,5.183,4.615,52.151,52.151,0,0,1,5.183-7.881c-6.887-4.331-14.058-12.78-18.815-20.235ZM209.8-34.719v-8.236H191.274V-59H182.9v16.046H164.862v8.236h14.7c-4.118,10.082-10.508,19.951-17.537,25.7V-42.1a112.029,112.029,0,0,0,7.313-14.981l-8.378-2.7c-3.976,10.579-10.792,20.8-17.963,27.264a61.306,61.306,0,0,1,4.9,8.875,64.354,64.354,0,0,0,5.822-6.39V6.035h8.307v-14.2a46.826,46.826,0,0,1,5.751,6.248c5.751-5.325,11.005-12.922,15.123-21.513V6.177h8.378V-24.85c3.834,8.946,8.8,17.111,14.342,22.578a30.1,30.1,0,0,1,6.319-6.745c-6.745-5.822-12.922-15.62-16.969-25.7Zm70.219-22.72H261v7.1h11.786v10.011H261v7.1h19.028ZM229.188-47.57v13.49H224.36V-47.57ZM224.36-12.922V-26.838h4.828v13.916Zm11.573-42.032h-18.1V.071h6.532V-5.538h11.573Zm15.549,4.473V-39.9h-4.9V-50.481ZM258.3-7.668v-6.958H246.583v-6.106h10.863v-6.887H246.583v-5.4h12.212V-57.439H238.844V6.035h7.739v-13.7Zm14.058-15.123a44.453,44.453,0,0,1-3.337,8.8,49.5,49.5,0,0,1-3.053-8.8Zm3.9-7.029-1.349.213H259.15v6.816h5.325l-4.828.994a68.177,68.177,0,0,0,4.97,14.2A28.954,28.954,0,0,1,253.4.142a26.314,26.314,0,0,1,4.189,6.177,38.682,38.682,0,0,0,11.218-7.455,27.448,27.448,0,0,0,8.236,7.171,27.906,27.906,0,0,1,4.97-6.106,24.891,24.891,0,0,1-8.591-6.816c3.621-5.538,6.177-12.638,7.526-21.726Z" transform="translate(490 1738)" fill="#32618d"/>
    </g>
  </g>
</svg>
