<svg xmlns="http://www.w3.org/2000/svg" xmlns:xlink="http://www.w3.org/1999/xlink" width="475" height="320" viewBox="0 0 475 320">
  <defs>
    <clipPath id="clip-path">
      <rect id="長方形_105" data-name="長方形 105" width="475" height="320" transform="translate(305 1517)" fill="#fff" stroke="#707070" stroke-width="1"/>
    </clipPath>
    <clipPath id="clip-path-2">
      <rect id="長方形_107" data-name="長方形 107" width="64.633" height="66.69" fill="none"/>
    </clipPath>
  </defs>
  <g id="グループ_223" data-name="グループ 223" transform="translate(-305 -1427)">
    <g id="マスクグループ_22" data-name="マスクグループ 22" transform="translate(0 -90)" clip-path="url(#clip-path)">
      <g id="グループ_218" data-name="グループ 218" transform="translate(498.011 1559.898)">
        <g id="グループ_196" data-name="グループ 196" transform="translate(-42.895 -42.898)">
          <path id="合体_2" data-name="合体 2" d="M-12463.017-1099.246c-6.118-28.781-4.757-54.72,4.334-82.7l152.155,49.437-152.155-49.437a153.79,153.79,0,0,1,29.6-53.394l0,0c22.947-27.347,49.218-43.761,83.851-52.4l38.707,155.231,0-159.984q53.55,0,96.284,32.217a159.982,159.982,0,0,1,31.487,224.051c-24.14,32.035-55.268,51.866-94.506,60.205a160.755,160.755,0,0,1-33.425,3.529A160.024,160.024,0,0,1-12463.017-1099.246ZM-12306.527-1132.511Z" transform="translate(12466.637 1292.421)" fill="#32618d"/>
          <path id="パス_73" data-name="パス 73" d="M151.847,160.234,91.916,11.9A153.793,153.793,0,0,1,151.847.25Z" transform="translate(8.145 -0.25)" fill="none"/>
          <path id="パス_75" data-name="パス 75" d="M160.242,159.257l-98.5,126.07A159.985,159.985,0,0,1,34.172,60.76C52.287,37.575,73.03,21.944,100.311,10.922Z" transform="translate(-0.25 0.727)" fill="none"/>
          <path id="パス_77" data-name="パス 77" d="M155.082,147.514l159.766-8.372A159.986,159.986,0,0,1,163.455,307.28c-40.059,2.1-75.259-9-106.869-33.7Z" transform="translate(4.909 12.47)" fill="none"/>
          <path id="パス_79" data-name="パス 79" d="M146.819,155.44,269.374,52.6q34.419,41.018,37.211,94.464Z" transform="translate(13.173 4.544)" fill="none"/>
          <path id="パス_80" data-name="パス 80" d="M146.819,157.671,240.855,28.24a146.813,146.813,0,0,1,28.519,26.594Z" transform="matrix(0.643, -0.766, 0.766, 0.643, -55.048, 171.032)" fill="#41d1fb"/>
          <path id="パス_81" data-name="パス 81" d="M146.819,157.671,240.855,28.24a146.813,146.813,0,0,1,28.519,26.594Z" transform="translate(13.173 2.313)" fill="none"/>
          <path id="パス_83" data-name="パス 83" d="M146.819,160.234V.25c35.7,0,65.157,9.572,94.036,30.553Z" transform="translate(13.173 -0.25)" fill="none"/>
        </g>
        <ellipse id="楕円形_7" data-name="楕円形 7" cx="116.5" cy="116" rx="116.5" ry="116" transform="translate(0.104 1.102)" fill="#fff"/>
      </g>
      <path id="パス_178" data-name="パス 178" d="M15.5,0h48a15.5,15.5,0,0,1,0,31h-48a15.5,15.5,0,0,1,0-31Z" transform="translate(520.116 1666)" fill="#32618d"/>
      <path id="パス_179" data-name="パス 179" d="M1.26-16.59a4.58,4.58,0,0,1,1.275-3.435A4.5,4.5,0,0,1,5.82-21.27,4.5,4.5,0,0,1,9.1-20.025,4.58,4.58,0,0,1,10.38-16.59,4.631,4.631,0,0,1,9.1-13.14,4.475,4.475,0,0,1,5.82-11.88a4.475,4.475,0,0,1-3.285-1.26A4.631,4.631,0,0,1,1.26-16.59Zm18.3-4.29L7.59,0H4.23L16.2-20.88ZM5.82-19.2q-1.89,0-1.89,2.61,0,2.64,1.89,2.64A1.656,1.656,0,0,0,7.215-14.6,3.272,3.272,0,0,0,7.71-16.59Q7.71-19.2,5.82-19.2ZM13.47-4.32a4.58,4.58,0,0,1,1.275-3.435A4.5,4.5,0,0,1,18.03-9a4.466,4.466,0,0,1,3.255,1.245A4.58,4.58,0,0,1,22.56-4.32,4.631,4.631,0,0,1,21.285-.87,4.436,4.436,0,0,1,18.03.39,4.475,4.475,0,0,1,14.745-.87,4.631,4.631,0,0,1,13.47-4.32ZM18-6.93q-1.89,0-1.89,2.61T18-1.71q1.89,0,1.89-2.61T18-6.93Z" transform="translate(680.116 1694.269)" fill="#32618d"/>
      <path id="パス_180" data-name="パス 180" d="M7.07-6.93a4.319,4.319,0,0,0,1.5,2.66,4.9,4.9,0,0,0,3.115.91,3.919,3.919,0,0,0,3.64-1.96q1.155-1.96,1.155-6.685a5.386,5.386,0,0,1-2.362,1.838,8.363,8.363,0,0,1-3.307.647,9.105,9.105,0,0,1-4.13-.927,6.882,6.882,0,0,1-2.922-2.765,8.745,8.745,0,0,1-1.068-4.462,8.373,8.373,0,0,1,2.257-6.142,8.322,8.322,0,0,1,6.213-2.293q4.76,0,6.773,3.168T19.95-13.23A29.884,29.884,0,0,1,19.2-5.845,7.873,7.873,0,0,1,16.59-1.5a8.083,8.083,0,0,1-5.145,1.47A7.979,7.979,0,0,1,5.67-2,7.471,7.471,0,0,1,3.395-6.93Zm4.445-5.95a4.272,4.272,0,0,0,3.308-1.312,4.941,4.941,0,0,0,1.208-3.482,5.251,5.251,0,0,0-1.278-3.763,4.57,4.57,0,0,0-3.483-1.347A4.509,4.509,0,0,0,7.787-21.4,5.126,5.126,0,0,0,6.51-17.78a5.063,5.063,0,0,0,1.242,3.518A4.8,4.8,0,0,0,11.515-12.88Zm28.21-9.2H28v6.965a5.543,5.543,0,0,1,2.188-1.645,7.353,7.353,0,0,1,3.1-.665,8.283,8.283,0,0,1,4.778,1.26,7.059,7.059,0,0,1,2.625,3.185,10.619,10.619,0,0,1,.787,4.06,10.23,10.23,0,0,1-1,4.6A7.418,7.418,0,0,1,37.5-1.155,9.466,9.466,0,0,1,32.655,0,9.372,9.372,0,0,1,26.53-1.89a7.652,7.652,0,0,1-2.765-5H27.65a4.327,4.327,0,0,0,1.715,2.608,5.524,5.524,0,0,0,3.325.962,4.554,4.554,0,0,0,3.728-1.5A6.068,6.068,0,0,0,37.66-8.82a5.455,5.455,0,0,0-1.26-3.868,4.836,4.836,0,0,0-3.71-1.347,4.759,4.759,0,0,0-2.888.857,4.8,4.8,0,0,0-1.7,2.328h-3.78V-25.585h15.4Zm7,22.33a2.472,2.472,0,0,1-1.82-.735,2.472,2.472,0,0,1-.735-1.82,2.472,2.472,0,0,1,.735-1.82,2.472,2.472,0,0,1,1.82-.735,2.43,2.43,0,0,1,1.785.735,2.472,2.472,0,0,1,.735,1.82A2.472,2.472,0,0,1,48.51-.49,2.43,2.43,0,0,1,46.725.245Zm21.7-22.33H56.7v6.965a5.543,5.543,0,0,1,2.188-1.645,7.353,7.353,0,0,1,3.1-.665,8.283,8.283,0,0,1,4.777,1.26,7.059,7.059,0,0,1,2.625,3.185,10.619,10.619,0,0,1,.788,4.06,10.23,10.23,0,0,1-1,4.6A7.418,7.418,0,0,1,66.2-1.155,9.466,9.466,0,0,1,61.355,0,9.372,9.372,0,0,1,55.23-1.89a7.652,7.652,0,0,1-2.765-5H56.35a4.327,4.327,0,0,0,1.715,2.608,5.524,5.524,0,0,0,3.325.962,4.554,4.554,0,0,0,3.728-1.5A6.068,6.068,0,0,0,66.36-8.82a5.455,5.455,0,0,0-1.26-3.868,4.836,4.836,0,0,0-3.71-1.347,4.759,4.759,0,0,0-2.888.857,4.8,4.8,0,0,0-1.7,2.328h-3.78V-25.585h15.4Z" transform="translate(608.116 1694)" fill="#32618d"/>
      <path id="パス_181" data-name="パス 181" d="M-15.3-10.78h3.52v1.4H-15.3Zm0-3.22h3.52v1.38H-15.3Zm9.5,1.38H-9.38V-14H-5.8Zm0,3.24H-9.38v-1.4H-5.8ZM-9.9-6.04c.08-.46.16-.9.22-1.38H-3.3v-8.54H-17.68v8.54h5.5c-.06.48-.14.94-.22,1.38h-6.62V-3.9h5.84c-.94,1.6-2.8,2.78-6.7,3.54a6.383,6.383,0,0,1,1.24,2.08c5.04-1.1,7.16-3.04,8.16-5.62h5.26C-5.44-1.92-5.74-.92-6.1-.62a1.315,1.315,0,0,1-.88.2c-.54,0-1.8-.02-3.04-.12a4.715,4.715,0,0,1,.78,2.18c1.26.02,2.48.04,3.18-.02A2.8,2.8,0,0,0-4.08.84C-3.44.2-3.04-1.44-2.72-5.08c.04-.32.08-.96.08-.96ZM15.02-1.16v-4h3.66V-7.38H15.02v-3.28H19.1V-12.9H15.02v-3.92H12.64v3.92h-1.6c.2-.9.36-1.84.5-2.78L9.22-16a24.206,24.206,0,0,1-1.06,4.88,22.931,22.931,0,0,0-1.1-2.52l-1.16.48v-3.78H3.52v4.08L1.84-13.1A23.77,23.77,0,0,1,.86-7.9l1.76.64a25.487,25.487,0,0,0,.9-5.3V1.74H5.9V-11.92a13.907,13.907,0,0,1,.76,2.3l1.14-.52c-.2.42-.4.8-.6,1.16A21.031,21.031,0,0,1,9.32-7.9a13.662,13.662,0,0,0,1.12-2.76h2.2v3.28H8.78v2.22h3.86v4H7.3V1.1H19.74V-1.16Z" transform="translate(559.116 1689)" fill="#fff"/>
      <path id="パス_182" data-name="パス 182" d="M15.5,0h48a15.5,15.5,0,0,1,0,31h-48a15.5,15.5,0,0,1,0-31Z" transform="translate(520.116 1710)" fill="#57c2fa"/>
      <path id="パス_183" data-name="パス 183" d="M1.26-16.59a4.58,4.58,0,0,1,1.275-3.435A4.5,4.5,0,0,1,5.82-21.27,4.5,4.5,0,0,1,9.1-20.025,4.58,4.58,0,0,1,10.38-16.59,4.631,4.631,0,0,1,9.1-13.14,4.475,4.475,0,0,1,5.82-11.88a4.475,4.475,0,0,1-3.285-1.26A4.631,4.631,0,0,1,1.26-16.59Zm18.3-4.29L7.59,0H4.23L16.2-20.88ZM5.82-19.2q-1.89,0-1.89,2.61,0,2.64,1.89,2.64A1.656,1.656,0,0,0,7.215-14.6,3.272,3.272,0,0,0,7.71-16.59Q7.71-19.2,5.82-19.2ZM13.47-4.32a4.58,4.58,0,0,1,1.275-3.435A4.5,4.5,0,0,1,18.03-9a4.466,4.466,0,0,1,3.255,1.245A4.58,4.58,0,0,1,22.56-4.32,4.631,4.631,0,0,1,21.285-.87,4.436,4.436,0,0,1,18.03.39,4.475,4.475,0,0,1,14.745-.87,4.631,4.631,0,0,1,13.47-4.32ZM18-6.93q-1.89,0-1.89,2.61T18-1.71q1.89,0,1.89-2.61T18-6.93Z" transform="translate(659.116 1738.269)" fill="#57c2fa"/>
      <path id="パス_184" data-name="パス 184" d="M1.61-5.32V-8.33L13.37-25.2H18.2V-8.785h3.255V-5.32H18.2V0H14.28V-5.32ZM14.455-21.14,6.2-8.785h8.26ZM25.83.245A2.472,2.472,0,0,1,24.01-.49a2.472,2.472,0,0,1-.735-1.82,2.472,2.472,0,0,1,.735-1.82,2.472,2.472,0,0,1,1.82-.735,2.43,2.43,0,0,1,1.785.735,2.472,2.472,0,0,1,.735,1.82,2.472,2.472,0,0,1-.735,1.82A2.43,2.43,0,0,1,25.83.245Zm21.7-22.33H35.805v6.965a5.543,5.543,0,0,1,2.188-1.645,7.353,7.353,0,0,1,3.1-.665,8.283,8.283,0,0,1,4.778,1.26,7.059,7.059,0,0,1,2.625,3.185,10.619,10.619,0,0,1,.787,4.06,10.23,10.23,0,0,1-1,4.6,7.418,7.418,0,0,1-2.975,3.167A9.466,9.466,0,0,1,40.46,0a9.372,9.372,0,0,1-6.125-1.89,7.652,7.652,0,0,1-2.765-5h3.885A4.327,4.327,0,0,0,37.17-4.287a5.524,5.524,0,0,0,3.325.962,4.554,4.554,0,0,0,3.728-1.5,6.068,6.068,0,0,0,1.242-3.99,5.455,5.455,0,0,0-1.26-3.868,4.836,4.836,0,0,0-3.71-1.347,4.759,4.759,0,0,0-2.888.857,4.8,4.8,0,0,0-1.7,2.328H32.13V-25.585h15.4Z" transform="translate(608.116 1738)" fill="#57c2fa"/>
      <path id="パス_185" data-name="パス 185" d="M-7.08-10.02A12.8,12.8,0,0,1-9.54-4.56c-1.5-.66-3-1.24-4.36-1.72.5-1.18,1.04-2.44,1.56-3.74Zm5.68,0v-2.42h-9.96c.56-1.38,1.08-2.76,1.56-4.04l-2.62-.44c-.48,1.38-1.06,2.92-1.66,4.48h-5.46v2.42h4.48c-.88,2.14-1.78,4.16-2.54,5.72l2.4.88.34-.74q1.59.63,3.24,1.38A18.888,18.888,0,0,1-19.38-.6a8.019,8.019,0,0,1,1.26,2.38c4.04-.6,7-1.56,9.18-3.26a33.88,33.88,0,0,1,5.4,3.32L-1.72-.4A36.369,36.369,0,0,0-7.04-3.44a16.65,16.65,0,0,0,2.68-6.58ZM15.02-1.16v-4h3.66V-7.38H15.02v-3.28H19.1V-12.9H15.02v-3.92H12.64v3.92h-1.6c.2-.9.36-1.84.5-2.78L9.22-16a24.206,24.206,0,0,1-1.06,4.88,22.931,22.931,0,0,0-1.1-2.52l-1.16.48v-3.78H3.52v4.08L1.84-13.1A23.77,23.77,0,0,1,.86-7.9l1.76.64a25.487,25.487,0,0,0,.9-5.3V1.74H5.9V-11.92a13.907,13.907,0,0,1,.76,2.3l1.14-.52c-.2.42-.4.8-.6,1.16A21.031,21.031,0,0,1,9.32-7.9a13.662,13.662,0,0,0,1.12-2.76h2.2v3.28H8.78v2.22h3.86v4H7.3V1.1H19.74V-1.16Z" transform="translate(559.116 1733)" fill="#fff"/>
      <path id="パス_187" data-name="パス 187" d="M16.9-35.035H28.34v4.55H16.9Zm0-10.465H28.34v4.485H16.9Zm30.875,4.485H36.14V-45.5H47.775Zm0,10.53H36.14v-4.55H47.775ZM34.45-19.63c.26-1.5.52-2.925.715-4.485H55.9V-51.87H9.165v27.755H27.04c-.2,1.56-.455,3.055-.715,4.485H4.81v6.955H23.79c-3.055,5.2-9.1,9.035-21.775,11.5a20.745,20.745,0,0,1,4.03,6.76c16.38-3.575,23.27-9.88,26.52-18.265h17.1C48.945-6.24,47.97-2.99,46.8-2.015a4.274,4.274,0,0,1-2.86.65c-1.755,0-5.85-.065-9.88-.39A15.325,15.325,0,0,1,36.6,5.33c4.095.065,8.06.13,10.335-.065C49.6,5.07,51.545,4.55,53.365,2.73c2.08-2.08,3.38-7.41,4.42-19.24.13-1.04.26-3.12.26-3.12Zm74.165-12.935c-1.755,7.54-4.29,13.325-8,17.745-4.875-2.145-9.75-4.03-14.17-5.59,1.625-3.835,3.38-7.93,5.07-12.155Zm18.46,0V-40.43H94.705c1.82-4.485,3.51-8.97,5.07-13.13L91.26-54.99c-1.56,4.485-3.445,9.49-5.4,14.56H68.12v7.865H82.68c-2.86,6.955-5.785,13.52-8.255,18.59l7.8,2.86L83.33-13.52Q88.5-11.473,93.86-9.035c-6.175,3.77-14.3,5.85-25.22,7.085a26.061,26.061,0,0,1,4.1,7.735c13.13-1.95,22.75-5.07,29.835-10.6,7.02,3.64,13.39,7.41,17.55,10.79l5.915-7.28a118.2,118.2,0,0,0-17.29-9.88c4.03-5.395,6.76-12.35,8.71-21.385Zm21.45,4.29H161.4v-7.54h-12.87V-54.34h-8.06V-5.2c-2.99.585-5.72,1.1-8.125,1.495l2.145,7.93c7.995-1.69,18.59-4.03,28.4-6.305l-.715-7.605c-4.485.975-9.165,2.015-13.65,2.925ZM175.955-2.86c-2.47,0-2.795-.52-2.795-4.225v-18.85a163.975,163.975,0,0,0,18.785-8.255l-5.33-6.76a97.426,97.426,0,0,1-13.455,7.54V-54.34h-7.995V-7.15c0,9.23,2.08,11.83,9.62,11.83h8.97c6.955,0,8.97-4.225,9.75-15.21a23.6,23.6,0,0,1-7.215-3.38c-.455,8.84-.845,11.05-3.25,11.05Z" transform="translate(305 1592)" fill="#282828"/>
      <g id="グループ_227" data-name="グループ 227" transform="translate(582.793 1584.655)">
        <g id="グループ_227-2" data-name="グループ 227" clip-path="url(#clip-path-2)">
          <path id="パス_98" data-name="パス 98" d="M89.474,7.058a5.917,5.917,0,1,1-5.917-5.917,5.917,5.917,0,0,1,5.917,5.917" transform="translate(-68.548 -1.007)" fill="#32618d"/>
          <path id="パス_99" data-name="パス 99" d="M28.722,119.017c-1.1-4.114-5.781-8.314-7.405-9.672a4.01,4.01,0,0,0-2.878-1.233H11.58a3.939,3.939,0,0,0-1.561.324,2.546,2.546,0,0,0-1.139.541c-.645.534-6.335,5.357-7.584,10.04A46.741,46.741,0,0,0,0,128.334a2.556,2.556,0,0,0,2.482,2.628h.076a2.558,2.558,0,0,0,2.554-2.482,42.108,42.108,0,0,1,1.124-8.147,8.443,8.443,0,0,1,1.3-2.5l.227,12.126a4.743,4.743,0,0,0,.095.847L7.726,158.9a3.2,3.2,0,0,0,3.181,3.21h.015a3.2,3.2,0,0,0,3.2-3.181l.112-24.485h1.558l.112,24.485a3.2,3.2,0,0,0,3.2,3.181h.015a3.2,3.2,0,0,0,3.181-3.21L22.164,130.8a4.73,4.73,0,0,0,.093-.84l.226-12.062a7.938,7.938,0,0,1,1.3,2.433A42.122,42.122,0,0,1,24.9,128.48a2.557,2.557,0,0,0,2.554,2.484h.074a2.557,2.557,0,0,0,2.483-2.629,46.75,46.75,0,0,0-1.294-9.317" transform="translate(0 -95.451)" fill="#32618d"/>
          <path id="パス_100" data-name="パス 100" d="M377.1,5.546A5.545,5.545,0,1,1,371.553,0,5.546,5.546,0,0,1,377.1,5.546" transform="translate(-323.146)" fill="#57c2fa"/>
          <path id="パス_101" data-name="パス 101" d="M306.726,122.544l-9.871-16.866c-.977-1.991-3.14-2.658-5.915-2.658-2.481,0-4.472.533-5.565,2.068-.021.027-.044.051-.064.08l-.088.151c-.026.043-.052.087-.077.132l-10,17.093a1.729,1.729,0,1,0,2.778,1.941l7.157-10.864.233,1.917-3.092,17.112h3.418l.525,22.921a1.851,1.851,0,1,0,3.674,0l.525-22.921h1.16l.525,22.921a1.851,1.851,0,1,0,3.674,0l.525-22.921h3.418l-3.179-17.136.264-1.959,7.2,10.931a1.729,1.729,0,1,0,2.778-1.941" transform="translate(-242.532 -90.956)" fill="#57c2fa"/>
        </g>
      </g>
      <path id="パス_186" data-name="パス 186" d="M17.446-13.026a16.638,16.638,0,0,1-3.2,7.1c-1.95-.858-3.9-1.612-5.668-2.236.65-1.534,1.352-3.172,2.028-4.862Zm7.384,0v-3.146H11.882c.728-1.794,1.4-3.588,2.028-5.252L10.5-22C9.88-20.2,9.126-18.2,8.346-16.172h-7.1v3.146H7.072C5.928-10.244,4.758-7.618,3.77-5.59L6.89-4.446l.442-.962q2.067.819,4.212,1.794C9.074-2.106,5.824-1.274,1.456-.78A10.424,10.424,0,0,1,3.094,2.314c5.252-.78,9.1-2.028,11.934-4.238a44.044,44.044,0,0,1,7.02,4.316L24.414-.52A47.279,47.279,0,0,0,17.5-4.472a21.646,21.646,0,0,0,3.484-8.554ZM46.176-1.508v-5.2h4.758V-9.594H46.176v-4.264h5.3V-16.77h-5.3v-5.1H43.082v5.1H41c.26-1.17.468-2.392.65-3.614L38.636-20.8a31.468,31.468,0,0,1-1.378,6.344,29.811,29.811,0,0,0-1.43-3.276l-1.508.624v-4.914H31.226v5.3l-2.184-.312a30.9,30.9,0,0,1-1.274,6.76l2.288.832a33.134,33.134,0,0,0,1.17-6.89V2.262H34.32V-15.5a18.079,18.079,0,0,1,.988,2.99l1.482-.676c-.26.546-.52,1.04-.78,1.508a27.34,27.34,0,0,1,2.756,1.4,17.761,17.761,0,0,0,1.456-3.588h2.86v4.264H38.064v2.886h5.018v5.2H36.14V1.43H52.312V-1.508ZM63.414-9.36h2.548v1.872H63.414Zm0-4.5h2.548v1.82H63.414Zm8.268,0v1.82H69.056v-1.82Zm0,6.37H69.056V-9.36h2.626ZM78.26-4.862V-7.488H74.724V-9.36H79.17v-2.678H74.724v-1.82h3.042v-2.626h-8.71v-1.664a74.808,74.808,0,0,0,8.32-1.222l-2-2.522a113.042,113.042,0,0,1-17.992,1.716,9.128,9.128,0,0,1,.7,2.626c2.522-.052,5.2-.156,7.878-.338v1.4H57.538v2.626H60.4v1.82H56.056V-9.36H60.4v1.872H57.122v2.626H63.96A23.335,23.335,0,0,1,55.51-.6a15.55,15.55,0,0,1,2.106,2.626,24.8,24.8,0,0,0,8.346-4.966V2.21h3.094V-2.938A24.14,24.14,0,0,0,77.48,2.054,13.9,13.9,0,0,1,79.742-.78a23.345,23.345,0,0,1-8.554-4.082ZM100.568-7.54c.1-.754.182-1.534.26-2.314H97.734a21.7,21.7,0,0,1-.26,2.314h-3.8v2.574h3.146C96.018-2.938,94.51-1.274,91.39-.13a8.745,8.745,0,0,1,1.794,2.392c4.108-1.612,5.954-4.134,6.838-7.228h3.016c-.286,2.418-.624,3.536-.988,3.874a1.059,1.059,0,0,1-.832.286,22.019,22.019,0,0,1-2.236-.13,6.71,6.71,0,0,1,.832,2.86,19.866,19.866,0,0,0,2.912-.052,2.859,2.859,0,0,0,1.9-.91c.754-.832,1.222-2.834,1.638-7.332.052-.364.1-1.17.1-1.17Zm1.144-9.308A7.9,7.9,0,0,1,100-14.638a10.2,10.2,0,0,1-2.158-2.21Zm4.94,0v-2.574h-7.67a17.431,17.431,0,0,0,.962-1.82l-2.886-.78a15.5,15.5,0,0,1-4.966,6.188,22.7,22.7,0,0,1,2.522,1.742,15.482,15.482,0,0,0,1.17-1.118,14.7,14.7,0,0,0,1.846,2.158,15.753,15.753,0,0,1-3.172,1.2l.1-.6-1.872-.624-.416.13H91.026L92.3-14.274a14.551,14.551,0,0,0-1.9-1.144,19.407,19.407,0,0,0,3.8-4.29l-1.976-1.248-.468.1h-8.4v2.6H89.6a16.236,16.236,0,0,1-1.638,1.638c-.7-.312-1.43-.6-2.054-.832l-1.95,1.976a37.717,37.717,0,0,1,5.018,2.522H83.018v2.7h3.25a16.336,16.336,0,0,1-3.692,5.356,17.327,17.327,0,0,1,1.4,2.99,15.753,15.753,0,0,0,3.25-4.81v5.564c0,.312-.1.364-.416.39-.338,0-1.378,0-2.34-.026a10.3,10.3,0,0,1,.884,2.938,7.669,7.669,0,0,0,3.666-.546c.91-.468,1.118-1.3,1.118-2.7v-9.152H91.52a33.891,33.891,0,0,1-.832,3.588l2.08.962a30.351,30.351,0,0,0,1.274-4.342,9.841,9.841,0,0,1,.728,1.092,20.811,20.811,0,0,0,5.3-2.184,18.727,18.727,0,0,0,5.3,2.236,11.874,11.874,0,0,1,1.95-2.626,20.231,20.231,0,0,1-4.784-1.534,12.772,12.772,0,0,0,2.6-3.8Zm20.852-.26H117V-18.8h10.5Zm3.3-4.108H113.88v6.5h16.926ZM115.778-5.486h12.74v1.144h-12.74Zm0-3.094h12.74v1.118h-12.74Zm0-3.068h12.74v1.118h-12.74Zm15.938,9.412V-13.754H112.71V-2.236h4.03A31.758,31.758,0,0,1,110.084.052a27.2,27.2,0,0,1,2.34,2.21,34.643,34.643,0,0,0,8.06-3.12l-1.976-1.378h7.046L123.4-.7a69.205,69.205,0,0,1,8.346,3.016L134.472.13c-1.794-.7-4.446-1.638-6.864-2.366ZM6.656,20.078H9.048V17.14H6.656V11.316H3.8V17.14H1.222v2.938H3.8V27.2c-1.2.416-2.262.78-3.146,1.04l1.066,3.146c2.366-.936,5.356-2.158,8.086-3.276l-.624-2.834c-.832.312-1.69.624-2.522.936ZM20.41,27.462v1.17H13.7v-1.17ZM13.7,32.038v-1.2H20.41v1.2Zm-2.86,3.224H13.7v-.78H20.41v.754H23.4V25.018H10.842Zm10.608-17H18.356V16.932H21.45Zm0,3.432H18.356V20.364H21.45Zm-8.97-1.326h3.042V21.69H12.48Zm3.042-3.432v1.326H12.48V16.932ZM21.4,14.644c.624-.858,1.3-1.9,1.976-2.99l-3.172-.78a20.647,20.647,0,0,1-1.716,3.588l.572.182H14.716l.65-.234a14.123,14.123,0,0,0-1.95-3.432l-2.626.91a18.938,18.938,0,0,1,1.482,2.756H9.724v9.334H24.362V14.644Zm13.364.988c.026-1.4.026-2.834.026-4.29H31.746c0,1.482,0,2.912-.026,4.29H28.678v3.016h3.016C31.512,24.732,30.81,29.7,27.9,33a8.146,8.146,0,0,1,2.262,2.262c3.354-3.848,4.264-9.672,4.524-16.614H37.31c-.156,8.684-.364,11.908-.858,12.61a.942.942,0,0,1-.884.468c-.494,0-1.43-.026-2.47-.1a7.455,7.455,0,0,1,.884,3.094,14.652,14.652,0,0,0,3.146-.1,2.767,2.767,0,0,0,2-1.326c.806-1.2.988-5.174,1.222-16.25.026-.39.026-1.4.026-1.4ZM44.8,29.932V16.906h3.354V29.932Zm-2.99-15.99V34.716H44.8V32.922h3.354v1.612h3.094V13.942ZM69.186,24.108v-5.59h5.876v5.59Zm-9.126,0v-5.59h5.85v5.59Zm9.126-8.632v-4.5H65.91v4.5H56.94v13.1h3.12V27.15h5.85v8.112h3.276V27.15h5.876v1.3h3.25V15.476ZM93.574,26.318h2.678l.91-8.892.13-3.874H92.534l.1,3.874ZM94.9,33.234a2.543,2.543,0,0,0,2.7-2.548,2.707,2.707,0,0,0-5.408,0A2.543,2.543,0,0,0,94.9,33.234Z" transform="translate(309 1636)" fill="#282828"/>
    </g>
  </g>
</svg>
