<svg xmlns="http://www.w3.org/2000/svg" xmlns:xlink="http://www.w3.org/1999/xlink" width="475" height="320" viewBox="0 0 475 320">
  <defs>
    <clipPath id="clip-path">
      <rect id="長方形_22384" data-name="長方形 22384" width="475" height="320" transform="translate(-4188 -9557)" fill="#fff" stroke="#707070" stroke-width="1"/>
    </clipPath>
  </defs>
  <g id="マスクグループ_46" data-name="マスクグループ 46" transform="translate(4188 9557)" clip-path="url(#clip-path)">
    <path id="パス_196" data-name="パス 196" d="M67.433,120.809,30.179,6.148A114.706,114.706,0,0,1,67.433.25Z" transform="translate(-3998.899 -9479.274)" fill="#22415d"/>
    <path id="パス_198" data-name="パス 198" d="M120.81,117.03,28.458,194.521A120.559,120.559,0,0,1,43.316,24.676,116.912,116.912,0,0,1,83.556,2.369Z" transform="translate(-4052.277 -9475.496)" fill="#32618d"/>
    <path id="パス_200" data-name="パス 200" d="M102.736,43.563H223.3A120.559,120.559,0,0,1,102.736,164.12c-37.287,0-68.387-14.5-92.352-43.066Z" transform="translate(-4034.203 -9402.028)" fill="#4fa5e5"/>
    <path id="パス_202" data-name="パス 202" d="M43.563,93.216l92.355-77.494c18.83,22.443,28.2,48.2,28.2,77.494Z" transform="translate(-3975.03 -9451.682)" fill="#12aaf9"/>
    <path id="パス_204" data-name="パス 204" d="M43.563,113.57,94.514,4.309a113.949,113.949,0,0,1,41.4,31.767Z" transform="translate(-3975.03 -9472.036)" fill="#0a81de"/>
    <path id="パス_206" data-name="パス 206" d="M43.563,120.809V.25a114,114,0,0,1,50.951,11.3Z" transform="translate(-3975.03 -9479.274)" fill="#57c2fa"/>
    <path id="パス_210" data-name="パス 210" d="M0,0H242.511V242.508H0Z" transform="translate(-4052.722 -9479.721)" fill="none"/>
    <path id="パス_211" data-name="パス 211" d="M78.589,0A78.589,78.589,0,1,1,0,78.589,78.589,78.589,0,0,1,78.589,0Z" transform="translate(-4010.127 -9436.756)" fill="#fff"/>
    <path id="パス_234" data-name="パス 234" d="M13,0H62a13,13,0,0,1,0,26H13A13,13,0,0,1,13,0Z" transform="translate(-3931 -9545)" fill="#57c2fa"/>
    <path id="パス_225" data-name="パス 225" d="M1.26-16.59a4.58,4.58,0,0,1,1.275-3.435A4.5,4.5,0,0,1,5.82-21.27,4.5,4.5,0,0,1,9.1-20.025,4.58,4.58,0,0,1,10.38-16.59,4.631,4.631,0,0,1,9.1-13.14,4.475,4.475,0,0,1,5.82-11.88a4.475,4.475,0,0,1-3.285-1.26A4.631,4.631,0,0,1,1.26-16.59Zm18.3-4.29L7.59,0H4.23L16.2-20.88ZM5.82-19.2q-1.89,0-1.89,2.61,0,2.64,1.89,2.64A1.656,1.656,0,0,0,7.215-14.6,3.272,3.272,0,0,0,7.71-16.59Q7.71-19.2,5.82-19.2ZM13.47-4.32a4.58,4.58,0,0,1,1.275-3.435A4.5,4.5,0,0,1,18.03-9a4.466,4.466,0,0,1,3.255,1.245A4.58,4.58,0,0,1,22.56-4.32,4.631,4.631,0,0,1,21.285-.87,4.436,4.436,0,0,1,18.03.39,4.475,4.475,0,0,1,14.745-.87,4.631,4.631,0,0,1,13.47-4.32ZM18-6.93q-1.89,0-1.89,2.61T18-1.71q1.89,0,1.89-2.61T18-6.93Z" transform="translate(-3895 -9486.73)" fill="#57c2fa"/>
    <path id="パス_226" data-name="パス 226" d="M18.27-22.435,8.54,0H4.515L14.35-22.015H1.4v-3.4H18.27Z" transform="translate(-3915 -9487)" fill="#57c2fa"/>
    <path id="パス_235" data-name="パス 235" d="M7.168-10.864a14.452,14.452,0,0,0-2.3-2.576l-1.424.88A13.613,13.613,0,0,1,5.632-9.872ZM-3.44-13.424a16.724,16.724,0,0,1-4.368,6.24A12.22,12.22,0,0,1-6.752-5.248,15.077,15.077,0,0,0-5.088-7.04v8.4H-3.1V-9.888a25.42,25.42,0,0,0,1.488-2.944ZM7.408-7.68,7.136-9.472l-4.56.592c-.112-1.36-.176-2.864-.208-4.432H.432c.048,1.68.144,3.248.256,4.688l-3.232.432.272,1.84L.88-6.784C1.456-1.9,2.72,1.1,5.424,1.36c.9.048,1.76-.688,2.16-3.776A6.546,6.546,0,0,1,6.032-3.5C5.9-1.728,5.712-.928,5.344-.96c-1.28-.16-2.128-2.528-2.576-6.08Z" transform="translate(-3878 -9524)" fill="#fff"/>
    <path id="パス_236" data-name="パス 236" d="M3.075-3.875q2.4-2.075,3.788-3.412a15.373,15.373,0,0,0,2.313-2.787,5.356,5.356,0,0,0,.925-2.9,3.549,3.549,0,0,0-.713-2.35,2.758,2.758,0,0,0-2.237-.85,2.865,2.865,0,0,0-2.288.938A3.9,3.9,0,0,0,4-12.725H1.25a5.868,5.868,0,0,1,1.713-4.362A5.9,5.9,0,0,1,7.125-18.6a5.845,5.845,0,0,1,4.262,1.5,5.333,5.333,0,0,1,1.538,4,7.1,7.1,0,0,1-.912,3.462A13.943,13.943,0,0,1,9.837-6.662Q8.575-5.35,6.625-3.625l-1.125,1h7.925V-.25H1.275V-2.325Zm12.1-5.475a13.163,13.163,0,0,1,1.463-6.763Q18.1-18.55,21.675-18.55t5.038,2.437A13.163,13.163,0,0,1,28.175-9.35a13.424,13.424,0,0,1-1.462,6.838Q25.25-.05,21.675-.05T16.638-2.513A13.424,13.424,0,0,1,15.175-9.35Zm10.2,0a18.955,18.955,0,0,0-.263-3.425,4.6,4.6,0,0,0-1.062-2.288,3.035,3.035,0,0,0-2.375-.887,3.035,3.035,0,0,0-2.375.887,4.6,4.6,0,0,0-1.062,2.288,18.955,18.955,0,0,0-.262,3.425,20.872,20.872,0,0,0,.25,3.525,4.411,4.411,0,0,0,1.063,2.3,3.1,3.1,0,0,0,2.387.875,3.1,3.1,0,0,0,2.388-.875,4.411,4.411,0,0,0,1.063-2.3A20.872,20.872,0,0,0,25.375-9.35Z" transform="translate(-3916 -9523)" fill="#fff"/>
    <path id="パス_212" data-name="パス 212" d="M13,0H62a13,13,0,0,1,0,26H13A13,13,0,0,1,13,0Z" transform="translate(-3811 -9311)" fill="#4fa5e5"/>
    <path id="パス_208" data-name="パス 208" d="M1.26-16.59a4.58,4.58,0,0,1,1.275-3.435A4.5,4.5,0,0,1,5.82-21.27,4.5,4.5,0,0,1,9.1-20.025,4.58,4.58,0,0,1,10.38-16.59,4.631,4.631,0,0,1,9.1-13.14,4.475,4.475,0,0,1,5.82-11.88a4.475,4.475,0,0,1-3.285-1.26A4.631,4.631,0,0,1,1.26-16.59Zm18.3-4.29L7.59,0H4.23L16.2-20.88ZM5.82-19.2q-1.89,0-1.89,2.61,0,2.64,1.89,2.64A1.656,1.656,0,0,0,7.215-14.6,3.272,3.272,0,0,0,7.71-16.59Q7.71-19.2,5.82-19.2ZM13.47-4.32a4.58,4.58,0,0,1,1.275-3.435A4.5,4.5,0,0,1,18.03-9a4.466,4.466,0,0,1,3.255,1.245A4.58,4.58,0,0,1,22.56-4.32,4.631,4.631,0,0,1,21.285-.87,4.436,4.436,0,0,1,18.03.39,4.475,4.475,0,0,1,14.745-.87,4.631,4.631,0,0,1,13.47-4.32ZM18-6.93q-1.89,0-1.89,2.61T18-1.71q1.89,0,1.89-2.61T18-6.93Z" transform="translate(-3763 -9252.73)" fill="#4fa5e5"/>
    <path id="パス_209" data-name="パス 209" d="M2.03-19.215a6.7,6.7,0,0,1,2.5-5.075,9.139,9.139,0,0,1,5.862-1.82,9.527,9.527,0,0,1,4.235.875,6.273,6.273,0,0,1,2.7,2.38,6.432,6.432,0,0,1,.91,3.4,6.007,6.007,0,0,1-1.155,3.71,5.615,5.615,0,0,1-2.765,2.065v.14a5.876,5.876,0,0,1,3.22,2.292A7.29,7.29,0,0,1,18.69-7a7.123,7.123,0,0,1-.945,3.675,6.527,6.527,0,0,1-2.8,2.538A9.843,9.843,0,0,1,10.5.14,9.646,9.646,0,0,1,4.287-1.8,7.2,7.2,0,0,1,1.68-7.385H5.53A4.367,4.367,0,0,0,6.965-4.358a5.018,5.018,0,0,0,3.5,1.173,4.412,4.412,0,0,0,3.29-1.173A4.131,4.131,0,0,0,14.91-7.385a3.864,3.864,0,0,0-1.557-3.483A8.776,8.776,0,0,0,8.575-11.9h-.91v-3.29H8.61a8.575,8.575,0,0,0,4.323-.945A3.118,3.118,0,0,0,14.42-19a3.46,3.46,0,0,0-1.085-2.677,4.387,4.387,0,0,0-3.08-1,4.333,4.333,0,0,0-3.045,1,4.029,4.029,0,0,0-1.3,2.467ZM26.81-6.93a4.319,4.319,0,0,0,1.5,2.66,4.9,4.9,0,0,0,3.115.91,3.919,3.919,0,0,0,3.64-1.96q1.155-1.96,1.155-6.685a5.386,5.386,0,0,1-2.362,1.838,8.363,8.363,0,0,1-3.307.647,9.105,9.105,0,0,1-4.13-.927A6.882,6.882,0,0,1,23.5-13.212a8.745,8.745,0,0,1-1.068-4.462,8.373,8.373,0,0,1,2.257-6.142A8.322,8.322,0,0,1,30.9-26.11q4.76,0,6.772,3.168T39.69-13.23a29.884,29.884,0,0,1-.752,7.385A7.873,7.873,0,0,1,36.33-1.5a8.083,8.083,0,0,1-5.145,1.47A7.979,7.979,0,0,1,25.41-2,7.471,7.471,0,0,1,23.135-6.93Zm4.445-5.95a4.272,4.272,0,0,0,3.308-1.312,4.941,4.941,0,0,0,1.208-3.482,5.251,5.251,0,0,0-1.278-3.763,4.57,4.57,0,0,0-3.483-1.347A4.509,4.509,0,0,0,27.528-21.4,5.126,5.126,0,0,0,26.25-17.78a5.063,5.063,0,0,0,1.243,3.518A4.8,4.8,0,0,0,31.255-12.88Z" transform="translate(-3805 -9253)" fill="#4fa5e5"/>
    <path id="パス_213" data-name="パス 213" d="M7.168-10.864a14.452,14.452,0,0,0-2.3-2.576l-1.424.88A13.613,13.613,0,0,1,5.632-9.872ZM-3.44-13.424a16.724,16.724,0,0,1-4.368,6.24A12.22,12.22,0,0,1-6.752-5.248,15.077,15.077,0,0,0-5.088-7.04v8.4H-3.1V-9.888a25.42,25.42,0,0,0,1.488-2.944ZM7.408-7.68,7.136-9.472l-4.56.592c-.112-1.36-.176-2.864-.208-4.432H.432c.048,1.68.144,3.248.256,4.688l-3.232.432.272,1.84L.88-6.784C1.456-1.9,2.72,1.1,5.424,1.36c.9.048,1.76-.688,2.16-3.776A6.546,6.546,0,0,1,6.032-3.5C5.9-1.728,5.712-.928,5.344-.96c-1.28-.16-2.128-2.528-2.576-6.08Z" transform="translate(-3757 -9290)" fill="#fff"/>
    <path id="パス_214" data-name="パス 214" d="M13.25-15.775H4.875V-10.8a3.959,3.959,0,0,1,1.563-1.175A5.252,5.252,0,0,1,8.65-12.45a5.917,5.917,0,0,1,3.413.9,5.042,5.042,0,0,1,1.875,2.275,7.585,7.585,0,0,1,.563,2.9,7.307,7.307,0,0,1-.712,3.288A5.3,5.3,0,0,1,11.663-.825,6.762,6.762,0,0,1,8.2,0,6.7,6.7,0,0,1,3.825-1.35,5.466,5.466,0,0,1,1.85-4.925H4.625A3.091,3.091,0,0,0,5.85-3.062a3.946,3.946,0,0,0,2.375.688A3.253,3.253,0,0,0,10.887-3.45a4.335,4.335,0,0,0,.887-2.85,3.9,3.9,0,0,0-.9-2.762,3.455,3.455,0,0,0-2.65-.962,3.4,3.4,0,0,0-2.063.612A3.43,3.43,0,0,0,4.95-7.75H2.25V-18.275h11ZM16.725-9.35a13.163,13.163,0,0,1,1.462-6.763q1.463-2.437,5.038-2.437t5.038,2.437A13.163,13.163,0,0,1,29.725-9.35a13.424,13.424,0,0,1-1.462,6.838Q26.8-.05,23.225-.05T18.188-2.513A13.424,13.424,0,0,1,16.725-9.35Zm10.2,0a18.955,18.955,0,0,0-.262-3.425A4.6,4.6,0,0,0,25.6-15.063a3.035,3.035,0,0,0-2.375-.887,3.035,3.035,0,0,0-2.375.887,4.6,4.6,0,0,0-1.062,2.288,18.955,18.955,0,0,0-.262,3.425,20.872,20.872,0,0,0,.25,3.525,4.411,4.411,0,0,0,1.063,2.3,3.1,3.1,0,0,0,2.387.875,3.1,3.1,0,0,0,2.387-.875,4.411,4.411,0,0,0,1.063-2.3A20.872,20.872,0,0,0,26.925-9.35Z" transform="translate(-3796 -9289)" fill="#fff"/>
    <path id="パス_215" data-name="パス 215" d="M13,0H62a13,13,0,0,1,0,26H13A13,13,0,0,1,13,0Z" transform="translate(-4140 -9404)" fill="#32618d"/>
    <path id="パス_216" data-name="パス 216" d="M1.26-16.59a4.58,4.58,0,0,1,1.275-3.435A4.5,4.5,0,0,1,5.82-21.27,4.5,4.5,0,0,1,9.1-20.025,4.58,4.58,0,0,1,10.38-16.59,4.631,4.631,0,0,1,9.1-13.14,4.475,4.475,0,0,1,5.82-11.88a4.475,4.475,0,0,1-3.285-1.26A4.631,4.631,0,0,1,1.26-16.59Zm18.3-4.29L7.59,0H4.23L16.2-20.88ZM5.82-19.2q-1.89,0-1.89,2.61,0,2.64,1.89,2.64A1.656,1.656,0,0,0,7.215-14.6,3.272,3.272,0,0,0,7.71-16.59Q7.71-19.2,5.82-19.2ZM13.47-4.32a4.58,4.58,0,0,1,1.275-3.435A4.5,4.5,0,0,1,18.03-9a4.466,4.466,0,0,1,3.255,1.245A4.58,4.58,0,0,1,22.56-4.32,4.631,4.631,0,0,1,21.285-.87,4.436,4.436,0,0,1,18.03.39,4.475,4.475,0,0,1,14.745-.87,4.631,4.631,0,0,1,13.47-4.32ZM18-6.93q-1.89,0-1.89,2.61T18-1.71q1.89,0,1.89-2.61T18-6.93Z" transform="translate(-4098 -9345.73)" fill="#32618d"/>
    <path id="パス_227" data-name="パス 227" d="M2.03-19.215a6.7,6.7,0,0,1,2.5-5.075,9.139,9.139,0,0,1,5.862-1.82,9.527,9.527,0,0,1,4.235.875,6.273,6.273,0,0,1,2.7,2.38,6.432,6.432,0,0,1,.91,3.4,6.007,6.007,0,0,1-1.155,3.71,5.615,5.615,0,0,1-2.765,2.065v.14a5.876,5.876,0,0,1,3.22,2.292A7.29,7.29,0,0,1,18.69-7a7.123,7.123,0,0,1-.945,3.675,6.527,6.527,0,0,1-2.8,2.538A9.843,9.843,0,0,1,10.5.14,9.646,9.646,0,0,1,4.287-1.8,7.2,7.2,0,0,1,1.68-7.385H5.53A4.367,4.367,0,0,0,6.965-4.358a5.018,5.018,0,0,0,3.5,1.173,4.412,4.412,0,0,0,3.29-1.173A4.131,4.131,0,0,0,14.91-7.385a3.864,3.864,0,0,0-1.557-3.483A8.776,8.776,0,0,0,8.575-11.9h-.91v-3.29H8.61a8.575,8.575,0,0,0,4.323-.945A3.118,3.118,0,0,0,14.42-19a3.46,3.46,0,0,0-1.085-2.677,4.387,4.387,0,0,0-3.08-1,4.333,4.333,0,0,0-3.045,1,4.029,4.029,0,0,0-1.3,2.467Zm19.285-2.66v-3.64h7.28V0H24.57V-21.875Z" transform="translate(-4130 -9346)" fill="#32618d"/>
    <path id="パス_217" data-name="パス 217" d="M7.168-10.864a14.452,14.452,0,0,0-2.3-2.576l-1.424.88A13.613,13.613,0,0,1,5.632-9.872ZM-3.44-13.424a16.724,16.724,0,0,1-4.368,6.24A12.22,12.22,0,0,1-6.752-5.248,15.077,15.077,0,0,0-5.088-7.04v8.4H-3.1V-9.888a25.42,25.42,0,0,0,1.488-2.944ZM7.408-7.68,7.136-9.472l-4.56.592c-.112-1.36-.176-2.864-.208-4.432H.432c.048,1.68.144,3.248.256,4.688l-3.232.432.272,1.84L.88-6.784C1.456-1.9,2.72,1.1,5.424,1.36c.9.048,1.76-.688,2.16-3.776A6.546,6.546,0,0,1,6.032-3.5C5.9-1.728,5.712-.928,5.344-.96c-1.28-.16-2.128-2.528-2.576-6.08Z" transform="translate(-4086 -9383)" fill="#fff"/>
    <path id="パス_228" data-name="パス 228" d="M11.3-14a3.005,3.005,0,0,0-1-1.725A3.182,3.182,0,0,0,8.275-16.3a3.272,3.272,0,0,0-2.95,1.513A9.909,9.909,0,0,0,4.3-9.775a4.3,4.3,0,0,1,1.9-1.7,6.158,6.158,0,0,1,2.7-.6,5.824,5.824,0,0,1,2.912.712A4.968,4.968,0,0,1,13.788-9.3,6.824,6.824,0,0,1,14.5-6.075a6.894,6.894,0,0,1-.687,3.125A5.1,5.1,0,0,1,11.775-.788,6.344,6.344,0,0,1,8.525,0,6.425,6.425,0,0,1,4.488-1.137,5.992,5.992,0,0,1,2.438-4.35,19.32,19.32,0,0,1,1.85-9.525q0-9.15,6.45-9.15a5.522,5.522,0,0,1,3.938,1.35A5.349,5.349,0,0,1,13.925-14ZM8.275-9.675a3.835,3.835,0,0,0-2.587.913A3.286,3.286,0,0,0,4.625-6.125a3.752,3.752,0,0,0,.988,2.737A3.681,3.681,0,0,0,8.375-2.375a3.242,3.242,0,0,0,2.488-.975,3.651,3.651,0,0,0,.912-2.6,3.968,3.968,0,0,0-.887-2.713A3.289,3.289,0,0,0,8.275-9.675ZM16.8-9.35a13.163,13.163,0,0,1,1.463-6.763Q19.725-18.55,23.3-18.55t5.038,2.437A13.163,13.163,0,0,1,29.8-9.35a13.424,13.424,0,0,1-1.462,6.838Q26.875-.05,23.3-.05T18.263-2.513A13.424,13.424,0,0,1,16.8-9.35Zm10.2,0a18.955,18.955,0,0,0-.263-3.425,4.6,4.6,0,0,0-1.062-2.288A3.035,3.035,0,0,0,23.3-15.95a3.035,3.035,0,0,0-2.375.887,4.6,4.6,0,0,0-1.062,2.288A18.955,18.955,0,0,0,19.6-9.35a20.872,20.872,0,0,0,.25,3.525,4.411,4.411,0,0,0,1.063,2.3A3.1,3.1,0,0,0,23.3-2.65a3.1,3.1,0,0,0,2.388-.875,4.411,4.411,0,0,0,1.063-2.3A20.872,20.872,0,0,0,27-9.35Z" transform="translate(-4125 -9382)" fill="#fff"/>
    <path id="パス_229" data-name="パス 229" d="M13,0H62a13,13,0,0,1,0,26H13A13,13,0,0,1,13,0Z" transform="translate(-3843 -9501)" fill="#0a81de"/>
    <path id="パス_218" data-name="パス 218" d="M1.26-16.59a4.58,4.58,0,0,1,1.275-3.435A4.5,4.5,0,0,1,5.82-21.27,4.5,4.5,0,0,1,9.1-20.025,4.58,4.58,0,0,1,10.38-16.59,4.631,4.631,0,0,1,9.1-13.14,4.475,4.475,0,0,1,5.82-11.88a4.475,4.475,0,0,1-3.285-1.26A4.631,4.631,0,0,1,1.26-16.59Zm18.3-4.29L7.59,0H4.23L16.2-20.88ZM5.82-19.2q-1.89,0-1.89,2.61,0,2.64,1.89,2.64A1.656,1.656,0,0,0,7.215-14.6,3.272,3.272,0,0,0,7.71-16.59Q7.71-19.2,5.82-19.2ZM13.47-4.32a4.58,4.58,0,0,1,1.275-3.435A4.5,4.5,0,0,1,18.03-9a4.466,4.466,0,0,1,3.255,1.245A4.58,4.58,0,0,1,22.56-4.32,4.631,4.631,0,0,1,21.285-.87,4.436,4.436,0,0,1,18.03.39,4.475,4.475,0,0,1,14.745-.87,4.631,4.631,0,0,1,13.47-4.32ZM18-6.93q-1.89,0-1.89,2.61T18-1.71q1.89,0,1.89-2.61T18-6.93Z" transform="translate(-3809 -9442.73)" fill="#0a81de"/>
    <path id="パス_219" data-name="パス 219" d="M18.27-22.435,8.54,0H4.515L14.35-22.015H1.4v-3.4H18.27Z" transform="translate(-3829 -9443)" fill="#0a81de"/>
    <path id="パス_230" data-name="パス 230" d="M7.168-10.864a14.452,14.452,0,0,0-2.3-2.576l-1.424.88A13.613,13.613,0,0,1,5.632-9.872ZM-3.44-13.424a16.724,16.724,0,0,1-4.368,6.24A12.22,12.22,0,0,1-6.752-5.248,15.077,15.077,0,0,0-5.088-7.04v8.4H-3.1V-9.888a25.42,25.42,0,0,0,1.488-2.944ZM7.408-7.68,7.136-9.472l-4.56.592c-.112-1.36-.176-2.864-.208-4.432H.432c.048,1.68.144,3.248.256,4.688l-3.232.432.272,1.84L.88-6.784C1.456-1.9,2.72,1.1,5.424,1.36c.9.048,1.76-.688,2.16-3.776A6.546,6.546,0,0,1,6.032-3.5C5.9-1.728,5.712-.928,5.344-.96c-1.28-.16-2.128-2.528-2.576-6.08Z" transform="translate(-3790 -9480)" fill="#fff"/>
    <path id="パス_231" data-name="パス 231" d="M1.45-13.725A4.789,4.789,0,0,1,3.237-17.35a6.528,6.528,0,0,1,4.187-1.3,6.805,6.805,0,0,1,3.025.625,4.48,4.48,0,0,1,1.925,1.7,4.594,4.594,0,0,1,.65,2.425,4.291,4.291,0,0,1-.825,2.65,4.011,4.011,0,0,1-1.975,1.475v.1a4.2,4.2,0,0,1,2.3,1.637A5.207,5.207,0,0,1,13.35-5a5.088,5.088,0,0,1-.675,2.625,4.662,4.662,0,0,1-2,1.813A7.031,7.031,0,0,1,7.5.1,6.89,6.89,0,0,1,3.063-1.288,5.143,5.143,0,0,1,1.2-5.275H3.95A3.119,3.119,0,0,0,4.975-3.112a3.584,3.584,0,0,0,2.5.838,3.151,3.151,0,0,0,2.35-.838,2.951,2.951,0,0,0,.825-2.163A2.76,2.76,0,0,0,9.538-7.762,6.269,6.269,0,0,0,6.125-8.5h-.65v-2.35H6.15a6.125,6.125,0,0,0,3.088-.675,2.227,2.227,0,0,0,1.062-2.05,2.472,2.472,0,0,0-.775-1.912,3.134,3.134,0,0,0-2.2-.713,3.1,3.1,0,0,0-2.175.713,2.878,2.878,0,0,0-.925,1.762ZM15.6-9.35a13.163,13.163,0,0,1,1.462-6.763Q18.525-18.55,22.1-18.55t5.038,2.437A13.163,13.163,0,0,1,28.6-9.35a13.424,13.424,0,0,1-1.462,6.838Q25.675-.05,22.1-.05T17.063-2.513A13.424,13.424,0,0,1,15.6-9.35Zm10.2,0a18.955,18.955,0,0,0-.262-3.425,4.6,4.6,0,0,0-1.062-2.288A3.035,3.035,0,0,0,22.1-15.95a3.035,3.035,0,0,0-2.375.887,4.6,4.6,0,0,0-1.062,2.288A18.955,18.955,0,0,0,18.4-9.35a20.872,20.872,0,0,0,.25,3.525,4.411,4.411,0,0,0,1.063,2.3A3.1,3.1,0,0,0,22.1-2.65a3.1,3.1,0,0,0,2.387-.875,4.411,4.411,0,0,0,1.063-2.3A20.872,20.872,0,0,0,25.8-9.35Z" transform="translate(-3828 -9479)" fill="#fff"/>
    <path id="パス_220" data-name="パス 220" d="M13,0H62a13,13,0,0,1,0,26H13A13,13,0,0,1,13,0Z" transform="translate(-3802 -9427)" fill="#12aaf9"/>
    <path id="パス_221" data-name="パス 221" d="M1.26-16.59a4.58,4.58,0,0,1,1.275-3.435A4.5,4.5,0,0,1,5.82-21.27,4.5,4.5,0,0,1,9.1-20.025,4.58,4.58,0,0,1,10.38-16.59,4.631,4.631,0,0,1,9.1-13.14,4.475,4.475,0,0,1,5.82-11.88a4.475,4.475,0,0,1-3.285-1.26A4.631,4.631,0,0,1,1.26-16.59Zm18.3-4.29L7.59,0H4.23L16.2-20.88ZM5.82-19.2q-1.89,0-1.89,2.61,0,2.64,1.89,2.64A1.656,1.656,0,0,0,7.215-14.6,3.272,3.272,0,0,0,7.71-16.59Q7.71-19.2,5.82-19.2ZM13.47-4.32a4.58,4.58,0,0,1,1.275-3.435A4.5,4.5,0,0,1,18.03-9a4.466,4.466,0,0,1,3.255,1.245A4.58,4.58,0,0,1,22.56-4.32,4.631,4.631,0,0,1,21.285-.87,4.436,4.436,0,0,1,18.03.39,4.475,4.475,0,0,1,14.745-.87,4.631,4.631,0,0,1,13.47-4.32ZM18-6.93q-1.89,0-1.89,2.61T18-1.71q1.89,0,1.89-2.61T18-6.93Z" transform="translate(-3760 -9368.73)" fill="#12aaf9"/>
    <path id="パス_222" data-name="パス 222" d="M1.575-21.875v-3.64h7.28V0H4.83V-21.875Zm19.25,0v-3.64H28.1V0H24.08V-21.875Z" transform="translate(-3792 -9369)" fill="#12aaf9"/>
    <path id="パス_223" data-name="パス 223" d="M7.168-10.864a14.452,14.452,0,0,0-2.3-2.576l-1.424.88A13.613,13.613,0,0,1,5.632-9.872ZM-3.44-13.424a16.724,16.724,0,0,1-4.368,6.24A12.22,12.22,0,0,1-6.752-5.248,15.077,15.077,0,0,0-5.088-7.04v8.4H-3.1V-9.888a25.42,25.42,0,0,0,1.488-2.944ZM7.408-7.68,7.136-9.472l-4.56.592c-.112-1.36-.176-2.864-.208-4.432H.432c.048,1.68.144,3.248.256,4.688l-3.232.432.272,1.84L.88-6.784C1.456-1.9,2.72,1.1,5.424,1.36c.9.048,1.76-.688,2.16-3.776A6.546,6.546,0,0,1,6.032-3.5C5.9-1.728,5.712-.928,5.344-.96c-1.28-.16-2.128-2.528-2.576-6.08Z" transform="translate(-3748 -9406)" fill="#fff"/>
    <path id="パス_224" data-name="パス 224" d="M1.15-3.8V-5.95L9.55-18H13V-6.275h2.325V-3.8H13V0H10.2V-3.8Zm9.175-11.3-5.9,8.825h5.9Zm6.6,5.75a13.163,13.163,0,0,1,1.463-6.763q1.463-2.437,5.037-2.437t5.038,2.437A13.163,13.163,0,0,1,29.925-9.35a13.424,13.424,0,0,1-1.462,6.838Q27-.05,23.425-.05T18.388-2.513A13.424,13.424,0,0,1,16.925-9.35Zm10.2,0a18.955,18.955,0,0,0-.263-3.425A4.6,4.6,0,0,0,25.8-15.063a3.035,3.035,0,0,0-2.375-.887,3.035,3.035,0,0,0-2.375.887,4.6,4.6,0,0,0-1.062,2.288,18.955,18.955,0,0,0-.262,3.425,20.872,20.872,0,0,0,.25,3.525,4.411,4.411,0,0,0,1.063,2.3,3.1,3.1,0,0,0,2.387.875,3.1,3.1,0,0,0,2.388-.875,4.411,4.411,0,0,0,1.063-2.3A20.872,20.872,0,0,0,27.125-9.35Z" transform="translate(-3787 -9405)" fill="#fff"/>
    <path id="パス_237" data-name="パス 237" d="M13,0H62a13,13,0,0,1,0,26H13A13,13,0,0,1,13,0Z" transform="translate(-4016 -9545)" fill="#22415d"/>
    <path id="パス_232" data-name="パス 232" d="M1.26-16.59a4.58,4.58,0,0,1,1.275-3.435A4.5,4.5,0,0,1,5.82-21.27,4.5,4.5,0,0,1,9.1-20.025,4.58,4.58,0,0,1,10.38-16.59,4.631,4.631,0,0,1,9.1-13.14,4.475,4.475,0,0,1,5.82-11.88a4.475,4.475,0,0,1-3.285-1.26A4.631,4.631,0,0,1,1.26-16.59Zm18.3-4.29L7.59,0H4.23L16.2-20.88ZM5.82-19.2q-1.89,0-1.89,2.61,0,2.64,1.89,2.64A1.656,1.656,0,0,0,7.215-14.6,3.272,3.272,0,0,0,7.71-16.59Q7.71-19.2,5.82-19.2ZM13.47-4.32a4.58,4.58,0,0,1,1.275-3.435A4.5,4.5,0,0,1,18.03-9a4.466,4.466,0,0,1,3.255,1.245A4.58,4.58,0,0,1,22.56-4.32,4.631,4.631,0,0,1,21.285-.87,4.436,4.436,0,0,1,18.03.39,4.475,4.475,0,0,1,14.745-.87,4.631,4.631,0,0,1,13.47-4.32ZM18-6.93q-1.89,0-1.89,2.61T18-1.71q1.89,0,1.89-2.61T18-6.93Z" transform="translate(-3980 -9486.73)" fill="#22415d"/>
    <path id="パス_233" data-name="パス 233" d="M18.55-22.085H6.825v6.965a5.543,5.543,0,0,1,2.188-1.645,7.353,7.353,0,0,1,3.1-.665,8.283,8.283,0,0,1,4.777,1.26,7.059,7.059,0,0,1,2.625,3.185,10.619,10.619,0,0,1,.787,4.06,10.23,10.23,0,0,1-1,4.6,7.418,7.418,0,0,1-2.975,3.167A9.466,9.466,0,0,1,11.48,0,9.372,9.372,0,0,1,5.355-1.89a7.652,7.652,0,0,1-2.765-5H6.475A4.327,4.327,0,0,0,8.19-4.287a5.524,5.524,0,0,0,3.325.962,4.554,4.554,0,0,0,3.728-1.5,6.068,6.068,0,0,0,1.242-3.99,5.455,5.455,0,0,0-1.26-3.868,4.836,4.836,0,0,0-3.71-1.347,4.759,4.759,0,0,0-2.887.857,4.8,4.8,0,0,0-1.7,2.328H3.15V-25.585h15.4Z" transform="translate(-4002 -9487)" fill="#22415d"/>
    <path id="パス_238" data-name="パス 238" d="M7.168-10.864a14.452,14.452,0,0,0-2.3-2.576l-1.424.88A13.613,13.613,0,0,1,5.632-9.872ZM-3.44-13.424a16.724,16.724,0,0,1-4.368,6.24A12.22,12.22,0,0,1-6.752-5.248,15.077,15.077,0,0,0-5.088-7.04v8.4H-3.1V-9.888a25.42,25.42,0,0,0,1.488-2.944ZM7.408-7.68,7.136-9.472l-4.56.592c-.112-1.36-.176-2.864-.208-4.432H.432c.048,1.68.144,3.248.256,4.688l-3.232.432.272,1.84L.88-6.784C1.456-1.9,2.72,1.1,5.424,1.36c.9.048,1.76-.688,2.16-3.776A6.546,6.546,0,0,1,6.032-3.5C5.9-1.728,5.712-.928,5.344-.96c-1.28-.16-2.128-2.528-2.576-6.08Z" transform="translate(-3964 -9524)" fill="#fff"/>
    <path id="パス_239" data-name="パス 239" d="M13.05-16.025,6.1,0H3.225L10.25-15.725H1V-18.15H13.05Zm1.7,6.675a13.163,13.163,0,0,1,1.462-6.763q1.463-2.437,5.038-2.437t5.037,2.437A13.163,13.163,0,0,1,27.75-9.35a13.424,13.424,0,0,1-1.463,6.838Q24.825-.05,21.25-.05T16.212-2.513A13.424,13.424,0,0,1,14.75-9.35Zm10.2,0a18.955,18.955,0,0,0-.263-3.425,4.6,4.6,0,0,0-1.062-2.288,3.035,3.035,0,0,0-2.375-.887,3.035,3.035,0,0,0-2.375.887,4.6,4.6,0,0,0-1.062,2.288A18.955,18.955,0,0,0,17.55-9.35a20.872,20.872,0,0,0,.25,3.525,4.411,4.411,0,0,0,1.063,2.3,3.1,3.1,0,0,0,2.388.875,3.1,3.1,0,0,0,2.388-.875,4.411,4.411,0,0,0,1.063-2.3A20.872,20.872,0,0,0,24.95-9.35Z" transform="translate(-4001 -9523)" fill="#fff"/>
    <path id="パス_207" data-name="パス 207" d="M20.8-15.6v-9.88H32.045v9.88Zm41.47,0H40.04v-9.88H57.2v-7.15H40.04v-7.8H58.695V-47.9H21.97a41.5,41.5,0,0,0,2.145-5.33L16.25-55.25C13.455-46.865,8.45-38.545,2.6-33.6a59.822,59.822,0,0,1,6.7,5,58.415,58.415,0,0,0,8.84-11.83h13.91v7.8H13.065V-15.6H2.8v7.41h29.25V5.72h8V-8.19H62.27ZM95.94-4.16H78.26V-30.94H72.54V5.59h5.72V1.69H95.94V4.81h5.98V-30.94H95.94ZM84.825-5.135h4.55v-7.6c1.3,1.69,2.73,3.51,3.38,4.615l2.795-3.25c-.845-.91-3.705-3.7-5.4-5.33H94.77V-21.19h-5.4v-9.1h-4.55v9.1h-5.46V-16.7h3.77a18.808,18.808,0,0,1-4.55,5.72A25.378,25.378,0,0,1,80.6-6.24a20.378,20.378,0,0,0,4.225-5.98Zm-.39-17.875a26.538,26.538,0,0,0-2.145-6.11l-3.445,1.04a27.223,27.223,0,0,1,1.95,6.24Zm7.475-5.915a47.573,47.573,0,0,1-2.405,6.11l3.12.91c.91-1.56,1.95-3.64,3.055-5.915ZM109-34.9a55.99,55.99,0,0,0,6.825-12.09,54.244,54.244,0,0,0,7.02,12.09Zm-1.3,6.565h16.51v-4.94a27.979,27.979,0,0,0,3.965,3.9,41.044,41.044,0,0,1,3.77-7.345c-5.135-3.445-9.945-11.245-12.935-18.265H112.06a49.7,49.7,0,0,1-9.1,16.315v-.455H91.91v-4.81h9.425v-6.11H91.91v-4.94H84.76v15.86H80.6V-51.61H74.1v12.48H70.46v6.5h31.33a32.88,32.88,0,0,1,1.625,3.575,29.715,29.715,0,0,0,4.29-4.29Zm21.125,4.615H104v6.7h4.81V5.72h7.15V-17.03h5.85V-7.8c0,.52-.195.78-.78.78s-2.47,0-4.225-.065a28.127,28.127,0,0,1,2.08,6.89c3.25,0,5.59-.13,7.54-1.3,1.95-1.235,2.4-3.12,2.4-6.175Z" transform="translate(-4191 -9480)" fill="#282828"/>
  </g>
</svg>
