<svg xmlns="http://www.w3.org/2000/svg" width="20" height="8.486" viewBox="0 0 20 8.486">
  <g id="グループ_26413" data-name="グループ 26413" transform="translate(-317 -1222.257)">
    <path id="合体_5" data-name="合体 5" d="M-5045.6,611.046a.5.5,0,0,1,0-.708l2.889-2.888H-5060.5a.5.5,0,0,1-.5-.5.5.5,0,0,1,.5-.5h17.793l-2.889-2.888a.5.5,0,0,1,0-.707.5.5,0,0,1,.708,0l3.535,3.536a.485.485,0,0,1,.088.118.5.5,0,0,1,.265.442.5.5,0,0,1-.265.442.507.507,0,0,1-.088.119l-3.535,3.535a.5.5,0,0,1-.354.147A.5.5,0,0,1-5045.6,611.046Z" transform="translate(5378 619.55)" fill="#fff"/>
  </g>
</svg>
