<svg xmlns="http://www.w3.org/2000/svg" width="20" height="8.485" viewBox="0 0 20 8.485">
  <g id="グループ_26411" data-name="グループ 26411" transform="translate(-317 -1222.258)">
    <path id="合体_5" data-name="合体 5" d="M-2521.6-1636.954a.5.5,0,0,1,0-.707l2.89-2.89H-2536.5a.5.5,0,0,1-.5-.5.5.5,0,0,1,.5-.5h17.792l-2.888-2.889a.5.5,0,0,1,0-.706.5.5,0,0,1,.707,0l3.535,3.535a.5.5,0,0,1,.088.119.5.5,0,0,1,.265.442.5.5,0,0,1-.264.441.5.5,0,0,1-.089.12l-3.535,3.535a.5.5,0,0,1-.354.146A.5.5,0,0,1-2521.6-1636.954Z" transform="translate(2854 2867.55)" fill="#282828"/>
  </g>
</svg>
