<svg xmlns="http://www.w3.org/2000/svg" width="982.962" height="188.006" viewBox="0 0 982.962 188.006">
  <g id="グループ_26419" data-name="グループ 26419" transform="translate(-13390.61 -3497.205)">
    <g id="グループ_26418" data-name="グループ 26418" transform="translate(13257 963)">
      <g id="グループ_65" data-name="グループ 65" transform="translate(-104 25)">
        <path id="パス_191" data-name="パス 191" d="M30.45-43.152c0,6.09-14.268,24.447-27.84,34.278L3.654-7.395c13.746-6,27.84-17.226,35.235-26.274,2-2.262,4.7-3.741,4.7-5.916,0-3.828-5.916-11.571-11.919-11.919a27.025,27.025,0,0,0-6.7.609l-.261,1.3C27.927-47.937,30.45-45.588,30.45-43.152ZM82.128-20.01c-.522-12.528-16.1-25.752-30.885-31.842L50.2-50.46c10.44,8.7,16.008,19.053,19.749,31.407,1.305,4.437,2.7,7.308,6.264,7.221C79.779-11.832,82.3-15.66,82.128-20.01Zm25.056,3.219c-.174-6.7-.435-22.272-.7-29.058a9.987,9.987,0,0,0,4.263,1.479c1.74,0,4.611-.87,7.395-1.305a177.419,177.419,0,0,1,18.966-1.479c.957,0,1.218.435,1.218,1.392,0,4-1.653,16.965-3.306,26.709C126.759-18.531,115.188-17.487,107.184-16.791Zm-17.4-37.671c3.48,3.045,4.785,4.611,5.481,7.743,1.305,6.264,2.61,22.1,2.61,27.057.087,3.132-.348,6.438-.348,8.7,0,3.915,2.7,7.743,5.568,7.743,3.219,0,4.263-2.262,4.263-4.959v-1.74c9.4-.609,19.575-1.218,26.274-1.218,4.785,0,9.483.7,12.354.7,2.784,0,4-1.653,4-4,0-2.523-2.7-4.263-5.655-4.785,1.74-7.482,3.567-15.225,4.611-20.1.7-3.045,4.35-4.089,4.35-6.612,0-3.741-9.309-10.962-12.441-10.962-2.436,0-3.393,2.958-7.134,3.48-3.567.609-19.227,2.175-27.753,2.784a2.894,2.894,0,0,0-.87-.957c-4.611-3.915-9.309-4.35-14.616-4.089ZM164-39.585c-.261,2.088-.522,4.611.261,6.612,1.566,4.263,6.96,9.918,10.353,9.918,3.306,0,4.611-2.088,10.875-2.7,6.7-.783,26.187-2,32.8-2,6.09,0,9.135.261,12.615.261,3.654,0,5.742-1.218,5.742-3.741,0-3.741-4.524-6.438-9.744-6.438-2.088,0-6,.7-11.832,1.218-5.307.435-31.581,2.175-40.89,2.175-4.611,0-6.09-2.349-8.7-5.829Z" transform="translate(235 2674)" fill="#fff"/>
        <g id="グループ_64" data-name="グループ 64" transform="translate(471.274 2574)">
          <path id="パス_192" data-name="パス 192" d="M25.143-64.815c3.567.609,6.264,1.566,6.786,4.437.7,3.915.957,14.877.957,22.1,0,5.22-.087,16.878-.783,23.4-.435,3.828-1.218,5.829-1.218,8.178,0,6.438,2.436,11.136,6.96,11.136,3.48,0,4.437-1.827,4.437-6.351,0-1.218-.174-4.176-.348-8.613-.261-7.482-.348-18.618-.087-27.84a46.208,46.208,0,0,1,10.44,6.525c6.7,6.177,7.047,10.962,12.615,10.962a5.053,5.053,0,0,0,5.046-5.307c0-4.611-2.523-7.221-6.351-9.483-4.872-2.871-12.963-5.22-21.663-6.177a107.573,107.573,0,0,1,.783-13.137c.435-3.219,2.349-4.089,2.349-6.612,0-2.871-7.743-7.134-12.093-7.134-2.61,0-5.481,1.392-7.917,2.523Zm60.552,25.23c-.261,2.088-.522,4.611.261,6.612,1.566,4.263,6.96,9.918,10.353,9.918,3.306,0,4.611-2.088,10.875-2.7,6.7-.783,26.187-2,32.8-2,6.09,0,9.135.261,12.615.261,3.654,0,5.742-1.218,5.742-3.741,0-3.741-4.524-6.438-9.744-6.438-2.088,0-6,.7-11.832,1.218-5.307.435-31.581,2.175-40.89,2.175-4.611,0-6.09-2.349-8.7-5.829Zm96.048-24.882c5.307,1.914,6.612,2.349,7.656,4.785.87,1.827,1.827,5.742,3.045,10.527-7.134,1.74-15.66,3.828-17.748,3.828-2.175,0-3.219-.87-5.22-2.088l-.957.522a10.276,10.276,0,0,0,1.392,4.263c1.74,2.7,6.09,5.742,8.439,5.742,2.175,0,3.741-1.218,6.351-2.262s6-2.088,9.4-3.045c.783,3.306,1.827,7.83,2.871,12.7-9.744,2.61-23.316,6.264-25.752,6.264-1.653,0-2.958-.609-5.481-2.523l-1.044.609a11.6,11.6,0,0,0,1.479,5.655c1.131,1.914,6.264,5.394,9.57,5.307,2.175,0,3.48-1.479,6.264-2.784a124.067,124.067,0,0,1,16.356-5.829c.609,3.045,1.218,5.916,1.653,8.613.957,4.785,1.131,9.483,1.566,11.136.7,3.654,3.219,7.83,6.351,7.743,3.219-.087,4.611-2,4.611-4.263,0-3.393-.957-5.829-2.349-10.962-.783-3.045-2-7.83-3.48-14.442a147.568,147.568,0,0,1,25.752-4.35c3.48-.261,4.176-2.349,4.176-4.089,0-2.784-5.133-4.872-10.266-4.785-.783.087-1.653.783-3.741,1.566-3.828,1.392-10.788,3.306-17.487,4.959-.87-3.741-1.74-7.917-2.784-12.528,5.046-1.218,12.18-2.7,17.226-3.654,3.393-.609,4.263-2.262,4.263-4.35,0-2.61-6.09-4.35-9.135-4.263-.7,0-2.871,1.653-6.7,2.958-2,.7-4.176,1.305-7.134,2.088-.435-2.61-.783-4.7-.957-6.612-.261-2.436,1.044-3.567.7-5.742-.348-2.349-7.134-4.959-10.7-4.959-1.914,0-5.568,1.479-8.265,2.958Z" transform="translate(-0.274 100)" fill="#fff"/>
          <path id="パス_193" data-name="パス 193" d="M21.837-44.022a13.8,13.8,0,0,0,.348,4.176c.522,2.262,3.828,6.7,6.438,6.7,1.827,0,3.567-1.218,6.612-1.914A107.355,107.355,0,0,1,54.984-37.5c.522,0,.783.261.7.87-.087,1.479-.348,4.7-.783,8.526-8,.609-22.359,2.349-25.491,2.349a8.909,8.909,0,0,1-5.22-2.175l-.7.435a9.645,9.645,0,0,0,.87,4.437c.957,2.262,3.915,5.22,5.916,5.22,1.566,0,2.871-.957,5.22-1.392,3.654-.7,11.484-1.74,18.705-2.262-.348,3.915-.783,7.743-1.218,10.875-7.917.783-21.75,2.262-25.752,2.262-2.349,0-3.828-1.044-5.655-2.871l-.7.348a10.01,10.01,0,0,0,.609,4.437c.783,2.262,4.263,6.525,6.96,6.525,1.653,0,3.915-.87,6.177-1.479a70.1,70.1,0,0,1,15.4-2.088c4.437,0,10.005,1.305,12.093,1.305a3.342,3.342,0,0,0,3.393-3.393c0-1.479-2.262-3.654-4.524-4.785,1.479-7.656,3.393-17.661,4.089-21.924.435-2.523,3.306-3.306,3.306-5.394,0-3.219-8.265-8.526-10.788-8.526-2.088,0-3.045,2-5.481,2.436-3.654.522-19.053,2.088-24.186,2.088-1.827,0-3.48-.957-5.133-2.61Zm63.858,4.437c-.261,2.088-.522,4.611.261,6.612,1.566,4.263,6.96,9.918,10.353,9.918,3.306,0,4.611-2.088,10.875-2.7,6.7-.783,26.187-2,32.8-2,6.09,0,9.135.261,12.615.261,3.654,0,5.742-1.218,5.742-3.741,0-3.741-4.524-6.438-9.744-6.438-2.088,0-6,.7-11.832,1.218-5.307.435-31.581,2.175-40.89,2.175-4.611,0-6.09-2.349-8.7-5.829Z" transform="translate(227.726 100)" fill="#fff"/>
        </g>
      </g>
      <g id="グループ_43" data-name="グループ 43" transform="translate(570 53)">
        <g id="グループ_41" data-name="グループ 41" transform="translate(201 2629.676)">
          <path id="パス_194" data-name="パス 194" d="M3.752-44.689a14.182,14.182,0,0,0-.938,4.757c0,3.752,5.293,8.911,8.71,8.911,2.144,0,3.551-1.742,5.025-2.68,4.02-2.613,13.132-6.03,21.239-7.839.67-.134.737.268.134.67A26.95,26.95,0,0,0,24.857-17.554c0,8.978,3.417,13.869,8.241,16.683,4.02,2.345,8.04,3.149,13.869,3.149,3.082,0,7.236-.8,7.236-4.69,0-2.948-3.216-5.628-5.829-5.628-1.541,0-6.767.268-10.251-1.407-2.211-1.072-5.829-3.35-5.829-11.39,0-10.318,5.092-15.477,7.169-17.085,3.685-2.814,7.5-2.948,10.452-2.948,1.608,0,3.953.268,5.963.268,2.546,0,4.221-1.608,4.221-3.685,0-2.211-1.742-3.685-3.685-4.556a14.631,14.631,0,0,0-6.231-1.273c-2.01,0-9.983,2.077-16.75,3.752-12.127,3.015-20.3,4.891-24.589,4.891-1.876,0-3.149-1.742-4.489-3.417Zm48.709,7.236a27.646,27.646,0,0,1,6.1,6.566c1.206,1.675,2.01,2.479,3.417,2.479a2.43,2.43,0,0,0,2.546-2.68,4.793,4.793,0,0,0-2.278-4.154c-2.01-1.407-5.293-2.412-9.313-2.948ZM46.3-33.1a31.888,31.888,0,0,1,5.9,7.5c.938,1.541,1.876,2.211,3.015,2.278a2.75,2.75,0,0,0,2.881-2.747,4.384,4.384,0,0,0-1.675-3.685c-2.211-2.077-5.695-3.216-9.581-4.087Z" transform="translate(6 17.324)" fill="#fff"/>
        </g>
        <path id="パス_195" data-name="パス 195" d="M97.709-30.646H125.37a6.815,6.815,0,0,0,3.582-.8,90.019,90.019,0,0,1-3.582,9.353c-9.353,1.194-18.706,2.189-27.661,3.383Zm0-23.681h11.542v6.567h4.179l-9.154,11.343H97.709ZM68.257-60.1V-79.2H78.605v19.1Zm10.348-43.183v18.507H68.257v-18.507Zm30.646,0v18.507H97.709v-18.507Zm0,43.183H97.709V-79.2h11.542Zm66.068-71.242L164.175-119.8h-7.562v-38.009c5.174-.8,6.766-2.786,7.363-5.373l-27.263-2.786V-119.8H124.375l1.791,5.572h10.547v22.487c0,19.9-1.592,39.4-6.965,57.312-5.572-5.373-13.93-11.94-15.721-13.532,5.373-.6,12.139-3.582,12.338-4.975v-48.755c2.985-.6,5.174-1.791,6.169-2.985l-16.716-12.935-8.159,8.557h-9.95v-13.333h30.845c2.786,0,4.776-.995,5.373-2.985-6.567-6.169-17.313-14.726-17.313-14.726l-9.552,12.338H97.709V-143.28c7.761-.8,14.726-1.99,20.7-2.985,5.572,2.388,9.552,2.388,11.741.4l-19.7-19.5c-13.532,7.363-39.6,17.313-60.894,22.487,1.592-4.179,2.786-8.557,4.179-12.935,4.577,0,7.164-1.791,7.96-4.179L31.044-169.15C25.87-132.534,14.925-93.53,3.184-68.257l2.587,1.592A176.056,176.056,0,0,0,20.1-83.779V17.711H23.88c8.159,0,17.114-4.577,17.313-5.97V-103.082c3.582-.8,5.572-2.189,6.169-3.98l-10.945-3.98a266.8,266.8,0,0,0,12.736-30.646l.6,1.99c9.353-.2,19.1-.8,28.855-1.592v13.532H46.566l1.592,5.373H78.605v13.333H69.252l-18.109-7.562v72.038H53.73c6.965,0,14.527-3.98,14.527-5.572v-4.179H78.605v17.91H48.158l1.592,5.771H78.605v14.129c-13.731,1.393-25.074,2.587-31.84,2.985l9.154,23.88a7.586,7.586,0,0,0,5.373-4.577c28.059-10.149,48.357-18.109,62.486-24.278A97.88,97.88,0,0,1,99.9,13.93l2.189,1.99c43.979-23.482,54.327-64.675,54.526-107.659v-22.487h9.751c-.8,68.655-2.388,99.1-8.358,105.072-1.592,1.791-3.184,2.388-6.368,2.388-3.781,0-12.736-.6-18.706-1.194l-.2,2.985C139.7-3.383,144.673-1,147.26,2.189c2.388,2.985,2.985,7.96,2.786,14.925,9.95,0,18.109-2.985,24.079-9.353,9.751-10.547,11.542-37.412,12.736-118.6,4.378-.6,6.766-1.99,8.358-3.582Z" transform="translate(277 2651)" fill="#fff" stroke="#fff" stroke-width="1"/>
        <path id="パス_196" data-name="パス 196" d="M74.73-102.93c0,1.974-.846,3.525-2.961,6.2-5.5,7.191-25.8,28.341-33.276,37.506C35.532-55.695,34.4-53.157,34.4-50.2c0,2.679,1.551,6.2,5.076,9.024,16.5,14.1,27.495,24.957,32.994,33.84,3.807,6.063,5.358,9.306,7.05,12.408,1.692,2.679,4.512,5.076,8.319,5.076,7.332,0,9.729-5.217,9.729-9.729,0-4.794-1.692-9.447-6.627-15.651-9.588-12.126-25.38-21.291-38.916-30.879-2.961-1.974-5.076-3.948-5.076-5.922,0-1.833,1.41-3.666,5.076-7.332,5.922-5.922,22.7-19.317,32.994-26.508,6.063-4.089,10.434-5.217,10.434-9.729,0-4.935-6.627-13.113-14.664-17.2-3.525-1.692-7.473-2.256-11.844-2.679l-1.41,2.115C71.628-109.7,74.73-106.032,74.73-102.93Z" transform="translate(449 2656)" fill="#fff"/>
      </g>
    </g>
  </g>
</svg>
