<svg xmlns="http://www.w3.org/2000/svg" width="354.164" height="90.351" viewBox="0 0 354.164 90.351">
  <g id="グループ_26417" data-name="グループ 26417" transform="translate(-11.2 -2501.604)">
    <g id="グループ_41" data-name="グループ 41" transform="translate(0 5)">
      <path id="パス_186" data-name="パス 186" d="M14-19.84C14-17.04,7.44-8.6,1.2-4.08l.48.68a47.858,47.858,0,0,0,16.2-12.08c.92-1.04,2.16-1.72,2.16-2.72,0-1.76-2.72-5.32-5.48-5.48a12.425,12.425,0,0,0-3.08.28l-.12.6C12.84-22.04,14-20.96,14-19.84ZM37.76-9.2c-.24-5.76-7.4-11.84-14.2-14.64l-.48.64c4.8,4,7.36,8.76,9.08,14.44.6,2.04,1.24,3.36,2.88,3.32C36.68-5.44,37.84-7.2,37.76-9.2ZM49.28-7.72c-.08-3.08-.2-10.24-.32-13.36a4.592,4.592,0,0,0,1.96.68c.8,0,2.12-.4,3.4-.6a81.572,81.572,0,0,1,8.72-.68c.44,0,.56.2.56.64A115.579,115.579,0,0,1,62.08-8.76C58.28-8.52,52.96-8.04,49.28-7.72Zm-8-17.32c1.6,1.4,2.2,2.12,2.52,3.56A96.436,96.436,0,0,1,45-9.04c.04,1.44-.16,2.96-.16,4,0,1.8,1.24,3.56,2.56,3.56,1.48,0,1.96-1.04,1.96-2.28v-.8c4.32-.28,9-.56,12.08-.56,2.2,0,4.36.32,5.68.32a1.664,1.664,0,0,0,1.84-1.84c0-1.16-1.24-1.96-2.6-2.2.8-3.44,1.64-7,2.12-9.24.32-1.4,2-1.88,2-3.04,0-1.72-4.28-5.04-5.72-5.04-1.12,0-1.56,1.36-3.28,1.6-1.64.28-8.84,1-12.76,1.28a1.331,1.331,0,0,0-.4-.44c-2.12-1.8-4.28-2-6.72-1.88ZM75.4-18.2a6.5,6.5,0,0,0,.12,3.04c.72,1.96,3.2,4.56,4.76,4.56,1.52,0,2.12-.96,5-1.24,3.08-.36,12.04-.92,15.08-.92,2.8,0,4.2.12,5.8.12,1.68,0,2.64-.56,2.64-1.72,0-1.72-2.08-2.96-4.48-2.96-.96,0-2.76.32-5.44.56-2.44.2-14.52,1-18.8,1-2.12,0-2.8-1.08-4-2.68Z" transform="translate(10 2541)" fill="#fff"/>
      <g id="グループ_42" data-name="グループ 42" transform="translate(6 2535.559)">
        <path id="パス_188" data-name="パス 188" d="M11.56-29.8c1.64.28,2.88.72,3.12,2.04a88.405,88.405,0,0,1,.44,10.16c0,2.4-.04,7.76-.36,10.76-.2,1.76-.56,2.68-.56,3.76,0,2.96,1.12,5.12,3.2,5.12,1.6,0,2.04-.84,2.04-2.92,0-.56-.08-1.92-.16-3.96-.12-3.44-.16-8.56-.04-12.8a21.245,21.245,0,0,1,4.8,3c3.08,2.84,3.24,5.04,5.8,5.04a2.323,2.323,0,0,0,2.32-2.44c0-2.12-1.16-3.32-2.92-4.36a26.864,26.864,0,0,0-9.96-2.84,49.459,49.459,0,0,1,.36-6.04c.2-1.48,1.08-1.88,1.08-3.04,0-1.32-3.56-3.28-5.56-3.28a9.456,9.456,0,0,0-3.64,1.16ZM39.4-18.2a6.5,6.5,0,0,0,.12,3.04c.72,1.96,3.2,4.56,4.76,4.56,1.52,0,2.12-.96,5-1.24,3.08-.36,12.04-.92,15.08-.92,2.8,0,4.2.12,5.8.12,1.68,0,2.64-.56,2.64-1.72,0-1.72-2.08-2.96-4.48-2.96-.96,0-2.76.32-5.44.56-2.44.2-14.52,1-18.8,1-2.12,0-2.8-1.08-4-2.68ZM83.56-29.64c2.44.88,3.04,1.08,3.52,2.2a36.263,36.263,0,0,1,1.4,4.84,75.57,75.57,0,0,1-8.16,1.76,4.149,4.149,0,0,1-2.4-.96l-.44.24a4.725,4.725,0,0,0,.64,1.96c.8,1.24,2.8,2.64,3.88,2.64,1,0,1.72-.56,2.92-1.04s2.76-.96,4.32-1.4c.36,1.52.84,3.6,1.32,5.84-4.48,1.2-10.72,2.88-11.84,2.88a4.028,4.028,0,0,1-2.52-1.16l-.48.28a5.334,5.334,0,0,0,.68,2.6,6.76,6.76,0,0,0,4.4,2.44c1,0,1.6-.68,2.88-1.28a57.042,57.042,0,0,1,7.52-2.68c.28,1.4.56,2.72.76,3.96.44,2.2.52,4.36.72,5.12C93,.28,94.16,2.2,95.6,2.16A1.912,1.912,0,0,0,97.72.2c0-1.56-.44-2.68-1.08-5.04-.36-1.4-.92-3.6-1.6-6.64a67.847,67.847,0,0,1,11.84-2c1.6-.12,1.92-1.08,1.92-1.88,0-1.28-2.36-2.24-4.72-2.2a16.912,16.912,0,0,0-1.72.72c-1.76.64-4.96,1.52-8.04,2.28-.4-1.72-.8-3.64-1.28-5.76,2.32-.56,5.6-1.24,7.92-1.68,1.56-.28,1.96-1.04,1.96-2,0-1.2-2.8-2-4.2-1.96-.32,0-1.32.76-3.08,1.36-.92.32-1.92.6-3.28.96-.2-1.2-.36-2.16-.44-3.04-.12-1.12.48-1.64.32-2.64-.16-1.08-3.28-2.28-4.92-2.28a10.447,10.447,0,0,0-3.8,1.36Z" transform="translate(-1 45.441)" fill="#fff"/>
        <path id="パス_187" data-name="パス 187" d="M10.04-20.24a6.347,6.347,0,0,0,.16,1.92c.24,1.04,1.76,3.08,2.96,3.08.84,0,1.64-.56,3.04-.88a49.358,49.358,0,0,1,9.08-1.12c.24,0,.36.12.32.4-.04.68-.16,2.16-.36,3.92-3.68.28-10.28,1.08-11.72,1.08a4.1,4.1,0,0,1-2.4-1l-.32.2a4.435,4.435,0,0,0,.4,2.04c.44,1.04,1.8,2.4,2.72,2.4a20.187,20.187,0,0,0,2.4-.64c1.68-.32,5.28-.8,8.6-1.04-.16,1.8-.36,3.56-.56,5-3.64.36-10,1.04-11.84,1.04a3.46,3.46,0,0,1-2.6-1.32L9.6-5a4.6,4.6,0,0,0,.28,2.04c.36,1.04,1.96,3,3.2,3a13.662,13.662,0,0,0,2.84-.68A32.231,32.231,0,0,1,23-1.6c2.04,0,4.6.6,5.56.6a1.537,1.537,0,0,0,1.56-1.56c0-.68-1.04-1.68-2.08-2.2.68-3.52,1.56-8.12,1.88-10.08.2-1.16,1.52-1.52,1.52-2.48,0-1.48-3.8-3.92-4.96-3.92-.96,0-1.4.92-2.52,1.12-1.68.24-8.76.96-11.12.96a3.39,3.39,0,0,1-2.36-1.2ZM39.4-18.2a6.5,6.5,0,0,0,.12,3.04c.72,1.96,3.2,4.56,4.76,4.56,1.52,0,2.12-.96,5-1.24,3.08-.36,12.04-.92,15.08-.92,2.8,0,4.2.12,5.8.12,1.68,0,2.64-.56,2.64-1.72,0-1.72-2.08-2.96-4.48-2.96-.96,0-2.76.32-5.44.56-2.44.2-14.52,1-18.8,1-2.12,0-2.8-1.08-4-2.68Z" transform="translate(103 45.441)" fill="#fff"/>
      </g>
      <path id="パス_185" data-name="パス 185" d="M1.792-21.344a6.774,6.774,0,0,0-.448,2.272c0,1.792,2.528,4.256,4.16,4.256,1.024,0,1.7-.832,2.4-1.28A37.291,37.291,0,0,1,18.048-19.84c.32-.064.352.128.064.32a12.871,12.871,0,0,0-6.24,11.136c0,4.288,1.632,6.624,3.936,7.968a12.174,12.174,0,0,0,6.624,1.5c1.472,0,3.456-.384,3.456-2.24A3.008,3.008,0,0,0,23.1-3.84a12.05,12.05,0,0,1-4.9-.672c-1.056-.512-2.784-1.6-2.784-5.44,0-4.928,2.432-7.392,3.424-8.16A7.637,7.637,0,0,1,23.84-19.52c.768,0,1.888.128,2.848.128a1.827,1.827,0,0,0,2.016-1.76,2.533,2.533,0,0,0-1.76-2.176,6.988,6.988,0,0,0-2.976-.608,75.159,75.159,0,0,0-8,1.792c-5.792,1.44-9.7,2.336-11.744,2.336-.9,0-1.5-.832-2.144-1.632Zm23.264,3.456a13.2,13.2,0,0,1,2.912,3.136c.576.8.96,1.184,1.632,1.184a1.16,1.16,0,0,0,1.216-1.28,2.289,2.289,0,0,0-1.088-1.984A10.534,10.534,0,0,0,25.28-18.24Zm-2.944,2.08a15.23,15.23,0,0,1,2.816,3.584c.448.736.9,1.056,1.44,1.088a1.314,1.314,0,0,0,1.376-1.312,2.094,2.094,0,0,0-.8-1.76,9.881,9.881,0,0,0-4.576-1.952Z" transform="translate(201 2580)" fill="#fff"/>
    </g>
    <path id="パス_189" data-name="パス 189" d="M46.645-14.63h13.2a3.253,3.253,0,0,0,1.71-.38,42.974,42.974,0,0,1-1.71,4.465c-4.465.57-8.93,1.045-13.2,1.615Zm0-11.3h5.51V-22.8H54.15l-4.37,5.415H46.645ZM32.585-28.69v-9.12h4.94v9.12Zm4.94-20.615v8.835h-4.94v-8.835Zm14.63,0v8.835h-5.51v-8.835Zm0,20.615h-5.51v-9.12h5.51ZM83.695-62.7l-5.32,5.51h-3.61V-75.335c2.47-.38,3.23-1.33,3.515-2.565L65.265-79.23v22.04h-5.89l.855,2.66h5.035v10.735c0,9.5-.76,18.81-3.325,27.36-2.66-2.565-6.65-5.7-7.505-6.46C57-23.18,60.23-24.6,60.325-25.27V-48.545A5.306,5.306,0,0,0,63.27-49.97l-7.98-6.175L51.4-52.06h-4.75v-6.365H61.37c1.33,0,2.28-.475,2.565-1.425C60.8-62.8,55.67-66.88,55.67-66.88l-4.56,5.89H46.645V-68.4c3.7-.38,7.03-.95,9.88-1.425,2.66,1.14,4.56,1.14,5.6.19l-9.4-9.31C46.265-75.43,33.82-70.68,23.655-68.21c.76-2,1.33-4.085,2-6.175,2.185,0,3.42-.855,3.8-2L14.82-80.75c-2.47,17.48-7.7,36.1-13.3,48.165l1.235.76a84.047,84.047,0,0,0,6.84-8.17V8.455h1.8c3.9,0,8.17-2.185,8.265-2.85V-49.21c1.71-.38,2.66-1.045,2.945-1.9l-5.225-1.9a127.365,127.365,0,0,0,6.08-14.63l.285.95c4.465-.1,9.12-.38,13.775-.76v6.46H22.23l.76,2.565H37.525v6.365H33.06l-8.645-3.61v34.39H25.65c3.325,0,6.935-1.9,6.935-2.66v-1.995h4.94v8.55H22.99l.76,2.755H37.525v6.745c-6.555.665-11.97,1.235-15.2,1.425l4.37,11.4A3.621,3.621,0,0,0,29.26,2.755C42.655-2.09,52.345-5.89,59.09-8.835A46.727,46.727,0,0,1,47.69,6.65l1.045.95c21-11.21,25.935-30.875,26.03-51.395V-54.53H79.42c-.38,32.775-1.14,47.31-3.99,50.16a3.466,3.466,0,0,1-3.04,1.14c-1.805,0-6.08-.285-8.93-.57l-.1,1.425c3.325.76,5.7,1.9,6.935,3.42,1.14,1.425,1.425,3.8,1.33,7.125,4.75,0,8.645-1.425,11.5-4.465,4.655-5.035,5.51-17.86,6.08-56.62a6.522,6.522,0,0,0,3.99-1.71Z" transform="translate(237 2583)" fill="#fff"/>
    <path id="働_-_アウトライン" data-name="働 - アウトライン" d="M11.4,8.955H9.1V-38.5a82.328,82.328,0,0,1-5.98,7.022l-.279.29-1.957-1.2.187-.4a146.807,146.807,0,0,0,7.8-21.975A208.277,208.277,0,0,0,14.325-80.82l.081-.575,15.681,4.684-.163.49c-.225.674-1.049,2.207-3.905,2.329-.163.519-.321,1.04-.476,1.548-.344,1.13-.7,2.291-1.1,3.423A148.514,148.514,0,0,0,39.4-73.654a108.1,108.1,0,0,0,13.081-5.73l.327-.178L62.856-69.62l-.39.355a3.455,3.455,0,0,1-2.406.82,9.6,9.6,0,0,1-3.6-.863l-.359.06c-2.649.442-5.635.941-8.96,1.3v6.46h3.72l4.72-6.1.4.316c.051.041,5.182,4.132,8.3,7.057L64.5-60l-.089.3c-.34,1.132-1.449,1.781-3.044,1.781H47.145v5.365h4.036l4.058-4.256,8.747,6.768-.332.4a5.481,5.481,0,0,1-2.829,1.505v22.91l-.005.035c-.028.2-.114.8-2.321,1.721a16.335,16.335,0,0,1-2.907.9l.516.425c1.431,1.177,3.73,3.067,5.583,4.791,2.1-7.331,3.075-15.762,3.075-26.435V-54.03h-4.9l-1.176-3.66h6.076V-79.784l14.13,1.444-.127.552c-.369,1.6-1.425,2.472-3.5,2.873V-57.69h2.9l5.5-5.695,10.271,8.73-.383.383a6.79,6.79,0,0,1-3.85,1.787c-.275,18.51-.625,31.768-1.5,40.576-.864,8.653-2.226,13.275-4.7,15.953C80.614,7.115,76.624,8.67,71.63,8.67h-.514l.015-.514c.1-3.568-.263-5.6-1.221-6.8-1.14-1.4-3.381-2.5-6.656-3.245l-.416-.1.064-.955q-.436.508-.886,1A48.462,48.462,0,0,1,48.971,8.041l-.311.166L46.942,6.646l.416-.37a45.778,45.778,0,0,0,10.7-14.119c-6.974,2.994-16.53,6.69-28.436,11a4.068,4.068,0,0,1-2.837,2.276l-.408.074L21.614-6.919l.682-.04c2.838-.167,7.281-.619,12.907-1.192l1.823-.185V-14.13H23.369l-1.036-3.755H37.025v-7.55h-3.94v1.5c0,.856-1.58,1.667-2.522,2.074A12.919,12.919,0,0,1,25.65-20.78H23.915V-56.421L33.16-52.56h3.865v-5.365H22.617l-1-3.362c-1.153,2.885-2.325,5.534-3.539,8l5.157,1.875-.154.462c-.331.993-1.312,1.71-2.919,2.135V5.641l-.005.035c-.032.226-.177.553-1.013,1.079a13.094,13.094,0,0,1-2,.989A16.213,16.213,0,0,1,11.4,8.955Zm-1.305-1H11.4a14.122,14.122,0,0,0,7.765-2.462v-55.1l.392-.087a4.159,4.159,0,0,0,2.338-1.14l-5.208-1.894.251-.5a125.14,125.14,0,0,0,5.951-14.276l-.039.01.338-.888q.1-.265.2-.531l.118-.335v0c.386-1.1.727-2.215,1.083-3.385.189-.622.385-1.265.587-1.9l.111-.348h.366a3.608,3.608,0,0,0,3.093-1.184L15.233-80.1A209.7,209.7,0,0,1,9.827-54.5,149.357,149.357,0,0,1,2.16-32.778l.513.316a84.713,84.713,0,0,0,6.521-7.83l.9-1.215Zm53.8-10.719c3.275.8,5.561,1.974,6.8,3.494,1.069,1.336,1.51,3.425,1.453,6.934a17.222,17.222,0,0,0,5.77-1.054A12.914,12.914,0,0,0,82.76,3.363a13.037,13.037,0,0,0,2.719-5.32A56.517,56.517,0,0,0,87.2-12.008c.883-8.84,1.231-22.209,1.506-40.915l.006-.43.426-.058a6.584,6.584,0,0,0,3.3-1.206l-8.7-7.4L78.587-56.69H74.265V-75.764l.424-.065c1.4-.215,2.444-.592,2.921-1.637l-11.845-1.21V-56.69h-5.7l.534,1.66h5.171v11.235c0,11.155-1.063,19.894-3.346,27.5l-.067.223.077-.046-.392,1.254a43.235,43.235,0,0,1-1.729,4.516l-.114.26-.281.036c-2,.255-4.022.494-5.977.725-2.392.283-4.865.575-7.225.889l-.566.075V-15.13h13.7a2.774,2.774,0,0,0,1.453-.309l.586-.351-.3-.285c-1.9-1.834-4.543-4.006-6.121-5.3-.46-.379-.831-.683-1.1-.906l-4.358,5.4H46.145v-9.55h6.51V-23.3h.9l.828-.092a14.325,14.325,0,0,0,3.55-.934,5.857,5.857,0,0,0,1.9-1.045V-48.955l.4-.08a5.85,5.85,0,0,0,2.269-.9l-7.155-5.537L51.609-51.56H46.145v-7.365H61.37a2.258,2.258,0,0,0,1.969-.8c-2.583-2.4-6.364-5.466-7.585-6.449l-4.4,5.682h-5.21v-8.361l.449-.046c3.474-.356,6.593-.877,9.346-1.337l.647-.108.135.058a8.825,8.825,0,0,0,3.338.84,2.914,2.914,0,0,0,1.289-.26l-8.712-8.624a111.619,111.619,0,0,1-12.882,5.612,147.262,147.262,0,0,1-15.805,4.95l.171.569c3.954-.093,8.331-.339,13.365-.75l.541-.044v7.5H22.9l.464,1.565H38.025v7.365H32.96l-8.045-3.359V-21.78h.735a11.881,11.881,0,0,0,4.307-.916,5.356,5.356,0,0,0,2.128-1.291v-2.449h5.94v9.55H23.647l.484,1.755H38.025v7.7l-.45.046L35.3-7.156C30.1-6.626,25.9-6.2,23.035-6L27,4.341a3.3,3.3,0,0,0,1.805-1.8l.088-.19.2-.071C41.784-2.307,51.81-6.2,58.89-9.293l1.213-.53-.56,1.2A47.183,47.183,0,0,1,48.435,6.652l.374.34a47.326,47.326,0,0,0,12.467-9.6,44.178,44.178,0,0,0,7.852-12.195,58.847,58.847,0,0,0,3.988-13.959A95.127,95.127,0,0,0,74.265-43.8V-55.03h5.661l-.006.506c-.21,18.111-.53,28.977-1.07,36.333-.616,8.384-1.53,12.623-3.056,14.164a3.948,3.948,0,0,1-3.4,1.3c-1.8,0-5.749-.266-8.465-.523Zm.092-1.487c2.969.283,6.786.521,8.406.521A2.984,2.984,0,0,0,75.056-4.7l.02-.021c1.312-1.312,2.194-5.615,2.776-13.541.533-7.265.852-17.978,1.062-35.765H75.265v10.235A96.118,96.118,0,0,1,74.1-28.6a59.844,59.844,0,0,1-4.058,14.2A45.763,45.763,0,0,1,63.984-4.251ZM47.145-14.13V-9.5c2.194-.287,4.468-.556,6.673-.816,1.862-.22,3.784-.447,5.686-.688.52-1.2.926-2.228,1.262-3.2a5.26,5.26,0,0,1-.917.073Zm0-3.755h2.4L53.1-22.3H51.655v-3.135h-4.51ZM21.7-61.49H37.025v-5.418c-4.988.4-9.332.634-13.264.718l-.283.006Q22.594-63.735,21.7-61.49Zm30.953,33.3h-6.51V-38.31h6.51Zm-5.51-1h4.51v-8.12h-4.51Zm-9.12,1h-5.94V-38.31h5.94Zm-4.94-1h3.94v-8.12h-3.94Zm19.57-10.78h-6.51v-9.835h6.51Zm-5.51-1h4.51v-7.835h-4.51Zm-9.12,1h-5.94v-9.835h5.94Zm-4.94-1h3.94v-7.835h-3.94Z" transform="translate(237 2583)" fill="#fff"/>
    <path id="パス_190" data-name="パス 190" d="M35.51-48.91c0,.938-.4,1.675-1.407,2.948C31.49-42.545,21.842-32.5,18.291-28.14c-1.407,1.675-1.943,2.881-1.943,4.288a5.829,5.829,0,0,0,2.412,4.288C26.6-12.864,31.825-7.7,34.438-3.484c1.809,2.881,2.546,4.422,3.35,5.9a4.737,4.737,0,0,0,3.953,2.412A4.3,4.3,0,0,0,46.364.2c0-2.278-.8-4.489-3.149-7.437C38.659-13,31.155-17.353,24.723-21.909c-1.407-.938-2.412-1.876-2.412-2.814,0-.871.67-1.742,2.412-3.484A161.538,161.538,0,0,1,40.4-40.8c2.881-1.943,4.958-2.479,4.958-4.623,0-2.345-3.149-6.231-6.968-8.174a16.506,16.506,0,0,0-5.628-1.273l-.67,1.005C34.036-52.126,35.51-50.384,35.51-48.91Z" transform="translate(319 2585)" fill="#fff"/>
  </g>
</svg>
