<svg xmlns="http://www.w3.org/2000/svg" width="142.625" height="25.05" viewBox="0 0 142.625 25.05">
  <g id="グループ_26410" data-name="グループ 26410" transform="translate(-3718.725 312.5)">
    <path id="パス_177" data-name="パス 177" d="M16.2-17.45V0H12.7V-7.425H5.225V0h-3.5V-17.45h3.5v7.175H12.7V-17.45ZM32.525-7.225a8.26,8.26,0,0,1-.1,1.35H22.3a3.443,3.443,0,0,0,1.05,2.35,3.238,3.238,0,0,0,2.275.85A2.858,2.858,0,0,0,28.4-4.35h3.775a6.309,6.309,0,0,1-2.3,3.287A6.715,6.715,0,0,1,25.7.225a7.225,7.225,0,0,1-3.587-.887,6.247,6.247,0,0,1-2.475-2.513,7.7,7.7,0,0,1-.887-3.75,7.842,7.842,0,0,1,.875-3.775,6.105,6.105,0,0,1,2.45-2.5,7.34,7.34,0,0,1,3.625-.875,7.281,7.281,0,0,1,3.538.85,5.982,5.982,0,0,1,2.425,2.412A7.3,7.3,0,0,1,32.525-7.225Zm-3.625-1a2.776,2.776,0,0,0-.975-2.162A3.454,3.454,0,0,0,25.6-11.2a3.177,3.177,0,0,0-2.187.788,3.462,3.462,0,0,0-1.087,2.188ZM38.575-18.5V0h-3.5V-18.5Zm6.95,0V0h-3.5V-18.5ZM55.125.225a7.3,7.3,0,0,1-3.6-.887,6.391,6.391,0,0,1-2.513-2.513,7.528,7.528,0,0,1-.913-3.75,7.369,7.369,0,0,1,.938-3.75A6.515,6.515,0,0,1,51.6-13.187a7.437,7.437,0,0,1,3.625-.888,7.437,7.437,0,0,1,3.625.888,6.515,6.515,0,0,1,2.563,2.512,7.369,7.369,0,0,1,.938,3.75,7.218,7.218,0,0,1-.962,3.75,6.665,6.665,0,0,1-2.6,2.513A7.56,7.56,0,0,1,55.125.225Zm0-3.05a3.641,3.641,0,0,0,1.787-.463A3.361,3.361,0,0,0,58.25-4.675a4.676,4.676,0,0,0,.5-2.25,4.169,4.169,0,0,0-1.037-3.037,3.411,3.411,0,0,0-2.538-1.063,3.33,3.33,0,0,0-2.513,1.063A4.232,4.232,0,0,0,51.65-6.925a4.3,4.3,0,0,0,.987,3.038A3.251,3.251,0,0,0,55.125-2.825ZM82.75-17.45v2.825H78.1V0H74.6V-14.625H69.95V-17.45ZM91.45.225a7.3,7.3,0,0,1-3.6-.887,6.391,6.391,0,0,1-2.513-2.513,7.529,7.529,0,0,1-.912-3.75,7.369,7.369,0,0,1,.938-3.75,6.515,6.515,0,0,1,2.563-2.512,7.437,7.437,0,0,1,3.625-.888,7.437,7.437,0,0,1,3.625.888,6.515,6.515,0,0,1,2.563,2.512,7.369,7.369,0,0,1,.938,3.75,7.218,7.218,0,0,1-.963,3.75,6.665,6.665,0,0,1-2.6,2.513A7.56,7.56,0,0,1,91.45.225Zm0-3.05a3.641,3.641,0,0,0,1.787-.463,3.361,3.361,0,0,0,1.338-1.388,4.676,4.676,0,0,0,.5-2.25,4.169,4.169,0,0,0-1.037-3.037A3.41,3.41,0,0,0,91.5-11.025a3.33,3.33,0,0,0-2.513,1.063,4.232,4.232,0,0,0-1.012,3.037,4.3,4.3,0,0,0,.987,3.038A3.251,3.251,0,0,0,91.45-2.825ZM109.45,0l-4.7-5.9V0h-3.5V-18.5h3.5V-7.975l4.65-5.875h4.55l-6.1,6.95L114,0ZM129.1-13.85l-8.575,20.4H116.8l3-6.9-5.55-13.5h3.925l3.575,9.675,3.625-9.675ZM137.125.225a7.3,7.3,0,0,1-3.6-.887,6.391,6.391,0,0,1-2.512-2.513,7.529,7.529,0,0,1-.912-3.75,7.369,7.369,0,0,1,.938-3.75,6.515,6.515,0,0,1,2.563-2.512,7.437,7.437,0,0,1,3.625-.888,7.437,7.437,0,0,1,3.625.888,6.515,6.515,0,0,1,2.563,2.512,7.369,7.369,0,0,1,.938,3.75,7.218,7.218,0,0,1-.963,3.75,6.665,6.665,0,0,1-2.6,2.513A7.56,7.56,0,0,1,137.125.225Zm0-3.05a3.641,3.641,0,0,0,1.788-.463,3.361,3.361,0,0,0,1.337-1.388,4.676,4.676,0,0,0,.5-2.25,4.169,4.169,0,0,0-1.038-3.037,3.41,3.41,0,0,0-2.537-1.063,3.33,3.33,0,0,0-2.512,1.063,4.232,4.232,0,0,0-1.013,3.037,4.3,4.3,0,0,0,.988,3.038A3.251,3.251,0,0,0,137.125-2.825Z" transform="translate(3717 -294)" fill="#282828"/>
  </g>
</svg>
