<svg xmlns="http://www.w3.org/2000/svg" width="40" height="39.052" viewBox="0 0 40 39.052">
  <g id="グループ_26409" data-name="グループ 26409" transform="translate(-3661.809 324.526)">
    <g id="グループ_1" data-name="グループ 1" transform="translate(3661.81 -324.526)">
      <g id="グループ_2" data-name="グループ 2" transform="translate(-0.001 0)">
        <path id="パス_25" data-name="パス 25" d="M39.981,16.216l-.09.029c-2.353.764-4.714-.013-4.866-.48s1.3-2.484,3.654-3.249l.09-.027a8.039,8.039,0,0,0-11-2.59,8.045,8.045,0,0,0-5.8-9.9c0,.031,0,.063,0,.094,0,2.474-1.469,4.479-1.96,4.479-.508,0-1.961-2.005-1.961-4.479,0-.031,0-.063,0-.094a8.047,8.047,0,0,0-5.806,9.9,8.035,8.035,0,0,0-11,2.59l.09.027c2.352.765,3.806,2.782,3.654,3.249S2.46,17.01.107,16.246l-.089-.029A8.037,8.037,0,0,0,7.646,24.8,8.051,8.051,0,0,0,6.584,36.171c.019-.026.035-.053.054-.078,1.455-2,3.821-2.759,4.219-2.471S11.265,36.4,9.81,38.4l-.056.075A8.045,8.045,0,0,0,20,34.5a8.041,8.041,0,0,0,10.244,3.971l-.056-.075c-1.454-2-1.445-4.488-1.047-4.777s2.765.47,4.22,2.472c.019.025.035.051.054.078A8.057,8.057,0,0,0,32.352,24.8a8.037,8.037,0,0,0,7.629-8.579" transform="translate(0.001)" fill="#e50012"/>
        <path id="パス_26" data-name="パス 26" d="M31.2,21.08v8.4c-.044,0-6.115-8.2-6.385-8.327H20V37.028h4.562v-8.4c.047,0,6.13,8.279,6.385,8.4h4.815V21.08Z" transform="translate(-8.035 -8.47)" fill="#fff" fill-rule="evenodd"/>
        <path id="パス_27" data-name="パス 27" d="M31.2,21.08v8.4c-.044,0-6.115-8.2-6.385-8.327H20V37.028h4.562v-8.4c.047,0,6.13,8.279,6.385,8.4h4.815V21.08Z" transform="translate(-8.035 -8.47)" fill="none" stroke="#fff" stroke-width="0.425"/>
      </g>
    </g>
  </g>
</svg>
