<svg xmlns="http://www.w3.org/2000/svg" xmlns:xlink="http://www.w3.org/1999/xlink" width="412" height="178" viewBox="0 0 412 178">
  <defs>
    <clipPath id="clip-path">
      <rect id="長方形_725" data-name="長方形 725" width="412" height="178" transform="translate(122 273)" fill="none"/>
    </clipPath>
  </defs>
  <g id="グループ_27027" data-name="グループ 27027" transform="translate(-122 -273)">
    <g id="マスクグループ_33" data-name="マスクグループ 33" clip-path="url(#clip-path)">
      <path id="パス_199" data-name="パス 199" d="M8.15-41.834H45.144V4.038H38.3V-35.407H14.7V4.131H8.15Zm4.468,17.806H41.143v6.291H12.617ZM12.594-5.771H41.178V.644H12.594ZM55.571-34.729h46.9v6.468h-46.9ZM66.462-10.688H91.1V-4.22H66.462Zm9.1-34.324h6.757V4.744H75.559ZM73.653-32.385l5.832,1.853a68.135,68.135,0,0,1-5.5,10.943,58.117,58.117,0,0,1-7.23,9.4,45.567,45.567,0,0,1-8.629,7.142,18.78,18.78,0,0,0-1.352-1.773q-.832-.983-1.679-1.939a14.222,14.222,0,0,0-1.6-1.57,38.626,38.626,0,0,0,6.292-4.4,46.8,46.8,0,0,0,5.651-5.756A51.3,51.3,0,0,0,70.151-25.2,49.706,49.706,0,0,0,73.653-32.385Zm10.593.159a49.2,49.2,0,0,0,5.044,9.16,49.061,49.061,0,0,0,7.056,8.125,39.347,39.347,0,0,0,8.386,5.984,20.419,20.419,0,0,0-1.715,1.653q-.935,1-1.782,2.083a24.1,24.1,0,0,0-1.42,2,44.424,44.424,0,0,1-8.629-7.045,56.42,56.42,0,0,1-7.2-9.308,74.056,74.056,0,0,1-5.523-10.757Zm53.487,9.094,6.8,1.924A39.458,39.458,0,0,1,136.59-8.854,42.708,42.708,0,0,1,125.156-.439a68.01,68.01,0,0,1-14.575,5.323,14.52,14.52,0,0,0-1.065-1.93Q108.793,1.816,108,.7a17.346,17.346,0,0,0-1.458-1.821,64.322,64.322,0,0,0,13.99-4.291,34.681,34.681,0,0,0,10.519-7.123A29.363,29.363,0,0,0,137.733-23.132Zm-17.088-9.146,6.581,2.514a45.766,45.766,0,0,1-4.382,4.9,65.839,65.839,0,0,1-5.179,4.549,59.545,59.545,0,0,1-5.179,3.687q-.59-.7-1.547-1.644t-1.974-1.853q-1.018-.906-1.809-1.479a42.4,42.4,0,0,0,5.049-2.945,41.64,41.64,0,0,0,4.71-3.7A29.788,29.788,0,0,0,120.645-32.278Zm4.744,9.422A31.458,31.458,0,0,0,136.6-8.646q7.677,5.433,19.872,7.358A16.036,16.036,0,0,0,154.968.506q-.811,1.1-1.513,2.231T152.3,4.785a53.29,53.29,0,0,1-14.9-5.023,36.237,36.237,0,0,1-10.713-8.545,47.155,47.155,0,0,1-7.409-12.261ZM107.942-38.909H154.95V-32.7H107.942Zm20.117-6.208h6.55v10.293h-6.55ZM136.5-28.974l5.241-3.848q2.331,1.542,4.989,3.529t5.07,4.01a37.6,37.6,0,0,1,3.937,3.742l-5.7,4.391a30.9,30.9,0,0,0-3.6-3.816q-2.281-2.1-4.9-4.2T136.5-28.974Zm35.481,4.6v19.55H165.9V-18.495h-6.778v-5.878Zm0,17.03a9.332,9.332,0,0,0,4.358,3.878,18.963,18.963,0,0,0,6.83,1.395q2.386.094,5.732.121t7.031-.021q3.685-.047,7.217-.189t6.3-.372A16.2,16.2,0,0,0,208.7-.716q-.4,1.118-.735,2.284t-.511,2.092q-2.457.136-5.629.21t-6.565.1Q191.867,4,188.7,3.949t-5.591-.142a25.073,25.073,0,0,1-8.08-1.53,13.491,13.491,0,0,1-5.721-4.386Q167.5-.531,165.559,1.02t-4.177,3.27l-2.95-6.333q1.872-1.1,4-2.467t4.038-2.833Zm-12.1-32.5,4.391-4.073q1.666,1.095,3.457,2.54t3.361,2.912a18.629,18.629,0,0,1,2.489,2.761l-4.744,4.551a18.992,18.992,0,0,0-2.324-2.829q-1.487-1.534-3.224-3.083T159.879-39.844Zm21.443,5.105,4.067-3.387q2.36.83,5.166,1.966t5.409,2.341q2.6,1.2,4.393,2.235L196-27.791a39.858,39.858,0,0,0-4.107-2.255q-2.535-1.236-5.326-2.488T181.322-34.739Zm-4.8,3.019h27v4.6H182.479V-4.266h-5.96Zm24.011,0h6.055V-9.764a8.379,8.379,0,0,1-.442,3.049,3.357,3.357,0,0,1-1.733,1.728,7.862,7.862,0,0,1-3,.761q-1.779.136-4.168.136a16.9,16.9,0,0,0-.631-2.573,18.192,18.192,0,0,0-.955-2.437q1.25.053,2.459.053h1.626a.832.832,0,0,0,.624-.2.9.9,0,0,0,.165-.6ZM177-43.253H202.26v4.8H177Zm2.831,19H202.6v4.43H179.836Zm0,7.418H202.6v4.609H179.836Zm8.746-12.734h5.671V-4.478h-5.671Zm11.407-13.681h1.446l1.239-.313,3.77,3.028q-1.861,1.743-4.16,3.532a58.414,58.414,0,0,1-4.791,3.353,51.836,51.836,0,0,1-4.917,2.743,16.857,16.857,0,0,0-1.517-1.865q-.973-1.062-1.652-1.687a34.305,34.305,0,0,0,4.052-2.3,45.3,45.3,0,0,0,3.782-2.763,21.154,21.154,0,0,0,2.748-2.612Zm51.183-.166a26.04,26.04,0,0,1,1.463,2.277q.774,1.334,1.508,2.659t1.233,2.325l-4.254,1.817q-.825-1.631-1.958-3.731A38.17,38.17,0,0,0,246.97-41.7Zm6.262-2.392q.7,1,1.508,2.335t1.566,2.638q.759,1.3,1.207,2.234L257.5-36.786q-.818-1.678-2-3.748a37.624,37.624,0,0,0-2.261-3.554Zm-1.5,14.059A16.826,16.826,0,0,0,255-29.986q-.475,1.023-.829,2.032a52.027,52.027,0,0,1-1.943,5.344,56.907,56.907,0,0,1-3.074,6.188,45.658,45.658,0,0,1-4.234,6.166,47.85,47.85,0,0,1-8.84,8.3A56.948,56.948,0,0,1,223.55,4.705L217.282-.889a53.274,53.274,0,0,0,9.34-3.688,39.9,39.9,0,0,0,6.827-4.446,44.117,44.117,0,0,0,5.192-5,29.967,29.967,0,0,0,3.381-4.677,44.1,44.1,0,0,0,2.648-5.211,23.864,23.864,0,0,0,1.491-4.551H228.306l2.442-6.013H245.89a19.34,19.34,0,0,0,2.485-.162,11.107,11.107,0,0,0,2.121-.457ZM238.65-40.128q-.95,1.392-1.858,2.973L235.4-34.733a54.386,54.386,0,0,1-4.422,6.618,60.783,60.783,0,0,1-5.964,6.637,55.74,55.74,0,0,1-7.129,5.825l-5.937-4.408a48.449,48.449,0,0,0,6.148-4.405,42.536,42.536,0,0,0,4.628-4.545,48.438,48.438,0,0,0,3.371-4.347q1.416-2.081,2.406-3.771a18.04,18.04,0,0,0,1.331-2.58,20.687,20.687,0,0,0,1.059-2.968ZM289-1.184a14.815,14.815,0,0,0,.31-1.792,17.878,17.878,0,0,0,.121-2.093v-30.9a21.465,21.465,0,0,0-.2-3.124q-.2-1.327-.21-1.443h7.861q-.012.117-.183,1.464a25.307,25.307,0,0,0-.171,3.145v27.7a26.321,26.321,0,0,0,4.512-2.588,36.449,36.449,0,0,0,4.573-3.827,32.435,32.435,0,0,0,4.01-4.757l4.066,5.843a41.646,41.646,0,0,1-5.261,5.611,63.884,63.884,0,0,1-6.389,5.05A55.945,55.945,0,0,1,295.722.918a10.814,10.814,0,0,0-1.379.863q-.53.4-.908.687Zm-24.546-.768a21.2,21.2,0,0,0,5.728-5.883,28.5,28.5,0,0,0,3.293-6.811,21.252,21.252,0,0,0,.886-4.28q.3-2.567.456-5.507t.18-5.85q.027-2.909.027-5.307a23.811,23.811,0,0,0-.136-2.754,19.294,19.294,0,0,0-.365-2.122h7.79q-.012.105-.1.851t-.177,1.8q-.089,1.05-.089,2.147,0,2.356-.053,5.442t-.218,6.325q-.165,3.239-.462,6.133a31.358,31.358,0,0,1-.839,4.9,30.588,30.588,0,0,1-3.63,8.346,31.07,31.07,0,0,1-5.833,6.862Zm55.225-22.59q.966.053,2.455.147t3.11.142q1.621.047,2.963.047h28.469q1.872,0,3.519-.142t2.708-.195V-16.2q-.937-.053-2.732-.168t-3.484-.115H328.209q-2.244,0-4.635.089t-3.893.195Zm87.034-14.329a2.945,2.945,0,0,0,.891,2.163,2.945,2.945,0,0,0,2.163.891,2.964,2.964,0,0,0,2.168-.891,2.935,2.935,0,0,0,.9-2.163,2.954,2.954,0,0,0-.9-2.168,2.954,2.954,0,0,0-2.168-.9,2.935,2.935,0,0,0-2.163.9A2.964,2.964,0,0,0,406.715-38.871Zm-3.284,0a6.048,6.048,0,0,1,.866-3.181,6.681,6.681,0,0,1,2.3-2.3,6.017,6.017,0,0,1,3.175-.866,6.047,6.047,0,0,1,3.181.866,6.665,6.665,0,0,1,2.3,2.3,6.048,6.048,0,0,1,.866,3.181,6.017,6.017,0,0,1-.866,3.175,6.681,6.681,0,0,1-2.3,2.3,6.047,6.047,0,0,1-3.181.866,6.017,6.017,0,0,1-3.175-.866,6.7,6.7,0,0,1-2.3-2.3A6.017,6.017,0,0,1,403.431-38.871Zm6.435,4.2a10.226,10.226,0,0,0-.652,1.773q-.286,1.03-.516,1.9-.454,1.936-1.128,4.359t-1.64,5.028a49.006,49.006,0,0,1-2.258,5.153,33.421,33.421,0,0,1-2.942,4.775,40.663,40.663,0,0,1-5.557,5.916A41.522,41.522,0,0,1,388.08-.8a47.887,47.887,0,0,1-8.665,3.743L373.643-3.4a44.361,44.361,0,0,0,9.123-3.12,32,32,0,0,0,6.666-4.249,36.792,36.792,0,0,0,4.982-5.06,25.546,25.546,0,0,0,3.019-4.834A38.02,38.02,0,0,0,399.5-25.9a32.484,32.484,0,0,0,1.142-4.9H375.956q-1.821,0-3.54.068t-2.767.162v-7.49q.813.094,1.945.195t2.329.168q1.2.068,2.045.068H400.5q.8,0,1.947-.068a11.36,11.36,0,0,0,2.195-.34Z" transform="translate(117 439)"/>
      <path id="パス_196" data-name="パス 196" d="M5.561-23.526H93.867v9.744H5.561Zm.265-44.4H93.549v9.744H5.826Zm4.037,17.7H89.72v9.3H9.863Zm4.894,13.687H85.134v8.585H14.757Zm28.735-8.989H55.265V8.882H43.492ZM34.893-84.2H45.972v20.9H34.893Zm18.357,0H64.483v20.205H53.25ZM41.3-19.2l9.369,4.243A61.546,61.546,0,0,1,39.416-5.435a95.092,95.092,0,0,1-14.073,7.76A98.658,98.658,0,0,1,10.174,7.708,32.027,32.027,0,0,0,8.034,4.374Q6.712,2.538,5.284.77a28.4,28.4,0,0,0-2.75-2.994A116.647,116.647,0,0,0,17.357-6.235,91.869,91.869,0,0,0,30.989-12.1,49.432,49.432,0,0,0,41.3-19.2Zm16.315-.254a45.152,45.152,0,0,0,7.308,5.518,65.938,65.938,0,0,0,9.38,4.758A95.575,95.575,0,0,0,85.1-5.458a103.492,103.492,0,0,0,11.49,2.538q-1.3,1.3-2.856,3.175a46.236,46.236,0,0,0-2.905,3.9q-1.35,2.029-2.243,3.661a95.141,95.141,0,0,1-11.6-3.811A83.156,83.156,0,0,1,66.122-1.289a76.721,76.721,0,0,1-9.694-6.665,56.633,56.633,0,0,1-7.98-7.823ZM76.03-83.366,88.455-80.4q-2.367,4.037-4.737,7.853T79.381-66.03l-9.657-2.942Q70.921-71,72.1-73.507t2.214-5.124Q75.348-81.243,76.03-83.366ZM62.952-62.157l12.579,2.92Q73.484-55.7,71.6-52.513T68.172-47L58.094-49.825q1.3-2.729,2.688-6.166A62.5,62.5,0,0,0,62.952-62.157ZM12.882-80.235l10.2-3.462a77.762,77.762,0,0,1,4.369,7.126,46.291,46.291,0,0,1,3.183,6.906l-10.76,3.892a38.773,38.773,0,0,0-2.846-6.995Q14.98-76.826,12.882-80.235Zm12.57,22.179,11.532-1.818a45.841,45.841,0,0,1,2.559,4.709,28.73,28.73,0,0,1,1.791,4.589L29.262-48.5a37.48,37.48,0,0,0-1.548-4.638A44.107,44.107,0,0,0,25.452-58.056Zm99.713,2.869v7.173h46.757v-7.173Zm0-15.947v7.052h46.757v-7.052Zm-11.829-9.611h70.957v42.319H113.336Zm48.787,36.016a41.19,41.19,0,0,0,8.4,8.3,61.089,61.089,0,0,0,11.508,6.762,77.08,77.08,0,0,0,13.331,4.64,27.57,27.57,0,0,0-2.817,2.954q-1.516,1.808-2.866,3.72t-2.265,3.467a74.172,74.172,0,0,1-13.833-6.254,67.518,67.518,0,0,1-12.064-8.906,60.593,60.593,0,0,1-9.387-11.025Zm-27.016-.056,10.429,4.067a61.839,61.839,0,0,1-9.547,10.733,78.272,78.272,0,0,1-12.18,8.966,76.918,76.918,0,0,1-13.689,6.474,25.276,25.276,0,0,0-2.206-3.3q-1.389-1.8-2.866-3.555a25.9,25.9,0,0,0-2.8-2.9,75.6,75.6,0,0,0,12.957-5.042,71.865,71.865,0,0,0,11.479-7.075A41.23,41.23,0,0,0,135.107-44.784ZM128.1-26.64h12.214v6.812a38.791,38.791,0,0,1-.8,7.569,26.018,26.018,0,0,1-3.1,7.97,27.377,27.377,0,0,1-6.794,7.541A41.936,41.936,0,0,1,117.634,9.51a18.609,18.609,0,0,0-2.176-3.263q-1.439-1.786-3.021-3.522a35.554,35.554,0,0,0-2.905-2.884,40.535,40.535,0,0,0,9.915-4.5A20.52,20.52,0,0,0,125-9.812a15.63,15.63,0,0,0,2.475-5.38,22.791,22.791,0,0,0,.622-5.1ZM142.47-75.874h12.005v32.62H142.47Zm15.769,49.421h12.37V8.529h-12.37Z" transform="translate(117 366)"/>
      <path id="パス_197" data-name="パス 197" d="M75.258,0H59.438L23.617-54.127V0H7.8V-78.987h15.82l35.821,54.24v-54.24h15.82Zm40,1.017A32.974,32.974,0,0,1,98.988-2.994,28.886,28.886,0,0,1,87.632-14.351,34.029,34.029,0,0,1,83.507-31.3a33.307,33.307,0,0,1,4.237-16.95A29.447,29.447,0,0,1,99.327-59.607a33.616,33.616,0,0,1,16.385-4.012A33.616,33.616,0,0,1,132.1-59.607,29.447,29.447,0,0,1,143.68-48.251a33.307,33.307,0,0,1,4.237,16.95,32.627,32.627,0,0,1-4.35,16.95A30.126,30.126,0,0,1,131.814-2.994,34.173,34.173,0,0,1,115.26,1.017Zm0-13.786a16.457,16.457,0,0,0,8.079-2.091,15.193,15.193,0,0,0,6.046-6.271,21.134,21.134,0,0,0,2.26-10.17q0-8.927-4.689-13.729a15.415,15.415,0,0,0-11.47-4.8,15.053,15.053,0,0,0-11.356,4.8q-4.577,4.8-4.576,13.729t4.464,13.73A14.7,14.7,0,0,0,115.26-12.769ZM163.172.791a9.786,9.786,0,0,1-7.062-2.656,8.786,8.786,0,0,1-2.768-6.611,8.786,8.786,0,0,1,2.768-6.61,9.786,9.786,0,0,1,7.063-2.656,9.445,9.445,0,0,1,6.893,2.656,8.877,8.877,0,0,1,2.712,6.61,8.877,8.877,0,0,1-2.712,6.611A9.445,9.445,0,0,1,163.172.791Z" transform="translate(316 375)"/>
      <path id="パス_198" data-name="パス 198" d="M15.561,0H35.1V-94.77H19.773C16.614-91.494,5.967-86,2.574-84.24v14.508C6.2-71.6,12.168-73.593,15.561-75.465Z" transform="translate(495 376)"/>
    </g>
  </g>
</svg>
