<svg xmlns="http://www.w3.org/2000/svg" xmlns:xlink="http://www.w3.org/1999/xlink" width="412" height="178" viewBox="0 0 412 178">
  <defs>
    <clipPath id="clip-path">
      <path id="パス_200" data-name="パス 200" d="M0,0H412V178H0Z" transform="translate(122 273)" fill="none"/>
    </clipPath>
  </defs>
  <g id="グループ_27028" data-name="グループ 27028" transform="translate(-122 -273)">
    <g id="マスクグループ_40" data-name="マスクグループ 40" clip-path="url(#clip-path)">
      <g id="グループ_6" data-name="グループ 6" transform="translate(122 331.893)">
        <path id="パス_208" data-name="パス 208" d="M33.79-28.748h6.988V5.2H33.79ZM18.519-21.48h37.3v6.3h-37.3Zm23.6,2.8a35.619,35.619,0,0,0,4.067,6.2A47.441,47.441,0,0,0,51.6-6.808a36.991,36.991,0,0,0,5.93,4.352,21.94,21.94,0,0,0-1.718,1.6q-.956.979-1.792,2.025T52.6,3.086A39.453,39.453,0,0,1,46.64-2.287a58.046,58.046,0,0,1-5.43-6.921A56.334,56.334,0,0,1,36.9-16.816Zm-9.283-.568,5.464,1.9a52.9,52.9,0,0,1-4.568,7.9A51.3,51.3,0,0,1,27.87-2.416a38.454,38.454,0,0,1-6.636,5.353,18.16,18.16,0,0,0-1.373-1.889q-.836-1.024-1.74-2A21.478,21.478,0,0,0,16.442-2.6a35.6,35.6,0,0,0,6.449-4.369,42.894,42.894,0,0,0,5.713-5.82A36.329,36.329,0,0,0,32.836-19.244ZM28.951-40.617v7.768H46.016v-7.768Zm-6.568-6.115H52.991v20.012H22.383Zm-7.621-2.41,6.478,2.093a92.864,92.864,0,0,1-4.553,9.839,90.516,90.516,0,0,1-5.674,9.279,62.416,62.416,0,0,1-6.271,7.683,23.8,23.8,0,0,0-.937-2.205q-.639-1.353-1.392-2.723A25.333,25.333,0,0,0,1.068-27.4a47.566,47.566,0,0,0,5.263-6.114,66.952,66.952,0,0,0,4.722-7.48A61.324,61.324,0,0,0,14.763-49.142ZM9.172-33.109l6.6-6.6.025.058V5.03H9.172Zm52.009-9.153h51.735v6.522H61.181ZM76.824-21.368h25.206v5.8H76.824Zm-5.148-9.795H101v6.083H78.56V5.146H71.675Zm27.932,0h6.807V-2.323a11.092,11.092,0,0,1-.609,4.057,4.443,4.443,0,0,1-2.4,2.347,12.744,12.744,0,0,1-4.278.956q-2.542.181-6.08.181a21.047,21.047,0,0,0-.81-3.4,22.133,22.133,0,0,0-1.3-3.319q1.519.058,3.026.11t2.689.045q1.182-.006,1.672-.006a1.608,1.608,0,0,0,1.005-.257,1.077,1.077,0,0,0,.284-.85ZM79.155-49.316l7.189,1.64a95.03,95.03,0,0,1-5.06,12.92,65.386,65.386,0,0,1-7.322,11.924,44.766,44.766,0,0,1-9.932,9.445,20.053,20.053,0,0,0-1.347-1.776q-.836-1-1.689-1.98a16.821,16.821,0,0,0-1.57-1.6,37.415,37.415,0,0,0,7.018-6.041,48.372,48.372,0,0,0,5.622-7.555,60.726,60.726,0,0,0,4.226-8.4A66.386,66.386,0,0,0,79.155-49.316Zm-2.331,37.53h25.206v5.812H76.824Zm40.887-7.232h29.34V-13.4h-29.34Zm.679-20.475h28.474v5.482H118.39Zm9.778,16.336,6.445,1.357q-1.445,2.984-3.111,6.2t-3.281,6.184Q126.607-6.448,125.2-4.1L119.1-5.949q1.4-2.237,3.014-5.2t3.207-6.119Q126.918-20.424,128.168-23.157Zm8.214,8.028,6.4.567a29.009,29.009,0,0,1-2.392,7.839,17.494,17.494,0,0,1-4.241,5.568,22.682,22.682,0,0,1-6.419,3.83,51.133,51.133,0,0,1-8.972,2.593,12.327,12.327,0,0,0-1.114-3.084A14.289,14.289,0,0,0,117.95-.492a35.919,35.919,0,0,0,9.531-2.361,13.687,13.687,0,0,0,5.863-4.581A19.444,19.444,0,0,0,136.382-15.129Zm4.094-33.449,5.877,2.331q-1.419,1.939-2.766,3.827T141.1-39.193l-4.469-2q.992-1.522,2.1-3.621A36.636,36.636,0,0,0,140.477-48.578Zm-11.041-.751h6.387v26.978h-6.387Zm-9.627,3.082,5.005-2.086a28.888,28.888,0,0,1,2.148,3.679,17.841,17.841,0,0,1,1.368,3.537l-5.321,2.338A16.861,16.861,0,0,0,121.8-42.4,33.727,33.727,0,0,0,119.809-46.247Zm9.808,9.479,4.5,2.732a30.611,30.611,0,0,1-3.644,4.622,44.624,44.624,0,0,1-4.73,4.346,38.644,38.644,0,0,1-4.984,3.4,30.548,30.548,0,0,0-1.585-2.638,14.136,14.136,0,0,0-1.972-2.444,27.466,27.466,0,0,0,4.723-2.56,33.5,33.5,0,0,0,4.414-3.519A19.747,19.747,0,0,0,129.617-36.767Zm5.631,1.687q.8.373,2.236,1.191t3.089,1.771q1.653.953,3.008,1.771t1.948,1.249l-3.68,4.81q-.8-.773-2.075-1.859T137.048-28.4q-1.452-1.163-2.792-2.219t-2.3-1.715Zm15.627-3.706H172.2v6.432H150.876Zm.633-10.542,7.033,1.014a111.082,111.082,0,0,1-2.352,11.555,71.668,71.668,0,0,1-3.506,10.334,39.713,39.713,0,0,1-4.757,8.313,13.418,13.418,0,0,0-1.537-1.592q-1.014-.921-2.1-1.841t-1.863-1.489a29.986,29.986,0,0,0,4.227-7.157,58.684,58.684,0,0,0,2.989-9.045A87.884,87.884,0,0,0,151.51-49.329Zm10.532,14.5,7.124.652a85.587,85.587,0,0,1-3.888,17.461,40.441,40.441,0,0,1-7.275,13A37.279,37.279,0,0,1,146.026,5.4a18.432,18.432,0,0,0-1.043-2.031q-.7-1.211-1.5-2.4A14.4,14.4,0,0,0,142-.939a30.44,30.44,0,0,0,10.7-7.549,31.883,31.883,0,0,0,6.287-11.2A70.259,70.259,0,0,0,162.041-34.834Zm-7.211,1.2A82.252,82.252,0,0,0,158.2-19.868a41.333,41.333,0,0,0,5.8,11.3,25.866,25.866,0,0,0,8.915,7.634A18.366,18.366,0,0,0,171.207.8q-.94,1.069-1.776,2.213a21.039,21.039,0,0,0-1.372,2.1,30.576,30.576,0,0,1-9.635-9,48.284,48.284,0,0,1-6.134-12.8,114.569,114.569,0,0,1-3.776-15.938ZM124.219-5.9l3.72-4.734q3.4,1.29,6.808,2.975t6.325,3.464a47.733,47.733,0,0,1,4.9,3.358l-4.838,4.954A38.484,38.484,0,0,0,136.583.679q-2.732-1.8-5.921-3.516A70.761,70.761,0,0,0,124.219-5.9Z" transform="translate(0 86.107)"/>
        <path id="パス_206" data-name="パス 206" d="M73.926,0H58.386L23.2-53.169V0H7.659V-77.589H23.2l35.187,53.28v-53.28h15.54ZM113.22,1a32.39,32.39,0,0,1-15.984-3.94A28.375,28.375,0,0,1,86.08-14.1a33.427,33.427,0,0,1-4.051-16.65A32.717,32.717,0,0,1,86.191-47.4,28.926,28.926,0,0,1,97.569-58.552a33.021,33.021,0,0,1,16.1-3.941,33.021,33.021,0,0,1,16.1,3.941A28.926,28.926,0,0,1,141.137-47.4a32.717,32.717,0,0,1,4.162,16.65,32.049,32.049,0,0,1-4.273,16.65A29.593,29.593,0,0,1,129.481-2.941,33.568,33.568,0,0,1,113.22,1Zm0-13.542a16.166,16.166,0,0,0,7.936-2.054,14.924,14.924,0,0,0,5.939-6.16,20.76,20.76,0,0,0,2.22-9.99q0-8.769-4.607-13.486a15.143,15.143,0,0,0-11.266-4.718,14.786,14.786,0,0,0-11.156,4.718q-4.5,4.718-4.5,13.486t4.384,13.487A14.436,14.436,0,0,0,113.22-12.543ZM160.284.777a9.613,9.613,0,0,1-6.937-2.608,8.631,8.631,0,0,1-2.719-6.494,8.631,8.631,0,0,1,2.719-6.493,9.613,9.613,0,0,1,6.938-2.609,9.278,9.278,0,0,1,6.771,2.609,8.719,8.719,0,0,1,2.664,6.493,8.719,8.719,0,0,1-2.664,6.494A9.278,9.278,0,0,1,160.284.777Z" transform="translate(187 115.107)"/>
        <path id="パス_205" data-name="パス 205" d="M15.162,0H34.2V-92.34H19.266C16.188-89.148,5.814-83.79,2.508-82.08v14.136c3.534-1.824,9.348-3.762,12.654-5.586Z" transform="translate(361 118.107)"/>
        <path id="パス_207" data-name="パス 207" d="M2.768-14.208H15.332V1.371H13.009v-13.4H4.992V1.4H2.768ZM4.285-8.161h9.688v2.137H4.285Zm-.008,6.2h9.708V.219H4.277Zm14.776-9.835H34.983v2.2H19.053Zm3.7,8.165H31.12v2.2H22.752Zm3.09-11.657h2.3v16.9h-2.3ZM25.194-11l1.981.629a23.14,23.14,0,0,1-1.868,3.716A19.738,19.738,0,0,1,22.851-3.46,15.476,15.476,0,0,1,19.92-1.034a6.378,6.378,0,0,0-.459-.6q-.283-.334-.57-.658a4.83,4.83,0,0,0-.542-.533,13.118,13.118,0,0,0,2.137-1.5A15.894,15.894,0,0,0,22.4-6.278,17.423,17.423,0,0,0,24-8.558,16.881,16.881,0,0,0,25.194-11Zm3.6.054A16.709,16.709,0,0,0,30.5-7.834a16.662,16.662,0,0,0,2.4,2.759,13.363,13.363,0,0,0,2.848,2.032,6.935,6.935,0,0,0-.582.561q-.318.339-.605.707a8.186,8.186,0,0,0-.482.679,15.087,15.087,0,0,1-2.93-2.393A19.161,19.161,0,0,1,28.7-6.648,25.151,25.151,0,0,1,26.829-10.3ZM47.137-7.856l2.309.653a13.4,13.4,0,0,1-2.7,4.2A14.5,14.5,0,0,1,42.866-.149a23.1,23.1,0,0,1-4.95,1.808A4.931,4.931,0,0,0,37.554,1Q37.309.617,37.04.239a5.891,5.891,0,0,0-.495-.618A21.845,21.845,0,0,0,41.3-1.837a11.779,11.779,0,0,0,3.572-2.419A9.972,9.972,0,0,0,47.137-7.856Zm-5.8-3.106,2.235.854a15.543,15.543,0,0,1-1.488,1.663A22.36,22.36,0,0,1,40.322-6.9a20.223,20.223,0,0,1-1.759,1.252q-.2-.237-.525-.558t-.67-.629q-.346-.308-.614-.5a14.4,14.4,0,0,0,1.715-1,14.142,14.142,0,0,0,1.6-1.256A10.117,10.117,0,0,0,41.334-10.962Zm1.611,3.2a10.684,10.684,0,0,0,3.809,4.826A15.825,15.825,0,0,0,53.5-.437a5.447,5.447,0,0,0-.512.609q-.275.373-.514.758t-.391.7A18.1,18.1,0,0,1,47.027-.081a12.307,12.307,0,0,1-3.639-2.9,16.015,16.015,0,0,1-2.516-4.164ZM37.02-13.215H52.984v2.109H37.02Zm6.832-2.109h2.225v3.5H43.852ZM46.72-9.84l1.78-1.307q.792.524,1.695,1.2t1.722,1.362a12.767,12.767,0,0,1,1.337,1.271L51.319-5.825a10.5,10.5,0,0,0-1.223-1.3q-.775-.712-1.666-1.426T46.72-9.84ZM58.95-8.277v6.639H56.883V-6.281h-2.3v-2Zm0,5.784a3.169,3.169,0,0,0,1.48,1.317,6.44,6.44,0,0,0,2.32.474q.81.032,1.947.041t2.388-.007q1.251-.016,2.451-.064t2.14-.126a5.5,5.5,0,0,0-.256.616q-.136.38-.249.776T71,1.243q-.834.046-1.912.071t-2.229.034q-1.152.009-2.226-.007t-1.9-.048a8.515,8.515,0,0,1-2.744-.52A4.582,4.582,0,0,1,58.042-.716Q57.426-.18,56.768.346T55.349,1.457l-1-2.151q.636-.374,1.359-.838t1.371-.962ZM54.839-13.532l1.491-1.383q.566.372,1.174.863t1.141.989a6.327,6.327,0,0,1,.845.938L57.879-10.58a6.45,6.45,0,0,0-.789-.961q-.505-.521-1.1-1.047T54.839-13.532ZM62.121-11.8l1.381-1.15q.8.282,1.755.668t1.837.795q.884.409,1.492.759L67.107-9.438a13.536,13.536,0,0,0-1.395-.766q-.861-.42-1.809-.845T62.121-11.8ZM60.49-10.773h9.169v1.561H62.514v7.763H60.49Zm8.155,0H70.7v7.457a2.846,2.846,0,0,1-.15,1.036,1.14,1.14,0,0,1-.589.587,2.67,2.67,0,0,1-1.018.258q-.6.046-1.416.046a5.739,5.739,0,0,0-.214-.874,6.178,6.178,0,0,0-.324-.828q.425.018.835.018h.552a.282.282,0,0,0,.212-.069.306.306,0,0,0,.056-.2Zm-7.99-3.917h8.578v1.631H60.655Zm.962,6.452h7.732v1.5H61.616Zm0,2.519h7.732v1.565H61.616Zm2.97-4.325h1.926v8.522H64.587ZM68.46-14.69h.491l.421-.106,1.281,1.028q-.632.592-1.413,1.2a19.838,19.838,0,0,1-1.627,1.139,17.6,17.6,0,0,1-1.67.932,5.725,5.725,0,0,0-.515-.633q-.331-.361-.561-.573a11.651,11.651,0,0,0,1.376-.781,15.384,15.384,0,0,0,1.284-.938,7.184,7.184,0,0,0,.933-.887Zm17.563-.056a8.843,8.843,0,0,1,.5.773q.263.453.512.9t.419.79l-1.445.617q-.28-.554-.665-1.267a12.963,12.963,0,0,0-.745-1.231Zm2.127-.813q.238.338.512.793t.532.9q.258.441.41.759l-1.431.617q-.278-.57-.678-1.273a12.777,12.777,0,0,0-.768-1.207Zm-.51,4.775a5.717,5.717,0,0,0-.318.6q-.161.347-.281.69a17.668,17.668,0,0,1-.66,1.815,19.327,19.327,0,0,1-1.044,2.1A15.506,15.506,0,0,1,83.9-3.483a16.251,16.251,0,0,1-3,2.818A19.341,19.341,0,0,1,76.643,1.6L74.514-.3a18.093,18.093,0,0,0,3.172-1.252A13.55,13.55,0,0,0,80-3.064a14.983,14.983,0,0,0,1.763-1.7A10.178,10.178,0,0,0,82.916-6.35a14.978,14.978,0,0,0,.9-1.77,8.1,8.1,0,0,0,.507-1.546H78.258l.829-2.042H84.23a6.568,6.568,0,0,0,.844-.055,3.772,3.772,0,0,0,.72-.155Zm-5.869-2.845q-.323.473-.631,1.01l-.473.823a18.47,18.47,0,0,1-1.5,2.248A20.643,20.643,0,0,1,77.14-7.295a18.931,18.931,0,0,1-2.421,1.978L72.7-6.813a16.454,16.454,0,0,0,2.088-1.5,14.446,14.446,0,0,0,1.572-1.543,16.449,16.449,0,0,0,1.145-1.476q.481-.707.817-1.281a6.127,6.127,0,0,0,.452-.876,7.026,7.026,0,0,0,.36-1.008ZM99.052-.4a5.033,5.033,0,0,0,.105-.609,6.071,6.071,0,0,0,.041-.711V-12.216a7.291,7.291,0,0,0-.067-1.061q-.067-.451-.071-.49h2.67q0,.04-.062.5a8.593,8.593,0,0,0-.058,1.068V-2.8a8.939,8.939,0,0,0,1.532-.879,12.379,12.379,0,0,0,1.553-1.3,11.016,11.016,0,0,0,1.362-1.616l1.381,1.984A14.143,14.143,0,0,1,105.651-2.7a21.7,21.7,0,0,1-2.17,1.715,19,19,0,0,1-2.147,1.3,3.672,3.672,0,0,0-.468.293l-.308.233ZM90.715-.663a7.2,7.2,0,0,0,1.945-2,9.679,9.679,0,0,0,1.118-2.313,7.218,7.218,0,0,0,.3-1.454q.1-.872.155-1.87t.061-1.987q.009-.988.009-1.8a8.088,8.088,0,0,0-.046-.935,6.554,6.554,0,0,0-.124-.721H96.78q0,.036-.034.289t-.06.61q-.03.357-.03.729,0,.8-.018,1.848t-.074,2.148q-.056,1.1-.157,2.083a10.649,10.649,0,0,1-.285,1.663,10.388,10.388,0,0,1-1.233,2.835A10.552,10.552,0,0,1,92.908.792Zm18.936-7.672q.328.018.834.05t1.056.048q.55.016,1.006.016h9.669q.636,0,1.2-.048t.92-.066V-5.5q-.318-.018-.928-.057T122.22-5.6h-9.673q-.762,0-1.574.03t-1.322.066ZM139.39-13.2a1,1,0,0,0,.3.734,1,1,0,0,0,.734.3,1.007,1.007,0,0,0,.736-.3,1,1,0,0,0,.3-.734,1,1,0,0,0-.3-.736,1,1,0,0,0-.736-.3,1,1,0,0,0-.734.3A1.007,1.007,0,0,0,139.39-13.2Zm-1.115,0a2.054,2.054,0,0,1,.294-1.08,2.269,2.269,0,0,1,.78-.782,2.044,2.044,0,0,1,1.078-.294,2.054,2.054,0,0,1,1.08.294,2.263,2.263,0,0,1,.782.782,2.054,2.054,0,0,1,.294,1.08,2.044,2.044,0,0,1-.294,1.078,2.269,2.269,0,0,1-.782.78,2.054,2.054,0,0,1-1.08.294,2.044,2.044,0,0,1-1.078-.294,2.275,2.275,0,0,1-.78-.78A2.044,2.044,0,0,1,138.274-13.2Zm2.186,1.425a3.473,3.473,0,0,0-.221.6q-.1.35-.175.644-.154.658-.383,1.48t-.557,1.708a16.644,16.644,0,0,1-.767,1.75,11.35,11.35,0,0,1-1,1.622,13.809,13.809,0,0,1-1.887,2.009,14.1,14.1,0,0,1-2.409,1.69A16.263,16.263,0,0,1,130.118,1l-1.96-2.155a15.066,15.066,0,0,0,3.1-1.06,10.866,10.866,0,0,0,2.264-1.443,12.5,12.5,0,0,0,1.692-1.719,8.675,8.675,0,0,0,1.025-1.642,12.913,12.913,0,0,0,.7-1.778,11.034,11.034,0,0,0,.388-1.664h-8.383q-.618,0-1.2.023t-.94.055v-2.544q.276.032.661.066t.791.057q.406.023.694.023h8.33q.27,0,.661-.023a3.858,3.858,0,0,0,.745-.115Zm10.319,4.491,1.642-1.183q.591.536,1.272,1.165t1.344,1.282q.664.653,1.24,1.27t.974,1.116l-1.794,1.4q-.352-.5-.9-1.136T153.37-4.689q-.643-.685-1.314-1.349T150.778-7.285Zm.047-8.01h2.225v4.323a15.518,15.518,0,0,1-.116,1.859,11.327,11.327,0,0,1-.414,1.941,9.007,9.007,0,0,1-.848,1.922,9.029,9.029,0,0,1-1.405,1.8,10.493,10.493,0,0,1-2.081,1.593,4.051,4.051,0,0,0-.422-.54q-.274-.3-.57-.6a4.386,4.386,0,0,0-.565-.489A8.527,8.527,0,0,0,148.566-4.8a6.579,6.579,0,0,0,1.227-1.507,6.665,6.665,0,0,0,.674-1.595,9.233,9.233,0,0,0,.289-1.591q.07-.783.07-1.49Zm-6.309,3H158.19v2.112H146.682V1.647h-2.165Zm12.73,0h2.137V-.849a3.484,3.484,0,0,1-.214,1.361,1.471,1.471,0,0,1-.785.748,4.148,4.148,0,0,1-1.427.313q-.866.058-2.076.058a4.156,4.156,0,0,0-.145-.695q-.113-.394-.262-.778a6.227,6.227,0,0,0-.3-.67l1.07.034q.539.016.963.014l.59,0a.615.615,0,0,0,.353-.1.414.414,0,0,0,.1-.319Z" transform="translate(1 114.107)"/>
      </g>
      <g id="グループ_5" data-name="グループ 5" transform="translate(122 249)">
        <path id="パス_201" data-name="パス 201" d="M75.429-53.448q-.623.748-1.556,1.974T72.379-49.4a79.283,79.283,0,0,1-4.826,7.109,94.182,94.182,0,0,1-6.643,7.9,51.32,51.32,0,0,1-7.54,6.685l-8.207-6.562a39.446,39.446,0,0,0,4.675-3.372A50.232,50.232,0,0,0,54.063-41.6a51.139,51.139,0,0,0,3.433-3.98,22.736,22.736,0,0,0,2.231-3.392H18.546q-2.469,0-4.659.141t-4.993.421v-11q2.311.3,4.747.549a47.9,47.9,0,0,0,4.9.251H61.129q1.134,0,2.726-.07t3.1-.242a14.794,14.794,0,0,0,2.211-.374Zm-32.2,10.623q0,5.842-.236,11.3a63.112,63.112,0,0,1-1.3,10.454,37.7,37.7,0,0,1-3.4,9.5,33.754,33.754,0,0,1-6.429,8.532A45.638,45.638,0,0,1,21.294,4.441L12.083-3.08a33.538,33.538,0,0,0,4.028-1.686A26.848,26.848,0,0,0,20.394-7.43a28.829,28.829,0,0,0,6.124-5.552A22.286,22.286,0,0,0,30.1-19.307a33.215,33.215,0,0,0,1.724-7.477,76.107,76.107,0,0,0,.483-8.924q0-1.828-.092-3.511a29.927,29.927,0,0,0-.435-3.607Zm66.808,41.06a22.089,22.089,0,0,0,.462-2.671,26.645,26.645,0,0,0,.18-3.121V-53.616a32,32,0,0,0-.3-4.656q-.3-1.977-.312-2.152H121.79q-.017.174-.272,2.182a37.715,37.715,0,0,0-.255,4.688v41.284a39.232,39.232,0,0,0,6.725-3.857,54.332,54.332,0,0,0,6.817-5.7,48.346,48.346,0,0,0,5.977-7.091l6.061,8.71A62.073,62.073,0,0,1,139-11.851a95.221,95.221,0,0,1-9.524,7.527,83.39,83.39,0,0,1-9.423,5.693A16.118,16.118,0,0,0,118,2.656q-.791.6-1.354,1.024ZM73.449-2.911a31.6,31.6,0,0,0,8.538-8.77A42.479,42.479,0,0,0,86.9-21.832a31.678,31.678,0,0,0,1.321-6.38q.452-3.826.68-8.209t.268-8.72q.039-4.336.039-7.911a35.494,35.494,0,0,0-.2-4.1,28.757,28.757,0,0,0-.544-3.164h11.612q-.017.157-.149,1.268t-.264,2.677q-.132,1.565-.132,3.2,0,3.512-.079,8.112t-.325,9.428q-.246,4.828-.689,9.142a46.739,46.739,0,0,1-1.25,7.3A45.592,45.592,0,0,1,91.768-6.753,46.312,46.312,0,0,1,83.073,3.476Zm138.2-49.669a15.31,15.31,0,0,0-.971,2.643q-.426,1.536-.77,2.825-.676,2.887-1.681,6.5t-2.444,7.495a73.112,73.112,0,0,1-3.366,7.68,49.743,49.743,0,0,1-4.386,7.116A60.55,60.55,0,0,1,189.752-9.5a61.911,61.911,0,0,1-10.571,7.419,71.379,71.379,0,0,1-12.916,5.579l-8.6-9.457a66.144,66.144,0,0,0,13.6-4.651,48.483,48.483,0,0,0,9.968-6.332,51.286,51.286,0,0,0,7.4-7.543,38.079,38.079,0,0,0,4.5-7.206,56.683,56.683,0,0,0,3.079-7.8,48.4,48.4,0,0,0,1.7-7.3H161.109q-2.714,0-5.276.1t-4.125.241V-57.619q1.212.141,2.9.29t3.471.251q1.784.1,3.048.1h36.56q1.186,0,2.9-.1a16.932,16.932,0,0,0,3.272-.506Z" transform="translate(0 92)"/>
        <path id="パス_202" data-name="パス 202" d="M52.316-28.71q-.464.522-1.1,1.363t-.928,1.305q-.812,1.334-2.2,3.219t-3.016,3.944q-1.624,2.059-3.248,3.828A30.542,30.542,0,0,1,38.86-12.18L31.9-16.994a33.542,33.542,0,0,0,2.929-2.523,36.94,36.94,0,0,0,2.7-2.871,16.69,16.69,0,0,0,1.8-2.494H15.66q-1.566,0-3.1.087t-3.335.261v-8.932q1.508.232,3.19.377t3.248.145H41.528q.754,0,1.885-.058t2.175-.174q1.044-.116,1.566-.232ZM32.19-22.62q-.116,3.016-.261,6.09a41.012,41.012,0,0,1-.754,6.119,24.789,24.789,0,0,1-2.03,5.974,20.81,20.81,0,0,1-4.089,5.6A31.116,31.116,0,0,1,18.1,6.206L10.73.348q1.276-.522,2.494-1.131a19.832,19.832,0,0,0,2.668-1.653,16.87,16.87,0,0,0,4.5-4.292,13.563,13.563,0,0,0,2.088-5.017,32.64,32.64,0,0,0,.551-6.351,19.391,19.391,0,0,0-.145-2.349A20.217,20.217,0,0,0,22.5-22.62Z" transform="translate(216 90)"/>
        <path id="パス_203" data-name="パス 203" d="M6.512-32.877q1.295.071,3.289.2t4.166.19q2.171.063,3.969.063H56.074q2.507,0,4.714-.19t3.628-.261v11.171q-1.256-.071-3.66-.225t-4.667-.154H17.936q-3.006,0-6.209.119t-5.216.261Z" transform="translate(274 91)"/>
        <path id="パス_204" data-name="パス 204" d="M53.855-58.787q1.116,1.616,2.459,3.732T58.907-50.8q1.25,2.137,2.137,3.989L54.21-43.8q-1.16-2.522-2.2-4.487t-2.167-3.83q-1.128-1.865-2.62-3.858ZM64.208-63.1q1.195,1.554,2.568,3.608t2.672,4.16q1.3,2.106,2.185,3.879l-6.65,3.262q-1.221-2.522-2.361-4.447t-2.308-3.7q-1.167-1.772-2.659-3.7ZM22.382-6.437v-45.4q0-2.127-.2-4.8a38.545,38.545,0,0,0-.624-4.744H33.9q-.22,2.055-.461,4.567t-.241,4.973v14.348q0,4.625.009,9.435t.009,9.205V-6.437q0,1.1.093,3.1T33.6.8q.2,2.127.343,3.77H21.59q.343-2.3.567-5.474T22.382-6.437Zm8.49-34.485q3.933,1.062,8.814,2.681T49.553-34.8q4.986,1.826,9.38,3.607t7.287,3.229L61.743-17.007q-3.335-1.773-7.367-3.541T46.18-24q-4.164-1.68-8.117-3.088t-7.192-2.48Z" transform="translate(333 93)"/>
      </g>
    </g>
  </g>
</svg>
