<svg xmlns="http://www.w3.org/2000/svg" xmlns:xlink="http://www.w3.org/1999/xlink" width="463" height="125" viewBox="0 0 463 125">
  <defs>
    <clipPath id="clip-path">
      <rect id="長方形_655" data-name="長方形 655" width="462.866" height="125"/>
    </clipPath>
  </defs>
  <g id="グループ_95" data-name="グループ 95" transform="translate(-0.146 0.357)">
    <g id="グループ_94" data-name="グループ 94" transform="translate(0.279 -0.357)">
      <g id="グループ_93" data-name="グループ 93" clip-path="url(#clip-path)">
        <path id="パス_196" data-name="パス 196" d="M7.546-32.337q.964.044,2.02.122t2.25.078H33q1.125,0,2.152-.061t1.8-.14v5.487q-.842-.044-1.791-.083T33-26.972H11.816q-1.194,0-2.25.022t-2.02.1ZM22.667-16.831v9.4a2.748,2.748,0,0,0,1.192,2.542,7.57,7.57,0,0,0,3.835.737q2.957,0,5.822-.166t5.514-.45l-.387,5.973q-1.431.063-3.439.144t-4.23.129q-2.223.049-4.31.049a17.384,17.384,0,0,1-6.19-.869,5.412,5.412,0,0,1-3.008-2.491,8.412,8.412,0,0,1-.822-3.844v-22.6l6.022.01v11.429Zm-18.025-2.9q.949.054,2.371.15t2.444.1H35.946q.484,0,1.269-.039l1.61-.078q.825-.039,1.393-.083l.034,5.659a18.076,18.076,0,0,0-2.156-.118q-1.265,0-2.013,0H9.457q-.92,0-2.363.056t-2.451.144ZM76.484-35.642a21.618,21.618,0,0,1,1.215,1.89q.643,1.108,1.251,2.208t1.024,1.93l-3.531,1.508q-.685-1.354-1.626-3.1A31.688,31.688,0,0,0,73-34.212Zm5.2-1.986q.582.826,1.251,1.939t1.3,2.19q.631,1.078,1,1.855l-3.5,1.508q-.679-1.393-1.657-3.112A31.233,31.233,0,0,0,78.206-36.2ZM57.491-33.738q-.147.984-.23,2.306t-.083,2.271V-6.966a2.359,2.359,0,0,0,.689,1.959,5.164,5.164,0,0,0,2.165.821q1,.142,2.313.2t2.767.063q1.726,0,3.814-.1t4.227-.289q2.139-.188,4.034-.487t3.259-.65V.989q-2.059.3-4.8.5t-5.586.3q-2.841.1-5.285.1-2.137,0-4.062-.135t-3.347-.355A8.177,8.177,0,0,1,52.917-.752a6.065,6.065,0,0,1-1.59-4.459V-29.16q0-.5-.039-1.333t-.1-1.706A13.854,13.854,0,0,0,51-33.738Zm-2.9,13.5q2.123-.465,4.5-1.1t4.788-1.374q2.407-.736,4.589-1.518t3.907-1.5q1.179-.465,2.344-1.037t2.458-1.346l2.361,5.58q-1.268.5-2.658,1.085t-2.476,1q-1.95.752-4.426,1.585t-5.16,1.635q-2.684.8-5.31,1.518t-4.886,1.234Zm68.729-13.912q-.044.91-.105,2t-.061,2.415v8.7a49.484,49.484,0,0,1-.336,6.166,24.475,24.475,0,0,1-.991,4.6,16.469,16.469,0,0,1-1.6,3.5,18.956,18.956,0,0,1-2.193,2.875,17.3,17.3,0,0,1-3.318,2.852,26.73,26.73,0,0,1-3.8,2.12,36.515,36.515,0,0,1-3.545,1.4l-4.61-4.861a26.5,26.5,0,0,0,5.943-2.089,16.419,16.419,0,0,0,4.656-3.462,13.918,13.918,0,0,0,1.843-2.543,11.274,11.274,0,0,0,1.088-2.838,22.293,22.293,0,0,0,.523-3.527q.149-1.976.149-4.563v-8.334q0-1.326-.078-2.415t-.2-2Zm-20.392.376q-.044.759-.1,1.538t-.061,1.822v14.864q0,.836.061,1.941t.1,1.889h-6.4q.054-.612.132-1.742t.078-2.123V-30.412q0-.606-.044-1.6t-.132-1.756Zm37.933.032q1.076.147,2.346.23t2.351.083H163.24q1.125,0,2.368-.078t2.378-.235v5.678q-1.145-.088-2.365-.127t-2.38-.039H145.582q-1.125,0-2.414.039t-2.3.127Zm-5.128,11.246q.974.112,2.091.19t2.13.078h28.81q.7,0,1.928-.061a18.588,18.588,0,0,0,2.1-.208v5.727q-.822-.078-1.952-.1t-2.075-.022h-28.81q-.978,0-2.142.034t-2.079.122Zm22.524,3.058a35.956,35.956,0,0,1-.749,7.7A25.4,25.4,0,0,1,155.361-5.6a16.06,16.06,0,0,1-2.1,3.085A23.788,23.788,0,0,1,150.21.468a19.759,19.759,0,0,1-3.684,2.4L141.362-.868a17.683,17.683,0,0,0,4.493-2.651,16.762,16.762,0,0,0,3.478-3.663,14.9,14.9,0,0,0,2.237-5.6,37.228,37.228,0,0,0,.575-6.615Zm19.788,6.9A48.331,48.331,0,0,0,183.9-14.25q2.97-1.073,5.571-2.312t4.346-2.28a41.209,41.209,0,0,0,4.249-2.946q2.088-1.646,3.839-3.33a31.952,31.952,0,0,0,2.885-3.117l4.361,4.272a34.009,34.009,0,0,1-3.387,3.169q-2.1,1.746-4.522,3.475t-4.832,3.161q-1.482.9-3.424,1.844t-4.071,1.86q-2.13.912-4.263,1.71t-3.989,1.385ZM193.3-15.4l5.987-1.141V-.883q0,.769.022,1.723t.1,1.777a8.308,8.308,0,0,0,.186,1.258h-6.526a10.421,10.421,0,0,0,.118-1.258q.039-.822.078-1.777T193.3-.883Zm56.543-20.246a21.618,21.618,0,0,1,1.215,1.89q.643,1.108,1.251,2.208t1.024,1.93L249.8-28.106q-.685-1.354-1.626-3.1a31.685,31.685,0,0,0-1.821-3.009Zm5.2-1.986q.582.826,1.251,1.939t1.3,2.19q.631,1.078,1,1.855l-3.5,1.508q-.679-1.393-1.657-3.112a31.233,31.233,0,0,0-1.877-2.951Zm-24.192,3.891q-.147.984-.23,2.306t-.083,2.271V-6.966a2.359,2.359,0,0,0,.689,1.959,5.164,5.164,0,0,0,2.165.821q1,.142,2.313.2t2.767.063q1.726,0,3.814-.1t4.227-.289q2.139-.188,4.034-.487t3.259-.65V.989q-2.059.3-4.8.5t-5.586.3q-2.841.1-5.285.1-2.137,0-4.062-.135t-3.347-.355a8.177,8.177,0,0,1-4.443-2.141,6.065,6.065,0,0,1-1.59-4.459V-29.16q0-.5-.039-1.333t-.1-1.706a13.852,13.852,0,0,0-.184-1.538Zm-2.9,13.5q2.123-.465,4.5-1.1t4.788-1.374q2.407-.736,4.589-1.518t3.907-1.5q1.179-.465,2.344-1.037t2.458-1.346l2.361,5.58q-1.268.5-2.658,1.085t-2.476,1q-1.95.752-4.426,1.585t-5.16,1.635q-2.684.8-5.31,1.518t-4.886,1.234Zm65.5-13.551q.622.9,1.362,2.115t1.447,2.436q.706,1.222,1.2,2.254l-3.806,1.645q-.646-1.4-1.235-2.531t-1.209-2.2a21.955,21.955,0,0,0-1.452-2.185Zm6.064-2.137a21.584,21.584,0,0,1,1.44,2.042q.741,1.176,1.456,2.368t1.244,2.18l-3.772,1.68q-.68-1.4-1.325-2.5t-1.3-2.111q-.66-1.019-1.491-2.1ZM274.352-34.64q1.086.587,2.447,1.428t2.782,1.735q1.42.894,2.689,1.708t2.116,1.426l-3.283,4.85q-.9-.64-2.164-1.476T276.3-26.677q-1.376-.873-2.716-1.687T271.166-29.8ZM266.2-3.406q2.478-.44,5.018-1.09a47.723,47.723,0,0,0,5.06-1.6,39.627,39.627,0,0,0,4.9-2.244,49.5,49.5,0,0,0,6.967-4.752,47.292,47.292,0,0,0,5.824-5.628A35.813,35.813,0,0,0,298.3-24.85l3.385,5.978a46.49,46.49,0,0,1-7.57,8.645,57.585,57.585,0,0,1-9.931,7.182,46.418,46.418,0,0,1-4.907,2.359Q276.6.421,274.026,1.23A37.033,37.033,0,0,1,269.5,2.386ZM267.574-24.6q1.111.577,2.5,1.4t2.8,1.7q1.408.875,2.665,1.675t2.1,1.411l-3.229,4.939q-.944-.665-2.2-1.492t-2.633-1.718q-1.381-.892-2.726-1.692t-2.465-1.377Zm63.18-11.351q-.1.8-.193,1.915t-.1,2.149v4.892h-5.747v-4.892q0-1.066-.061-2.166a17.907,17.907,0,0,0-.193-1.9ZM343.046-26.5q-.833.832-1.765,1.851t-1.628,1.8q-1.218,1.379-2.824,2.995t-3.461,3.241a45.1,45.1,0,0,1-3.883,3.043,42.219,42.219,0,0,1-5.34,3.21q-2.964,1.514-6.259,2.8t-6.711,2.326l-3.385-5.2a51.139,51.139,0,0,0,10.727-3.478,66.786,66.786,0,0,0,7.211-3.884,37.655,37.655,0,0,0,3.128-2.273,33.672,33.672,0,0,0,2.546-2.275,15.327,15.327,0,0,0,1.743-2.014H317.21q-.772,0-1.873.022t-2.135.061q-1.034.039-1.729.118v-5.756q1.257.157,2.879.223t2.755.066h18.651a17.073,17.073,0,0,0,1.948-.108,11.886,11.886,0,0,0,1.694-.309Zm-12.669,9.6v2.965q0,1.772,0,3.77t0,3.859v3.2q0,.866.039,1.913t.118,2.026q.078.979.122,1.673h-6.315q.088-.626.166-1.6t.118-2.06q.039-1.081.039-1.948V-5.94q0-1.564,0-3.175t0-3.027v-2.414ZM343.7-4.8q-1.892-1.526-3.579-2.7T336.76-9.707q-1.672-1.029-3.573-2.095L336.8-16q2.043,1.066,3.63,1.965t3.21,1.912q1.623,1.012,3.74,2.469Zm42.352-25.03q-.269.382-.759,1.214a12.968,12.968,0,0,0-.784,1.533q-.9,2.072-2.252,4.636T379.219-17.3a45.31,45.31,0,0,1-3.586,4.782,66.144,66.144,0,0,1-5.425,5.5,60.86,60.86,0,0,1-6.254,4.963,47.326,47.326,0,0,1-6.71,3.89l-4.557-4.748A40.069,40.069,0,0,0,359.6-6.331a52.108,52.108,0,0,0,6.214-4.492,50.023,50.023,0,0,0,4.917-4.7,35.972,35.972,0,0,0,2.773-3.557,41.106,41.106,0,0,0,2.313-3.783,19.6,19.6,0,0,0,1.49-3.436H362.376q-.9,0-1.93.061t-1.913.135q-.883.074-1.364.108v-6.271q.618.068,1.6.146t1.976.127q1,.049,1.631.049h15.518a20.237,20.237,0,0,0,2.681-.164,10.439,10.439,0,0,0,1.883-.389Zm-9.844,13.666q1.72,1.378,3.647,3.182t3.816,3.742q1.89,1.938,3.5,3.723t2.7,3.1L384.858,1.95q-1.609-2.28-3.694-4.692t-4.4-4.817q-2.314-2.4-4.7-4.532Z" transform="translate(30.991 70)"/>
        <path id="パス_197" data-name="パス 197" d="M-64.782-12.456a.273.273,0,0,1,.27-.144h2.088a.208.208,0,0,1,.153.063.208.208,0,0,1,.063.153V-.216a.208.208,0,0,1-.063.153A.208.208,0,0,1-62.424,0H-64.53a.208.208,0,0,1-.153-.063.208.208,0,0,1-.063-.153V-8.3q0-.072-.036-.072t-.072.054l-1.4,2.484q-.09.144-.144.144t-.144-.144l-1.4-2.484q-.036-.054-.072-.054t-.036.072V-.216a.208.208,0,0,1-.063.153A.208.208,0,0,1-68.274,0H-70.38a.208.208,0,0,1-.153-.063A.208.208,0,0,1-70.6-.216V-12.384a.208.208,0,0,1,.063-.153.208.208,0,0,1,.153-.063h2.07a.3.3,0,0,1,.27.144l1.6,2.862q.054.072.108,0ZM-56.16.144a3.613,3.613,0,0,1-2.646-.972A3.468,3.468,0,0,1-59.8-3.42V-9.18a3.468,3.468,0,0,1,.99-2.592,3.613,3.613,0,0,1,2.646-.972,3.645,3.645,0,0,1,2.655.972,3.451,3.451,0,0,1,1,2.592v5.76a3.451,3.451,0,0,1-1,2.592A3.645,3.645,0,0,1-56.16.144Zm0-2.178a1.022,1.022,0,0,0,.81-.351,1.36,1.36,0,0,0,.306-.927V-9.288a1.36,1.36,0,0,0-.306-.927,1.022,1.022,0,0,0-.81-.351,1,1,0,0,0-.8.351,1.387,1.387,0,0,0-.3.927v5.976a1.387,1.387,0,0,0,.3.927A1,1,0,0,0-56.16-2.034ZM-42.8-3.474A3.271,3.271,0,0,1-43.812-.9a3.771,3.771,0,0,1-2.61.9h-3.4a.208.208,0,0,1-.153-.063.208.208,0,0,1-.063-.153V-12.384a.208.208,0,0,1,.063-.153.208.208,0,0,1,.153-.063h3.006A4.217,4.217,0,0,1-44-11.736a3.189,3.189,0,0,1,1.017,2.574A2.881,2.881,0,0,1-44.208-6.57q-.072.054-.018.108A3.426,3.426,0,0,1-42.8-3.474Zm-4.608-6.948a.08.08,0,0,0-.09.09v2.826a.08.08,0,0,0,.09.09h.648A1.207,1.207,0,0,0-45.81-7.8a1.59,1.59,0,0,0,.342-1.089,1.716,1.716,0,0,0-.333-1.134,1.188,1.188,0,0,0-.963-.4ZM-46.62-2.2a1.129,1.129,0,0,0,.936-.432,1.93,1.93,0,0,0,.342-1.224,2.092,2.092,0,0,0-.342-1.26A1.08,1.08,0,0,0-46.6-5.58h-.81a.08.08,0,0,0-.09.09v3.2a.08.08,0,0,0,.09.09ZM-40.3,0a.208.208,0,0,1-.153-.063.208.208,0,0,1-.063-.153V-12.384a.208.208,0,0,1,.063-.153A.208.208,0,0,1-40.3-12.6H-38.2a.208.208,0,0,1,.153.063.208.208,0,0,1,.063.153V-.216a.208.208,0,0,1-.063.153A.208.208,0,0,1-38.2,0Zm5.2,0a.208.208,0,0,1-.153-.063.208.208,0,0,1-.063-.153V-12.384a.208.208,0,0,1,.063-.153A.208.208,0,0,1-35.1-12.6h2.106a.208.208,0,0,1,.153.063.208.208,0,0,1,.063.153V-2.268a.08.08,0,0,0,.09.09h3.78a.208.208,0,0,1,.153.063.208.208,0,0,1,.063.153V-.216a.208.208,0,0,1-.063.153A.208.208,0,0,1-28.908,0Zm8.73,0a.208.208,0,0,1-.153-.063.208.208,0,0,1-.063-.153V-12.384a.208.208,0,0,1,.063-.153.208.208,0,0,1,.153-.063h2.106a.208.208,0,0,1,.153.063.208.208,0,0,1,.063.153V-.216a.208.208,0,0,1-.063.153A.208.208,0,0,1-24.264,0ZM-14.4-12.6a.208.208,0,0,1,.153.063.208.208,0,0,1,.063.153v1.746a.208.208,0,0,1-.063.153.208.208,0,0,1-.153.063h-2.25a.08.08,0,0,0-.09.09V-.216a.208.208,0,0,1-.063.153A.208.208,0,0,1-16.956,0h-2.106a.208.208,0,0,1-.153-.063.208.208,0,0,1-.063-.153V-10.332a.08.08,0,0,0-.09-.09h-2.16a.208.208,0,0,1-.153-.063.208.208,0,0,1-.063-.153v-1.746a.208.208,0,0,1,.063-.153.208.208,0,0,1,.153-.063ZM-9.486-.018a.208.208,0,0,1-.153-.063A.208.208,0,0,1-9.7-.234v-4.68l-.018-.108-2.52-7.326a.2.2,0,0,1-.018-.09q0-.162.2-.162h2.214a.237.237,0,0,1,.252.18l1.116,4.3q.018.054.054.054t.054-.054l1.116-4.3A.237.237,0,0,1-7-12.6h2.214a.2.2,0,0,1,.162.063.2.2,0,0,1,.018.189L-7.146-5.022l-.018.108v4.68a.208.208,0,0,1-.063.153.208.208,0,0,1-.153.063ZM9.594-3.474A3.271,3.271,0,0,1,8.586-.9a3.771,3.771,0,0,1-2.61.9h-3.4a.208.208,0,0,1-.153-.063.208.208,0,0,1-.063-.153V-12.384a.208.208,0,0,1,.063-.153.208.208,0,0,1,.153-.063H5.58a4.217,4.217,0,0,1,2.817.864A3.189,3.189,0,0,1,9.414-9.162,2.881,2.881,0,0,1,8.19-6.57q-.072.054-.018.108A3.426,3.426,0,0,1,9.594-3.474ZM4.986-10.422a.08.08,0,0,0-.09.09v2.826a.08.08,0,0,0,.09.09h.648A1.207,1.207,0,0,0,6.588-7.8,1.59,1.59,0,0,0,6.93-8.892,1.716,1.716,0,0,0,6.6-10.026a1.188,1.188,0,0,0-.963-.4ZM5.778-2.2a1.129,1.129,0,0,0,.936-.432,1.93,1.93,0,0,0,.342-1.224,2.092,2.092,0,0,0-.342-1.26A1.08,1.08,0,0,0,5.8-5.58h-.81a.08.08,0,0,0-.09.09v3.2a.08.08,0,0,0,.09.09Zm9.63,2.34a3.448,3.448,0,0,1-2.6-1.017,3.737,3.737,0,0,1-.981-2.709v-8.8a.208.208,0,0,1,.063-.153.208.208,0,0,1,.153-.063h2.106a.208.208,0,0,1,.153.063.208.208,0,0,1,.063.153V-3.33a1.453,1.453,0,0,0,.288.936.921.921,0,0,0,.756.36.9.9,0,0,0,.747-.36,1.485,1.485,0,0,0,.279-.936v-9.054a.208.208,0,0,1,.063-.153.208.208,0,0,1,.153-.063h2.106a.208.208,0,0,1,.153.063.208.208,0,0,1,.063.153v8.8a3.737,3.737,0,0,1-.981,2.709A3.425,3.425,0,0,1,15.408.144Zm9.4,0A3.907,3.907,0,0,1,22.968-.27a2.969,2.969,0,0,1-1.224-1.161,3.371,3.371,0,0,1-.432-1.719v-.522a.208.208,0,0,1,.063-.153.208.208,0,0,1,.153-.063H23.6a.208.208,0,0,1,.153.063.208.208,0,0,1,.063.153v.4a1.35,1.35,0,0,0,.288.9.9.9,0,0,0,.72.342.923.923,0,0,0,.72-.324A1.226,1.226,0,0,0,25.83-3.2a1.314,1.314,0,0,0-.36-.927,10.77,10.77,0,0,0-1.4-1.143,17.283,17.283,0,0,1-1.458-1.152,4.555,4.555,0,0,1-.954-1.242,3.562,3.562,0,0,1-.4-1.71,3.24,3.24,0,0,1,.954-2.448,3.482,3.482,0,0,1,2.52-.918,3.461,3.461,0,0,1,2.547.954,3.366,3.366,0,0,1,.963,2.5v.432a.208.208,0,0,1-.063.153.208.208,0,0,1-.153.063h-2.07A.208.208,0,0,1,25.8-8.7a.208.208,0,0,1-.063-.153v-.486a1.343,1.343,0,0,0-.279-.891.906.906,0,0,0-.729-.333.881.881,0,0,0-.7.315,1.3,1.3,0,0,0-.27.873,1.455,1.455,0,0,0,.342.954,8.153,8.153,0,0,0,1.35,1.152q1.116.828,1.683,1.341A3.922,3.922,0,0,1,28.017-4.8a3.248,3.248,0,0,1,.315,1.485,3.335,3.335,0,0,1-.972,2.52A3.53,3.53,0,0,1,24.8.144ZM30.834,0a.208.208,0,0,1-.153-.063.208.208,0,0,1-.063-.153V-12.384a.208.208,0,0,1,.063-.153.208.208,0,0,1,.153-.063H32.94a.208.208,0,0,1,.153.063.208.208,0,0,1,.063.153V-.216a.208.208,0,0,1-.063.153A.208.208,0,0,1,32.94,0ZM40.968-12.384a.208.208,0,0,1,.063-.153.208.208,0,0,1,.153-.063h2.088a.208.208,0,0,1,.153.063.208.208,0,0,1,.063.153V-.216a.208.208,0,0,1-.063.153A.208.208,0,0,1,43.272,0H40.9a.226.226,0,0,1-.234-.18L38.43-7.146q-.018-.054-.063-.045a.055.055,0,0,0-.045.063L38.34-.216a.208.208,0,0,1-.063.153A.208.208,0,0,1,38.124,0H36.036a.208.208,0,0,1-.153-.063.208.208,0,0,1-.063-.153V-12.384a.208.208,0,0,1,.063-.153.208.208,0,0,1,.153-.063h2.358a.226.226,0,0,1,.234.18l2.25,6.966q.018.054.063.045a.055.055,0,0,0,.045-.063ZM52.74-10.638a.208.208,0,0,1-.063.153.208.208,0,0,1-.153.063H48.762a.08.08,0,0,0-.09.09v2.844a.08.08,0,0,0,.09.09h2.16a.208.208,0,0,1,.153.063.208.208,0,0,1,.063.153v1.746a.208.208,0,0,1-.063.153.208.208,0,0,1-.153.063h-2.16a.08.08,0,0,0-.09.09v2.862a.08.08,0,0,0,.09.09h3.762a.208.208,0,0,1,.153.063.208.208,0,0,1,.063.153V-.216a.208.208,0,0,1-.063.153A.208.208,0,0,1,52.524,0H46.35A.208.208,0,0,1,46.2-.063a.208.208,0,0,1-.063-.153V-12.384a.208.208,0,0,1,.063-.153.208.208,0,0,1,.153-.063h6.174a.208.208,0,0,1,.153.063.208.208,0,0,1,.063.153ZM58.32.144A3.907,3.907,0,0,1,56.484-.27,2.969,2.969,0,0,1,55.26-1.431a3.371,3.371,0,0,1-.432-1.719v-.522a.208.208,0,0,1,.063-.153.208.208,0,0,1,.153-.063h2.07a.208.208,0,0,1,.153.063.208.208,0,0,1,.063.153v.4a1.35,1.35,0,0,0,.288.9.9.9,0,0,0,.72.342.923.923,0,0,0,.72-.324,1.226,1.226,0,0,0,.288-.846,1.314,1.314,0,0,0-.36-.927,10.769,10.769,0,0,0-1.4-1.143,17.284,17.284,0,0,1-1.458-1.152,4.555,4.555,0,0,1-.954-1.242,3.562,3.562,0,0,1-.4-1.71,3.24,3.24,0,0,1,.954-2.448,3.482,3.482,0,0,1,2.52-.918,3.461,3.461,0,0,1,2.547.954,3.366,3.366,0,0,1,.963,2.5v.432A.208.208,0,0,1,61.7-8.7a.208.208,0,0,1-.153.063h-2.07a.208.208,0,0,1-.153-.063.208.208,0,0,1-.063-.153v-.486a1.343,1.343,0,0,0-.279-.891.906.906,0,0,0-.729-.333.881.881,0,0,0-.7.315,1.3,1.3,0,0,0-.27.873,1.455,1.455,0,0,0,.342.954,8.153,8.153,0,0,0,1.35,1.152q1.116.828,1.683,1.341A3.922,3.922,0,0,1,61.533-4.8a3.248,3.248,0,0,1,.315,1.485,3.335,3.335,0,0,1-.972,2.52A3.53,3.53,0,0,1,58.32.144Zm9.054,0A3.907,3.907,0,0,1,65.538-.27a2.969,2.969,0,0,1-1.224-1.161,3.371,3.371,0,0,1-.432-1.719v-.522a.208.208,0,0,1,.063-.153.208.208,0,0,1,.153-.063h2.07a.208.208,0,0,1,.153.063.208.208,0,0,1,.063.153v.4a1.35,1.35,0,0,0,.288.9.9.9,0,0,0,.72.342.923.923,0,0,0,.72-.324A1.226,1.226,0,0,0,68.4-3.2a1.314,1.314,0,0,0-.36-.927,10.77,10.77,0,0,0-1.4-1.143,17.284,17.284,0,0,1-1.458-1.152,4.555,4.555,0,0,1-.954-1.242,3.562,3.562,0,0,1-.4-1.71,3.24,3.24,0,0,1,.954-2.448,3.482,3.482,0,0,1,2.52-.918,3.461,3.461,0,0,1,2.547.954,3.366,3.366,0,0,1,.963,2.5v.432a.208.208,0,0,1-.063.153.208.208,0,0,1-.153.063h-2.07a.208.208,0,0,1-.153-.063.208.208,0,0,1-.063-.153v-.486a1.343,1.343,0,0,0-.279-.891.906.906,0,0,0-.729-.333.881.881,0,0,0-.7.315,1.3,1.3,0,0,0-.27.873,1.455,1.455,0,0,0,.342.954,8.153,8.153,0,0,0,1.35,1.152q1.116.828,1.683,1.341A3.922,3.922,0,0,1,70.587-4.8,3.248,3.248,0,0,1,70.9-3.312a3.335,3.335,0,0,1-.972,2.52A3.53,3.53,0,0,1,67.374.144Z" transform="translate(226.96 102)"/>
      </g>
    </g>
    <path id="パス_55" data-name="パス 55" d="M0,0V124.286H22.592V118.3H5.953V5.983h16.64V0Z" transform="translate(0.146 0)"/>
    <path id="パス_56" data-name="パス 56" d="M187.973,0V5.983h16.642V118.3H187.973v5.983h22.592V0Z" transform="translate(252.523 0)"/>
  </g>
</svg>
