<svg xmlns="http://www.w3.org/2000/svg" xmlns:xlink="http://www.w3.org/1999/xlink" width="463" height="125" viewBox="0 0 463 125">
  <defs>
    <clipPath id="clip-path">
      <rect id="長方形_654" data-name="長方形 654" width="463" height="125" transform="translate(0 -0.49)"/>
    </clipPath>
    <clipPath id="clip-path-2">
      <rect id="長方形_727" data-name="長方形 727" width="356" height="99" transform="translate(44 12.51)" fill="none"/>
    </clipPath>
  </defs>
  <g id="グループ_27025" data-name="グループ 27025" transform="translate(0 0.49)">
    <g id="グループ_91" data-name="グループ 91" transform="translate(0 0)" clip-path="url(#clip-path)">
      <path id="パス_47" data-name="パス 47" d="M22.6,124.286H0V0H22.6V5.983H5.954V118.3H22.6Z" transform="translate(0.055 -0.133)"/>
      <path id="パス_48" data-name="パス 48" d="M210.574,124.286h-22.6V118.3H204.62V5.983H187.973V0h22.6Z" transform="translate(252.56 -0.133)"/>
      <g id="マスクグループ_35" data-name="マスクグループ 35" transform="translate(9)" clip-path="url(#clip-path-2)">
        <path id="パス_199" data-name="パス 199" d="M38.138-41.677q4.1,2.372,8.99,5.518t9.847,6.538q4.961,3.392,9.367,6.567t7.46,5.695L65.319-7.288Q62.393-10,58.066-13.505t-9.308-7.187q-4.981-3.68-9.807-7.053t-8.7-5.834ZM80.015-56.81a28.261,28.261,0,0,0-1.571,2.965q-.8,1.717-1.391,3.413a85.043,85.043,0,0,1-3.595,9.079,103.952,103.952,0,0,1-5.4,10.218,92.69,92.69,0,0,1-7.11,10.215A95.631,95.631,0,0,1,45.788-6.074,81.376,81.376,0,0,1,24.145,5.866L13.828-3.094a81.394,81.394,0,0,0,16.145-6.8,72.591,72.591,0,0,0,11.889-8.331A84.5,84.5,0,0,0,50.686-27.1,66.065,66.065,0,0,0,56.4-34.959a78.945,78.945,0,0,0,4.69-8.611,41.392,41.392,0,0,0,2.8-7.712H33.784l4.1-10.1H63.223a32.472,32.472,0,0,0,4.174-.273,18.651,18.651,0,0,0,3.561-.768ZM50.6-70.492Q49-68.155,47.468-65.5t-2.347,4.07a96.579,96.579,0,0,1-7.658,11.366,116.064,116.064,0,0,1-10.4,11.708A93.437,93.437,0,0,1,14.946-28.224l-9.6-7.4a76.423,76.423,0,0,0,13.3-10.229,83.95,83.95,0,0,0,9.145-10.429A102.493,102.493,0,0,0,33.674-65.2a31.853,31.853,0,0,0,2.254-4.323,32.976,32.976,0,0,0,1.8-4.975ZM169.044-55.357a28.578,28.578,0,0,0-1.569,2.966q-.8,1.717-1.393,3.413A87.451,87.451,0,0,1,162.82-40a95.469,95.469,0,0,1-5.161,10.391,76.673,76.673,0,0,1-7.11,10.355A80.332,80.332,0,0,1,135.7-5.327,95.689,95.689,0,0,1,114.67,5.866l-10.526-9.4a89.567,89.567,0,0,0,15.685-6.193,68.311,68.311,0,0,0,11.465-7.43,69.1,69.1,0,0,0,8.719-8.428,50.307,50.307,0,0,0,5.678-7.855,74.133,74.133,0,0,0,4.447-8.751,40.058,40.058,0,0,0,2.5-7.641H122.656l4.1-10.1h25.428a32.559,32.559,0,0,0,4.173-.272,18.621,18.621,0,0,0,3.561-.767ZM140.026-69.421q-1.6,2.336-3.121,4.99t-2.338,4.07a91.283,91.283,0,0,1-7.426,11.113A102.155,102.155,0,0,1,117.127-38.1a93.568,93.568,0,0,1-11.972,9.782l-9.969-7.4a81.263,81.263,0,0,0,10.324-7.4,71.427,71.427,0,0,0,7.772-7.632,81.275,81.275,0,0,0,5.661-7.3q2.378-3.495,4.04-6.332a30.291,30.291,0,0,0,2.235-4.332,34.71,34.71,0,0,0,1.779-4.986Zm65.439-1.049q2.2,1.186,4.952,2.888t5.627,3.511q2.872,1.809,5.439,3.456t4.279,2.883l-6.639,9.812q-1.822-1.3-4.378-2.987T209.4-54.364q-2.784-1.765-5.494-3.411t-4.887-2.9ZM188.982-7.292q5.015-.89,10.152-2.2a96.816,96.816,0,0,0,10.235-3.242,80.059,80.059,0,0,0,9.907-4.539,100.112,100.112,0,0,0,14.093-9.613,95.586,95.586,0,0,0,11.78-11.384A72.51,72.51,0,0,0,253.9-50.667l6.849,12.091a94.077,94.077,0,0,1-15.311,17.485A116.376,116.376,0,0,1,225.349-6.565a93.649,93.649,0,0,1-9.924,4.772q-5.4,2.24-10.617,3.876a75.111,75.111,0,0,1-9.156,2.339Zm2.776-42.865q2.247,1.168,5.056,2.84t5.656,3.442q2.848,1.77,5.39,3.387t4.254,2.854l-6.53,9.989q-1.911-1.345-4.442-3.016t-5.325-3.477q-2.794-1.805-5.514-3.422t-4.985-2.784Zm83.406,8.944q1.623.089,4.123.248t5.222.238q2.721.079,4.976.079h47.807q3.143,0,5.909-.238t4.548-.327v14q-1.574-.089-4.588-.282t-5.85-.193H289.484q-3.769,0-7.783.149t-6.538.327Z" transform="translate(44 97.51)"/>
      </g>
      <path id="パス_198" data-name="パス 198" d="M-24.264-12.6a.208.208,0,0,1,.153.063.208.208,0,0,1,.063.153v1.746a.208.208,0,0,1-.063.153.208.208,0,0,1-.153.063h-2.25a.08.08,0,0,0-.09.09V-.216a.208.208,0,0,1-.063.153A.208.208,0,0,1-26.82,0h-2.106a.208.208,0,0,1-.153-.063.208.208,0,0,1-.063-.153V-10.332a.08.08,0,0,0-.09-.09h-2.16a.208.208,0,0,1-.153-.063.208.208,0,0,1-.063-.153v-1.746a.208.208,0,0,1,.063-.153.208.208,0,0,1,.153-.063ZM-17.46,0a.2.2,0,0,1-.234-.2l-.288-1.728q0-.09-.108-.09h-2.286q-.108,0-.108.09L-20.772-.2a.2.2,0,0,1-.234.2h-2.106q-.234,0-.18-.234L-20.646-12.4a.216.216,0,0,1,.234-.2h2.43a.216.216,0,0,1,.234.2L-15.12-.234l.018.072q0,.162-.2.162Zm-2.664-4.068q0,.09.072.09h1.62q.09,0,.072-.09l-.846-4.914q-.018-.054-.054-.054t-.054.054Zm7,4.068q-.126,0-.162-.072a.232.232,0,0,1,0-.18l2.448-5.994a.166.166,0,0,0,0-.108l-2.448-5.994a.251.251,0,0,1-.018-.108q0-.144.18-.144h2.16a.226.226,0,0,1,.234.18l1.206,3.456q.018.054.054.054t.054-.054l1.206-3.456a.226.226,0,0,1,.234-.18h2.142q.126,0,.162.072a.232.232,0,0,1,0,.18L-8.118-6.354a.166.166,0,0,0,0,.108L-5.67-.252a.251.251,0,0,1,.018.108q0,.144-.18.144H-7.974a.226.226,0,0,1-.234-.18L-9.414-3.618q-.018-.054-.054-.054t-.054.054L-10.746-.18A.226.226,0,0,1-10.98,0Zm9.99,0a.208.208,0,0,1-.153-.063.208.208,0,0,1-.063-.153V-12.384a.208.208,0,0,1,.063-.153.208.208,0,0,1,.153-.063h2.106a.208.208,0,0,1,.153.063.208.208,0,0,1,.063.153V-.216a.208.208,0,0,1-.063.153A.208.208,0,0,1-1.026,0Z" transform="translate(400 103.51)"/>
    </g>
  </g>
</svg>
