<svg xmlns="http://www.w3.org/2000/svg" xmlns:xlink="http://www.w3.org/1999/xlink" width="245" height="583.498" viewBox="0 0 245 583.498">
  <defs>
    <clipPath id="clip-path">
      <rect id="長方形_702" data-name="長方形 702" width="245" height="495" transform="translate(1 0.077)" fill="none"/>
    </clipPath>
  </defs>
  <g id="グループ_27070" data-name="グループ 27070" transform="translate(436 -2990.999)">
    <g id="マスクグループ_27" data-name="マスクグループ 27" transform="translate(-437 2990.921)" clip-path="url(#clip-path)">
      <g id="グループ_26953" data-name="グループ 26953">
        <g id="グループ_26952" data-name="グループ 26952">
          <path id="パス_120" data-name="パス 120" d="M175.676,31.428c5.029,0,8.8,0,12.571-5.28,7.04-9.806,7.8-11.063,10.563-11.063,3.014,0,26.9,16.846,26.9,19.608,0,3.523-5.029,3.523-13.577,3.523H47.2c-22.122,0-29.414.248-31.928.5-.758,0-4.529.754-5.28.754s-1.257-.754-2.263-1.76L2.956,31.931C1.95,30.922,1.95,30.674,1.95,30.423a.668.668,0,0,1,.754-.758c1.76,0,9.551,1.009,11.063,1.009,12.317.754,22.88.754,34.694.754H94.472c7.543,0,8.294-3.02,8.294-8.3a83.824,83.824,0,0,0-.751-10.56c-.251-1.509-1.509-8.8-1.509-10.305,0-2.015.751-2.266,2.766-2.266,3.52,0,14.834,2.514,18.857,3.523,2.762.751,6.034,1.257,6.034,4.019,0,1.76-.506,2.263-4.777,6.286-2.015,1.76-2.015,5.531-2.015,7.291,0,8.8,1.763,10.309,8.549,10.309Zm-134,101.825c-7.794,0-7.794.751-7.794,22.877,0,8.3,1,49.276,1,58.583,0,8.294-6.031,12.823-14.08,12.823-6.785,0-6.785-2.766-6.785-5.786,0-5.528,1.006-31.928,1.006-37.962,0-13.829,0-34.7-.754-47.768-.251-2.514-1.257-14.331-1.257-15.589,0-1.006.248-3.52,2.011-3.52,2.008,0,15.337,7.037,18.351,8.042a39.682,39.682,0,0,0,10.811,1.509H182.968c3.272,0,5.28-.251,8.049-3.265,5.779-6.537,6.537-7.04,7.794-7.04s18.1,9.554,18.1,14.583c0,1.757-.5,2.514-5.28,8.294-2.011,2.263-2.011,14.335-2.011,18.1,0,6.789.754,40.228.754,47.771,0,5.528,0,10.808-8.8,17.094-5.277,3.771-12.571,6.034-14.328,6.034-3.02,0-4.278-1.757-7.8-7.794a25.534,25.534,0,0,0-15.086-11.063c-3.517-1.006-4.522-2.762-4.522-3.52,0-1,1.76-1,2.766-1,2.514,0,17.1,1,20.362,1,9.306,0,9.306-3.517,9.306-7.791,0-3.771.251-22.377.251-26.651,0-17.848,0-28.914-.251-32.434-.255-5.528-5.283-5.528-8.549-5.528Zm42.488-30.926c-3.269,0-6.034,0-7.04,3.269-1.006,2.514-3.017,8.294-11.566,8.294-8.3,0-8.3-5.277-8.3-11.059,0-2.514.506-15.337.506-18.1,0-6.034-.255-18.857-.506-24.385,0-.758-.751-4.777-.751-5.535,0-1,0-2.766,2.008-2.766,1.006,0,13.074,5.28,14.331,5.786,5.531,2.514,8.8,2.762,13.829,2.762h55.311c4.274,0,5.783-.5,7.543-2.514,2.766-3.269,5.029-5.528,6.537-5.528,1.76,0,17.6,9.051,17.6,12.571,0,1.509-5.783,6.785-6.286,8.294a38.121,38.121,0,0,0-.754,7.543c0,2.766.5,16.846.5,20.114,0,6.034-6.789,11.314-13.577,11.314-4.274,0-4.777-1.76-5.28-5.28-.754-4.777-4.274-4.777-8.046-4.777Zm11.314,93.025c-3.771,0-5.783,0-7.04,4.274-1.257,4.522-2.514,8.8-10.815,8.8-7.037,0-7.539-3.269-7.539-7.291,0-3.021.754-18.1.754-21.371,0-5.029-.251-10.56-.251-16.091,0-1.509-1.006-10.057-1.006-11.814,0-1.512.251-3.52,2.011-3.52.251,0,8.8,4.02,9.554,4.271a32.172,32.172,0,0,0,11.817,2.011h32.179c4.526,0,6.034-.5,7.794-2.762,4.026-4.777,4.526-5.283,5.531-5.283s17.851,7.8,17.851,12.32c0,1.257-.251,1.509-4.526,6.537a6.287,6.287,0,0,0-2.011,5.029c0,2.263.5,23.634.5,24.891,0,8.046-8.8,11.817-12.823,11.817-4.526,0-5.029-2.011-5.783-7.04-.251-2.263-2.259-4.777-7.288-4.777ZM84.666,67.128c-8.3,0-8.3,3.02-8.3,10.309,0,16.594,0,18.354,7.295,18.354h58.076c7.543,0,7.543-.5,7.543-20.366,0-4.019,0-8.3-7.291-8.3ZM95.98,161.158c-8.3,0-8.3,3.017-8.3,12.571,0,12.571,0,15.086,8.3,15.086h28.411c8.042,0,8.042-3.017,8.042-12.571,0-12.823,0-15.086-8.042-15.086Z" transform="translate(15.631 0)" fill="#fff"/>
          <path id="パス_121" data-name="パス 121" d="M40.225,222.924c0,1.76-1.257,2.766-5.528,6.034-1.763,1.257-3.52,5.531-6.792,13.828-5.528,13.829-15.585,33.437-24.134,40.979-.5.5-2.514,3.017-3.269,3.017-.251,0-.5-.251-.5-.754s5.783-14.328,6.789-17.1a232.855,232.855,0,0,0,11.059-49.779c.506-5.535.758-7.291,3.02-7.291,1.509,0,6.034,1.757,8.294,2.766,2.514,1.257,11.063,5.783,11.063,8.3M79.2,191.5c-1.257,0-12.823,1.76-14.834,3.017-2.766,1.509-2.766,4.526-2.766,32.434,0,13.577,0,37.711.758,50.534.248,2.011,1.257,10.811,1.257,12.571,0,8.046-6.792,11.562-14.08,11.562-4.278,0-6.286-2.008-6.286-6.785,0-2.015,2.514-58.834,2.514-69.9V203.312c0-1.509-.255-5.531-3.771-5.531-2.514,0-19.112,4.023-22.126,4.526-1.257.5-7.04,4.023-8.549,4.023-6.034,0-9.3-22.88-9.3-24.137,0-1.509.5-3.269,2.766-3.269,2.011,0,9.806,3.771,11.566,4.274A100.984,100.984,0,0,0,27.657,184.2c4.019,0,6.282,0,21.117-28.911,6.537-12.823,19.108-39.726,19.863-45.257.251-2.514.5-4.271,2.766-4.271,3.771,0,21.12,12.317,21.12,16.591,0,3.52-2.011,4.023-5.28,4.526C81.208,128.139,58.831,160.57,53.3,166.6c-2.015,2.266-13.577,14.834-13.577,16.091,0,.5.5,1.76,2.514,2.011,1.257.255,9.3.255,12.571.255,6.034,0,18.1-.255,20.362-.758,2.015-.251,3.272-1.006,3.272-2.766s-4.78-13.326-5.786-15.84a46.879,46.879,0,0,1-2.514-5.029.923.923,0,0,1,1.006-1.006c5.029,0,31.177,18.857,31.177,34.948,0,5.28-3.269,12.571-9.051,12.571-5.029,0-7.291-5.531-8.3-9.3-.251-1.509-1.257-4.526-2.766-5.531A8.694,8.694,0,0,0,79.2,191.5M42.491,75.845a2.764,2.764,0,0,1,3.014-3.02c3.02,0,21.12,10.563,21.12,15.34,0,1.757-1.509,2.259-6.286,4.023-3.014,1.257-23.379,27.905-23.379,31.677,0,1.509.251,1.76,3.017,5.28,5.029,6.789,5.029,11.314,5.029,12.819,0,6.034-3.272,12.072-8.552,12.072-4.271,0-6.534-4.274-7.791-7.043-5.28-11.314-8.8-18.6-20.366-30.168-.754-.754-5.531-4.023-5.531-5.28,0-.751.754-.751,1.76-.751,4.777,0,13.577,3.265,18.351,5.528,4.78,2.514,5.283,2.514,6.54,2.011,3.517-1.257,13.074-33.44,13.074-42.488M93.276,243.538c0,3.771-1.257,13.829-8.3,13.829s-7.543-6.286-8.8-16.091c-1.76-15.334-2.011-17.094-3.52-24.888-.251-1.512-.5-3.52-.5-4.026s.248-.751.5-.751c1.509,0,5.786,4.274,7.04,5.779,7.794,8.049,13.577,16.849,13.577,26.148M171.718,90.425c3.269,0,5.531-.251,8.046-3.265,2.263-2.514,3.269-3.021,4.526-3.021,2.514,0,18.351,9.806,18.351,13.326,0,1.76-7.543,6.537-8.545,8.046-3.52,5.783-9.3,41.231-9.3,47.017,0,3.771,1.76,3.771,7.291,3.771,3.269,0,5.528-.251,7.543-2.766,3.269-3.269,3.52-3.771,5.528-3.771,4.026,0,21.626,11.566,21.626,15.585,0,2.015-3.52,3.272-5.786,4.274-5.277,1.512-6.286,3.02-10.811,15.34A178.24,178.24,0,0,1,185.3,231.724c-1.512,2.008-3.269,4.023-3.269,6.785,0,5.28,16.343,25.394,51.288,38.971.5.251,5.029,2.011,5.029,2.766s-3.52,1.257-4.777,1.509a66.3,66.3,0,0,0-17.848,6.286c-1.009.5-5.029,4.774-6.286,4.774-4.023,0-23.135-17.094-33.943-31.928-3.269-4.777-5.029-6.534-7.543-6.534-2.011,0-4.526,2.263-6.034,3.771a216.367,216.367,0,0,1-26.148,20.614C114.9,292.063,91.013,298.1,90.259,298.1c-.251,0-1.006,0-1.006-.5s18.606-11.063,21.874-13.326c30.423-20.111,49.028-40.48,49.028-45.76a15.27,15.27,0,0,0-2.015-6.785c-12.823-26.4-15.334-42.991-20.114-74.419-1.006-5.783-1.006-6.286-1.757-6.286s-1.006,1.257-1.257,2.008c-5.535,42.491-6.286,47.268-11.063,64.868-11.82,42.491-45.505,71.654-46.762,71.654-.255,0-.506-.251-.506-.754,0-1.006,16.846-29.417,19.611-35.2,21.371-44,24.385-107.6,24.385-145.57,0-5.531,0-10.808-6.785-10.808-2.263,0-13.829,1.006-15.592,1.006-1,0-1.505-.506-2.259-1.512l-5.029-5.779c-.754-1.257-1.006-1.509-1.006-1.763,0-.5.5-.5,1.006-.5,1.509,0,9.3.758,11.059.758,7.043.251,20.114,1,34.449,1Zm15.337,72.408a5.976,5.976,0,0,0-5.029,2.015c-2.015,2.766-3.771,5.28-9.554,5.28-6.034,0-7.543-2.514-7.543-6.792,0-7.037,11.063-54.3,11.063-61.6,0-4.774-3.771-4.774-7.794-4.774H145.821c-7.291,0-8.294,1.257-8.294,23.128,0,44,25.139,102.324,33.437,102.324,4.023,0,12.571-20.111,15.84-27.4,4.522-10.811,9.806-25.394,9.806-28.16,0-4.023-3.52-4.023-5.029-4.023Z" transform="translate(0 193.399)" fill="#fff"/>
          <path id="パス_122" data-name="パス 122" d="M8.592-8.4V0H7.032V-3.6H2.688V0H1.128V-8.4h1.56v3.468H7.032V-8.4Zm2.964,0h1.56V0h-1.56ZM21.828-4.3H23.3V-.948a4.693,4.693,0,0,1-1.512.792A5.8,5.8,0,0,1,20.016.12,4.79,4.79,0,0,1,17.7-.438,4.146,4.146,0,0,1,16.08-1.98a4.244,4.244,0,0,1-.588-2.22,4.244,4.244,0,0,1,.588-2.22,4.135,4.135,0,0,1,1.626-1.542A4.85,4.85,0,0,1,20.04-8.52a5.1,5.1,0,0,1,1.92.348,3.768,3.768,0,0,1,1.452,1.02l-.984.96a3.156,3.156,0,0,0-2.316-.96,3.273,3.273,0,0,0-1.578.372,2.713,2.713,0,0,0-1.08,1.044,3,3,0,0,0-.39,1.536,2.957,2.957,0,0,0,.39,1.512,2.8,2.8,0,0,0,1.08,1.056,3.165,3.165,0,0,0,1.566.384,3.379,3.379,0,0,0,1.728-.432Zm11.7-4.1V0h-1.56V-3.6H27.624V0h-1.56V-8.4h1.56v3.468h4.344V-8.4ZM5.016,19.12a4.731,4.731,0,0,1-2.3-.558A4.113,4.113,0,0,1,1.11,17.02a4.5,4.5,0,0,1,.006-4.44A4.157,4.157,0,0,1,2.73,11.038a4.731,4.731,0,0,1,2.3-.558,4.793,4.793,0,0,1,1.884.36,3.843,3.843,0,0,1,1.44,1.044l-1.008.948A2.94,2.94,0,0,0,5.1,11.848a3.146,3.146,0,0,0-1.548.378,2.723,2.723,0,0,0-1.068,1.05,3.216,3.216,0,0,0,0,3.048,2.723,2.723,0,0,0,1.068,1.05,3.146,3.146,0,0,0,1.548.378,2.924,2.924,0,0,0,2.244-1l1.008.96A3.832,3.832,0,0,1,6.906,18.76,4.837,4.837,0,0,1,5.016,19.12ZM10.56,10.6h1.56v7.08h4.392V19H10.56Zm13.4,6.456h-4.2L18.936,19H17.328l3.78-8.4h1.536L26.436,19H24.8Zm-.516-1.224L21.864,12.16l-1.572,3.672Zm7.368,3.288a6.408,6.408,0,0,1-1.878-.276,3.919,3.919,0,0,1-1.434-.732l.54-1.212a4.254,4.254,0,0,0,1.266.666,4.6,4.6,0,0,0,1.506.258,2.6,2.6,0,0,0,1.4-.3.909.909,0,0,0,.462-.792.767.767,0,0,0-.258-.594,1.811,1.811,0,0,0-.654-.366q-.4-.132-1.08-.3a12.59,12.59,0,0,1-1.554-.456,2.557,2.557,0,0,1-1.02-.714,1.923,1.923,0,0,1-.426-1.314,2.241,2.241,0,0,1,.378-1.266,2.558,2.558,0,0,1,1.14-.906,4.619,4.619,0,0,1,1.866-.336,6.027,6.027,0,0,1,1.512.192,4.179,4.179,0,0,1,1.284.552l-.492,1.212a4.854,4.854,0,0,0-1.152-.492,4.309,4.309,0,0,0-1.164-.168,2.432,2.432,0,0,0-1.374.312.962.962,0,0,0-.45.828.749.749,0,0,0,.258.588,1.864,1.864,0,0,0,.654.36q.4.132,1.08.3a11.365,11.365,0,0,1,1.536.45,2.63,2.63,0,0,1,1.026.714,1.882,1.882,0,0,1,.426,1.3,2.213,2.213,0,0,1-.378,1.26,2.571,2.571,0,0,1-1.146.9A4.662,4.662,0,0,1,30.816,19.12Zm8.256,0a6.408,6.408,0,0,1-1.878-.276,3.919,3.919,0,0,1-1.434-.732L36.3,16.9a4.254,4.254,0,0,0,1.266.666,4.6,4.6,0,0,0,1.506.258,2.6,2.6,0,0,0,1.4-.3.909.909,0,0,0,.462-.792.767.767,0,0,0-.258-.594,1.811,1.811,0,0,0-.654-.366q-.4-.132-1.08-.3a12.59,12.59,0,0,1-1.554-.456,2.557,2.557,0,0,1-1.02-.714,1.923,1.923,0,0,1-.426-1.314,2.241,2.241,0,0,1,.378-1.266,2.558,2.558,0,0,1,1.14-.906,4.619,4.619,0,0,1,1.866-.336,6.027,6.027,0,0,1,1.512.192,4.179,4.179,0,0,1,1.284.552l-.492,1.212a4.854,4.854,0,0,0-1.152-.492,4.309,4.309,0,0,0-1.164-.168,2.432,2.432,0,0,0-1.374.312.962.962,0,0,0-.45.828.749.749,0,0,0,.258.588,1.864,1.864,0,0,0,.654.36q.4.132,1.08.3a11.365,11.365,0,0,1,1.536.45,2.63,2.63,0,0,1,1.026.714,1.882,1.882,0,0,1,.426,1.3,2.213,2.213,0,0,1-.378,1.26,2.571,2.571,0,0,1-1.146.9A4.662,4.662,0,0,1,39.072,19.12Z" transform="translate(221 61.077) rotate(90)" fill="#fff"/>
        </g>
      </g>
    </g>
    <path id="パス_198" data-name="パス 198" d="M36.665-42.5q-.654,4.753-1.632,10.064a96.878,96.878,0,0,1-2.668,10.826,57.044,57.044,0,0,1-4.23,10.775,23.388,23.388,0,0,1-5.3,6.968,9.51,9.51,0,0,1-6.263,2.447,9.838,9.838,0,0,1-6.327-2.327,15.971,15.971,0,0,1-4.59-6.425,23.964,23.964,0,0,1-1.712-9.313,24.205,24.205,0,0,1,2.177-10.14,27.1,27.1,0,0,1,6.05-8.473,28.723,28.723,0,0,1,9.061-5.8,29.376,29.376,0,0,1,11.2-2.115,27.655,27.655,0,0,1,10.382,1.85,23.087,23.087,0,0,1,7.89,5.158,22.743,22.743,0,0,1,5.034,7.715,25.43,25.43,0,0,1,1.75,9.472,24.969,24.969,0,0,1-2.658,11.647,22.075,22.075,0,0,1-7.9,8.5A33.665,33.665,0,0,1,33.87,2.913L29.189-4.46Q31-4.667,32.36-4.919t2.633-.535A22.45,22.45,0,0,0,40.53-7.568a17.322,17.322,0,0,0,4.481-3.485A15.186,15.186,0,0,0,48-15.917a16.99,16.99,0,0,0,1.073-6.17,19.489,19.489,0,0,0-1.1-6.695,14.833,14.833,0,0,0-3.263-5.288,14.624,14.624,0,0,0-5.277-3.47,19.438,19.438,0,0,0-7.146-1.225A20.548,20.548,0,0,0,23.558-37a20.036,20.036,0,0,0-6.393,4.572,20.219,20.219,0,0,0-3.92,6.042,16.14,16.14,0,0,0-1.325,6.12,15.93,15.93,0,0,0,.722,5.177,7.55,7.55,0,0,0,1.825,3.1A3.391,3.391,0,0,0,16.8-10.968a3.6,3.6,0,0,0,2.577-1.322,14.821,14.821,0,0,0,2.49-4.057,59.537,59.537,0,0,0,2.514-6.917,82.989,82.989,0,0,0,2.391-9.511,99.175,99.175,0,0,0,1.412-9.951Zm75.11-5.62q-.062,1.282-.148,2.816t-.086,3.4v12.261a69.729,69.729,0,0,1-.473,8.689,34.487,34.487,0,0,1-1.4,6.489,23.206,23.206,0,0,1-2.257,4.926,26.711,26.711,0,0,1-3.091,4.051,24.374,24.374,0,0,1-4.675,4.018,37.664,37.664,0,0,1-5.357,2.987A51.451,51.451,0,0,1,89.3,3.5L82.8-3.351a37.346,37.346,0,0,0,8.375-2.944,23.135,23.135,0,0,0,6.56-4.879,19.611,19.611,0,0,0,2.6-3.584,15.885,15.885,0,0,0,1.533-4,31.414,31.414,0,0,0,.737-4.969q.21-2.784.21-6.43V-41.9q0-1.869-.11-3.4t-.283-2.816Zm-28.734.53q-.062,1.07-.148,2.168t-.086,2.567v20.944q0,1.178.086,2.736t.148,2.662H74.025q.076-.862.186-2.455t.11-2.992v-20.9q0-.854-.062-2.26t-.186-2.475ZM183.2-41.947q-.489.587-1.221,1.55T180.8-38.772a62.221,62.221,0,0,1-3.787,5.579,73.915,73.915,0,0,1-5.214,6.2,40.276,40.276,0,0,1-5.918,5.247l-6.441-5.15a30.958,30.958,0,0,0,3.669-2.647,39.422,39.422,0,0,0,3.317-3.107,40.137,40.137,0,0,0,2.694-3.123,17.843,17.843,0,0,0,1.751-2.662H138.555q-1.938,0-3.656.11t-3.919.33v-8.635q1.813.234,3.725.431a37.6,37.6,0,0,0,3.849.2h33.419q.89,0,2.139-.055t2.433-.19a11.611,11.611,0,0,0,1.735-.294ZM157.927-33.61q0,4.585-.186,8.869a49.531,49.531,0,0,1-1.022,8.2,29.587,29.587,0,0,1-2.668,7.459A26.49,26.49,0,0,1,149-2.381a35.817,35.817,0,0,1-8.293,5.866l-7.229-5.9a26.32,26.32,0,0,0,3.162-1.323,21.07,21.07,0,0,0,3.361-2.091,22.626,22.626,0,0,0,4.806-4.357,17.49,17.49,0,0,0,2.808-4.965,26.067,26.067,0,0,0,1.353-5.868,59.73,59.73,0,0,0,.379-7q0-1.435-.072-2.755a23.485,23.485,0,0,0-.341-2.831ZM216.558-1.385a17.334,17.334,0,0,0,.362-2.1,20.91,20.91,0,0,0,.141-2.449V-42.079a25.111,25.111,0,0,0-.232-3.654q-.232-1.552-.245-1.689h9.2q-.014.137-.214,1.712a29.6,29.6,0,0,0-.2,3.679v32.4a30.79,30.79,0,0,0,5.278-3.027A42.639,42.639,0,0,0,236-17.135a37.944,37.944,0,0,0,4.691-5.565l4.757,6.835A48.718,48.718,0,0,1,239.289-9.3a74.73,74.73,0,0,1-7.474,5.907,65.445,65.445,0,0,1-7.4,4.468,12.649,12.649,0,0,0-1.613,1.01q-.62.472-1.062.8Zm-28.715-.9a24.8,24.8,0,0,0,6.7-6.882,33.339,33.339,0,0,0,3.852-7.967,24.862,24.862,0,0,0,1.037-5.007q.355-3,.534-6.443t.21-6.843q.031-3.4.031-6.209a27.857,27.857,0,0,0-.159-3.221,22.567,22.567,0,0,0-.427-2.483h9.113q-.014.123-.117,1t-.207,2.1q-.1,1.228-.1,2.512,0,2.756-.062,6.367t-.255,7.4q-.193,3.789-.541,7.175a36.68,36.68,0,0,1-.981,5.728A35.782,35.782,0,0,1,202.221-5.3,36.346,36.346,0,0,1,195.4,2.728Z" transform="translate(-438 3570.999)" fill="#fff"/>
  </g>
</svg>
