<svg xmlns="http://www.w3.org/2000/svg" xmlns:xlink="http://www.w3.org/1999/xlink" width="245" height="583.498" viewBox="0 0 245 583.498">
  <defs>
    <clipPath id="clip-path">
      <rect id="長方形_704" data-name="長方形 704" width="245" height="495" transform="translate(-13.615 0.078)" fill="none"/>
    </clipPath>
  </defs>
  <g id="グループ_27071" data-name="グループ 27071" transform="translate(124 -2990.999)">
    <g id="マスクグループ_28" data-name="マスクグループ 28" transform="translate(-110.385 2990.92)" clip-path="url(#clip-path)">
      <g id="グループ_26960" data-name="グループ 26960" transform="translate(-8.615)">
        <g id="グループ_26959" data-name="グループ 26959">
          <path id="パス_123" data-name="パス 123" d="M175.226,31.428c5.029,0,8.8,0,12.571-5.28,7.04-9.806,7.8-11.063,10.563-11.063,3.014,0,26.9,16.846,26.9,19.608,0,3.523-5.029,3.523-13.577,3.523H46.754c-22.122,0-29.414.248-31.928.5-.758,0-4.526.754-5.28.754s-1.257-.754-2.263-1.76L2.506,31.931C1.5,30.922,1.5,30.674,1.5,30.423a.668.668,0,0,1,.754-.758c1.76,0,9.551,1.009,11.063,1.009,12.317.754,22.88.754,34.694.754H94.022c7.543,0,8.294-3.02,8.294-8.3a83.823,83.823,0,0,0-.751-10.56c-.251-1.509-1.509-8.8-1.509-10.305,0-2.015.751-2.266,2.766-2.266,3.52,0,14.834,2.514,18.857,3.523,2.762.751,6.034,1.257,6.034,4.019,0,1.76-.506,2.263-4.78,6.286-2.011,1.76-2.011,5.531-2.011,7.291,0,8.8,1.763,10.309,8.549,10.309Zm-134,101.825c-7.794,0-7.794.751-7.794,22.877,0,8.3,1,49.276,1,58.583,0,8.294-6.031,12.823-14.08,12.823-6.785,0-6.785-2.766-6.785-5.786,0-5.528,1.006-31.928,1.006-37.962,0-13.829,0-34.7-.754-47.768-.251-2.514-1.257-14.331-1.257-15.589,0-1.006.248-3.52,2.011-3.52,2.008,0,15.337,7.037,18.351,8.042a39.682,39.682,0,0,0,10.811,1.509H182.518c3.272,0,5.28-.251,8.049-3.265,5.78-6.537,6.537-7.04,7.794-7.04s18.1,9.554,18.1,14.583c0,1.757-.5,2.514-5.28,8.294-2.011,2.263-2.011,14.331-2.011,18.1,0,6.789.754,40.228.754,47.771,0,5.528,0,10.808-8.8,17.094-5.277,3.771-12.571,6.034-14.328,6.034-3.02,0-4.278-1.757-7.8-7.794a25.534,25.534,0,0,0-15.086-11.063c-3.517-1.006-4.522-2.762-4.522-3.52,0-1,1.76-1,2.766-1,2.514,0,17.1,1,20.362,1,9.306,0,9.306-3.517,9.306-7.791,0-3.771.251-22.377.251-26.651,0-17.851,0-28.914-.251-32.434-.255-5.528-5.283-5.528-8.549-5.528Zm42.488-30.926c-3.269,0-6.034,0-7.04,3.269-1.006,2.514-3.017,8.294-11.566,8.294-8.3,0-8.3-5.277-8.3-11.059,0-2.514.506-15.337.506-18.1,0-6.034-.255-18.857-.506-24.385,0-.758-.751-4.777-.751-5.535,0-1,0-2.766,2.008-2.766,1.006,0,13.074,5.28,14.331,5.786,5.531,2.514,8.8,2.762,13.829,2.762h55.311c4.274,0,5.783-.5,7.543-2.514,2.766-3.269,5.029-5.528,6.537-5.528,1.76,0,17.6,9.051,17.6,12.571,0,1.509-5.783,6.785-6.286,8.294a38.122,38.122,0,0,0-.754,7.543c0,2.766.5,16.846.5,20.114,0,6.034-6.789,11.314-13.577,11.314-4.274,0-4.777-1.76-5.28-5.28-.754-4.777-4.274-4.777-8.046-4.777Zm11.314,93.025c-3.771,0-5.783,0-7.04,4.274-1.257,4.522-2.514,8.8-10.815,8.8-7.037,0-7.539-3.269-7.539-7.291,0-3.021.754-18.1.754-21.371,0-5.029-.251-10.56-.251-16.091,0-1.509-1.006-10.057-1.006-11.814,0-1.512.251-3.52,2.011-3.52.251,0,8.8,4.02,9.554,4.271a32.172,32.172,0,0,0,11.817,2.011h32.179c4.526,0,6.034-.5,7.794-2.762,4.026-4.777,4.526-5.283,5.531-5.283s17.851,7.8,17.851,12.32c0,1.257-.251,1.509-4.526,6.537a6.287,6.287,0,0,0-2.011,5.029c0,2.263.5,23.634.5,24.891,0,8.046-8.8,11.817-12.823,11.817-4.526,0-5.029-2.011-5.783-7.04-.251-2.263-2.26-4.777-7.288-4.777ZM84.216,67.128c-8.3,0-8.3,3.02-8.3,10.309,0,16.594,0,18.354,7.295,18.354h58.076c7.543,0,7.543-.5,7.543-20.366,0-4.019,0-8.3-7.291-8.3ZM95.53,161.158c-8.3,0-8.3,3.017-8.3,12.571,0,12.571,0,15.086,8.3,15.086h28.411c8.042,0,8.042-3.017,8.042-12.571,0-12.823,0-15.086-8.042-15.086Z" transform="translate(3.529 0)" fill="#fff"/>
          <path id="パス_124" data-name="パス 124" d="M75.425,197.909c-1.509,0-14.08,2.514-15.337,2.766-3.52,1.006-3.52,4.02-3.52,6.785,0,11.063,2.011,66.377,2.011,78.945,0,11.566-8.8,15.843-12.823,15.843-6.286,0-6.286-6.54-6.286-7.8,0-8.294,1.257-49.528,1.257-59.082s0-21.117-.251-25.646c0-2.263-.5-4.526-3.017-4.526-1.257,0-18.854,4.026-19.611,4.278-1.509.248-7.791,4.271-9.551,4.271-3.269,0-8.3-20.614-8.3-22.377,0-1.509,1.505-1.757,2.762-1.757,1.257.248,12.823,2.263,14.335,2.263,4.271,0,5.779,0,19.859-17.6,12.571-16.091,28.663-39.725,34.194-54.3,1.509-3.52,2.259-3.52,2.766-3.52,2.514,0,18.857,11.314,18.857,16.591,0,3.771-2.766,3.771-6.034,3.771-2.266,0-3.771,1.006-6.286,4.023-9.3,11.566-24.388,27.154-36.956,40.476-1.763,1.763-8.3,8.8-8.3,9.806,0,2.015,3.272,2.015,5.531,2.015,10.309,0,21.12-.506,31.177-1.257,3.52-.251,4.019-.758,4.019-2.015,0-2.762-5.277-16.091-5.277-16.842a.921.921,0,0,1,1.006-1.006c1.509,0,24.385,12.32,24.385,29.162,0,6.286-4.774,12.571-9.551,12.571-3.771,0-5.029-4.271-6.286-8.549-.506-2.514-1.509-5.779-2.263-6.537a4.886,4.886,0,0,0-2.514-.751M36.956,232.351c0,2.011-1,2.766-3.517,4.526-3.272,2.011-4.278,4.274-12.571,24.637-1.006,2.266-11.569,27.908-17.1,27.908-.758,0-.758-1-.758-1.257,0-1.509,3.771-14.08,4.278-16.842,2.263-9.3,6.034-26.651,6.034-45.006,0-4.023,0-4.522,1-4.522,2.263,0,9.806,2.762,11.314,3.265,11.314,4.023,11.314,5.531,11.314,7.291m8.3-156.633c.251-1.76.5-2.766,2.011-2.766,2.011,0,22.374,9.554,22.374,13.577,0,2.514-1.505,3.014-5.779,4.271-2.766,1.009-4.274,2.769-17.1,17.6-2.514,3.02-14.579,17.1-14.579,17.855,0,1,.248,1.257,3.517,3.517,2.263,1.76,11.063,8.8,11.063,17.6,0,6.034-4.274,10.811-9.551,10.811-6.792,0-9.306-6.286-11.063-11.063C21.871,135.806,18.1,131.784,12.069,126c-3.269-3.265-4.026-4.274-4.026-5.029s.758-.751,1.257-.751c2.263,0,12.32,3.014,14.335,2.263,4.271-1.512,20.865-36.96,21.619-46.765M92.267,253.974c0,7.291-6.031,10.811-9.3,10.811-7.043,0-7.794-9.051-8.3-14.583-1-7.794-2.762-12.571-5.528-19.611-.5-1.257-1.76-3.52-1.76-4.274a1.173,1.173,0,0,1,1.257-1.257c2.259,0,9.051,4.526,14.08,10.057,2.514,3.017,9.551,11.314,9.551,18.857M211.189,143.855c11.566,7.037,16.091,9.048,20.868,11.059,3.269,1.509,3.517,1.509,3.517,2.011,0,2.263-10.305,4.526-12.065,5.528a28.014,28.014,0,0,0-8.549,6.038,2.915,2.915,0,0,1-2.514,1.006c-.754,0-16.594-10.057-31.177-31.428a210.748,210.748,0,0,1-22.377-44.754c-.751-1.757-1.257-2.762-2.26-2.762-1.257,0-1.76.754-4.274,5.531-28.16,51.791-59.334,75.17-63.863,75.17a.663.663,0,0,1-.751-.751c0-.754,4.522-6.537,5.28-7.291,19.105-23.634,39.974-61.6,44.751-85.231,1.006-5.029,1.006-5.531,3.269-5.531,1.006,0,23.882,2.766,23.882,8.549,0,1.006-2.263,4.774-2.263,5.783,0,1.505,12.826,35.2,48.525,57.074m-31.177,69.387c2.766,0,6.286,0,8.8-2.511,4.278-4.278,6.286-6.286,8.049-6.286,3.265,0,16.339,11.311,16.339,14.077,0,1.509-.754,2.015-3.017,3.52-2.514,1.509-3.771,3.771-4.274,7.04,0,2.766.251,48.023.251,55.311,0,4.526,0,10.811-11.566,10.811-5.783,0-6.282-2.011-7.539-7.791-.758-3.02-3.523-3.02-7.794-3.02H134c-4.274,0-6.537,0-8.046,4.278-1.509,4.522-3.017,9.551-11.314,9.551-7.291,0-7.291-5.28-7.291-7.543,0-8.046.754-47.768.754-56.819,0-4.777,0-11.566-.248-15.337,0-2.263-1.257-12.819-1.257-13.577a1.082,1.082,0,0,1,1.006-1.006c1.509,0,10.808,5.283,12.819,6.034,6.537,3.269,8.549,3.269,14.331,3.269Zm-24.385-36.2c-5.535,0-22.88,0-31.677.5a37.768,37.768,0,0,1-5.283.758c-1,0-1.509-.5-2.259-1.76l-4.78-5.783c-1.006-1.006-1.254-1.257-1.254-1.509,0-.506.5-.754,1.006-.754,1.757,0,9.551,1.006,11.059,1.006,10.56.5,22.625.754,33.939.754,11.063,0,14.335,0,17.1-4.026,5.783-8.545,6.534-9.551,8.3-9.551s3.265,1.257,14.831,11.063c1.76,1.509,5.531,4.774,5.531,5.783,0,3.52-5.029,3.52-13.326,3.52ZM181.018,277.6c5.786,0,7.794-2.263,7.794-7.291V226.065c0-6.286-5.28-6.286-7.794-6.286H133.5c-6.286,0-8.046,2.766-8.046,7.543v42.991c0,7.291,5.28,7.291,8.549,7.291Z" transform="translate(0 192.515)" fill="#fff"/>
          <path id="パス_125" data-name="パス 125" d="M8.592-8.4V0H7.032V-3.6H2.688V0H1.128V-8.4h1.56v3.468H7.032V-8.4Zm2.964,0h1.56V0h-1.56ZM21.828-4.3H23.3V-.948a4.693,4.693,0,0,1-1.512.792A5.8,5.8,0,0,1,20.016.12,4.79,4.79,0,0,1,17.7-.438,4.146,4.146,0,0,1,16.08-1.98a4.244,4.244,0,0,1-.588-2.22,4.244,4.244,0,0,1,.588-2.22,4.135,4.135,0,0,1,1.626-1.542A4.85,4.85,0,0,1,20.04-8.52a5.1,5.1,0,0,1,1.92.348,3.768,3.768,0,0,1,1.452,1.02l-.984.96a3.156,3.156,0,0,0-2.316-.96,3.273,3.273,0,0,0-1.578.372,2.713,2.713,0,0,0-1.08,1.044,3,3,0,0,0-.39,1.536,2.957,2.957,0,0,0,.39,1.512,2.8,2.8,0,0,0,1.08,1.056,3.165,3.165,0,0,0,1.566.384,3.379,3.379,0,0,0,1.728-.432Zm11.7-4.1V0h-1.56V-3.6H27.624V0h-1.56V-8.4h1.56v3.468h4.344V-8.4ZM3.732,19.12a6.408,6.408,0,0,1-1.878-.276A3.919,3.919,0,0,1,.42,18.112L.96,16.9a4.254,4.254,0,0,0,1.266.666,4.6,4.6,0,0,0,1.506.258,2.6,2.6,0,0,0,1.4-.3.909.909,0,0,0,.462-.792.767.767,0,0,0-.258-.594,1.811,1.811,0,0,0-.654-.366q-.4-.132-1.08-.3a12.59,12.59,0,0,1-1.554-.456,2.557,2.557,0,0,1-1.02-.714A1.923,1.923,0,0,1,.6,12.988a2.241,2.241,0,0,1,.378-1.266,2.558,2.558,0,0,1,1.14-.906,4.619,4.619,0,0,1,1.866-.336,6.027,6.027,0,0,1,1.512.192,4.179,4.179,0,0,1,1.284.552l-.492,1.212a4.854,4.854,0,0,0-1.152-.492,4.309,4.309,0,0,0-1.164-.168,2.432,2.432,0,0,0-1.374.312.962.962,0,0,0-.45.828.749.749,0,0,0,.258.588,1.864,1.864,0,0,0,.654.36q.4.132,1.08.3a11.365,11.365,0,0,1,1.536.45,2.63,2.63,0,0,1,1.026.714,1.882,1.882,0,0,1,.426,1.3,2.213,2.213,0,0,1-.378,1.26,2.571,2.571,0,0,1-1.146.9A4.662,4.662,0,0,1,3.732,19.12Zm11.1-2.064h-4.2L9.8,19H8.2l3.78-8.4h1.536L17.3,19H15.672Zm-.516-1.224L12.732,12.16,11.16,15.832ZM19.08,10.6h1.56v7.08h4.392V19H19.08Zm13.4,6.456h-4.2L27.456,19H25.848l3.78-8.4h1.536L34.956,19H33.324Zm-.516-1.224L30.384,12.16l-1.572,3.672ZM42.228,19l-1.716-2.46a3.2,3.2,0,0,1-.324.012h-1.9V19h-1.56V10.6h3.456a4.65,4.65,0,0,1,1.9.36,2.766,2.766,0,0,1,1.242,1.032,2.887,2.887,0,0,1,.432,1.6A2.846,2.846,0,0,1,43.3,15.22a2.749,2.749,0,0,1-1.326,1.02L43.908,19Zm-.036-5.412a1.506,1.506,0,0,0-.528-1.236,2.4,2.4,0,0,0-1.548-.432H38.292v3.348h1.824a2.373,2.373,0,0,0,1.548-.438A1.523,1.523,0,0,0,42.192,13.588Zm7.524,2.448V19h-1.56V16.06l-3.3-5.46h1.668l2.46,4.092L51.468,10.6H53Z" transform="translate(216.574 265.078) rotate(90)" fill="#fff"/>
        </g>
      </g>
    </g>
    <path id="パス_197" data-name="パス 197" d="M36.665-42.5q-.654,4.753-1.632,10.064a96.878,96.878,0,0,1-2.668,10.826,57.044,57.044,0,0,1-4.23,10.775,23.388,23.388,0,0,1-5.3,6.968,9.51,9.51,0,0,1-6.263,2.447,9.838,9.838,0,0,1-6.327-2.327,15.971,15.971,0,0,1-4.59-6.425,23.964,23.964,0,0,1-1.712-9.313,24.205,24.205,0,0,1,2.177-10.14,27.1,27.1,0,0,1,6.05-8.473,28.723,28.723,0,0,1,9.061-5.8,29.376,29.376,0,0,1,11.2-2.115,27.655,27.655,0,0,1,10.382,1.85,23.087,23.087,0,0,1,7.89,5.158,22.743,22.743,0,0,1,5.034,7.715,25.43,25.43,0,0,1,1.75,9.472,24.969,24.969,0,0,1-2.658,11.647,22.075,22.075,0,0,1-7.9,8.5A33.665,33.665,0,0,1,33.87,2.913L29.189-4.46Q31-4.667,32.36-4.919t2.633-.535A22.45,22.45,0,0,0,40.53-7.568a17.322,17.322,0,0,0,4.481-3.485A15.186,15.186,0,0,0,48-15.917a16.99,16.99,0,0,0,1.073-6.17,19.489,19.489,0,0,0-1.1-6.695,14.833,14.833,0,0,0-3.263-5.288,14.624,14.624,0,0,0-5.277-3.47,19.438,19.438,0,0,0-7.146-1.225A20.548,20.548,0,0,0,23.558-37a20.036,20.036,0,0,0-6.393,4.572,20.219,20.219,0,0,0-3.92,6.042,16.14,16.14,0,0,0-1.325,6.12,15.93,15.93,0,0,0,.722,5.177,7.55,7.55,0,0,0,1.825,3.1A3.391,3.391,0,0,0,16.8-10.968a3.6,3.6,0,0,0,2.577-1.322,14.821,14.821,0,0,0,2.49-4.057,59.537,59.537,0,0,0,2.514-6.917,82.989,82.989,0,0,0,2.391-9.511,99.175,99.175,0,0,0,1.412-9.951Zm75.11-5.62q-.062,1.282-.148,2.816t-.086,3.4v12.261a69.729,69.729,0,0,1-.473,8.689,34.487,34.487,0,0,1-1.4,6.489,23.206,23.206,0,0,1-2.257,4.926,26.711,26.711,0,0,1-3.091,4.051,24.374,24.374,0,0,1-4.675,4.018,37.664,37.664,0,0,1-5.357,2.987A51.451,51.451,0,0,1,89.3,3.5L82.8-3.351a37.346,37.346,0,0,0,8.375-2.944,23.135,23.135,0,0,0,6.56-4.879,19.611,19.611,0,0,0,2.6-3.584,15.885,15.885,0,0,0,1.533-4,31.414,31.414,0,0,0,.737-4.969q.21-2.784.21-6.43V-41.9q0-1.869-.11-3.4t-.283-2.816Zm-28.734.53q-.062,1.07-.148,2.168t-.086,2.567v20.944q0,1.178.086,2.736t.148,2.662H74.025q.076-.862.186-2.455t.11-2.992v-20.9q0-.854-.062-2.26t-.186-2.475ZM183.2-41.947q-.489.587-1.221,1.55T180.8-38.772a62.221,62.221,0,0,1-3.787,5.579,73.915,73.915,0,0,1-5.214,6.2,40.276,40.276,0,0,1-5.918,5.247l-6.441-5.15a30.958,30.958,0,0,0,3.669-2.647,39.422,39.422,0,0,0,3.317-3.107,40.137,40.137,0,0,0,2.694-3.123,17.843,17.843,0,0,0,1.751-2.662H138.555q-1.938,0-3.656.11t-3.919.33v-8.635q1.813.234,3.725.431a37.6,37.6,0,0,0,3.849.2h33.419q.89,0,2.139-.055t2.433-.19a11.611,11.611,0,0,0,1.735-.294ZM157.927-33.61q0,4.585-.186,8.869a49.531,49.531,0,0,1-1.022,8.2,29.587,29.587,0,0,1-2.668,7.459A26.49,26.49,0,0,1,149-2.381a35.817,35.817,0,0,1-8.293,5.866l-7.229-5.9a26.32,26.32,0,0,0,3.162-1.323,21.07,21.07,0,0,0,3.361-2.091,22.626,22.626,0,0,0,4.806-4.357,17.49,17.49,0,0,0,2.808-4.965,26.067,26.067,0,0,0,1.353-5.868,59.73,59.73,0,0,0,.379-7q0-1.435-.072-2.755a23.485,23.485,0,0,0-.341-2.831ZM216.558-1.385a17.334,17.334,0,0,0,.362-2.1,20.91,20.91,0,0,0,.141-2.449V-42.079a25.111,25.111,0,0,0-.232-3.654q-.232-1.552-.245-1.689h9.2q-.014.137-.214,1.712a29.6,29.6,0,0,0-.2,3.679v32.4a30.79,30.79,0,0,0,5.278-3.027A42.639,42.639,0,0,0,236-17.135a37.944,37.944,0,0,0,4.691-5.565l4.757,6.835A48.718,48.718,0,0,1,239.289-9.3a74.73,74.73,0,0,1-7.474,5.907,65.445,65.445,0,0,1-7.4,4.468,12.649,12.649,0,0,0-1.613,1.01q-.62.472-1.062.8Zm-28.715-.9a24.8,24.8,0,0,0,6.7-6.882,33.339,33.339,0,0,0,3.852-7.967,24.862,24.862,0,0,0,1.037-5.007q.355-3,.534-6.443t.21-6.843q.031-3.4.031-6.209a27.857,27.857,0,0,0-.159-3.221,22.567,22.567,0,0,0-.427-2.483h9.113q-.014.123-.117,1t-.207,2.1q-.1,1.228-.1,2.512,0,2.756-.062,6.367t-.255,7.4q-.193,3.789-.541,7.175a36.68,36.68,0,0,1-.981,5.728A35.782,35.782,0,0,1,202.221-5.3,36.346,36.346,0,0,1,195.4,2.728Z" transform="translate(-126 3570.999)" fill="#fff"/>
  </g>
</svg>
