<svg xmlns="http://www.w3.org/2000/svg" xmlns:xlink="http://www.w3.org/1999/xlink" width="105" height="105" viewBox="0 0 105 105">
  <defs>
    <clipPath id="clip-path">
      <rect id="長方形_22386" data-name="長方形 22386" width="105" height="105" transform="translate(-10231 -5088)" fill="#fff" stroke="#707070" stroke-width="1"/>
    </clipPath>
    <clipPath id="clip-path-2">
      <rect id="長方形_22385" data-name="長方形 22385" width="105" height="105" fill="#fff" stroke="#707070" stroke-width="1"/>
    </clipPath>
    <clipPath id="clip-path-3">
      <rect id="長方形_22384" data-name="長方形 22384" width="105" height="99.956" fill="#282828"/>
    </clipPath>
  </defs>
  <g id="マスクグループ_47" data-name="マスクグループ 47" transform="translate(10231 5088)" clip-path="url(#clip-path)">
    <g id="マスクグループ_46" data-name="マスクグループ 46" transform="translate(-10231 -5088)" clip-path="url(#clip-path-2)">
      <g id="グループ_26826" data-name="グループ 26826" transform="translate(0 2.522)">
        <g id="グループ_26825" data-name="グループ 26825" clip-path="url(#clip-path-3)">
          <path id="パス_209" data-name="パス 209" d="M103.957,387.475c-1.922-2.653-6.46-4.047-11.418-1.58-.907.452-1.989,1.012-3.194,1.637-4.316,2.238-10.618,5.494-15.79,7.163a7.823,7.823,0,0,0-4.485-2.734c-1.977-.216-5.657-.383-9.552-.56-4.6-.208-11.545-.523-12.71-.9a22.11,22.11,0,0,1-3.447-2.206c-2.561-1.821-5.464-3.885-8.141-4.491-4.186-.952-12.757.259-16.152,1.008a4.181,4.181,0,0,0-4.889-2.478L3.195,385.059a4.221,4.221,0,0,0-3.077,5.076l9.349,38.643A4.213,4.213,0,0,0,13.55,432a4.227,4.227,0,0,0,1.021-.125l10.98-2.724a4.219,4.219,0,0,0,3.079-5.075l-.525-2.169c2.024.7,4.147,1.445,6.252,2.182,3.556,1.246,7.061,2.473,9.95,3.449a23.372,23.372,0,0,0,6.785.767c5.878,0,13.254-1.1,16.677-3.1,10.93-6.385,29.362-24,34.957-29.665,3.006-3.043,2.605-6.16,1.229-8.062m-4.217,5.111c-5.495,5.565-23.549,22.834-34.088,28.991-3.907,2.282-16.282,3.235-20,1.981-2.877-.972-6.365-2.194-9.906-3.434-2.839-.995-5.711-2-8.331-2.9a2.089,2.089,0,0,0-.466-.1l-6.834-28.247c3.61-.795,11.15-1.66,14.176-.979,1.856.42,4.505,2.305,6.635,3.818a20.641,20.641,0,0,0,4.536,2.762c1.561.528,6.28.774,13.865,1.119,3.826.173,7.441.337,9.262.536a4.329,4.329,0,0,1,1.869,1.408c.011.068.015.137.033.2a2.088,2.088,0,0,0,.623,1.014,2.133,2.133,0,0,1,.075.289c.164,1.3-1.449,2.366-2.831,3.03-4.356,2.09-11.048,2.36-17.52,2.622-1.453.058-2.885.117-4.272.195a2.1,2.1,0,0,0,.116,4.2c.04,0,.08,0,.12,0,1.365-.077,2.776-.134,4.206-.192,6.9-.279,14.03-.568,19.167-3.032,4.927-2.365,5.406-5.5,5.18-7.329a121.047,121.047,0,0,0,15.922-7.277c1.18-.612,2.24-1.163,3.13-1.6,2.979-1.482,5.428-.708,6.146.282.662.916-.227,2.052-.815,2.648" transform="translate(0 -332.043)" fill="#282828"/>
          <g id="グループ_26827" data-name="グループ 26827" transform="translate(7.904)">
            <path id="パス_208" data-name="パス 208" d="M347.977,77.392h-2.809a1.272,1.272,0,0,0,0,2.545H348.7v2.2h-3.536a1.272,1.272,0,0,0,0,2.545H348.7v3.446a1.273,1.273,0,0,0,2.545,0V84.681h3.537a1.272,1.272,0,1,0,0-2.545H351.25v-2.2h3.537a1.272,1.272,0,1,0,0-2.545h-2.8l4.043-3.875a1.273,1.273,0,1,0-1.761-1.838l-4.291,4.112-4.234-4.106a1.273,1.273,0,0,0-1.772,1.827Z" transform="translate(-339.493 -54.885)" fill="#282828"/>
            <path id="パス_210" data-name="パス 210" d="M2.425-3.95q2.4-2,3.825-3.337a15.472,15.472,0,0,0,2.375-2.787,5.191,5.191,0,0,0,.95-2.85,3.047,3.047,0,0,0-.6-2,2.264,2.264,0,0,0-1.85-.725,2.33,2.33,0,0,0-1.925.838,3.65,3.65,0,0,0-.7,2.287H1.1a6.168,6.168,0,0,1,1.788-4.55,6.092,6.092,0,0,1,4.288-1.55,5.95,5.95,0,0,1,4.375,1.513,5.367,5.367,0,0,1,1.525,3.988A7.209,7.209,0,0,1,12.025-9.4a14.742,14.742,0,0,1-2.4,3.087Q8.275-5,6.1-3.15h7.375v2.9H1.125v-2.6Zm16.725.275L16.225,3.35h-2.25L15.6-3.675ZM20.525-9.35a12.543,12.543,0,0,1,1.563-6.775q1.562-2.45,5.188-2.45t5.188,2.45A12.543,12.543,0,0,1,34.025-9.35a12.732,12.732,0,0,1-1.562,6.825Q30.9-.05,27.275-.05T22.088-2.525A12.732,12.732,0,0,1,20.525-9.35Zm10.05,0a17.2,17.2,0,0,0-.237-3.112,4.194,4.194,0,0,0-.95-2.062,2.682,2.682,0,0,0-2.112-.8,2.682,2.682,0,0,0-2.113.8,4.194,4.194,0,0,0-.95,2.063,17.2,17.2,0,0,0-.238,3.112A18.949,18.949,0,0,0,24.2-6.162a4,4,0,0,0,.95,2.075,2.746,2.746,0,0,0,2.125.788A2.746,2.746,0,0,0,29.4-4.088a4,4,0,0,0,.95-2.075A18.949,18.949,0,0,0,30.575-9.35Zm5.35,0a12.543,12.543,0,0,1,1.563-6.775q1.563-2.45,5.188-2.45t5.188,2.45A12.543,12.543,0,0,1,49.425-9.35a12.732,12.732,0,0,1-1.562,6.825Q46.3-.05,42.675-.05T37.487-2.525A12.732,12.732,0,0,1,35.925-9.35Zm10.05,0a17.2,17.2,0,0,0-.237-3.112,4.194,4.194,0,0,0-.95-2.062,2.682,2.682,0,0,0-2.112-.8,2.682,2.682,0,0,0-2.112.8,4.194,4.194,0,0,0-.95,2.063,17.2,17.2,0,0,0-.237,3.112A18.949,18.949,0,0,0,39.6-6.162a4,4,0,0,0,.95,2.075,2.746,2.746,0,0,0,2.125.788A2.746,2.746,0,0,0,44.8-4.088a4,4,0,0,0,.95-2.075A18.949,18.949,0,0,0,45.975-9.35Zm5.35,0a12.543,12.543,0,0,1,1.563-6.775q1.563-2.45,5.188-2.45t5.188,2.45A12.543,12.543,0,0,1,64.825-9.35a12.732,12.732,0,0,1-1.562,6.825Q61.7-.05,58.075-.05T52.888-2.525A12.732,12.732,0,0,1,51.325-9.35Zm10.05,0a17.2,17.2,0,0,0-.237-3.112,4.194,4.194,0,0,0-.95-2.062,2.682,2.682,0,0,0-2.112-.8,2.682,2.682,0,0,0-2.112.8,4.194,4.194,0,0,0-.95,2.063,17.2,17.2,0,0,0-.237,3.112A18.949,18.949,0,0,0,55-6.162a4,4,0,0,0,.95,2.075,2.746,2.746,0,0,0,2.125.788A2.746,2.746,0,0,0,60.2-4.088a4,4,0,0,0,.95-2.075A18.949,18.949,0,0,0,61.375-9.35Z" transform="translate(20 34.478)" fill="#282828"/>
          </g>
        </g>
      </g>
    </g>
  </g>
</svg>
