<svg xmlns="http://www.w3.org/2000/svg" xmlns:xlink="http://www.w3.org/1999/xlink" width="105" height="105" viewBox="0 0 105 105">
  <defs>
    <clipPath id="clip-path">
      <rect id="長方形_22357" data-name="長方形 22357" width="105" height="105" fill="#fff" stroke="#707070" stroke-width="1"/>
    </clipPath>
    <clipPath id="clip-path-2">
      <rect id="長方形_22356" data-name="長方形 22356" width="102.803" height="46.146" fill="#282828"/>
    </clipPath>
  </defs>
  <g id="マスクグループ_33" data-name="マスクグループ 33" clip-path="url(#clip-path)">
    <g id="グループ_26424" data-name="グループ 26424" transform="translate(0 34.06)">
      <g id="グループ_26423" data-name="グループ 26423">
        <g id="グループ_26422" data-name="グループ 26422" transform="translate(1.189 11.973)">
          <g id="グループ_26421" data-name="グループ 26421" transform="translate(0 0)" clip-path="url(#clip-path-2)">
            <path id="パス_207" data-name="パス 207" d="M26.058,45.81a7.953,7.953,0,1,0,7.952,7.952,7.953,7.953,0,0,0-7.952-7.952m0,12.631a4.678,4.678,0,1,1,4.678-4.678,4.678,4.678,0,0,1-4.678,4.678" transform="translate(-6.154 -15.57)" fill="#282828"/>
            <path id="パス_208" data-name="パス 208" d="M124.513,45.81a7.953,7.953,0,1,0,7.952,7.952,7.953,7.953,0,0,0-7.952-7.952m0,12.631a4.678,4.678,0,1,1,4.678-4.678,4.678,4.678,0,0,1-4.678,4.678" transform="translate(-39.617 -15.57)" fill="#282828"/>
            <path id="パス_209" data-name="パス 209" d="M102.61,27.065a.937.937,0,0,0-.308-.677l-.661-.6.224-7.183a3.76,3.76,0,0,0-.115-1.044l-.8-3.144L98.725,4.4A5.614,5.614,0,0,0,93.244,0H40.158a14.969,14.969,0,0,0-9.139,3.114L18.065,13.1l-11.6,4.34a3.738,3.738,0,0,0-1.533,1.073L1.888,22.076A3.748,3.748,0,0,0,1.1,23.625L.106,27.7A3.748,3.748,0,0,0,.022,28.99l.864,7.867L.355,38.414A.936.936,0,0,0,1.2,39.651l9.516.412A9.359,9.359,0,1,1,29.071,36.4a9.5,9.5,0,0,1-.018,3.663H75.708a9.493,9.493,0,0,1-.021-3.652A9.352,9.352,0,0,1,94.141,39.43l7.809-.692a.936.936,0,0,0,.853-.949ZM13.964,19.095,10.482,23.77a3.742,3.742,0,0,1-2.513,1.475l-4.554.6a.375.375,0,0,1-.394-.516l1.01-2.4a1.862,1.862,0,0,1,.374-.57l1.539-1.6a3.74,3.74,0,0,1,1.95-1.076L13.588,18.5a.374.374,0,0,1,.376.59m33.253-3.008H29.973l.048-.189a.937.937,0,0,0-.02-.525l-.634-1.9a.935.935,0,0,0-.887-.638h-.432a3.745,3.745,0,0,0-2.648,1.1l-.843.845a.933.933,0,0,1-.015-1.4l7.818-7a11.228,11.228,0,0,1,7.491-2.864H50.359Zm26.58,0H54.4L53.964,3.514H74.037Zm2.049-.073.24-12.5H93.949a1.872,1.872,0,0,1,1.837,1.514l1.477,7.584a1.872,1.872,0,0,1-1.725,2.226Zm24.527,7.858a.374.374,0,0,1-.374.37H98.3a1.874,1.874,0,0,1-1.264-.491l-.854-.782a1.871,1.871,0,0,1-.605-1.466l.082-1.779a.938.938,0,0,1,.867-.89l3.506-.255a.374.374,0,0,1,.4.378Z" transform="translate(0 0)" fill="#282828"/>
          </g>
        </g>
      </g>
    </g>
    <path id="パス_215" data-name="パス 215" d="M11.856-3.408H4.872L3.672,0H.816L6.792-16.7H9.96L15.936,0h-2.88ZM11.088-5.64,8.376-13.392,5.64-5.64Zm9.456,3.432h5.64V0H17.808V-16.68h2.736Zm18.864-9.5a5.036,5.036,0,0,1-.6,2.4,4.5,4.5,0,0,1-1.92,1.836,7.126,7.126,0,0,1-3.384.708H30.48V0H27.744V-16.68H33.5a7.272,7.272,0,0,1,3.252.66,4.589,4.589,0,0,1,1.992,1.788A4.9,4.9,0,0,1,39.408-11.712ZM33.5-9a3.335,3.335,0,0,0,2.328-.708,2.589,2.589,0,0,0,.768-2q0-2.736-3.1-2.736H30.48V-9Zm21.12-7.68V0H51.888V-7.3H44.04V0H41.3V-16.68H44.04v7.152h7.848V-16.68ZM67.56-3.408H60.576L59.376,0H56.52L62.5-16.7h3.168L71.64,0H68.76ZM66.792-5.64,64.08-13.392,61.344-5.64ZM82.176,0l-3.84-6.672H76.248V0H73.512V-16.68h5.76a7.162,7.162,0,0,1,3.252.672,4.662,4.662,0,0,1,1.992,1.8,4.9,4.9,0,0,1,.66,2.52,4.994,4.994,0,0,1-.948,2.964,4.811,4.811,0,0,1-2.916,1.812L85.44,0ZM76.248-8.856h3.024a3.173,3.173,0,0,0,2.316-.768,2.765,2.765,0,0,0,.78-2.064,2.668,2.668,0,0,0-.768-2.028,3.263,3.263,0,0,0-2.328-.732H76.248Zm17.16-7.824a10.159,10.159,0,0,1,4.668,1.02,7.3,7.3,0,0,1,3.1,2.928,8.807,8.807,0,0,1,1.092,4.452,8.609,8.609,0,0,1-1.092,4.416A7.212,7.212,0,0,1,98.076-1a10.364,10.364,0,0,1-4.668,1H87.96V-16.68Zm0,14.448A6.02,6.02,0,0,0,97.9-3.816a6.091,6.091,0,0,0,1.56-4.464,6.3,6.3,0,0,0-1.56-4.536,5.918,5.918,0,0,0-4.488-1.632H90.7V-2.232Z" transform="translate(1 37.822)" fill="#282828"/>
  </g>
</svg>
