<svg xmlns="http://www.w3.org/2000/svg" xmlns:xlink="http://www.w3.org/1999/xlink" width="105" height="105" viewBox="0 0 105 105">
  <defs>
    <clipPath id="clip-path">
      <rect id="長方形_22355" data-name="長方形 22355" width="105" height="105" fill="#fff" stroke="#707070" stroke-width="1"/>
    </clipPath>
  </defs>
  <g id="マスクグループ_32" data-name="マスクグループ 32" clip-path="url(#clip-path)">
    <g id="グループ_26420" data-name="グループ 26420" transform="translate(-29.603 11.212)">
      <g id="グループ_26419" data-name="グループ 26419" transform="translate(29.603 20.869)">
        <g id="グループ_26418" data-name="グループ 26418" transform="translate(0)">
          <g id="グループ_26417" data-name="グループ 26417" transform="translate(0)">
            <g id="グループ_26416" data-name="グループ 26416" transform="translate(0)">
              <path id="パス_201" data-name="パス 201" d="M35.024,5H6.446A6.465,6.465,0,0,0,0,11.446V71.473a6.465,6.465,0,0,0,6.446,6.446H35.024a6.465,6.465,0,0,0,6.446-6.446V11.446A6.465,6.465,0,0,0,35.024,5m4.257,66.473a4.256,4.256,0,0,1-4.256,4.256H6.446A4.256,4.256,0,0,1,2.19,71.473V11.446A4.256,4.256,0,0,1,6.446,7.19H9.971a.621.621,0,0,1,.621.621h0A2.518,2.518,0,0,0,13.1,10.322H28.368a2.518,2.518,0,0,0,2.511-2.511A.621.621,0,0,1,31.5,7.19h3.525a4.256,4.256,0,0,1,4.256,4.256Z" transform="translate(0 -5)" fill="#282828"/>
              <path id="前面オブジェクトで型抜き_3" data-name="前面オブジェクトで型抜き 3" d="M10.5,31.966h0c-.026-.04-2.671-4-5.249-8.557C2.855,19.173,0,13.5,0,10.5a10.5,10.5,0,1,1,21,0c0,3-2.855,8.673-5.25,12.908-2.579,4.559-5.223,8.517-5.25,8.557ZM10.5,5A5.5,5.5,0,1,0,16,10.5,5.506,5.506,0,0,0,10.5,5Z" transform="translate(10.436 20.477)" fill="#282828"/>
            </g>
          </g>
        </g>
      </g>
    </g>
    <g id="楕円形_112" data-name="楕円形 112" transform="translate(27)" fill="#282828" stroke="#fff" stroke-width="3">
      <circle cx="39" cy="39" r="39" stroke="none"/>
      <circle cx="39" cy="39" r="37.5" fill="none"/>
    </g>
    <g id="タクシーのアイコン" transform="translate(45.833 18.835)">
      <path id="パス_203" data-name="パス 203" d="M37.685,127.214l-2.458-7.47c-.5-2.672-3.137-4.6-6.3-4.6H11.409c-3.165,0-5.8,1.929-6.3,4.6l-2.465,7.474A4.643,4.643,0,0,0,0,131.391v5.9a4.647,4.647,0,0,0,4.633,4.634H5.96v2.285A2.191,2.191,0,0,0,8.15,146.4H9.985a2.19,2.19,0,0,0,2.191-2.191v-2.285H28.159v2.285a2.19,2.19,0,0,0,2.191,2.191h1.835a2.19,2.19,0,0,0,2.191-2.191v-2.285H35.7a4.647,4.647,0,0,0,4.634-4.634v-5.9A4.643,4.643,0,0,0,37.685,127.214Zm-21.095,9.835v-3.7h7.153v3.7Zm-5.836-2.656A2.656,2.656,0,1,1,8.1,131.737,2.655,2.655,0,0,1,10.755,134.393ZM8.7,120.614l.035-.162c.15-.887,1.348-1.609,2.67-1.609H28.925c1.322,0,2.52.722,2.67,1.609l2.152,6.305H6.589Zm23.532,11.123a2.656,2.656,0,1,1-2.656,2.656A2.656,2.656,0,0,1,32.235,131.738Z" transform="translate(-0.265 -104.074)" fill="#fff"/>
      <path id="パス_204" data-name="パス 204" d="M90.873,7.426H92.52V1.294h2.2V0H88.668V1.294h2.2Z" transform="translate(-82.681 -1)" fill="#fff"/>
      <path id="パス_205" data-name="パス 205" d="M173.057,6.112h3l.5,1.314h1.719L175.19,0H173.9l-3.07,7.426h1.719Zm.462-1.22,1.067-2.7,1.031,2.7Z" transform="translate(-158.37 -1)" fill="#fff"/>
      <path id="パス_206" data-name="パス 206" d="M286.774,7.426,288.4,4.84l1.636,2.586h1.884l-2.631-3.807L291.74,0h-1.861L288.4,2.4,286.928,0h-1.873l2.453,3.619-2.619,3.807Z" transform="translate(-263.446 -1)" fill="#fff"/>
      <rect id="長方形_22354" data-name="長方形 22354" width="1.648" height="7.426" transform="translate(30.012 -1)" fill="#fff"/>
    </g>
  </g>
</svg>
