<svg xmlns="http://www.w3.org/2000/svg" xmlns:xlink="http://www.w3.org/1999/xlink" width="105" height="105" viewBox="0 0 105 105">
  <defs>
    <clipPath id="clip-path">
      <rect id="長方形_22352" data-name="長方形 22352" width="105" height="105" transform="translate(314.611 2184.611)" fill="#fff" stroke="#707070" stroke-width="1"/>
    </clipPath>
  </defs>
  <g id="マスクグループ_31" data-name="マスクグループ 31" transform="translate(-314.611 -2184.611)" clip-path="url(#clip-path)">
    <g id="グループ_26415" data-name="グループ 26415" transform="translate(314.611 2201.85)">
      <g id="グループ_26414" data-name="グループ 26414">
        <path id="パス_177" data-name="パス 177" d="M100.923,0H4.078A4.192,4.192,0,0,0,0,4.274V66.249a4.192,4.192,0,0,0,4.078,4.274h96.845A4.192,4.192,0,0,0,105,66.249V4.274A4.192,4.192,0,0,0,100.923,0M15.46,67.18H7.1a1.6,1.6,0,0,1,0-3.206H15.46a1.6,1.6,0,0,1,0,3.206m14.272,0H21.374a1.6,1.6,0,0,1,0-3.206h8.357a1.6,1.6,0,0,1,0,3.206M44,67.18H35.646a1.6,1.6,0,0,1,0-3.206H44a1.6,1.6,0,0,1,0,3.206m42.036.778a2.353,2.353,0,1,1,2.243-2.351,2.3,2.3,0,0,1-2.243,2.351m8.155,0a2.353,2.353,0,1,1,2.243-2.351,2.3,2.3,0,0,1-2.243,2.351m5.1-7.658H5.709V5.984H99.292Z" fill="#282828"/>
        <path id="前面オブジェクトで型抜き_3" data-name="前面オブジェクトで型抜き 3" d="M-7642.5,51.967h0c-.108-.162-2.685-4.023-5.25-8.558-2.4-4.235-5.25-9.913-5.25-12.908A10.512,10.512,0,0,1-7642.5,20,10.512,10.512,0,0,1-7632,30.5c0,3-2.855,8.673-5.25,12.908-2.564,4.535-5.141,8.4-5.249,8.558Zm0-26.968a5.507,5.507,0,0,0-5.5,5.5,5.507,5.507,0,0,0,5.5,5.5,5.507,5.507,0,0,0,5.5-5.5A5.507,5.507,0,0,0-7642.5,25Z" transform="translate(7695 -2.238)" fill="#282828"/>
      </g>
    </g>
  </g>
</svg>
