<svg xmlns="http://www.w3.org/2000/svg" xmlns:xlink="http://www.w3.org/1999/xlink" width="105" height="105" viewBox="0 0 105 105">
  <defs>
    <clipPath id="clip-path">
      <rect id="長方形_22359" data-name="長方形 22359" width="105" height="105" fill="#fff" stroke="#707070" stroke-width="1"/>
    </clipPath>
    <clipPath id="clip-path-2">
      <rect id="長方形_22358" data-name="長方形 22358" width="105" height="99.956" fill="#282828"/>
    </clipPath>
  </defs>
  <g id="マスクグループ_34" data-name="マスクグループ 34" clip-path="url(#clip-path)">
    <g id="グループ_26426" data-name="グループ 26426" transform="translate(0 2.522)">
      <g id="グループ_26425" data-name="グループ 26425" clip-path="url(#clip-path-2)">
        <path id="パス_210" data-name="パス 210" d="M350.83,81.336H346.2a2.1,2.1,0,0,0,0,4.2h5.836v3.63H346.2a2.1,2.1,0,0,0,0,4.2h5.836v5.687a2.1,2.1,0,1,0,4.2,0V93.366h5.837a2.1,2.1,0,0,0,0-4.2h-5.837v-3.63h5.837a2.1,2.1,0,0,0,0-4.2h-4.614l6.673-6.394a2.1,2.1,0,1,0-2.906-3.033L354.14,78.7l-6.988-6.777a2.1,2.1,0,0,0-2.924,3.015Z" transform="translate(-298.493 -61.965)" fill="#282828"/>
        <path id="パス_211" data-name="パス 211" d="M103.957,387.475c-1.922-2.653-6.46-4.047-11.418-1.58-.907.452-1.989,1.012-3.194,1.637-4.316,2.238-10.618,5.494-15.79,7.163a7.823,7.823,0,0,0-4.485-2.734c-1.977-.216-5.657-.383-9.552-.56-4.6-.208-11.545-.523-12.71-.9a22.11,22.11,0,0,1-3.447-2.206c-2.561-1.821-5.464-3.885-8.141-4.491-4.186-.952-12.757.259-16.152,1.008a4.181,4.181,0,0,0-4.889-2.478L3.195,385.059a4.221,4.221,0,0,0-3.077,5.076l9.349,38.643A4.213,4.213,0,0,0,13.55,432a4.227,4.227,0,0,0,1.021-.125l10.98-2.724a4.219,4.219,0,0,0,3.079-5.075l-.525-2.169c2.024.7,4.147,1.445,6.252,2.182,3.556,1.246,7.061,2.473,9.95,3.449a23.372,23.372,0,0,0,6.785.767c5.878,0,13.254-1.1,16.677-3.1,10.93-6.385,29.362-24,34.957-29.665,3.006-3.043,2.605-6.16,1.229-8.062m-4.217,5.111c-5.495,5.565-23.549,22.834-34.088,28.991-3.907,2.282-16.282,3.235-20,1.981-2.877-.972-6.365-2.194-9.906-3.434-2.839-.995-5.711-2-8.331-2.9a2.089,2.089,0,0,0-.466-.1l-6.834-28.247c3.61-.795,11.15-1.66,14.176-.979,1.856.42,4.505,2.305,6.635,3.818a20.641,20.641,0,0,0,4.536,2.762c1.561.528,6.28.774,13.865,1.119,3.826.173,7.441.337,9.262.536a4.329,4.329,0,0,1,1.869,1.408c.011.068.015.137.033.2a2.088,2.088,0,0,0,.623,1.014,2.133,2.133,0,0,1,.075.289c.164,1.3-1.449,2.366-2.831,3.03-4.356,2.09-11.048,2.36-17.52,2.622-1.453.058-2.885.117-4.272.195a2.1,2.1,0,0,0,.116,4.2c.04,0,.08,0,.12,0,1.365-.077,2.776-.134,4.206-.192,6.9-.279,14.03-.568,19.167-3.032,4.927-2.365,5.406-5.5,5.18-7.329a121.047,121.047,0,0,0,15.922-7.277c1.18-.612,2.24-1.163,3.13-1.6,2.979-1.482,5.428-.708,6.146.282.662.916-.227,2.052-.815,2.648" transform="translate(0 -332.043)" fill="#282828"/>
        <path id="パス_212" data-name="パス 212" d="M265.459,48.549a24.276,24.276,0,1,0-24-24.274,24.164,24.164,0,0,0,24,24.274m0-44.349a20.077,20.077,0,1,1-19.8,20.075A19.961,19.961,0,0,1,265.459,4.2" transform="translate(-209.771)" fill="#282828"/>
      </g>
    </g>
  </g>
</svg>
