<svg xmlns="http://www.w3.org/2000/svg" xmlns:xlink="http://www.w3.org/1999/xlink" width="105" height="105" viewBox="0 0 105 105">
  <defs>
    <clipPath id="clip-path">
      <rect id="長方形_22354" data-name="長方形 22354" width="105" height="105" transform="translate(314.611 2184.611)" fill="#fff" stroke="#707070" stroke-width="1"/>
    </clipPath>
  </defs>
  <g id="マスクグループ_32" data-name="マスクグループ 32" transform="translate(-314.611 -2184.611)" clip-path="url(#clip-path)">
    <g id="グループ_26417" data-name="グループ 26417" transform="translate(314.008 2185.743)">
      <g id="グループ_26416" data-name="グループ 26416" transform="translate(0)">
        <path id="パス_179" data-name="パス 179" d="M504.04,24.414a4.355,4.355,0,0,1-4.342,4.342h-4.549a4.355,4.355,0,0,1-4.342-4.342v-10.2a5.707,5.707,0,0,1,4.235-5.3l4.763-1.079a3.323,3.323,0,0,1,4.235,3.383Z" transform="translate(-399.356 -6.293)" fill="#282828"/>
        <path id="パス_180" data-name="パス 180" d="M430.742,141.061a6.2,6.2,0,0,0-5.022-2.562h-5.848a6.2,6.2,0,0,0-5.923,4.36L400.3,186.705c.107.06.214.119.321.18a26.574,26.574,0,0,1,12.584,15.723,6.226,6.226,0,0,0,.394-.936l18.012-55.042a6.2,6.2,0,0,0-.873-5.57" transform="translate(-325.717 -112.693)" fill="#282828"/>
        <path id="パス_181" data-name="パス 181" d="M200.161,395.77a30.873,30.873,0,0,0-7.727-3.142L163.6,389.861q-.3-.029-.594-.029a6.2,6.2,0,0,0-5.878,8.181l2.764,8.212a6.2,6.2,0,0,0,5.879,4.225H209.58a6.188,6.188,0,0,0,1.2-.121,21.421,21.421,0,0,0-10.618-14.558m-12.745,7.977a1.452,1.452,0,0,1-1.447,1.447h-9.511a5.333,5.333,0,0,1-2.628-.838l-3.222-2.288c-.649-.461-.529-.838.267-.838h15.094a1.452,1.452,0,0,1,1.447,1.447Z" transform="translate(-127.589 -317.196)" fill="#282828"/>
        <rect id="長方形_22353" data-name="長方形 22353" width="47.917" height="6.492" transform="translate(38.365 96.244)" fill="#282828"/>
        <path id="パス_182" data-name="パス 182" d="M17.588,83.053a9.291,9.291,0,0,1-.764-7.117,9.41,9.41,0,0,1,6.166-6.277V63.65a4.549,4.549,0,1,0-9.1,0v9.681H2.372v7.444h11.52v9.681a4.549,4.549,0,1,0,9.1,0V87.491a9.285,9.285,0,0,1-5.4-4.438" transform="translate(-1.93 -48.089)" fill="#282828"/>
        <path id="パス_183" data-name="パス 183" d="M75.479,134.523a9.567,9.567,0,0,0-4.585-.242,6.57,6.57,0,0,0-.781.086l-22.88,3.975-22.56-3.681a5.01,5.01,0,0,0-2.219,9.751L45.86,151.29a4.967,4.967,0,0,0,2.215.126l.345-.06L61,149.171l-4.827,15.944L30.4,162.721l-.6-.057a6.788,6.788,0,0,0-6.183,2.873L.84,198.121A4.661,4.661,0,0,0,8,204.043l24.653-25.331,31.645,2.94a7.86,7.86,0,0,0,7.984-4.807,9.614,9.614,0,0,0,1.2-2.545L81.9,146.511a9.615,9.615,0,0,0-6.416-11.988" transform="translate(0 -109.121)" fill="#282828"/>
        <path id="パス_184" data-name="パス 184" d="M345.523,10.916A10.916,10.916,0,1,1,334.607,0a10.916,10.916,0,0,1,10.916,10.916" transform="translate(-263.379)" fill="#282828"/>
      </g>
    </g>
  </g>
</svg>
