<svg xmlns="http://www.w3.org/2000/svg" xmlns:xlink="http://www.w3.org/1999/xlink" width="105" height="105" viewBox="0 0 105 105">
  <defs>
    <clipPath id="clip-path">
      <rect id="長方形_22357" data-name="長方形 22357" width="105" height="105" transform="translate(314.611 2184.611)" fill="#fff" stroke="#707070" stroke-width="1"/>
    </clipPath>
    <clipPath id="clip-path-2">
      <rect id="長方形_22356" data-name="長方形 22356" width="100.535" height="82.772" fill="#282828"/>
    </clipPath>
  </defs>
  <g id="マスクグループ_34" data-name="マスクグループ 34" transform="translate(-314.611 -2184.611)" clip-path="url(#clip-path)">
    <g id="グループ_26422" data-name="グループ 26422" transform="translate(316.611 2195.725)">
      <g id="グループ_26421" data-name="グループ 26421" clip-path="url(#clip-path-2)">
        <path id="パス_192" data-name="パス 192" d="M135.409,72.469a6.7,6.7,0,0,0-6.468,4.982h2.467a4.349,4.349,0,0,1,8,0h2.467a6.7,6.7,0,0,0-6.468-4.982" transform="translate(-106.199 -59.687)" fill="#282828"/>
        <path id="パス_193" data-name="パス 193" d="M10.737,73.167l-8.381-.556A2.209,2.209,0,0,0,0,74.815v2.5A2.209,2.209,0,0,0,1.474,79.4L7.1,81.383Z" transform="translate(0 -59.8)" fill="#282828"/>
        <path id="パス_194" data-name="パス 194" d="M64.1,33.174l6.073-.672-3.819-4.769,7.613-7.613H33.943l5.043-11.4.038-.11A4.632,4.632,0,0,1,43.4,5.493H75.546a4.632,4.632,0,0,1,4.377,3.12l.038.11,3.962,8.954.539-4.871h3.312l-2.7-6.1A10.128,10.128,0,0,0,75.546,0H43.4a10.127,10.127,0,0,0-9.528,6.7L27.5,21.109l-3.529,4.383a11.734,11.734,0,0,0-2.585,7.333V43.554a7.467,7.467,0,0,0,5.33,7.145v6.924a2.2,2.2,0,0,0,2.2,2.2h6.763a2.2,2.2,0,0,0,2.2-2.2V51.01H64.1ZM34.86,41.118a5.465,5.465,0,1,1,5.465-5.465,5.471,5.471,0,0,1-5.465,5.465" transform="translate(-17.612)" fill="#282828"/>
        <path id="パス_195" data-name="パス 195" d="M339.1,128.273V118.6l-7.1-.786a18.384,18.384,0,0,0-1.186-2.862l4.465-5.577-6.841-6.841L322.862,107A18.39,18.39,0,0,0,320,105.813l-.786-7.1H309.54l-.786,7.1A18.382,18.382,0,0,0,305.893,107l-5.577-4.465-6.841,6.841,4.465,5.577a18.363,18.363,0,0,0-1.186,2.862l-7.1.786v9.674l7.1.786a18.371,18.371,0,0,0,1.186,2.862l-4.465,5.577,6.841,6.841,5.577-4.465a18.381,18.381,0,0,0,2.862,1.186l.786,7.1h9.674l.786-7.1a18.389,18.389,0,0,0,2.862-1.186l5.577,4.465,6.841-6.841-4.465-5.577A18.392,18.392,0,0,0,332,129.059Zm-17.728-4.837a7,7,0,1,1-7-7,7,7,0,0,1,7,7" transform="translate(-238.566 -81.302)" fill="#282828"/>
        <path id="パス_196" data-name="パス 196" d="M197.8,327.719l-.888-5.2-3.886.23a10.016,10.016,0,0,0-.9-1.428l1.886-3.406-4.3-3.046-2.586,2.911a10.011,10.011,0,0,0-1.646-.374l-1.074-3.742-5.2.888.23,3.886a10.008,10.008,0,0,0-1.428.9l-3.406-1.886-3.046,4.3,2.911,2.586a10.016,10.016,0,0,0-.374,1.646l-3.742,1.074.888,5.2,3.886-.23a10.029,10.029,0,0,0,.9,1.428l-1.886,3.406,4.3,3.046L181.028,337a10.021,10.021,0,0,0,1.646.374l1.074,3.742,5.2-.888-.23-3.886a10.02,10.02,0,0,0,1.428-.9l3.406,1.886,3.046-4.3-2.911-2.586a10.007,10.007,0,0,0,.374-1.646Zm-9.967-.97a3.812,3.812,0,1,1-4.4-3.115,3.812,3.812,0,0,1,4.4,3.115" transform="translate(-140.306 -258.343)" fill="#282828"/>
      </g>
    </g>
  </g>
</svg>
