<svg xmlns="http://www.w3.org/2000/svg" xmlns:xlink="http://www.w3.org/1999/xlink" width="105" height="105" viewBox="0 0 105 105">
  <defs>
    <clipPath id="clip-path">
      <rect id="長方形_22355" data-name="長方形 22355" width="105" height="105" transform="translate(314.611 2184.611)" fill="#fff" stroke="#707070" stroke-width="1"/>
    </clipPath>
  </defs>
  <g id="マスクグループ_33" data-name="マスクグループ 33" transform="translate(-314.611 -2184.611)" clip-path="url(#clip-path)">
    <g id="グループ_26420" data-name="グループ 26420" transform="translate(324.075 2184.611)">
      <path id="パス_185" data-name="パス 185" d="M281.683,511.173V531.9h14.022v-4.039H286.34v-4.6H293.5V519.3H286.34v-4.093h9.16v-4.039Z" transform="translate(-235.245 -426.901)" fill="#282828"/>
      <g id="グループ_26419" data-name="グループ 26419">
        <g id="グループ_26418" data-name="グループ 26418">
          <path id="パス_186" data-name="パス 186" d="M393.166,515.917a4.368,4.368,0,0,1,3.045,1.391l.2.218,3.975-1.993-.187-.357c-1.315-2.507-4.09-4-7.423-4a9.08,9.08,0,0,0-6.874,2.821,12.1,12.1,0,0,0,0,15.087,9.08,9.08,0,0,0,6.874,2.821c3.333,0,6.108-1.5,7.423-4l.187-.356-3.975-1.993-.2.218a4.368,4.368,0,0,1-3.045,1.391c-2.7,0-4.459-2.207-4.474-5.619.015-3.415,1.771-5.622,4.474-5.622" transform="translate(-320.08 -426.902)" fill="#282828"/>
          <path id="パス_187" data-name="パス 187" d="M178.3,517.392c0-3.72-2.73-6.218-6.792-6.219h-8.8V531.9h5.059v-7.61h2.074l3.6,7.61h5.794L174.92,524c2.307-.913,3.383-3.021,3.383-6.611m-7.653,2.568H167.8v-4.432h2.828c1.52,0,2.464.8,2.464,2.1a2.193,2.193,0,0,1-2.437,2.333" transform="translate(-135.887 -426.902)" fill="#282828"/>
          <path id="パス_188" data-name="パス 188" d="M43.178,524.246a8.209,8.209,0,1,0,8.209,8.209,8.209,8.209,0,0,0-8.209-8.209" transform="translate(-29.204 -437.819)" fill="#282828"/>
          <path id="パス_189" data-name="パス 189" d="M99.264,6.767h19.877V14.44H108.975a1.1,1.1,0,0,0-1.1,1.1v4.44h34.286v-4.44a1.1,1.1,0,0,0-1.1-1.1H130.889V6.767h19.877a1.1,1.1,0,0,0,1.1-1.1V0H98.161V5.664a1.1,1.1,0,0,0,1.1,1.1" transform="translate(-81.978)" fill="#282828"/>
          <path id="パス_190" data-name="パス 190" d="M81.221,147.971H4.853A4.867,4.867,0,0,0,0,152.824v41.32A4.867,4.867,0,0,0,4.853,199H81.221a4.867,4.867,0,0,0,4.853-4.853v-41.32a4.867,4.867,0,0,0-4.853-4.853m-15.63,41.814H9.36v-32.6H65.591Zm10.441-13.247a3.054,3.054,0,1,1,3.054-3.054,3.054,3.054,0,0,1-3.054,3.054m0-12.193a3.054,3.054,0,1,1,3.054-3.054,3.054,3.054,0,0,1-3.054,3.054" transform="translate(0 -123.577)" fill="#282828"/>
          <path id="パス_191" data-name="パス 191" d="M97.431,304.68h4.941l.935,5.741h21.747l-16.98-13.869h-7.026l.176,1.083H98.578l.177-1.083H91.729l-16.98,13.869H96.5Zm.934-5.73h3.074l.423,2.6H97.941Z" transform="translate(-62.426 -247.663)" fill="#282828"/>
        </g>
      </g>
    </g>
  </g>
</svg>
