<svg xmlns="http://www.w3.org/2000/svg" xmlns:xlink="http://www.w3.org/1999/xlink" width="105" height="105" viewBox="0 0 105 105">
  <defs>
    <clipPath id="clip-path">
      <rect id="長方形_22363" data-name="長方形 22363" width="105" height="105" transform="translate(314.611 2184.611)" fill="#fff" stroke="#707070" stroke-width="1"/>
    </clipPath>
  </defs>
  <g id="マスクグループ_36" data-name="マスクグループ 36" transform="translate(-314.611 -2184.611)" clip-path="url(#clip-path)">
    <rect id="長方形_22360" data-name="長方形 22360" width="24" height="23" transform="translate(322.611 2257.611)" fill="#282828"/>
    <rect id="長方形_22361" data-name="長方形 22361" width="24" height="46" transform="translate(354.611 2234.611)" fill="#282828"/>
    <rect id="長方形_22362" data-name="長方形 22362" width="24" height="86" transform="translate(386.611 2194.611)" fill="#282828"/>
    <g id="パス_201" data-name="パス 201" transform="translate(320.136 2235.586)" fill="#282828" stroke-linecap="round" stroke-linejoin="round">
      <path d="M 23.26245307922363 16.41571807861328 C 15.11343288421631 16.41571807861328 9.076442718505859 13.57955741882324 5.319172859191895 7.98601770401001 C 3.522253036499023 5.31090784072876 2.161893129348755 2.110247850418091 1.275883078575134 -1.527062058448792 C 0.4126830697059631 -5.070742130279541 -0.02499692142009735 -9.133892059326172 -0.02499692142009735 -13.60362243652344 C -0.02499692142009735 -18.02569198608398 0.4130230844020844 -22.05288124084473 1.276893019676208 -25.57333183288574 C 2.163043022155762 -29.18456268310547 3.523063182830811 -32.37140274047852 5.319172859191895 -35.04531097412109 C 9.07645320892334 -40.63884353637695 15.11344337463379 -43.47500228881836 23.26245307922363 -43.47500228881836 C 31.41146278381348 -43.47500228881836 37.44845199584961 -40.63884353637695 41.20572280883789 -35.04531097412109 C 43.0018424987793 -32.37140274047852 44.36186218261719 -29.18456268310547 45.24801254272461 -25.57333183288574 C 46.11189270019531 -22.05288124084473 46.54991149902344 -18.02569198608398 46.54991149902344 -13.60362243652344 C 46.54991149902344 -9.133892059326172 46.11223220825195 -5.070752143859863 45.2490234375 -1.527062058448792 C 44.36301422119141 2.110247850418091 43.00265121459961 5.31090784072876 41.20572280883789 7.98601770401001 C 37.44846343994141 13.57955741882324 31.41147232055664 16.41571807861328 23.26245307922363 16.41571807861328 Z M 23.26245307922363 -26.63872146606445 C 22.02770233154297 -26.63872146606445 21.03495216369629 -26.41912269592285 20.31179237365723 -25.98602294921875 C 19.66362380981445 -25.59783172607422 19.18507385253906 -25.00419235229492 18.84882354736328 -24.17119216918945 C 17.88950347900391 -21.79468154907227 17.40308380126953 -18.23924255371094 17.40308380126953 -13.60362243652344 C 17.40308380126953 -10.41359233856201 17.58893394470215 -7.762372016906738 17.95545387268066 -5.723602294921875 C 18.26535224914551 -3.999772071838379 18.87444305419922 -2.61843204498291 19.76579284667969 -1.617922067642212 C 20.48360252380371 -0.8122221231460571 21.62737274169922 -0.4205621182918549 23.26245307922363 -0.4205621182918549 C 24.89754295349121 -0.4205621182918549 26.04130363464355 -0.8122221231460571 26.75911331176758 -1.617922067642212 C 27.65046310424805 -2.618422031402588 28.25955390930176 -3.999762058258057 28.56944274902344 -5.72358226776123 C 28.93597221374512 -7.762412071228027 29.12182235717773 -10.41364192962646 29.12182235717773 -13.60362243652344 C 29.12182235717773 -18.23924255371094 28.63540267944336 -21.79468154907227 27.67608261108398 -24.17120170593262 C 27.3398323059082 -25.00419235229492 26.86128234863281 -25.59783172607422 26.21311378479004 -25.98602294921875 C 25.48995399475098 -26.41912269592285 24.4972038269043 -26.63872146606445 23.26245307922363 -26.63872146606445 Z" stroke="none"/>
      <path d="M 23.26245307922363 -40.97499465942383 C 15.96341705322266 -40.97499465942383 10.67408752441406 -38.53377151489258 7.394454956054688 -33.65131378173828 C 4.114818572998047 -28.76884269714355 2.474994659423828 -22.08627700805664 2.474994659423828 -13.60361862182617 C 2.474994659423828 -5.022323608398438 4.114818572998047 1.709558486938477 7.394454956054688 6.592018127441406 C 10.67408752441406 11.4744873046875 15.96341705322266 13.91571044921875 23.26245307922363 13.91571044921875 C 30.56148910522461 13.91571044921875 35.8508186340332 11.4744873046875 39.13045501708984 6.592018127441406 C 42.41008758544922 1.709558486938477 44.04991149902344 -5.022323608398438 44.04991149902344 -13.60361862182617 C 44.04991149902344 -22.08627700805664 42.41008758544922 -28.76884269714355 39.13045501708984 -33.65131378173828 C 35.8508186340332 -38.53377151489258 30.56148910522461 -40.97499465942383 23.26245307922363 -40.97499465942383 M 23.26245307922363 2.079441070556641 C 20.89520645141602 2.079441070556641 19.10742950439453 1.401323318481445 17.89914703369141 0.04507637023925781 C 16.69085311889648 -1.311159133911133 15.88944053649902 -3.08659553527832 15.49489974975586 -5.281242370605469 C 15.1003589630127 -7.47587776184082 14.9030876159668 -10.25000762939453 14.9030876159668 -13.60361862182617 C 14.9030876159668 -18.58472442626953 15.44558334350586 -22.41917037963867 16.53057098388672 -25.10699462890625 C 17.61555862426758 -27.79481887817383 19.85952377319336 -29.13872528076172 23.26245307922363 -29.13872528076172 C 26.66538238525391 -29.13872528076172 28.90934753417969 -27.79481887817383 29.99433517456055 -25.10699462890625 C 31.07932281494141 -22.41917037963867 31.62181854248047 -18.58472442626953 31.62181854248047 -13.60361862182617 C 31.62181854248047 -10.25000762939453 31.42454719543457 -7.47587776184082 31.03000640869141 -5.281242370605469 C 30.63546371459961 -3.08659553527832 29.83405303955078 -1.311159133911133 28.62575912475586 0.04507637023925781 C 27.41747665405273 1.401323318481445 25.62971115112305 2.079441070556641 23.26245307922363 2.079441070556641 M 23.26245307922363 -45.97499465942383 C 27.62361717224121 -45.97499465942383 31.50507736206055 -45.20414733886719 34.79901885986328 -43.68387603759766 C 38.27621841430664 -42.07900619506836 41.12997055053711 -39.64158248901367 43.281005859375 -36.43931198120117 C 45.2410774230957 -33.52131271362305 46.71975708007812 -30.0659236907959 47.67598342895508 -26.16912460327148 C 48.58765411376953 -22.45388984680176 49.04991149902344 -18.22624206542969 49.04991149902344 -13.60361862182617 C 49.04991149902344 -8.934759140014648 48.58833694458008 -4.672548294067383 47.67799377441406 -0.9353828430175781 C 46.72205352783203 2.989017486572266 45.2426872253418 6.459617614746094 43.281005859375 9.380016326904297 C 41.12998199462891 12.58229827880859 38.27622985839844 15.01972198486328 34.79901885986328 16.62459182739258 C 31.50507736206055 18.14486312866211 27.62361717224121 18.91571044921875 23.26245307922363 18.91571044921875 C 18.90128898620605 18.91571044921875 15.01982879638672 18.14486312866211 11.72588729858398 16.62459182739258 C 8.248676300048828 15.01972198486328 5.394924163818359 12.58229827880859 3.243900299072266 9.380016326904297 C 1.282218933105469 6.459617614746094 -0.1971473693847656 2.989017486572266 -1.153087615966797 -0.9353828430175781 C -2.063430786132812 -4.672548294067383 -2.525005340576172 -8.934759140014648 -2.525005340576172 -13.60361862182617 C -2.525005340576172 -18.22624206542969 -2.062747955322266 -22.45388984680176 -1.151077270507812 -26.16912460327148 C -0.1948509216308594 -30.0659236907959 1.283828735351562 -33.52131271362305 3.243900299072266 -36.43931198120117 C 5.394935607910156 -39.64158248901367 8.248687744140625 -42.07900619506836 11.72588729858398 -43.68387603759766 C 15.01982879638672 -45.20414733886719 18.90128898620605 -45.97499465942383 23.26245307922363 -45.97499465942383 Z M 23.26245307922363 -2.920558929443359 C 24.0698299407959 -2.920558929443359 24.69440650939941 -3.05865478515625 24.89244079589844 -3.280935287475586 C 25.47253608703613 -3.93205451965332 25.88179397583008 -4.902688980102539 26.10890007019043 -6.165935516357422 C 26.44924163818359 -8.059123992919922 26.62181854248047 -10.56152534484863 26.62181854248047 -13.60361862182617 C 26.62181854248047 -18.97637176513672 25.9344654083252 -21.80693626403809 25.35784149169922 -23.23539543151855 C 25.17214775085449 -23.69539451599121 25.00766563415527 -23.79390144348145 24.92861747741699 -23.84125328063965 C 24.77926445007324 -23.93068885803223 24.31795883178711 -24.13872528076172 23.26245307922363 -24.13872528076172 C 22.20694732666016 -24.13872528076172 21.74564170837402 -23.93068885803223 21.59628868103027 -23.84125328063965 C 21.51724052429199 -23.79390144348145 21.35275840759277 -23.69539451599121 21.16706466674805 -23.23539543151855 C 20.59044075012207 -21.80693626403809 19.9030876159668 -18.97637176513672 19.9030876159668 -13.60361862182617 C 19.9030876159668 -10.56152534484863 20.07566452026367 -8.059123992919922 20.41600608825684 -6.165935516357422 C 20.64311218261719 -4.902688980102539 21.05237007141113 -3.93205451965332 21.6324291229248 -3.280971527099609 C 21.83049964904785 -3.05865478515625 22.45507621765137 -2.920558929443359 23.26245307922363 -2.920558929443359 Z" stroke="none" fill="#fff"/>
    </g>
  </g>
</svg>
