<svg xmlns="http://www.w3.org/2000/svg" xmlns:xlink="http://www.w3.org/1999/xlink" width="105" height="105" viewBox="0 0 105 105">
  <defs>
    <clipPath id="clip-path">
      <rect id="長方形_22359" data-name="長方形 22359" width="105" height="105" transform="translate(314.611 2184.611)" fill="#fff" stroke="#707070" stroke-width="1"/>
    </clipPath>
    <clipPath id="clip-path-2">
      <rect id="長方形_22358" data-name="長方形 22358" width="105.536" height="66.695" fill="#282828"/>
    </clipPath>
  </defs>
  <g id="マスクグループ_35" data-name="マスクグループ 35" transform="translate(-314.611 -2184.611)" clip-path="url(#clip-path)">
    <g id="グループ_26424" data-name="グループ 26424" transform="translate(314.075 2203.764)">
      <g id="グループ_26423" data-name="グループ 26423" clip-path="url(#clip-path-2)">
        <path id="パス_197" data-name="パス 197" d="M183.875,97.114h-2.943v39.512a5.471,5.471,0,0,1-5.465,5.465H97.115v2.943a1.967,1.967,0,0,0,1.962,1.962h84.8a1.967,1.967,0,0,0,1.962-1.962V99.076a1.967,1.967,0,0,0-1.962-1.962" transform="translate(-80.3 -80.3)" fill="#282828"/>
        <path id="パス_198" data-name="パス 198" d="M135.317,48.557h-2.943V88.069a5.471,5.471,0,0,1-5.465,5.465H48.557v2.942a1.967,1.967,0,0,0,1.962,1.962h84.8a1.967,1.967,0,0,0,1.962-1.962V50.519a1.967,1.967,0,0,0-1.962-1.962" transform="translate(-40.15 -40.15)" fill="#282828"/>
        <path id="パス_199" data-name="パス 199" d="M86.76,0H1.962A1.968,1.968,0,0,0,0,1.962V47.919a1.968,1.968,0,0,0,1.962,1.962h84.8a1.968,1.968,0,0,0,1.962-1.962V1.962A1.968,1.968,0,0,0,86.76,0m-42.4,41.973A17.032,17.032,0,1,1,61.393,24.94,17.032,17.032,0,0,1,44.361,41.973" fill="#282828"/>
        <path id="パス_200" data-name="パス 200" d="M212.648,101.768V96.691h-5.722V92.923h5.722V91.328h-5.722V87.56h4.885l-5.153-8.188h5.524l3.055,4.856,3.056-4.856h5.524l-5.152,8.188h4.885v3.768h-5.722v1.595h5.722v3.768h-5.722v5.077Z" transform="translate(-170.877 -65.629)" fill="#282828"/>
      </g>
    </g>
  </g>
</svg>
