<svg xmlns="http://www.w3.org/2000/svg" xmlns:xlink="http://www.w3.org/1999/xlink" width="230" height="105" viewBox="0 0 230 105">
  <defs>
    <clipPath id="clip-path">
      <rect id="長方形_22353" data-name="長方形 22353" width="230" height="105" transform="translate(-63)" fill="#fff" stroke="#707070" stroke-width="1"/>
    </clipPath>
    <clipPath id="clip-path-2">
      <rect id="長方形_22352" data-name="長方形 22352" width="152.589" height="101.945" fill="none"/>
    </clipPath>
  </defs>
  <g id="マスクグループ_31" data-name="マスクグループ 31" transform="translate(63)" clip-path="url(#clip-path)">
    <g id="グループ_26415" data-name="グループ 26415" transform="translate(-24.294 1.527)">
      <g id="グループ_26414" data-name="グループ 26414" clip-path="url(#clip-path-2)">
        <path id="パス_177" data-name="パス 177" d="M15.67,184.5c0,3.339-2.469,4.674-7.281,4.674H3.356v5.883c0,.6.158.763.759.922v.382H0v-.382c.6-.159.728-.318.728-.922V180.973c0-.6-.127-.8-.728-.954v-.35H8.833c4.463,0,6.838,1.876,6.838,4.833M3.356,181.99v4.865H8.262c3.261,0,4.907-.7,4.907-2.48,0-1.813-1.71-2.385-5.065-2.385Z" transform="translate(0 -95.148)" fill="#dcdddd"/>
        <path id="パス_178" data-name="パス 178" d="M64.282,184.5a4.372,4.372,0,0,1-3.8,4.42c2.912,4.515,4.052,7.059,4.939,7.059h.126v.382H61.117v-.382h.126c.317,0,.475-.159.475-.382,0-.1-.064-.159-.158-.318l-3.831-6.137H51.967v5.914c0,.572.126.763.759.922v.382H48.611v-.382c.633-.159.729-.35.729-.922V180.973c0-.6-.127-.8-.729-.954v-.35h8.833c4.464,0,6.838,1.876,6.838,4.833M51.967,181.99v4.865h4.906c3.261,0,4.907-.7,4.907-2.48,0-1.813-1.71-2.385-5.065-2.385Z" transform="translate(-25.842 -95.148)" fill="#dcdddd"/>
        <path id="パス_179" data-name="パス 179" d="M115.107,192.637h.38V196.2h-.348c-.158-.6-.316-.731-.918-.731H100.164v-.382c.6-.159.728-.35.728-.922V180.078c0-.573-.127-.8-.728-.954v-.35h13.329c.57,0,.792-.191.95-.8h.348v3.593h-.317c-.158-.6-.348-.731-.95-.731h-10v5.024h6.585c.57,0,.76-.159.918-.764h.38v3.561h-.348c-.158-.6-.316-.731-.918-.731H103.52v5.437h10.669c.6,0,.76-.127.918-.731" transform="translate(-53.248 -94.253)" fill="#dcdddd"/>
        <path id="パス_180" data-name="パス 180" d="M152.313,195.98v.382h-3.546v-.382c.6-.159.728-.318.728-.922V180.972c0-.6-.126-.795-.728-.954v-.35h5.192v.35c-.412.128-.6.318-.6.637a3.831,3.831,0,0,0,.222.477l5.066,9.984,4.812-9.984a1.689,1.689,0,0,0,.19-.477c0-.318-.19-.509-.6-.637v-.35h5.54v.35c-.6.159-.728.35-.728.954v14.086c0,.6.126.763.728.922v.382H164.47v-.382c.6-.159.728-.318.728-.922v-13l-6.648,13.736L151.584,182.4v12.655c0,.6.127.763.728.922" transform="translate(-79.086 -95.147)" fill="#dcdddd"/>
        <path id="パス_181" data-name="パス 181" d="M208.637,195.98c.6-.159.728-.318.728-.922V180.972c0-.6-.126-.795-.728-.954v-.35h4.115v.35c-.6.159-.728.35-.728.954v14.086c0,.6.126.763.728.922v.382h-4.115Z" transform="translate(-110.913 -95.147)" fill="#dcdddd"/>
        <path id="パス_182" data-name="パス 182" d="M233.8,180.973c0-.6-.126-.8-.728-.954v-.35h4.116v.35c-.6.159-.728.35-.728.954v8.967c0,2.989,1.583,4.324,5.255,4.324,3.8,0,5.255-1.368,5.255-4.324v-8.967c0-.6-.126-.8-.728-.954v-.35h4.116v.35c-.6.159-.76.35-.76.954v8.967c0,4.674-2.279,6.645-7.883,6.645-5.825,0-7.915-2-7.915-6.645Z" transform="translate(-123.906 -95.148)" fill="#dcdddd"/>
        <path id="パス_183" data-name="パス 183" d="M287.006,195.98v.382H283.46v-.382c.6-.159.728-.318.728-.922V180.972c0-.6-.126-.795-.728-.954v-.35h5.192v.35c-.412.128-.6.318-.6.637a3.833,3.833,0,0,0,.222.477l5.066,9.984,4.812-9.984a1.689,1.689,0,0,0,.19-.477c0-.318-.19-.509-.6-.637v-.35h5.54v.35c-.6.159-.728.35-.728.954v14.086c0,.6.126.763.728.922v.382h-4.115v-.382c.6-.159.728-.318.728-.922v-13l-6.648,13.736L286.277,182.4v12.655c0,.6.127.763.728.922" transform="translate(-150.69 -95.147)" fill="#dcdddd"/>
        <path id="パス_184" data-name="パス 184" d="M180.109,6.447A33.828,33.828,0,0,1,199.865,0l-7.546,23.325Z" transform="translate(-95.748)" fill="#9fa0a0"/>
        <path id="パス_185" data-name="パス 185" d="M242.7,115.618a33.83,33.83,0,0,1-19.758,6.443V101.2Z" transform="translate(-118.521 -53.594)" fill="#9fa0a0"/>
        <path id="パス_186" data-name="パス 186" d="M199.881,122.061a33.831,33.831,0,0,1-19.758-6.443L199.881,101.2Z" transform="translate(-95.755 -53.594)" fill="#d3d3d4"/>
        <path id="パス_187" data-name="パス 187" d="M154.382,50.6h24.106l-4.6,14.229Z" transform="translate(-82.071 -26.795)" fill="#666464"/>
        <path id="パス_188" data-name="パス 188" d="M251.807,14.084a34.3,34.3,0,0,1,12.219,16.875H239.6Z" transform="translate(-127.374 -7.459)" fill="#898989"/>
        <path id="パス_189" data-name="パス 189" d="M222.965,0a33.826,33.826,0,0,1,19.756,6.448l-12.21,16.878Z" transform="translate(-118.53)" fill="#c9caca"/>
        <path id="パス_190" data-name="パス 190" d="M214.176,1.034l7.446,23.014H206.73Z" transform="translate(-109.9 -0.548)" fill="#727171"/>
        <path id="パス_191" data-name="パス 191" d="M153.5,30.958a34.3,34.3,0,0,1,12.219-16.875L177.93,30.958Z" transform="translate(-81.604 -7.458)" fill="#d3d3d4"/>
        <path id="パス_192" data-name="パス 192" d="M201.228,50.6h15.086l4.664,14.416L208.772,73.92l-12.208-8.907Z" transform="translate(-104.495 -26.795)" fill="#4c4948"/>
        <path id="パス_193" data-name="パス 193" d="M199.953,90.675l-19.5,14.225L187.9,81.883Z" transform="translate(-95.933 -43.363)" fill="#949495"/>
        <path id="パス_194" data-name="パス 194" d="M242.668,104.9l-19.5-14.225,12.049-8.792Z" transform="translate(-118.64 -43.363)" fill="#727171"/>
        <path id="パス_195" data-name="パス 195" d="M263.511,50.6l-19.5,14.229-4.6-14.229Z" transform="translate(-127.27 -26.795)" fill="#efefef"/>
        <path id="パス_196" data-name="パス 196" d="M257.112,105.188A34.3,34.3,0,0,0,269.326,88.31l-19.761-6.449Z" transform="translate(-132.671 -43.351)" fill="#dcdddd"/>
        <path id="パス_197" data-name="パス 197" d="M269.526,71.468a34.53,34.53,0,0,0,0-20.867L249.767,65.02Z" transform="translate(-132.778 -26.797)" fill="#bfc0c0"/>
        <path id="パス_198" data-name="パス 198" d="M151.464,50.6a34.519,34.519,0,0,0,0,20.867l19.759-6.448Z" transform="translate(-79.662 -26.796)" fill="#949495"/>
        <path id="パス_199" data-name="パス 199" d="M153.5,88.31a34.3,34.3,0,0,0,12.214,16.878l7.547-23.327Z" transform="translate(-81.602 -43.351)" fill="#727171"/>
        <path id="パス_200" data-name="パス 200" d="M99.257,34.236a9.431,9.431,0,0,0-8.946-6.462H72.273a6.454,6.454,0,0,0,0,12.909H86.091A21.273,21.273,0,1,1,73.974,14.529v0A6.45,6.45,0,0,0,78.893,2.6h0A34.082,34.082,0,0,0,31.761,34.236,34.076,34.076,0,0,0,99.639,38.7c.022-.149.042-.3.057-.447,0-.013,0-.025,0-.038q.047-.473.048-.96a9.512,9.512,0,0,0-.492-3.022" transform="translate(-16.884 -0.002)" fill="#dcdddd"/>
      </g>
    </g>
  </g>
</svg>
