<svg xmlns="http://www.w3.org/2000/svg" xmlns:xlink="http://www.w3.org/1999/xlink" width="245" height="680.5" viewBox="0 0 245 680.5">
  <defs>
    <clipPath id="clip-path">
      <rect id="長方形_700" data-name="長方形 700" width="245" height="495" transform="translate(1 0.077)" fill="none"/>
    </clipPath>
  </defs>
  <g id="グループ_27038" data-name="グループ 27038" transform="translate(-186 1381)">
    <path id="パス_196" data-name="パス 196" d="M35.327-25.033q-.292.35-.729.925t-.7.97a37.133,37.133,0,0,1-2.26,3.329,44.111,44.111,0,0,1-3.111,3.7A24.036,24.036,0,0,1,25-12.976l-3.844-3.073a18.474,18.474,0,0,0,2.189-1.579,23.526,23.526,0,0,0,1.979-1.854,23.951,23.951,0,0,0,1.608-1.864,10.648,10.648,0,0,0,1.045-1.589H8.686q-1.156,0-2.182.066t-2.339.2v-5.153q1.082.14,2.223.257a22.436,22.436,0,0,0,2.3.117H28.63q.531,0,1.277-.033t1.452-.113a6.929,6.929,0,0,0,1.035-.175ZM20.247-20.057q0,2.736-.111,5.293a29.559,29.559,0,0,1-.61,4.9,17.656,17.656,0,0,1-1.592,4.452,15.809,15.809,0,0,1-3.011,4,21.375,21.375,0,0,1-4.949,3.5L5.659-1.442a15.707,15.707,0,0,0,1.887-.79A12.574,12.574,0,0,0,9.552-3.48a13.5,13.5,0,0,0,2.868-2.6A10.438,10.438,0,0,0,14.1-9.043a15.556,15.556,0,0,0,.807-3.5,35.645,35.645,0,0,0,.226-4.18q0-.856-.043-1.644a14.017,14.017,0,0,0-.2-1.689ZM55.236-.827a10.345,10.345,0,0,0,.216-1.251,12.48,12.48,0,0,0,.084-1.462V-25.111a14.986,14.986,0,0,0-.138-2.181q-.138-.926-.146-1.008h5.488q-.008.082-.127,1.022a17.664,17.664,0,0,0-.119,2.2V-5.747a18.374,18.374,0,0,0,3.15-1.807,25.447,25.447,0,0,0,3.193-2.672,22.644,22.644,0,0,0,2.8-3.321l2.839,4.079A29.072,29.072,0,0,1,68.8-5.551a44.6,44.6,0,0,1-4.461,3.525A39.056,39.056,0,0,1,59.927.641a7.549,7.549,0,0,0-.963.6q-.37.282-.634.48ZM38.1-1.363a14.8,14.8,0,0,0,4-4.107,19.9,19.9,0,0,0,2.3-4.755,14.837,14.837,0,0,0,.619-2.988q.212-1.792.319-3.845t.125-4.084q.018-2.031.019-3.705a16.624,16.624,0,0,0-.095-1.922,13.468,13.468,0,0,0-.255-1.482h5.438q-.008.073-.07.594T50.374-26.4q-.062.733-.062,1.5,0,1.645-.037,3.8t-.152,4.416q-.115,2.261-.323,4.282a21.89,21.89,0,0,1-.586,3.418A21.354,21.354,0,0,1,46.68-3.163a21.69,21.69,0,0,1-4.072,4.791Zm68.429-23.263a7.171,7.171,0,0,0-.455,1.238q-.2.719-.36,1.323-.317,1.352-.787,3.044t-1.145,3.51a34.242,34.242,0,0,1-1.577,3.6,23.3,23.3,0,0,1-2.054,3.333,28.358,28.358,0,0,1-3.88,4.13A29,29,0,0,1,91.32-.976a33.431,33.431,0,0,1-6.049,2.613l-4.03-4.429A30.978,30.978,0,0,0,87.61-4.971a22.708,22.708,0,0,0,4.668-2.966,24.021,24.021,0,0,0,3.464-3.533,17.834,17.834,0,0,0,2.108-3.375A26.547,26.547,0,0,0,99.292-18.5a22.67,22.67,0,0,0,.8-3.419H82.856q-1.271,0-2.471.047t-1.932.113v-5.228q.568.066,1.358.136t1.626.117q.835.047,1.427.047H99.987q.556,0,1.359-.047a7.93,7.93,0,0,0,1.532-.237Zm36.987,6.173q-.247.292-.589.739t-.511.718q-.477.778-1.316,1.94t-1.863,2.463q-1.024,1.3-2.109,2.454a17.338,17.338,0,0,1-2.083,1.913l-3.708-2.567a17.156,17.156,0,0,0,2.121-1.752,23.936,23.936,0,0,0,1.92-2.067,13.643,13.643,0,0,0,1.289-1.8h-4.539q-1.647,0-3.457,0t-3.476,0h-4.56q-.934,0-1.886.047t-1.993.15v-4.754q.9.131,1.921.216t1.958.084h17.145q.408,0,1.007-.033t1.159-.095a8.282,8.282,0,0,0,.853-.127Zm-12.692,3.86q-.058,2.087-.175,4.1a25.013,25.013,0,0,1-.538,3.924,15.288,15.288,0,0,1-1.34,3.705A13.164,13.164,0,0,1,126.2.532a19.88,19.88,0,0,1-4.249,3.052L118.012.45q.741-.292,1.473-.652a11.694,11.694,0,0,0,1.552-.937,11.326,11.326,0,0,0,3.168-3.051,9.664,9.664,0,0,0,1.425-3.522,22.673,22.673,0,0,0,.364-4.239,12.366,12.366,0,0,0-.076-1.356,12.14,12.14,0,0,0-.208-1.286Zm20.2-2.54q.675.037,1.714.1t2.171.1q1.131.033,2.069.033h19.875q1.307,0,2.457-.1t1.891-.136v5.822q-.654-.037-1.907-.117t-2.432-.08H156.977q-1.567,0-3.235.062t-2.718.136Zm58.829-10.4q.523.757,1.152,1.748t1.215,1.992q.586,1,1,1.868l-3.2,1.412q-.543-1.181-1.03-2.1t-1.015-1.794q-.528-.873-1.227-1.807Zm4.849-2.019q.56.728,1.2,1.69t1.252,1.949q.608.987,1.024,1.817l-3.114,1.528q-.572-1.181-1.106-2.083t-1.081-1.732q-.547-.83-1.246-1.735ZM195.113-3.015V-24.28q0-1-.095-2.247a18.052,18.052,0,0,0-.292-2.222h5.78q-.1.963-.216,2.139t-.113,2.329v6.72q0,2.166,0,4.419t0,4.311v5.815q0,.514.043,1.454t.138,1.936q.095,1,.16,1.766h-5.785q.161-1.078.266-2.564T195.113-3.015Zm3.976-16.151q1.842.5,4.128,1.256t4.622,1.614q2.335.855,4.393,1.69t3.413,1.512l-2.1,5.13q-1.562-.83-3.451-1.658t-3.838-1.615q-1.95-.787-3.8-1.446t-3.368-1.161Z" transform="translate(197.5 -822)" fill="#fff"/>
    <path id="パス_199" data-name="パス 199" d="M18.642-15.861H22.5V2.871H18.642Zm-8.425,4.01H30.8v3.474H10.217ZM23.238-10.3a19.652,19.652,0,0,0,2.244,3.418,26.174,26.174,0,0,0,2.985,3.129,20.409,20.409,0,0,0,3.272,2.4,12.105,12.105,0,0,0-.948.886Q30.263.071,29.8.648T29.02,1.7a21.767,21.767,0,0,1-3.288-2.964,32.026,32.026,0,0,1-3-3.819,31.081,31.081,0,0,1-2.378-4.2Zm-5.122-.314,3.014,1.051a29.187,29.187,0,0,1-2.52,4.361,28.305,28.305,0,0,1-3.234,3.873A21.216,21.216,0,0,1,11.715,1.62,10.019,10.019,0,0,0,10.958.578Q10.5.013,10-.526a11.85,11.85,0,0,0-.926-.911,19.641,19.641,0,0,0,3.558-2.41,23.665,23.665,0,0,0,3.152-3.211A20.043,20.043,0,0,0,18.117-10.618ZM15.973-22.41v4.286h9.415V-22.41Zm-3.623-3.374H29.236v11.041H12.349Zm-4.2-1.33,3.574,1.155A51.236,51.236,0,0,1,9.207-20.53a49.94,49.94,0,0,1-3.131,5.12,34.436,34.436,0,0,1-3.46,4.239A13.132,13.132,0,0,0,2.1-12.389q-.353-.747-.768-1.5A13.976,13.976,0,0,0,.59-15.117a26.244,26.244,0,0,0,2.9-3.373A36.939,36.939,0,0,0,6.1-22.617,33.834,33.834,0,0,0,8.145-27.113ZM5.061-18.267,8.7-21.909l.014.032V2.775H5.061Zm31.575-5.05H65.178v3.6H36.635ZM45.266-11.79H59.172v3.2H45.266Zm-2.84-5.4h16.18v3.356H46.224V2.839h-3.8Zm15.411,0h3.756V-1.281A6.119,6.119,0,0,1,61.255.957,2.451,2.451,0,0,1,59.93,2.251a7.031,7.031,0,0,1-2.36.528q-1.4.1-3.354.1A11.613,11.613,0,0,0,53.768,1,12.212,12.212,0,0,0,53.05-.827q.838.032,1.669.061T56.2-.742l.922,0a.887.887,0,0,0,.555-.142.594.594,0,0,0,.156-.469ZM46.552-27.209l3.966.9a52.43,52.43,0,0,1-2.792,7.128,36.075,36.075,0,0,1-4.04,6.579,24.7,24.7,0,0,1-5.479,5.211,11.063,11.063,0,0,0-.743-.98Q37-8.918,36.533-9.458a9.28,9.28,0,0,0-.866-.885,20.643,20.643,0,0,0,3.872-3.333,26.688,26.688,0,0,0,3.1-4.168,33.5,33.5,0,0,0,2.332-4.633A36.626,36.626,0,0,0,46.552-27.209ZM45.266-6.5H59.172V-3.3H45.266ZM7.034,31.854H24.677v3.7H7.034Zm-1.728-9.2H26.719V36.818H22.59V26.326H9.236v10.52H5.306ZM11.573,6.566l4.391,1.44q-1.038,1.977-2.25,4T11.3,15.836q-1.205,1.809-2.311,3.218L5.53,17.664q1.081-1.476,2.2-3.38t2.135-3.92Q10.88,8.348,11.573,6.566Zm7.687,5.713,3.032-2.241q1.6,1.287,3.28,2.862t3.116,3.188a20.713,20.713,0,0,1,2.265,2.993l-3.339,2.562A20.665,20.665,0,0,0,25.5,18.631q-1.358-1.65-3-3.319T19.26,12.279Zm-17.366,3.6q2.419-.064,5.413-.163t6.312-.231l6.738-.267q3.42-.135,6.715-.27l-.164,3.716q-3.324.192-6.714.34t-6.642.3q-3.252.148-6.162.26t-5.269.208Zm33.93,7.628H52.012v3.1H35.824Zm.375-11.3h15.71v3.024H36.2Zm5.4,9.013,3.556.749q-.8,1.646-1.716,3.421t-1.81,3.412q-.891,1.638-1.669,2.935l-3.361-1.022q.772-1.234,1.663-2.868t1.769-3.376Q40.9,22.731,41.594,21.223Zm4.532,4.43,3.531.313a16.005,16.005,0,0,1-1.319,4.325A9.652,9.652,0,0,1,46,33.363a12.514,12.514,0,0,1-3.542,2.113,28.212,28.212,0,0,1-4.95,1.431,6.8,6.8,0,0,0-.614-1.7,7.884,7.884,0,0,0-.935-1.477,19.818,19.818,0,0,0,5.259-1.3A7.551,7.551,0,0,0,44.449,29.9,10.728,10.728,0,0,0,46.125,25.653ZM48.385,7.2l3.242,1.286Q50.844,9.555,50.1,10.6t-1.372,1.781l-2.465-1.1q.548-.839,1.157-2A20.211,20.211,0,0,0,48.385,7.2Zm-6.092-.414h3.524V21.668H42.293Zm-5.311,1.7,2.761-1.151a15.938,15.938,0,0,1,1.185,2.03,9.843,9.843,0,0,1,.755,1.951L38.748,12.6a9.3,9.3,0,0,0-.668-2A18.609,18.609,0,0,0,36.982,8.485Zm5.411,5.23,2.483,1.507a16.889,16.889,0,0,1-2.011,2.55,24.62,24.62,0,0,1-2.61,2.4,21.321,21.321,0,0,1-2.75,1.873,16.856,16.856,0,0,0-.875-1.455,7.8,7.8,0,0,0-1.088-1.349,15.154,15.154,0,0,0,2.606-1.412,18.485,18.485,0,0,0,2.435-1.942A10.9,10.9,0,0,0,42.393,13.715Zm3.107.931q.441.206,1.234.657t1.7.977q.912.526,1.66.977t1.075.689L49.143,20.6Q48.7,20.173,48,19.574t-1.5-1.241q-.8-.642-1.541-1.225t-1.269-.946ZM54.122,12.6H65.886v3.549H54.122Zm.349-5.816,3.881.559a61.289,61.289,0,0,1-1.3,6.375,39.541,39.541,0,0,1-1.934,5.7A21.911,21.911,0,0,1,52.5,24.007a7.4,7.4,0,0,0-.848-.878q-.559-.508-1.16-1.016t-1.028-.821a16.544,16.544,0,0,0,2.332-3.948,32.377,32.377,0,0,0,1.649-4.99A48.487,48.487,0,0,0,54.472,6.784Zm5.811,8,3.931.36a47.22,47.22,0,0,1-2.145,9.633,22.312,22.312,0,0,1-4.014,7.175,20.568,20.568,0,0,1-6.608,5.029,10.168,10.168,0,0,0-.575-1.121q-.387-.668-.827-1.324a7.947,7.947,0,0,0-.818-1.051,16.794,16.794,0,0,0,5.9-4.165A17.59,17.59,0,0,0,58.6,23.139,38.764,38.764,0,0,0,60.282,14.781Zm-3.979.661a45.38,45.38,0,0,0,1.86,7.6,22.8,22.8,0,0,0,3.2,6.232,14.271,14.271,0,0,0,4.919,4.212,10.132,10.132,0,0,0-.946.961q-.518.59-.98,1.221a11.606,11.606,0,0,0-.757,1.158,16.869,16.869,0,0,1-5.316-4.963A26.64,26.64,0,0,1,54.9,24.8,63.212,63.212,0,0,1,52.819,16Zm-16.889,15.3,2.053-2.612q1.877.711,3.756,1.641t3.49,1.911a26.336,26.336,0,0,1,2.7,1.853l-2.669,2.733a21.232,21.232,0,0,0-2.509-1.9q-1.507-.994-3.267-1.94A39.041,39.041,0,0,0,39.415,30.746Z" transform="translate(195.3 -759)" fill="#fff"/>
    <path id="パス_198" data-name="パス 198" d="M30.03-62.608a1.053,1.053,0,0,1,.318-.773,1.053,1.053,0,0,1,.774-.319H41.678a1.053,1.053,0,0,1,.773.319,1.053,1.053,0,0,1,.319.773V-1.092a1.053,1.053,0,0,1-.319.773A1.053,1.053,0,0,1,41.678,0H29.666a1.142,1.142,0,0,1-1.183-.91L17.2-36.127q-.091-.273-.319-.227a.28.28,0,0,0-.227.319l.091,34.944a1.053,1.053,0,0,1-.318.773A1.053,1.053,0,0,1,15.652,0H5.1a1.053,1.053,0,0,1-.774-.319A1.053,1.053,0,0,1,4-1.092V-62.608a1.053,1.053,0,0,1,.318-.773A1.053,1.053,0,0,1,5.1-63.7H17.017a1.142,1.142,0,0,1,1.183.91L29.575-27.573q.091.273.319.227a.28.28,0,0,0,.228-.318ZM73.619.728q-8.372,0-13.377-4.914t-5-13.1V-46.41q0-8.19,5-13.1t13.377-4.914q8.372,0,13.423,4.914t5.05,13.1v29.12q0,8.19-5.05,13.1T73.619.728Zm0-11.011a5.166,5.166,0,0,0,4.1-1.774,6.876,6.876,0,0,0,1.547-4.687V-46.956a6.876,6.876,0,0,0-1.547-4.687,5.166,5.166,0,0,0-4.1-1.775,5.031,5.031,0,0,0-4.049,1.775,7.011,7.011,0,0,0-1.5,4.687v30.212a7.011,7.011,0,0,0,1.5,4.687A5.031,5.031,0,0,0,73.619-10.283ZM110.474.364a6.973,6.973,0,0,1-5.142-2.048,6.973,6.973,0,0,1-2.048-5.142,7.018,7.018,0,0,1,2-5.187,7.018,7.018,0,0,1,5.187-2,7.018,7.018,0,0,1,5.187,2,7.018,7.018,0,0,1,2,5.187,6.973,6.973,0,0,1-2.047,5.142A6.973,6.973,0,0,1,110.474.364Zm24.57-63.791a3.9,3.9,0,0,1,1.365-.273H147.42a1.053,1.053,0,0,1,.773.319,1.053,1.053,0,0,1,.318.773V-1.092a1.053,1.053,0,0,1-.318.773A1.053,1.053,0,0,1,147.42,0H136.773A1.053,1.053,0,0,1,136-.319a1.053,1.053,0,0,1-.318-.773V-50.778q0-.364-.455-.364l-7.007.819h-.182a.885.885,0,0,1-1-1l-.273-7.826a1.288,1.288,0,0,1,.819-1.274Z" transform="translate(273.3 -719)" fill="#fff"/>
    <g id="マスクグループ_25" data-name="マスクグループ 25" transform="translate(185 -1381.077)" clip-path="url(#clip-path)">
      <g id="グループ_26935" data-name="グループ 26935">
        <g id="グループ_26936" data-name="グループ 26936">
          <path id="パス_67" data-name="パス 67" d="M175.676,31.428c5.029,0,8.8,0,12.571-5.28,7.04-9.806,7.8-11.063,10.563-11.063,3.014,0,26.9,16.846,26.9,19.608,0,3.523-5.029,3.523-13.577,3.523H47.2c-22.122,0-29.414.248-31.928.5-.758,0-4.529.754-5.28.754s-1.257-.754-2.263-1.76L2.956,31.931C1.95,30.922,1.95,30.674,1.95,30.423a.668.668,0,0,1,.754-.758c1.76,0,9.551,1.009,11.063,1.009,12.317.754,22.88.754,34.694.754H94.472c7.543,0,8.294-3.02,8.294-8.3a83.824,83.824,0,0,0-.751-10.56c-.251-1.509-1.509-8.8-1.509-10.305,0-2.015.751-2.266,2.766-2.266,3.52,0,14.834,2.514,18.857,3.523,2.762.751,6.034,1.257,6.034,4.019,0,1.76-.506,2.263-4.777,6.286-2.015,1.76-2.015,5.531-2.015,7.291,0,8.8,1.763,10.309,8.549,10.309Zm-134,101.825c-7.794,0-7.794.751-7.794,22.877,0,8.3,1,49.276,1,58.583,0,8.294-6.031,12.823-14.08,12.823-6.785,0-6.785-2.766-6.785-5.786,0-5.528,1.006-31.928,1.006-37.962,0-13.829,0-34.7-.754-47.768-.251-2.514-1.257-14.331-1.257-15.589,0-1.006.248-3.52,2.011-3.52,2.008,0,15.337,7.037,18.351,8.042a39.682,39.682,0,0,0,10.811,1.509H182.968c3.272,0,5.28-.251,8.049-3.265,5.779-6.537,6.537-7.04,7.794-7.04s18.1,9.554,18.1,14.583c0,1.757-.5,2.514-5.28,8.294-2.011,2.263-2.011,14.335-2.011,18.1,0,6.789.754,40.228.754,47.771,0,5.528,0,10.808-8.8,17.094-5.277,3.771-12.571,6.034-14.328,6.034-3.02,0-4.278-1.757-7.8-7.794a25.534,25.534,0,0,0-15.086-11.063c-3.517-1.006-4.522-2.762-4.522-3.52,0-1,1.76-1,2.766-1,2.514,0,17.1,1,20.362,1,9.306,0,9.306-3.517,9.306-7.791,0-3.771.251-22.377.251-26.651,0-17.848,0-28.914-.251-32.434-.255-5.528-5.283-5.528-8.549-5.528Zm42.488-30.926c-3.269,0-6.034,0-7.04,3.269-1.006,2.514-3.017,8.294-11.566,8.294-8.3,0-8.3-5.277-8.3-11.059,0-2.514.506-15.337.506-18.1,0-6.034-.255-18.857-.506-24.385,0-.758-.751-4.777-.751-5.535,0-1,0-2.766,2.008-2.766,1.006,0,13.074,5.28,14.331,5.786,5.531,2.514,8.8,2.762,13.829,2.762h55.311c4.274,0,5.783-.5,7.543-2.514,2.766-3.269,5.029-5.528,6.537-5.528,1.76,0,17.6,9.051,17.6,12.571,0,1.509-5.783,6.785-6.286,8.294a38.121,38.121,0,0,0-.754,7.543c0,2.766.5,16.846.5,20.114,0,6.034-6.789,11.314-13.577,11.314-4.274,0-4.777-1.76-5.28-5.28-.754-4.777-4.274-4.777-8.046-4.777Zm11.314,93.025c-3.771,0-5.783,0-7.04,4.274-1.257,4.522-2.514,8.8-10.815,8.8-7.037,0-7.539-3.269-7.539-7.291,0-3.021.754-18.1.754-21.371,0-5.029-.251-10.56-.251-16.091,0-1.509-1.006-10.057-1.006-11.814,0-1.512.251-3.52,2.011-3.52.251,0,8.8,4.02,9.554,4.271a32.172,32.172,0,0,0,11.817,2.011h32.179c4.526,0,6.034-.5,7.794-2.762,4.026-4.777,4.526-5.283,5.531-5.283s17.851,7.8,17.851,12.32c0,1.257-.251,1.509-4.526,6.537a6.287,6.287,0,0,0-2.011,5.029c0,2.263.5,23.634.5,24.891,0,8.046-8.8,11.817-12.823,11.817-4.526,0-5.029-2.011-5.783-7.04-.251-2.263-2.259-4.777-7.288-4.777ZM84.666,67.128c-8.3,0-8.3,3.02-8.3,10.309,0,16.594,0,18.354,7.295,18.354h58.076c7.543,0,7.543-.5,7.543-20.366,0-4.019,0-8.3-7.291-8.3ZM95.98,161.158c-8.3,0-8.3,3.017-8.3,12.571,0,12.571,0,15.086,8.3,15.086h28.411c8.042,0,8.042-3.017,8.042-12.571,0-12.823,0-15.086-8.042-15.086Z" transform="translate(15.631 0)" fill="#fff"/>
          <path id="パス_68" data-name="パス 68" d="M40.225,222.924c0,1.76-1.257,2.766-5.528,6.034-1.763,1.257-3.52,5.531-6.792,13.828-5.528,13.829-15.585,33.437-24.134,40.979-.5.5-2.514,3.017-3.269,3.017-.251,0-.5-.251-.5-.754s5.783-14.328,6.789-17.1a232.855,232.855,0,0,0,11.059-49.779c.506-5.535.758-7.291,3.02-7.291,1.509,0,6.034,1.757,8.294,2.766,2.514,1.257,11.063,5.783,11.063,8.3M79.2,191.5c-1.257,0-12.823,1.76-14.834,3.017-2.766,1.509-2.766,4.526-2.766,32.434,0,13.577,0,37.711.758,50.534.248,2.011,1.257,10.811,1.257,12.571,0,8.046-6.792,11.562-14.08,11.562-4.278,0-6.286-2.008-6.286-6.785,0-2.015,2.514-58.834,2.514-69.9V203.312c0-1.509-.255-5.531-3.771-5.531-2.514,0-19.112,4.023-22.126,4.526-1.257.5-7.04,4.023-8.549,4.023-6.034,0-9.3-22.88-9.3-24.137,0-1.509.5-3.269,2.766-3.269,2.011,0,9.806,3.771,11.566,4.274A100.984,100.984,0,0,0,27.657,184.2c4.019,0,6.282,0,21.117-28.911,6.537-12.823,19.108-39.726,19.863-45.257.251-2.514.5-4.271,2.766-4.271,3.771,0,21.12,12.317,21.12,16.591,0,3.52-2.011,4.023-5.28,4.526C81.208,128.139,58.831,160.57,53.3,166.6c-2.015,2.266-13.577,14.834-13.577,16.091,0,.5.5,1.76,2.514,2.011,1.257.255,9.3.255,12.571.255,6.034,0,18.1-.255,20.362-.758,2.015-.251,3.272-1.006,3.272-2.766s-4.78-13.326-5.786-15.84a46.879,46.879,0,0,1-2.514-5.029.923.923,0,0,1,1.006-1.006c5.029,0,31.177,18.857,31.177,34.948,0,5.28-3.269,12.571-9.051,12.571-5.029,0-7.291-5.531-8.3-9.3-.251-1.509-1.257-4.526-2.766-5.531A8.694,8.694,0,0,0,79.2,191.5M42.491,75.845a2.764,2.764,0,0,1,3.014-3.02c3.02,0,21.12,10.563,21.12,15.34,0,1.757-1.509,2.259-6.286,4.023-3.014,1.257-23.379,27.905-23.379,31.677,0,1.509.251,1.76,3.017,5.28,5.029,6.789,5.029,11.314,5.029,12.819,0,6.034-3.272,12.072-8.552,12.072-4.271,0-6.534-4.274-7.791-7.043-5.28-11.314-8.8-18.6-20.366-30.168-.754-.754-5.531-4.023-5.531-5.28,0-.751.754-.751,1.76-.751,4.777,0,13.577,3.265,18.351,5.528,4.78,2.514,5.283,2.514,6.54,2.011,3.517-1.257,13.074-33.44,13.074-42.488M93.276,243.538c0,3.771-1.257,13.829-8.3,13.829s-7.543-6.286-8.8-16.091c-1.76-15.334-2.011-17.094-3.52-24.888-.251-1.512-.5-3.52-.5-4.026s.248-.751.5-.751c1.509,0,5.786,4.274,7.04,5.779,7.794,8.049,13.577,16.849,13.577,26.148M171.718,90.425c3.269,0,5.531-.251,8.046-3.265,2.263-2.514,3.269-3.021,4.526-3.021,2.514,0,18.351,9.806,18.351,13.326,0,1.76-7.543,6.537-8.545,8.046-3.52,5.783-9.3,41.231-9.3,47.017,0,3.771,1.76,3.771,7.291,3.771,3.269,0,5.528-.251,7.543-2.766,3.269-3.269,3.52-3.771,5.528-3.771,4.026,0,21.626,11.566,21.626,15.585,0,2.015-3.52,3.272-5.786,4.274-5.277,1.512-6.286,3.02-10.811,15.34A178.24,178.24,0,0,1,185.3,231.724c-1.512,2.008-3.269,4.023-3.269,6.785,0,5.28,16.343,25.394,51.288,38.971.5.251,5.029,2.011,5.029,2.766s-3.52,1.257-4.777,1.509a66.3,66.3,0,0,0-17.848,6.286c-1.009.5-5.029,4.774-6.286,4.774-4.023,0-23.135-17.094-33.943-31.928-3.269-4.777-5.029-6.534-7.543-6.534-2.011,0-4.526,2.263-6.034,3.771a216.367,216.367,0,0,1-26.148,20.614C114.9,292.063,91.013,298.1,90.259,298.1c-.251,0-1.006,0-1.006-.5s18.606-11.063,21.874-13.326c30.423-20.111,49.028-40.48,49.028-45.76a15.27,15.27,0,0,0-2.015-6.785c-12.823-26.4-15.334-42.991-20.114-74.419-1.006-5.783-1.006-6.286-1.757-6.286s-1.006,1.257-1.257,2.008c-5.535,42.491-6.286,47.268-11.063,64.868-11.82,42.491-45.505,71.654-46.762,71.654-.255,0-.506-.251-.506-.754,0-1.006,16.846-29.417,19.611-35.2,21.371-44,24.385-107.6,24.385-145.57,0-5.531,0-10.808-6.785-10.808-2.263,0-13.829,1.006-15.592,1.006-1,0-1.505-.506-2.259-1.512l-5.029-5.779c-.754-1.257-1.006-1.509-1.006-1.763,0-.5.5-.5,1.006-.5,1.509,0,9.3.758,11.059.758,7.043.251,20.114,1,34.449,1Zm15.337,72.408a5.976,5.976,0,0,0-5.029,2.015c-2.015,2.766-3.771,5.28-9.554,5.28-6.034,0-7.543-2.514-7.543-6.792,0-7.037,11.063-54.3,11.063-61.6,0-4.774-3.771-4.774-7.794-4.774H145.821c-7.291,0-8.294,1.257-8.294,23.128,0,44,25.139,102.324,33.437,102.324,4.023,0,12.571-20.111,15.84-27.4,4.522-10.811,9.806-25.394,9.806-28.16,0-4.023-3.52-4.023-5.029-4.023Z" transform="translate(0 193.399)" fill="#fff"/>
          <path id="パス_117" data-name="パス 117" d="M8.592-8.4V0H7.032V-3.6H2.688V0H1.128V-8.4h1.56v3.468H7.032V-8.4Zm2.964,0h1.56V0h-1.56ZM21.828-4.3H23.3V-.948a4.693,4.693,0,0,1-1.512.792A5.8,5.8,0,0,1,20.016.12,4.79,4.79,0,0,1,17.7-.438,4.146,4.146,0,0,1,16.08-1.98a4.244,4.244,0,0,1-.588-2.22,4.244,4.244,0,0,1,.588-2.22,4.135,4.135,0,0,1,1.626-1.542A4.85,4.85,0,0,1,20.04-8.52a5.1,5.1,0,0,1,1.92.348,3.768,3.768,0,0,1,1.452,1.02l-.984.96a3.156,3.156,0,0,0-2.316-.96,3.273,3.273,0,0,0-1.578.372,2.713,2.713,0,0,0-1.08,1.044,3,3,0,0,0-.39,1.536,2.957,2.957,0,0,0,.39,1.512,2.8,2.8,0,0,0,1.08,1.056,3.165,3.165,0,0,0,1.566.384,3.379,3.379,0,0,0,1.728-.432Zm11.7-4.1V0h-1.56V-3.6H27.624V0h-1.56V-8.4h1.56v3.468h4.344V-8.4ZM5.016,19.12a4.731,4.731,0,0,1-2.3-.558A4.113,4.113,0,0,1,1.11,17.02a4.5,4.5,0,0,1,.006-4.44A4.157,4.157,0,0,1,2.73,11.038a4.731,4.731,0,0,1,2.3-.558,4.793,4.793,0,0,1,1.884.36,3.843,3.843,0,0,1,1.44,1.044l-1.008.948A2.94,2.94,0,0,0,5.1,11.848a3.146,3.146,0,0,0-1.548.378,2.723,2.723,0,0,0-1.068,1.05,3.216,3.216,0,0,0,0,3.048,2.723,2.723,0,0,0,1.068,1.05,3.146,3.146,0,0,0,1.548.378,2.924,2.924,0,0,0,2.244-1l1.008.96A3.832,3.832,0,0,1,6.906,18.76,4.837,4.837,0,0,1,5.016,19.12ZM10.56,10.6h1.56v7.08h4.392V19H10.56Zm13.4,6.456h-4.2L18.936,19H17.328l3.78-8.4h1.536L26.436,19H24.8Zm-.516-1.224L21.864,12.16l-1.572,3.672Zm7.368,3.288a6.408,6.408,0,0,1-1.878-.276,3.919,3.919,0,0,1-1.434-.732l.54-1.212a4.254,4.254,0,0,0,1.266.666,4.6,4.6,0,0,0,1.506.258,2.6,2.6,0,0,0,1.4-.3.909.909,0,0,0,.462-.792.767.767,0,0,0-.258-.594,1.811,1.811,0,0,0-.654-.366q-.4-.132-1.08-.3a12.59,12.59,0,0,1-1.554-.456,2.557,2.557,0,0,1-1.02-.714,1.923,1.923,0,0,1-.426-1.314,2.241,2.241,0,0,1,.378-1.266,2.558,2.558,0,0,1,1.14-.906,4.619,4.619,0,0,1,1.866-.336,6.027,6.027,0,0,1,1.512.192,4.179,4.179,0,0,1,1.284.552l-.492,1.212a4.854,4.854,0,0,0-1.152-.492,4.309,4.309,0,0,0-1.164-.168,2.432,2.432,0,0,0-1.374.312.962.962,0,0,0-.45.828.749.749,0,0,0,.258.588,1.864,1.864,0,0,0,.654.36q.4.132,1.08.3a11.365,11.365,0,0,1,1.536.45,2.63,2.63,0,0,1,1.026.714,1.882,1.882,0,0,1,.426,1.3,2.213,2.213,0,0,1-.378,1.26,2.571,2.571,0,0,1-1.146.9A4.662,4.662,0,0,1,30.816,19.12Zm8.256,0a6.408,6.408,0,0,1-1.878-.276,3.919,3.919,0,0,1-1.434-.732L36.3,16.9a4.254,4.254,0,0,0,1.266.666,4.6,4.6,0,0,0,1.506.258,2.6,2.6,0,0,0,1.4-.3.909.909,0,0,0,.462-.792.767.767,0,0,0-.258-.594,1.811,1.811,0,0,0-.654-.366q-.4-.132-1.08-.3a12.59,12.59,0,0,1-1.554-.456,2.557,2.557,0,0,1-1.02-.714,1.923,1.923,0,0,1-.426-1.314,2.241,2.241,0,0,1,.378-1.266,2.558,2.558,0,0,1,1.14-.906,4.619,4.619,0,0,1,1.866-.336,6.027,6.027,0,0,1,1.512.192,4.179,4.179,0,0,1,1.284.552l-.492,1.212a4.854,4.854,0,0,0-1.152-.492,4.309,4.309,0,0,0-1.164-.168,2.432,2.432,0,0,0-1.374.312.962.962,0,0,0-.45.828.749.749,0,0,0,.258.588,1.864,1.864,0,0,0,.654.36q.4.132,1.08.3a11.365,11.365,0,0,1,1.536.45,2.63,2.63,0,0,1,1.026.714,1.882,1.882,0,0,1,.426,1.3,2.213,2.213,0,0,1-.378,1.26,2.571,2.571,0,0,1-1.146.9A4.662,4.662,0,0,1,39.072,19.12Z" transform="translate(221 61.077) rotate(90)" fill="#fff"/>
        </g>
      </g>
    </g>
    <g id="グループ_26950" data-name="グループ 26950" transform="translate(146 -1481)">
      <line id="線_6" data-name="線 6" x2="245" transform="translate(40 612.5)" fill="none" stroke="#fff" stroke-width="1"/>
      <line id="線_7" data-name="線 7" x2="245" transform="translate(40 673)" fill="none" stroke="#fff" stroke-width="1"/>
      <line id="線_8" data-name="線 8" x2="245" transform="translate(40 780)" fill="none" stroke="#fff" stroke-width="1"/>
    </g>
  </g>
</svg>
