<svg xmlns="http://www.w3.org/2000/svg" xmlns:xlink="http://www.w3.org/1999/xlink" width="122.643" height="339.402" viewBox="0 0 122.643 339.402">
  <defs>
    <clipPath id="clip-path">
      <rect id="長方形_701" data-name="長方形 701" width="122.582" height="247.223" fill="none"/>
    </clipPath>
  </defs>
  <g id="グループ_27041" data-name="グループ 27041" transform="translate(-2139.357 1352.69)">
    <path id="パス_204" data-name="パス 204" d="M-108.932-14.4h2.052V-.147h-2.052ZM-113.281-1q1.185-.092,2.734-.234t3.27-.317q1.72-.176,3.4-.34l.04,2q-1.59.2-3.224.393T-110.2.851q-1.505.163-2.745.313Zm7.038-2.621,1.9-.541q.359.788.732,1.706t.7,1.782q.328.863.509,1.521l-2.058.662Q-104.6.861-104.9-.026t-.646-1.827Q-105.9-2.793-106.243-3.621Zm-4.172-5.913v3.328h4.961V-9.534Zm-2-1.753h9.08v6.824h-9.08Zm-6.018-1.77,1.418-1.085a10.131,10.131,0,0,1,1.989,2.084A8.784,8.784,0,0,1-113.9-9.839a10.926,10.926,0,0,1,.5,2.329,23.445,23.445,0,0,1,.124,2.428q0,1.173-.081,2.289a12.676,12.676,0,0,1-.291,2A3.808,3.808,0,0,1-114.25.621a1.851,1.851,0,0,1-.463.43,1.8,1.8,0,0,1-.607.251,5.505,5.505,0,0,1-1.038.133q-.545.02-1.158,0a4.669,4.669,0,0,0-.148-1,3.4,3.4,0,0,0-.4-.943q.635.047,1.083.041t.728-.027a.778.778,0,0,0,.538-.3,2.053,2.053,0,0,0,.294-.876A14.937,14.937,0,0,0-115.26-3.2q.053-.9.053-1.932a19.211,19.211,0,0,0-.124-2.226,9.722,9.722,0,0,0-.46-2.039,7.716,7.716,0,0,0-.969-1.891A8.88,8.88,0,0,0-118.428-13.056ZM-115-8l1.5.9a13.347,13.347,0,0,1-1.046,1.7A18.247,18.247,0,0,1-115.88-3.73a12.863,12.863,0,0,1-1.4,1.346,8.073,8.073,0,0,0-.621-.8,4.522,4.522,0,0,0-.748-.708A9.017,9.017,0,0,0-117.268-5a12.409,12.409,0,0,0,1.3-1.458A9.664,9.664,0,0,0-115-8Zm.671-6.08,1.8.9a19.689,19.689,0,0,1-2.135,3.019A16.7,16.7,0,0,1-117.231-7.7a4.152,4.152,0,0,0-.4-.46q-.247-.25-.512-.486a4.741,4.741,0,0,0-.492-.39,12.292,12.292,0,0,0,1.667-1.44,16.086,16.086,0,0,0,1.486-1.762A14.533,14.533,0,0,0-114.329-14.078ZM-98.168-8.53h9.246v1.889h-9.246Zm0,3.638h9.246v1.885h-9.246Zm0,3.654h9.246V.651h-9.246Zm-1.388-11h12.347V1.476h-2.164V-10.284h-8.122V1.506h-2.062Zm4.825-2.23,2.469.269q-.308.839-.648,1.638t-.629,1.37l-1.867-.341q.143-.427.273-.94t.241-1.032A9.586,9.586,0,0,0-94.73-14.466Zm19.784,2.813q-.179,1.3-.448,2.76a26.565,26.565,0,0,1-.732,2.968,15.641,15.641,0,0,1-1.16,2.954A6.413,6.413,0,0,1-78.738-1.06a2.608,2.608,0,0,1-1.717.671,2.7,2.7,0,0,1-1.735-.638,4.379,4.379,0,0,1-1.259-1.762,6.571,6.571,0,0,1-.469-2.553,6.637,6.637,0,0,1,.6-2.78,7.43,7.43,0,0,1,1.659-2.323,7.876,7.876,0,0,1,2.485-1.591,8.055,8.055,0,0,1,3.07-.58,7.583,7.583,0,0,1,2.847.507A6.33,6.33,0,0,1-71.1-10.695a6.236,6.236,0,0,1,1.38,2.115,6.973,6.973,0,0,1,.48,2.6,6.846,6.846,0,0,1-.729,3.193,6.053,6.053,0,0,1-2.166,2.33A9.231,9.231,0,0,1-75.713.8L-77-1.223q.5-.057.869-.126t.722-.147a6.156,6.156,0,0,0,1.518-.58,4.75,4.75,0,0,0,1.229-.955,4.164,4.164,0,0,0,.821-1.334,4.658,4.658,0,0,0,.294-1.692,5.344,5.344,0,0,0-.3-1.836,4.067,4.067,0,0,0-.895-1.45,4.01,4.01,0,0,0-1.447-.951,5.33,5.33,0,0,0-1.959-.336,5.634,5.634,0,0,0-2.394.483,5.494,5.494,0,0,0-1.753,1.254,5.544,5.544,0,0,0-1.075,1.657,4.426,4.426,0,0,0-.363,1.678,4.368,4.368,0,0,0,.2,1.419,2.07,2.07,0,0,0,.5.85.93.93,0,0,0,.639.281.987.987,0,0,0,.707-.362,4.064,4.064,0,0,0,.683-1.112,16.325,16.325,0,0,0,.689-1.9,22.756,22.756,0,0,0,.656-2.608,27.194,27.194,0,0,0,.387-2.729ZM-59.32-8.987H-53.7v1.846H-59.32Zm.177,7.795h5.683V.6h-5.683Zm2.516-10.949a17.372,17.372,0,0,1-1.106,1.625,21.059,21.059,0,0,1-1.438,1.7,13.777,13.777,0,0,1-1.634,1.488,7.319,7.319,0,0,0-.519-.922,7.052,7.052,0,0,0-.633-.852,11.6,11.6,0,0,0,1.7-1.51,18.866,18.866,0,0,0,1.51-1.829,13.179,13.179,0,0,0,1.087-1.746h1.936q.589.887,1.327,1.816a17.741,17.741,0,0,0,1.563,1.727A10.41,10.41,0,0,0-51.2-9.331q-.314.39-.653.9a11.182,11.182,0,0,0-.592,1,15.6,15.6,0,0,1-1.546-1.417,21.96,21.96,0,0,1-1.474-1.691Q-56.145-11.409-56.627-12.142ZM-60.2-5.632h7.582V1.44h-1.952V-3.836h-3.758V1.508H-60.2Zm-4.731-8.8,1.762.662-.712,1.341q-.37.7-.729,1.323t-.686,1.1l-1.359-.588q.314-.516.633-1.182t.613-1.364Q-65.119-13.839-64.934-14.432Zm1.95,2.016,1.66.751q-.61.969-1.337,2.034t-1.457,2.038q-.73.973-1.386,1.711L-66.69-6.54q.476-.578.988-1.306t1.01-1.52q.5-.791.938-1.581T-62.984-12.416ZM-67.552-10.4l.973-1.389q.453.381.922.853t.865.934a5.1,5.1,0,0,1,.608.85l-1.052,1.577a5.76,5.76,0,0,0-.585-.9q-.383-.5-.836-1.006T-67.552-10.4Zm4.069,2.041,1.344-.555q.334.567.641,1.225t.537,1.278A7.181,7.181,0,0,1-60.634-5.3l-1.444.645a7.346,7.346,0,0,0-.3-1.138q-.217-.639-.5-1.315A13.732,13.732,0,0,0-63.483-8.362Zm-4.091,1.417q1.173-.034,2.8-.1l3.309-.14-.017,1.617q-1.572.111-3.125.216t-2.8.186Zm4.456,2.821,1.433-.464q.312.727.613,1.589a14.137,14.137,0,0,1,.447,1.5l-1.507.538a12.566,12.566,0,0,0-.405-1.535Q-62.824-3.38-63.118-4.124Zm-3.717-.326,1.69.3a19.924,19.924,0,0,1-.4,2.407A11.258,11.258,0,0,1-66.186.264a4.35,4.35,0,0,0-.454-.256q-.284-.142-.583-.279a4.971,4.971,0,0,0-.513-.207,7.5,7.5,0,0,0,.589-1.828A20.043,20.043,0,0,0-66.835-4.449Zm1.91-1.6h1.779V1.536h-1.779Zm18.546-2.441h7.436V-6.6h-7.436Zm.732-3.8h9v1.952h-9Zm-4.546,7.494H-34.77v1.952H-50.192Zm10.546-3.695h2.1l-.009.165q-.008.165-.022.377t-.03.355q-.21,2.62-.439,4.294a17.733,17.733,0,0,1-.511,2.6A3.463,3.463,0,0,1-39.222.647a2.127,2.127,0,0,1-.807.594,4.23,4.23,0,0,1-1.008.231,11.018,11.018,0,0,1-1.265.046q-.786-.007-1.63-.036a4.06,4.06,0,0,0-.23-1.031,4.208,4.208,0,0,0-.5-1.014q.876.075,1.656.094t1.151.019a2.37,2.37,0,0,0,.482-.041A.862.862,0,0,0-41-.68a2.378,2.378,0,0,0,.54-1.108A17.551,17.551,0,0,0-40.017-4.2q.2-1.562.371-3.943Zm-6.681-5.979,2.128.2q-.177,1.051-.382,2.188t-.429,2.258q-.224,1.121-.439,2.137t-.406,1.813l-2.151-.178q.221-.811.45-1.841t.459-2.165q.23-1.134.428-2.263T-46.328-14.466Zm23.257,1.433h1.9v9.615h-1.9Zm3.058-1.119h1.959V-.887a3.521,3.521,0,0,1-.184,1.28,1.4,1.4,0,0,1-.653.711,3.5,3.5,0,0,1-1.214.317,16.9,16.9,0,0,1-1.723.077,7.183,7.183,0,0,0-.239-1.02,8.472,8.472,0,0,0-.379-1.041q.664.017,1.253.025t.814,0A.436.436,0,0,0-20.1-.61a.373.373,0,0,0,.083-.282Zm-9.485-.18h1.938V1.508H-29.5Zm3.431,8.342h1.836v4.358a3.3,3.3,0,0,1-.118.967,1.087,1.087,0,0,1-.492.607A2.111,2.111,0,0,1-25.7.206a9.4,9.4,0,0,1-1.131.037,4.1,4.1,0,0,0-.183-.876,6.988,6.988,0,0,0-.317-.85q.35.017.649.017t.416,0a.179.179,0,0,0,.2-.2Zm-6.649,0h7.374v1.819H-30.9V.16h-1.819Zm-.662-3.069h9.548v1.849h-9.548Zm1.774-3.12H-24.5v1.846H-31.97Zm-.471-1.947,1.876.38a22.1,22.1,0,0,1-.73,2.63,13.552,13.552,0,0,1-.945,2.184,4.567,4.567,0,0,0-.52-.27q-.324-.147-.662-.275t-.583-.212a9.206,9.206,0,0,0,.933-2.027A17.926,17.926,0,0,0-32.074-14.125Zm19.336,4.466H-.932v1.607H-12.738Zm.128,4.951h9.336v1.6H-12.61Zm2.172-6.071h1.929v3.856H-5.4v-3.856h2v5.4h-7.046ZM-3.8-4.708h.4l.354-.074,1.278.645a7.824,7.824,0,0,1-1.777,2.36A10.286,10.286,0,0,1-6.038-.132,15.818,15.818,0,0,1-9.072.929a31.345,31.345,0,0,1-3.427.628,5.673,5.673,0,0,0-.359-.884,4.97,4.97,0,0,0-.489-.821A27.867,27.867,0,0,0-10.224-.6a15.807,15.807,0,0,0,2.763-.817A8.793,8.793,0,0,0-5.255-2.677,5.325,5.325,0,0,0-3.8-4.443ZM-9.115-3.452A6.355,6.355,0,0,0-7.077-1.827,12.673,12.673,0,0,0-4.129-.751,24.74,24.74,0,0,0-.5-.176,4.534,4.534,0,0,0-.94.351q-.232.317-.429.639a6.47,6.47,0,0,0-.324.589A21.388,21.388,0,0,1-5.476.768,12.453,12.453,0,0,1-8.556-.672,9.256,9.256,0,0,1-10.87-2.823Zm.09-10.99H-6.9v2.555H-9.025ZM-14.12-12.91H-.836v1.819H-14.12Zm-1,0h1.952v4.789q0,1.041-.064,2.29t-.252,2.556a18.108,18.108,0,0,1-.549,2.534,9.93,9.93,0,0,1-.941,2.219,3.827,3.827,0,0,0-.477-.4q-.311-.225-.632-.429a3.585,3.585,0,0,0-.562-.3A8.311,8.311,0,0,0-15.8-1.632a15.287,15.287,0,0,0,.452-2.219q.146-1.138.189-2.239t.042-2.032Z" transform="translate(2260.178 -1076.309)" fill="#fff"/>
    <path id="パス_205" data-name="パス 205" d="M-106.818.228a6.4,6.4,0,0,1-2.669-.5,3.668,3.668,0,0,1-1.644-1.384,3.772,3.772,0,0,1-.553-2.041,3.286,3.286,0,0,1,.484-1.8,5.269,5.269,0,0,1,1.239-1.347A12.964,12.964,0,0,1-108.35-7.9q.855-.478,1.61-.945A5.535,5.535,0,0,0-105.5-9.863a1.84,1.84,0,0,0,.485-1.257,1.4,1.4,0,0,0-.351-1,1.261,1.261,0,0,0-.969-.376,1.437,1.437,0,0,0-1.081.419,1.685,1.685,0,0,0-.407,1.221,2.814,2.814,0,0,0,.406,1.38,8.148,8.148,0,0,0,1.09,1.47,19.377,19.377,0,0,0,1.517,1.483q.833.733,1.7,1.423t1.624,1.287a19.468,19.468,0,0,0,1.6,1.138q.762.482,1.225.727L-99.91.236q-.756-.441-1.526-.941a18.844,18.844,0,0,1-1.8-1.361q-1.178-1-2.384-2.055a28.652,28.652,0,0,1-2.216-2.147,10.961,10.961,0,0,1-1.618-2.222,4.744,4.744,0,0,1-.607-2.27,3.669,3.669,0,0,1,.476-1.912,3.277,3.277,0,0,1,1.3-1.239,3.918,3.918,0,0,1,1.865-.439,3.767,3.767,0,0,1,2.568.833,2.89,2.89,0,0,1,.954,2.3,3.251,3.251,0,0,1-.455,1.736,5.029,5.029,0,0,1-1.17,1.31,15.3,15.3,0,0,1-1.526,1.066q-.81.5-1.526.983a5.319,5.319,0,0,0-1.17,1.053,2.022,2.022,0,0,0-.455,1.3,1.547,1.547,0,0,0,.744,1.4,3.446,3.446,0,0,0,1.876.471,3.08,3.08,0,0,0,1.748-.575,6.517,6.517,0,0,0,1.552-1.515,8.078,8.078,0,0,0,1.027-1.733,7.911,7.911,0,0,0,.567-2.132h2.471a13.314,13.314,0,0,1-.838,2.705,13.715,13.715,0,0,1-1.4,2.459,7.789,7.789,0,0,1-2.212,2.13A5.859,5.859,0,0,1-106.818.228ZM-87.5-14.715v11.8h-3.68v-8.255h-3.6v-3.549Zm0,10.282A5.548,5.548,0,0,0-84.876-2.1a11.455,11.455,0,0,0,4.15.854q1.441.057,3.465.073t4.248-.012q2.225-.029,4.361-.114t3.808-.224a9.709,9.709,0,0,0-.456,1.1q-.242.675-.44,1.379t-.3,1.263q-1.484.082-3.406.126t-3.97.061q-2.048.016-3.962-.013T-80.761,2.3a15.253,15.253,0,0,1-4.893-.92,8.115,8.115,0,0,1-3.454-2.645Q-90.062-.32-91.1.616T-93.339,2.59l-1.82-3.816q1.02-.671,2.157-1.5t2.172-1.71Zm-7.163-19.773,2.925-2.16q.931.711,1.912,1.608t1.817,1.8a12.372,12.372,0,0,1,1.34,1.68l-3.165,2.423a11.086,11.086,0,0,0-1.228-1.733q-.8-.951-1.747-1.9T-94.659-24.206Zm7.679,5.348h21.534V-16.2H-86.979Zm6.087,5.776v1.658h9.2v-1.658Zm-3.549-2.134h16.558v5.924H-84.441Zm6.875,4.066,3.21,1.125A17.745,17.745,0,0,1-77.223-7.1a26.225,26.225,0,0,1-3.586,2.466,32.143,32.143,0,0,1-3.8,1.865,8.8,8.8,0,0,0-.62-.9q-.406-.531-.821-1.062a6.885,6.885,0,0,0-.768-.852,28.7,28.7,0,0,0,3.561-1.425,21.669,21.669,0,0,0,3.235-1.9A12.706,12.706,0,0,0-77.566-11.15Zm8.888.522,2.7,1.846q-1.238.87-2.487,1.678t-2.266,1.365l-2.02-1.546q.65-.419,1.4-1.005T-69.875-9.5Q-69.161-10.12-68.678-10.628Zm-6.357.784A9.587,9.587,0,0,0-72.683-7.7a15.371,15.371,0,0,0,3.316,1.627A22.234,22.234,0,0,0-65.406-5.07,9.187,9.187,0,0,0-66.56-3.72a12.437,12.437,0,0,0-.958,1.514A19.612,19.612,0,0,1-71.708-3.69a15.42,15.42,0,0,1-3.476-2.32,14.583,14.583,0,0,1-2.6-3.034Zm2.669-14.35v2.211h2.051v-2.211Zm-4.919,0v2.211h2.012v-2.211Zm-4.863,0v2.211h1.963v-2.211Zm-3.231-2.151h18.463v6.513H-85.38Zm6.948,15.862h3.656v8.625h-3.656Zm32.369-3.292h3.973V-2.691a1.971,1.971,0,0,0,.215,1.158,1.416,1.416,0,0,0,1,.24h2.912a.921.921,0,0,0,.815-.4,3.826,3.826,0,0,0,.4-1.56q.131-1.162.188-3.48a7.767,7.767,0,0,0,1.069.645,12.287,12.287,0,0,0,1.309.576q.675.251,1.178.39a22.675,22.675,0,0,1-.65,4.49,4.02,4.02,0,0,1-1.4,2.283,4.387,4.387,0,0,1-2.568.66h-3.878a6.8,6.8,0,0,1-2.8-.463A2.6,2.6,0,0,1-45.673.3a9.064,9.064,0,0,1-.39-2.961Zm-16.25-2.463h28.707v3.731H-62.312Zm2.913-8.7h22.848v3.7H-59.4ZM-54.979-13.3h4.13a46.334,46.334,0,0,1-.642,5.018,17.444,17.444,0,0,1-1.438,4.428A12.241,12.241,0,0,1-55.78-.112a16.066,16.066,0,0,1-4.876,2.888,8.17,8.17,0,0,0-1.008-1.643A9.032,9.032,0,0,0-63.019-.336a13.244,13.244,0,0,0,4.174-2.33,9.4,9.4,0,0,0,2.332-3.01,12.906,12.906,0,0,0,1.091-3.582Q-55.12-11.185-54.979-13.3Zm36.905-13.87h3.955v4.487h-3.955Zm0,18.7h3.955V2.882h-3.955ZM-30.437-6.4h28.93v3.549h-28.93Zm1.064-17.671H-2.506v3.481H-29.373Zm23.645,3.877,3.439,1.642Q-3.5-17.43-4.823-16.4T-7.236-14.6l-2.8-1.5q.721-.544,1.512-1.248t1.533-1.456Q-6.25-19.559-5.728-20.192Zm-12.65-1.365,3.243,1.2q-.957,1.259-1.96,2.5t-1.855,2.121L-21.36-16.8q.533-.665,1.08-1.5t1.05-1.7Q-18.726-20.86-18.378-21.557Zm4.812,2.335,2.979,1.361q-1.327,1.554-2.892,3.191t-3.131,3.125q-1.566,1.488-2.96,2.6l-2.245-1.222q1.393-1.192,2.91-2.752t2.928-3.214Q-14.566-17.782-13.566-19.222Zm-9.376,2.784,1.788-2.181q.928.544,1.982,1.248t2.018,1.392A13.69,13.69,0,0,1-15.6-14.715l-1.881,2.484a14.2,14.2,0,0,0-1.5-1.35q-.93-.741-1.981-1.5T-22.943-16.438Zm-.287,5.106q1.586-.064,3.638-.135t4.36-.186q2.308-.116,4.648-.212l-.025,2.7q-3.221.274-6.391.519t-5.694.431Zm8.8-2.143,2.715-1.154q.7.889,1.4,1.941t1.268,2.073a10.473,10.473,0,0,1,.834,1.845l-2.9,1.325a11.275,11.275,0,0,0-.769-1.881q-.527-1.049-1.19-2.143A22.758,22.758,0,0,0-14.429-13.475Zm-16.361,2.73q1.536-.491,3.7-1.317t4.406-1.668l.674,2.821q-1.748.86-3.574,1.717t-3.382,1.543Zm.981-7.064,2.545-2.056q.835.43,1.777,1.02t1.8,1.2a13.02,13.02,0,0,1,1.4,1.13l-2.687,2.276A13.218,13.218,0,0,0-26.3-15.4q-.818-.643-1.735-1.284T-29.809-17.81Zm19.06,5.929,2.609-2.088q1.1.54,2.38,1.272t2.436,1.477A21.391,21.391,0,0,1-1.4-9.845L-4.178-7.53A17.7,17.7,0,0,0-5.987-8.935Q-7.107-9.712-8.361-10.5T-10.749-11.88Z" transform="translate(2254.357 -1029.323)" fill="#fff"/>
    <g id="グループ_26951" data-name="グループ 26951" transform="translate(2139.357 -1097.609)">
      <line id="線_6" data-name="線 6" x2="122.352" transform="translate(0.291)" fill="none" stroke="#fff" stroke-width="1"/>
      <line id="線_7" data-name="線 7" x2="122.582" transform="translate(0 30.255)" fill="none" stroke="#fff" stroke-width="1"/>
      <line id="線_8" data-name="線 8" x2="122.582" transform="translate(0 83.82)" fill="none" stroke="#fff" stroke-width="1"/>
    </g>
    <g id="マスクグループ_26" data-name="マスクグループ 26" transform="translate(2139.357 -1352.69)" clip-path="url(#clip-path)">
      <g id="グループ_26933" data-name="グループ 26933" transform="translate(2.788 -0.399)">
        <g id="グループ_26937" data-name="グループ 26937">
          <path id="パス_65" data-name="パス 65" d="M88.258,15.7c2.511,0,4.395,0,6.278-2.637,3.516-4.9,3.894-5.525,5.275-5.525,1.505,0,13.433,8.413,13.433,9.792,0,1.76-2.511,1.76-6.78,1.76H24.1c-11.048,0-14.689.124-15.945.251-.378,0-2.26.377-2.637.377s-.628-.377-1.13-.879L2,15.946c-.5-.5-.5-.628-.5-.753a.333.333,0,0,1,.377-.378c.879,0,4.77.5,5.525.5,6.151.377,11.426.377,17.326.377H47.705c3.767,0,4.142-1.508,4.142-4.144a41.86,41.86,0,0,0-.375-5.274c-.126-.753-.753-4.395-.753-5.146C50.719.126,51.094,0,52.1,0a68.137,68.137,0,0,1,9.417,1.76c1.38.375,3.013.628,3.013,2.007,0,.879-.253,1.13-2.387,3.139-1,.879-1,2.762-1,3.641,0,4.395.881,5.148,4.269,5.148ZM21.339,66.546c-3.892,0-3.892.375-3.892,11.424,0,4.145.5,24.608.5,29.256,0,4.142-3.012,6.4-7.031,6.4-3.388,0-3.388-1.381-3.388-2.89,0-2.761.5-15.945.5-18.958,0-6.906,0-17.328-.377-23.855-.126-1.256-.628-7.157-.628-7.785,0-.5.124-1.758,1-1.758,1,0,7.659,3.514,9.164,4.016a19.817,19.817,0,0,0,5.4.753H91.9a4.479,4.479,0,0,0,4.02-1.631c2.886-3.265,3.265-3.516,3.892-3.516s9.039,4.771,9.039,7.283c0,.877-.251,1.256-2.637,4.142-1,1.13-1,7.157-1,9.04,0,3.39.377,20.09.377,23.857,0,2.761,0,5.4-4.395,8.537a18.308,18.308,0,0,1-7.155,3.013c-1.508,0-2.136-.877-3.894-3.892a12.752,12.752,0,0,0-7.534-5.525c-1.756-.5-2.258-1.38-2.258-1.758,0-.5.879-.5,1.381-.5,1.256,0,8.538.5,10.169.5,4.647,0,4.647-1.756,4.647-3.891,0-1.883.126-11.175.126-13.31,0-8.915,0-14.44-.126-16.2-.127-2.761-2.638-2.761-4.269-2.761ZM42.557,51.1c-1.632,0-3.013,0-3.516,1.632a5.592,5.592,0,0,1-5.776,4.142c-4.144,0-4.144-2.635-4.144-5.523,0-1.256.253-7.659.253-9.04,0-3.013-.127-9.417-.253-12.178,0-.378-.375-2.386-.375-2.764,0-.5,0-1.381,1-1.381.5,0,6.529,2.637,7.157,2.89a14.169,14.169,0,0,0,6.906,1.38H71.435c2.135,0,2.888-.249,3.767-1.256,1.381-1.632,2.511-2.761,3.265-2.761.879,0,8.789,4.52,8.789,6.278,0,.753-2.888,3.388-3.139,4.142a19.039,19.039,0,0,0-.377,3.767c0,1.381.251,8.413.251,10.045,0,3.013-3.39,5.65-6.78,5.65-2.135,0-2.386-.879-2.637-2.637C74.2,51.1,72.439,51.1,70.556,51.1Zm5.65,46.456c-1.883,0-2.888,0-3.516,2.135-.628,2.258-1.256,4.395-5.4,4.395-3.514,0-3.765-1.632-3.765-3.641,0-1.508.377-9.04.377-10.673,0-2.511-.126-5.274-.126-8.036,0-.753-.5-5.022-.5-5.9,0-.755.126-1.758,1-1.758.126,0,4.395,2.007,4.771,2.133a16.066,16.066,0,0,0,5.9,1h16.07c2.26,0,3.013-.251,3.892-1.38,2.011-2.386,2.26-2.638,2.762-2.638s8.915,3.894,8.915,6.153c0,.628-.126.753-2.26,3.265a3.14,3.14,0,0,0-1,2.511c0,1.13.251,11.8.251,12.431,0,4.018-4.395,5.9-6.4,5.9-2.26,0-2.511-1-2.888-3.516-.126-1.13-1.128-2.386-3.64-2.386Zm-5.4-64.035c-4.145,0-4.145,1.508-4.145,5.148,0,8.287,0,9.166,3.643,9.166h29c3.767,0,3.767-.251,3.767-10.171,0-2.007,0-4.144-3.641-4.144Zm5.65,46.958c-4.145,0-4.145,1.507-4.145,6.278,0,6.278,0,7.534,4.145,7.534H62.647c4.016,0,4.016-1.507,4.016-6.278,0-6.4,0-7.534-4.016-7.534Z" transform="translate(1.011 0)" fill="#fff"/>
          <path id="パス_66" data-name="パス 66" d="M37.667,135.1c-.753,0-7.031,1.256-7.659,1.381-1.758.5-1.758,2.007-1.758,3.389,0,5.525,1,33.148,1,39.425,0,5.776-4.395,7.912-6.4,7.912-3.139,0-3.139-3.266-3.139-3.894,0-4.142.628-24.734.628-29.505s0-10.546-.126-12.807c0-1.13-.251-2.26-1.507-2.26-.628,0-9.415,2.011-9.794,2.136-.753.124-3.891,2.133-4.77,2.133C2.511,143.012,0,132.718,0,131.837c0-.753.752-.877,1.38-.877.628.124,6.4,1.13,7.159,1.13,2.133,0,2.886,0,9.918-8.789,6.278-8.036,14.314-19.839,17.076-27.12.753-1.758,1.128-1.758,1.381-1.758,1.256,0,9.417,5.65,9.417,8.285,0,1.883-1.381,1.883-3.013,1.883-1.132,0-1.883.5-3.139,2.009-4.646,5.776-12.18,13.561-18.456,20.214-.881.881-4.145,4.395-4.145,4.9,0,1.006,1.634,1.006,2.762,1.006,5.148,0,10.547-.253,15.57-.628,1.758-.126,2.007-.378,2.007-1.006,0-1.379-2.635-8.036-2.635-8.411a.46.46,0,0,1,.5-.5c.753,0,12.178,6.153,12.178,14.563,0,3.139-2.384,6.278-4.77,6.278-1.883,0-2.511-2.133-3.139-4.269a9.638,9.638,0,0,0-1.13-3.265,2.44,2.44,0,0,0-1.256-.375M18.456,152.3c0,1-.5,1.381-1.756,2.26-1.634,1-2.136,2.135-6.278,12.3C9.919,168,4.644,180.8,1.883,180.8c-.378,0-.378-.5-.378-.628,0-.753,1.883-7.031,2.136-8.411a97.909,97.909,0,0,0,3.013-22.476c0-2.009,0-2.258.5-2.258,1.13,0,4.9,1.38,5.65,1.631,5.65,2.009,5.65,2.762,5.65,3.641M22.6,74.082c.126-.879.251-1.381,1-1.381,1,0,11.173,4.771,11.173,6.78,0,1.256-.752,1.505-2.886,2.133-1.381.5-2.135,1.383-8.538,8.789-1.256,1.508-7.281,8.538-7.281,8.917,0,.5.124.628,1.756,1.756,1.13.879,5.525,4.395,5.525,8.789,0,3.013-2.135,5.4-4.77,5.4-3.392,0-4.647-3.139-5.525-5.525A23.852,23.852,0,0,0,6.027,99.193c-1.632-1.631-2.011-2.135-2.011-2.511s.378-.375.628-.375c1.13,0,6.153,1.505,7.159,1.13,2.133-.755,10.42-18.458,10.8-23.355M46.078,163.1a5.247,5.247,0,0,1-4.644,5.4c-3.517,0-3.892-4.52-4.145-7.283a36.514,36.514,0,0,0-2.761-9.794,12.882,12.882,0,0,1-.879-2.135.586.586,0,0,1,.628-.628c1.128,0,4.52,2.26,7.031,5.023,1.256,1.507,4.77,5.65,4.77,9.417m59.389-54.993a68.577,68.577,0,0,0,10.422,5.523c1.632.753,1.756.753,1.756,1,0,1.13-5.146,2.26-6.025,2.761a13.99,13.99,0,0,0-4.269,3.015,1.456,1.456,0,0,1-1.256.5c-.377,0-8.287-5.022-15.57-15.7A105.247,105.247,0,0,1,79.35,82.87c-.375-.877-.628-1.38-1.128-1.38-.628,0-.879.377-2.135,2.762-14.063,25.864-29.631,37.54-31.893,37.54a.331.331,0,0,1-.375-.375,22.011,22.011,0,0,1,2.637-3.641C56,105.973,66.419,87.015,68.8,75.212c.5-2.511.5-2.762,1.632-2.762.5,0,11.927,1.381,11.927,4.269,0,.5-1.13,2.384-1.13,2.888,0,.752,6.405,17.577,24.233,28.5M89.9,142.761c1.381,0,3.139,0,4.395-1.254,2.136-2.136,3.139-3.139,4.02-3.139,1.631,0,8.16,5.649,8.16,7.03,0,.753-.377,1.006-1.507,1.758a4.529,4.529,0,0,0-2.135,3.516c0,1.381.126,23.982.126,27.622,0,2.26,0,5.4-5.776,5.4-2.888,0-3.137-1-3.765-3.891-.378-1.508-1.76-1.508-3.892-1.508h-22.6c-2.135,0-3.265,0-4.018,2.136-.753,2.258-1.507,4.77-5.65,4.77-3.641,0-3.641-2.637-3.641-3.767,0-4.018.377-23.855.377-28.375,0-2.386,0-5.776-.124-7.659,0-1.13-.628-6.4-.628-6.78a.54.54,0,0,1,.5-.5c.753,0,5.4,2.638,6.4,3.013a12.133,12.133,0,0,0,7.157,1.632ZM77.719,124.682c-2.764,0-11.426,0-15.819.249a18.861,18.861,0,0,1-2.638.378c-.5,0-.753-.251-1.128-.879l-2.387-2.888c-.5-.5-.626-.628-.626-.753,0-.253.249-.377.5-.377.877,0,4.77.5,5.523.5,5.274.249,11.3.377,16.949.377,5.525,0,7.159,0,8.54-2.011,2.888-4.267,3.263-4.77,4.144-4.77s1.631.628,7.406,5.525c.879.753,2.762,2.384,2.762,2.888,0,1.758-2.511,1.758-6.655,1.758ZM90.4,174.9c2.89,0,3.892-1.13,3.892-3.641v-22.1c0-3.139-2.637-3.139-3.892-3.139H66.67c-3.139,0-4.018,1.381-4.018,3.767v21.469c0,3.641,2.637,3.641,4.269,3.641Z" transform="translate(0 59.873)" fill="#fff"/>
          <path id="パス_116" data-name="パス 116" d="M4.081.06V4.255H3.3v-1.8H1.133v1.8H.354V.06h.779V1.792H3.3V.06Zm1.48,0H6.34V4.255H5.561Zm5.13,2.05h.737V3.781a2.344,2.344,0,0,1-.755.4,2.9,2.9,0,0,1-.887.138A2.392,2.392,0,0,1,8.63,4.036a2.07,2.07,0,0,1-.809-.77,2.119,2.119,0,0,1-.294-1.109,2.119,2.119,0,0,1,.294-1.109,2.065,2.065,0,0,1,.812-.77A2.422,2.422,0,0,1,9.8,0a2.545,2.545,0,0,1,.959.174,1.882,1.882,0,0,1,.725.509l-.491.479A1.576,1.576,0,0,0,9.834.683a1.634,1.634,0,0,0-.788.186,1.355,1.355,0,0,0-.539.521,1.5,1.5,0,0,0-.195.767,1.477,1.477,0,0,0,.195.755,1.4,1.4,0,0,0,.539.527,1.581,1.581,0,0,0,.782.192,1.687,1.687,0,0,0,.863-.216ZM16.534.06V4.255h-.779v-1.8H13.586v1.8h-.779V.06h.779V1.792h2.169V.06ZM1.654,13.8a3.2,3.2,0,0,1-.938-.138A1.957,1.957,0,0,1,0,13.3l.27-.605a2.124,2.124,0,0,0,.632.333,2.3,2.3,0,0,0,.752.129,1.3,1.3,0,0,0,.7-.15.454.454,0,0,0,.231-.4.383.383,0,0,0-.129-.3.9.9,0,0,0-.327-.183q-.2-.066-.539-.15a6.287,6.287,0,0,1-.776-.228A1.277,1.277,0,0,1,.3,11.4a.96.96,0,0,1-.213-.656,1.119,1.119,0,0,1,.189-.632,1.277,1.277,0,0,1,.569-.452,2.306,2.306,0,0,1,.932-.168,3.01,3.01,0,0,1,.755.1,2.087,2.087,0,0,1,.641.276l-.246.605a2.424,2.424,0,0,0-.575-.246,2.152,2.152,0,0,0-.581-.084,1.214,1.214,0,0,0-.686.156.481.481,0,0,0-.225.413A.374.374,0,0,0,.992,11a.931.931,0,0,0,.327.18q.2.066.539.15a5.675,5.675,0,0,1,.767.225,1.314,1.314,0,0,1,.512.357.94.94,0,0,1,.213.647,1.105,1.105,0,0,1-.189.629,1.284,1.284,0,0,1-.572.449A2.328,2.328,0,0,1,1.654,13.8ZM7.2,12.773H5.1l-.414.971h-.8L5.771,9.548h.767l1.894,4.195H7.617Zm-.258-.611-.791-1.834-.785,1.834ZM9.319,9.548H10.1v3.536h2.193v.659H9.319Zm6.694,3.224h-2.1l-.414.971h-.8l1.888-4.195h.767l1.894,4.195h-.815Zm-.258-.611-.791-1.834-.785,1.834Zm5.124,1.582-.857-1.229a1.6,1.6,0,0,1-.162.006h-.947v1.223h-.779V9.548H19.86a2.322,2.322,0,0,1,.95.18,1.381,1.381,0,0,1,.62.515,1.442,1.442,0,0,1,.216.8,1.421,1.421,0,0,1-.231.815,1.373,1.373,0,0,1-.662.509l.965,1.378Zm-.018-2.7a.752.752,0,0,0-.264-.617,1.2,1.2,0,0,0-.773-.216h-.911V11.88h.911a1.185,1.185,0,0,0,.773-.219A.761.761,0,0,0,20.861,11.041Zm3.757,1.223v1.48h-.779V12.275L22.191,9.548h.833l1.229,2.044,1.241-2.044h.767Z" transform="translate(112.411 132.589) rotate(90)" fill="#fff"/>
        </g>
      </g>
    </g>
  </g>
</svg>
