<svg xmlns="http://www.w3.org/2000/svg" xmlns:xlink="http://www.w3.org/1999/xlink" width="245" height="679.5" viewBox="0 0 245 679.5">
  <defs>
    <clipPath id="clip-path">
      <rect id="長方形_701" data-name="長方形 701" width="245" height="495" transform="translate(-13.615 0.078)" fill="none"/>
    </clipPath>
  </defs>
  <g id="グループ_27039" data-name="グループ 27039" transform="translate(-1381 1364)">
    <path id="パス_197" data-name="パス 197" d="M-198.641-26.255h3.742V-.268h-3.742Zm-7.93,24.431q2.16-.169,4.986-.427t5.962-.579q3.136-.32,6.2-.62l.072,3.642q-2.9.372-5.879.716t-5.724.642q-2.745.3-5.005.57ZM-193.736-6.6l3.473-.987q.654,1.437,1.336,3.111t1.279,3.249q.6,1.574.928,2.774l-3.752,1.208q-.276-1.181-.809-2.8t-1.179-3.332Q-193.106-5.094-193.736-6.6Zm-7.608-10.782v6.068h9.046v-6.068Zm-3.638-3.2h16.557V-8.137h-16.557Zm-10.974-3.227,2.586-1.978a18.474,18.474,0,0,1,3.628,3.8,16.019,16.019,0,0,1,2.05,4.044,19.924,19.924,0,0,1,.918,4.247,42.751,42.751,0,0,1,.226,4.428q0,2.139-.148,4.174a23.116,23.116,0,0,1-.531,3.646,6.943,6.943,0,0,1-1.11,2.579,3.376,3.376,0,0,1-.845.784,3.29,3.29,0,0,1-1.106.457,10.039,10.039,0,0,1-1.894.243q-.994.036-2.111.005A8.515,8.515,0,0,0-214.562.8a6.2,6.2,0,0,0-.724-1.719q1.157.086,1.975.074t1.327-.05A1.419,1.419,0,0,0-211-1.446a3.744,3.744,0,0,0,.535-1.6,27.237,27.237,0,0,0,.287-2.8q.1-1.643.1-3.523a35.03,35.03,0,0,0-.226-4.059,17.728,17.728,0,0,0-.839-3.718,14.071,14.071,0,0,0-1.767-3.448A16.193,16.193,0,0,0-215.957-23.808Zm6.25,9.223,2.744,1.643a24.336,24.336,0,0,1-1.907,3.107A33.274,33.274,0,0,1-211.31-6.8a23.456,23.456,0,0,1-2.559,2.455A14.721,14.721,0,0,0-215-5.814a8.247,8.247,0,0,0-1.363-1.291,16.443,16.443,0,0,0,2.523-2.018,22.628,22.628,0,0,0,2.368-2.658A17.622,17.622,0,0,0-209.707-14.585Zm1.225-11.087,3.289,1.643a35.9,35.9,0,0,1-3.893,5.5,30.456,30.456,0,0,1-4.688,4.49,7.573,7.573,0,0,0-.73-.839q-.45-.456-.934-.887a8.646,8.646,0,0,0-.9-.711A22.416,22.416,0,0,0-213.3-19.1a29.334,29.334,0,0,0,2.71-3.212A26.5,26.5,0,0,0-208.482-25.672Zm29.47,10.117h16.861v3.445h-16.861Zm0,6.634h16.861v3.438h-16.861Zm0,6.664h16.861V1.187h-16.861Zm-2.53-20.055h22.516v25h-3.946V-18.754h-14.811v21.5h-3.759Zm8.8-4.066,4.5.49q-.562,1.53-1.182,2.987t-1.147,2.5l-3.4-.621q.262-.779.5-1.714t.44-1.883A17.48,17.48,0,0,0-172.744-26.379Zm36.076,5.13q-.327,2.376-.816,5.032a48.438,48.438,0,0,1-1.334,5.413,28.521,28.521,0,0,1-2.115,5.387,11.694,11.694,0,0,1-2.648,3.484,4.755,4.755,0,0,1-3.131,1.224,4.919,4.919,0,0,1-3.163-1.163,7.986,7.986,0,0,1-2.3-3.212,11.982,11.982,0,0,1-.856-4.656,12.1,12.1,0,0,1,1.089-5.07,13.549,13.549,0,0,1,3.025-4.236,14.361,14.361,0,0,1,4.531-2.9,14.688,14.688,0,0,1,5.6-1.058,13.827,13.827,0,0,1,5.191.925,11.544,11.544,0,0,1,3.945,2.579,11.371,11.371,0,0,1,2.517,3.858,12.715,12.715,0,0,1,.875,4.736,12.484,12.484,0,0,1-1.329,5.823,11.038,11.038,0,0,1-3.951,4.248,16.833,16.833,0,0,1-6.529,2.294l-2.341-3.687q.9-.1,1.585-.23t1.317-.267a11.225,11.225,0,0,0,2.768-1.057,8.661,8.661,0,0,0,2.24-1.742A7.593,7.593,0,0,0-131-7.958a8.494,8.494,0,0,0,.537-3.085,9.744,9.744,0,0,0-.552-3.347,7.416,7.416,0,0,0-1.632-2.644,7.312,7.312,0,0,0-2.638-1.735,9.719,9.719,0,0,0-3.573-.612,10.274,10.274,0,0,0-4.365.88,10.018,10.018,0,0,0-3.2,2.286,10.109,10.109,0,0,0-1.96,3.021,8.07,8.07,0,0,0-.662,3.06,7.965,7.965,0,0,0,.361,2.588A3.775,3.775,0,0,0-147.766-6a1.7,1.7,0,0,0,1.164.513,1.8,1.8,0,0,0,1.288-.661,7.41,7.41,0,0,0,1.245-2.029,29.77,29.77,0,0,0,1.257-3.459,41.494,41.494,0,0,0,1.2-4.755,49.585,49.585,0,0,0,.706-4.976Zm28.5,4.861h10.247v3.365h-10.247Zm.323,14.214h10.363V1.1h-10.363Zm4.588-19.966a31.678,31.678,0,0,1-2.018,2.964,38.4,38.4,0,0,1-2.622,3.095,25.125,25.125,0,0,1-2.98,2.712,13.347,13.347,0,0,0-.947-1.681,12.859,12.859,0,0,0-1.155-1.554,21.144,21.144,0,0,0,3.092-2.754,34.4,34.4,0,0,0,2.753-3.336,24.033,24.033,0,0,0,1.982-3.184h3.531q1.075,1.618,2.419,3.312a32.351,32.351,0,0,0,2.851,3.15,18.983,18.983,0,0,0,3,2.4q-.573.711-1.191,1.645a20.394,20.394,0,0,0-1.08,1.821,28.441,28.441,0,0,1-2.82-2.583,40.045,40.045,0,0,1-2.689-3.085Q-102.382-20.805-103.261-22.141Zm-6.522,11.871h13.826v12.9h-3.559V-6.994h-6.852V2.75h-3.414Zm-8.627-16.047,3.213,1.208q-.623,1.175-1.3,2.445t-1.33,2.413q-.654,1.143-1.25,2l-2.479-1.073q.572-.941,1.154-2.155t1.117-2.487Q-118.746-25.235-118.409-26.317Zm3.555,3.676,3.027,1.37q-1.113,1.767-2.438,3.709t-2.656,3.716q-1.332,1.774-2.527,3.12l-2.164-1.2q.868-1.054,1.8-2.382t1.843-2.771q.909-1.443,1.71-2.883T-114.854-22.641Zm-8.329,3.672,1.774-2.534q.827.7,1.681,1.555t1.577,1.7a9.3,9.3,0,0,1,1.109,1.55l-1.919,2.876a10.5,10.5,0,0,0-1.068-1.648q-.7-.911-1.525-1.834T-123.182-18.969Zm7.42,3.721,2.45-1.011q.609,1.034,1.169,2.234t.98,2.331a13.1,13.1,0,0,1,.6,2.032L-113.2-8.485a13.394,13.394,0,0,0-.547-2.076q-.4-1.166-.916-2.4A25.041,25.041,0,0,0-115.762-15.248Zm-7.461,2.583q2.139-.062,5.112-.186l6.035-.255-.031,2.948q-2.867.2-5.7.394t-5.106.34ZM-115.1-7.52l2.613-.846q.568,1.326,1.117,2.9a25.779,25.779,0,0,1,.815,2.743l-2.747.98a22.913,22.913,0,0,0-.739-2.8Q-114.561-6.163-115.1-7.52Zm-6.777-.594,3.083.548a36.33,36.33,0,0,1-.736,4.389A20.529,20.529,0,0,1-120.693.482a7.933,7.933,0,0,0-.829-.466q-.518-.259-1.063-.509a9.065,9.065,0,0,0-.935-.378A13.68,13.68,0,0,0-122.446-4.2,36.548,36.548,0,0,0-121.876-8.114Zm3.484-2.911h3.244V2.8h-3.244Zm33.819-4.452h13.561v3.438H-84.573Zm1.335-6.928h16.419v3.559H-83.237Zm-8.29,13.665H-63.4V-5.18H-91.527ZM-72.3-15.476h3.831l-.016.3q-.016.3-.039.687t-.055.647q-.382,4.777-.8,7.831a32.336,32.336,0,0,1-.931,4.745A6.316,6.316,0,0,1-71.522,1.18a3.878,3.878,0,0,1-1.472,1.083,7.714,7.714,0,0,1-1.837.421,20.092,20.092,0,0,1-2.306.083q-1.434-.014-2.973-.065A7.4,7.4,0,0,0-80.53.823a7.674,7.674,0,0,0-.906-1.849q1.6.138,3.02.172t2.1.034a4.322,4.322,0,0,0,.878-.074,1.571,1.571,0,0,0,.675-.346,4.336,4.336,0,0,0,.984-2.02,32,32,0,0,0,.807-4.4q.366-2.848.676-7.19Zm-12.183-10.9,3.88.366q-.324,1.916-.7,3.99t-.782,4.118q-.408,2.045-.8,3.9t-.74,3.305l-3.922-.324q.4-1.478.82-3.357t.837-3.948q.42-2.069.781-4.127T-84.48-26.379Zm42.41,2.613h3.462V-6.232h-3.462Zm5.577-2.04h3.573V-1.617A6.421,6.421,0,0,1-33.256.718a2.559,2.559,0,0,1-1.191,1.3,6.378,6.378,0,0,1-2.213.578,30.825,30.825,0,0,1-3.142.14A13.1,13.1,0,0,0-40.239.873a15.45,15.45,0,0,0-.692-1.9q1.211.031,2.286.047t1.484.009a.8.8,0,0,0,.517-.143.681.681,0,0,0,.152-.515Zm-17.3-.328h3.534V2.75h-3.534Zm6.257,15.212h3.348v7.947A6.008,6.008,0,0,1-44.4-1.213a1.982,1.982,0,0,1-.9,1.108,3.849,3.849,0,0,1-1.571.482,17.143,17.143,0,0,1-2.062.067,7.48,7.48,0,0,0-.333-1.6,12.744,12.744,0,0,0-.578-1.55q.639.031,1.184.031t.758-.007a.326.326,0,0,0,.369-.368Zm-12.125,0H-46.21v3.317H-56.34v7.9h-3.317Zm-1.208-5.6h17.412v3.372H-60.865Zm3.236-5.689h12.96v3.365H-58.3Zm-.859-3.55,3.421.694a40.3,40.3,0,0,1-1.331,4.8,24.713,24.713,0,0,1-1.724,3.982,8.327,8.327,0,0,0-.949-.492q-.59-.268-1.208-.5t-1.063-.386a16.787,16.787,0,0,0,1.7-3.7A32.688,32.688,0,0,0-58.488-25.757Zm35.26,8.144H-1.7v2.93H-23.228ZM-23-8.585H-5.97v2.913H-23Zm3.961-11.07h3.518v7.032h5.676v-7.032h3.656v9.842H-19.034ZM-6.926-8.585H-6.2l.646-.135,2.33,1.177a14.267,14.267,0,0,1-3.241,4.3,18.757,18.757,0,0,1-4.544,3,28.845,28.845,0,0,1-5.533,1.936A57.158,57.158,0,0,1-22.793,2.84a10.346,10.346,0,0,0-.654-1.612,9.064,9.064,0,0,0-.892-1.5,50.816,50.816,0,0,0,5.7-.819,28.824,28.824,0,0,0,5.038-1.489,16.034,16.034,0,0,0,4.025-2.3A9.711,9.711,0,0,0-6.926-8.1Zm-9.7,2.291A11.589,11.589,0,0,0-12.9-3.332,23.109,23.109,0,0,0-7.529-1.369,45.115,45.115,0,0,0-.908-.322,8.269,8.269,0,0,0-1.714.64Q-2.137,1.218-2.5,1.8a11.8,11.8,0,0,0-.59,1.074A39,39,0,0,1-9.985,1.4,22.708,22.708,0,0,1-15.6-1.226a16.879,16.879,0,0,1-4.219-3.922Zm.163-20.04h3.874v4.659h-3.874Zm-9.29,2.792H-1.524v3.317H-25.748Zm-1.819,0h3.559v8.734q0,1.9-.117,4.176t-.46,4.66a33.021,33.021,0,0,1-1,4.62A18.108,18.108,0,0,1-27.3,2.695a6.979,6.979,0,0,0-.87-.721q-.566-.411-1.153-.782A6.537,6.537,0,0,0-30.351.644a15.155,15.155,0,0,0,1.536-3.62,27.876,27.876,0,0,0,.825-4.046q.267-2.076.344-4.082t.077-3.7Z" transform="translate(1619.426 -809)" fill="#fff"/>
    <path id="パス_200" data-name="パス 200" d="M-221.343.492A13.817,13.817,0,0,1-227.1-.583a7.915,7.915,0,0,1-3.547-2.987,8.141,8.141,0,0,1-1.193-4.4,7.091,7.091,0,0,1,1.046-3.884,11.371,11.371,0,0,1,2.674-2.907,27.977,27.977,0,0,1,3.473-2.291q1.845-1.031,3.473-2.04a11.945,11.945,0,0,0,2.674-2.188A3.97,3.97,0,0,0-217.457-24a3.031,3.031,0,0,0-.758-2.155,2.721,2.721,0,0,0-2.091-.812,3.1,3.1,0,0,0-2.333.9,3.636,3.636,0,0,0-.878,2.635,6.072,6.072,0,0,0,.875,2.977,17.583,17.583,0,0,0,2.351,3.171,41.813,41.813,0,0,0,3.274,3.2q1.8,1.582,3.658,3.071t3.505,2.777A42.01,42.01,0,0,0-206.4-5.77q1.645,1.041,2.643,1.569L-206.436.51q-1.632-.953-3.293-2.03a40.663,40.663,0,0,1-3.876-2.936q-2.543-2.163-5.145-4.434a61.826,61.826,0,0,1-4.782-4.632,23.653,23.653,0,0,1-3.49-4.794,10.237,10.237,0,0,1-1.31-4.9,7.917,7.917,0,0,1,1.028-4.127,7.071,7.071,0,0,1,2.815-2.673,8.455,8.455,0,0,1,4.025-.948,8.129,8.129,0,0,1,5.542,1.8,6.237,6.237,0,0,1,2.059,4.957,7.015,7.015,0,0,1-.981,3.745,10.853,10.853,0,0,1-2.526,2.827,33.017,33.017,0,0,1-3.293,2.3q-1.749,1.072-3.293,2.122a11.479,11.479,0,0,0-2.526,2.272,4.363,4.363,0,0,0-.982,2.811,3.337,3.337,0,0,0,1.6,3.013A7.436,7.436,0,0,0-220.813-4.1a6.646,6.646,0,0,0,3.772-1.242,14.064,14.064,0,0,0,3.349-3.268,17.431,17.431,0,0,0,2.216-3.74,17.071,17.071,0,0,0,1.224-4.6h5.332a28.731,28.731,0,0,1-1.808,5.838,29.6,29.6,0,0,1-3.015,5.306,16.807,16.807,0,0,1-4.773,4.6A12.642,12.642,0,0,1-221.343.492Zm40.885-30.843V-6.006h-7.591V-23.031h-7.416v-7.32Zm0,21.207a11.444,11.444,0,0,0,5.4,4.8,23.626,23.626,0,0,0,8.56,1.762q2.972.118,7.146.151t8.762-.026q4.589-.059,8.994-.235t7.855-.463a20.022,20.022,0,0,0-.941,2.26q-.5,1.393-.908,2.844t-.629,2.605q-3.06.169-7.024.261t-8.189.125q-4.224.033-8.171-.026t-6.969-.176a31.459,31.459,0,0,1-10.092-1.9,16.737,16.737,0,0,1-7.124-5.455q-1.965,1.95-4.1,3.881t-4.627,4.072l-3.754-7.872q2.1-1.384,4.449-3.087t4.479-3.527Zm-14.775-40.782,6.034-4.454q1.92,1.466,3.944,3.318t3.747,3.7a25.516,25.516,0,0,1,2.765,3.464l-6.527,5a22.865,22.865,0,0,0-2.533-3.574q-1.646-1.961-3.6-3.916T-195.233-49.926Zm15.839,11.03h44.413v5.481h-44.413Zm12.553,11.914v3.42h18.982v-3.42Zm-7.32-4.4h34.151v12.219h-34.151ZM-159.981-23l6.621,2.321a36.6,36.6,0,0,1-5.911,6.023,54.088,54.088,0,0,1-7.4,5.087,66.3,66.3,0,0,1-7.837,3.847,18.154,18.154,0,0,0-1.279-1.859q-.837-1.1-1.693-2.19a14.2,14.2,0,0,0-1.584-1.756,59.189,59.189,0,0,0,7.345-2.939,44.692,44.692,0,0,0,6.673-3.915A26.205,26.205,0,0,0-159.981-23Zm18.333,1.077,5.578,3.807q-2.553,1.8-5.13,3.462t-4.673,2.815l-4.165-3.189q1.341-.865,2.894-2.074t3.027-2.491Q-142.645-20.871-141.648-21.92ZM-154.761-20.3a19.773,19.773,0,0,0,4.853,4.415,31.7,31.7,0,0,0,6.839,3.355,45.858,45.858,0,0,0,8.169,2.077,18.949,18.949,0,0,0-2.381,2.785,25.651,25.651,0,0,0-1.976,3.123A40.449,40.449,0,0,1-147.9-7.61a31.8,31.8,0,0,1-7.17-4.785,30.078,30.078,0,0,1-5.359-6.257Zm5.5-29.6v4.559h4.23V-49.9Zm-10.145,0v4.559h4.15V-49.9Zm-10.03,0v4.559h4.049V-49.9Zm-6.665-4.436h38.081v13.432H-176.1Zm14.331,32.714h7.54V-3.834h-7.54ZM-95-28.414h8.2V-5.549a4.066,4.066,0,0,0,.443,2.387,2.92,2.92,0,0,0,2.069.5h6.006a1.9,1.9,0,0,0,1.68-.821,7.89,7.89,0,0,0,.832-3.218q.271-2.4.389-7.177a16.02,16.02,0,0,0,2.2,1.33,25.342,25.342,0,0,0,2.7,1.187q1.393.518,2.429.8A46.767,46.767,0,0,1-69.4-1.3a8.29,8.29,0,0,1-2.878,4.71,9.048,9.048,0,0,1-5.3,1.361h-8a14.027,14.027,0,0,1-5.774-.955A5.362,5.362,0,0,1-94.2.609,18.7,18.7,0,0,1-95-5.5Zm-33.515-5.08h59.208V-25.8H-128.52Zm6.008-17.942h47.125v7.629h-47.125Zm9.118,24.013h8.518a95.564,95.564,0,0,1-1.324,10.35,35.978,35.978,0,0,1-2.966,9.133,25.247,25.247,0,0,1-5.882,7.708A33.136,33.136,0,0,1-125.1,5.723a16.849,16.849,0,0,0-2.08-3.388,18.628,18.628,0,0,0-2.793-3.028A27.315,27.315,0,0,0-121.367-5.5a19.394,19.394,0,0,0,4.809-6.208,26.618,26.618,0,0,0,2.25-7.387Q-113.686-23.07-113.393-27.423ZM-37.277-56.03h8.157v9.254h-8.157Zm0,38.578h8.157V5.943h-8.157Zm-25.5,4.256H-3.107v7.32H-62.775Zm2.193-36.445H-5.169v7.18H-60.582Zm48.768,8,7.093,3.388q-2.508,2.31-5.227,4.444t-4.977,3.695L-20.7-33.212q1.487-1.122,3.117-2.574t3.161-3Q-12.892-40.34-11.814-41.646Zm-26.092-2.815,6.688,2.468q-1.974,2.6-4.041,5.159t-3.827,4.375l-4.968-2.182q1.1-1.372,2.228-3.095t2.166-3.505Q-38.623-43.024-37.906-44.461Zm9.925,4.816,6.143,2.807q-2.737,3.205-5.964,6.581t-6.458,6.445q-3.23,3.068-6.106,5.37l-4.629-2.519q2.874-2.457,6-5.676t6.039-6.628Q-30.042-36.675-27.981-39.645ZM-47.319-33.9l3.688-4.5q1.914,1.122,4.089,2.574t4.163,2.871a28.235,28.235,0,0,1,3.213,2.607l-3.88,5.122a29.283,29.283,0,0,0-3.092-2.783q-1.918-1.529-4.085-3.092T-47.319-33.9Zm-.593,10.532q3.271-.132,7.5-.278t8.991-.385q4.76-.238,9.586-.436l-.052,5.577q-6.643.565-13.181,1.071t-11.745.888Zm18.152-4.42,5.6-2.38q1.437,1.834,2.88,4t2.616,4.275a21.6,21.6,0,0,1,1.721,3.806l-5.974,2.733a23.256,23.256,0,0,0-1.586-3.88q-1.087-2.164-2.454-4.419A46.937,46.937,0,0,0-29.76-27.792ZM-63.5-22.163q3.168-1.012,7.634-2.716t9.086-3.441l1.389,5.819Q-49-20.725-52.765-18.958t-6.976,3.181Zm2.022-14.571,5.248-4.239q1.722.887,3.665,2.1t3.706,2.478a26.855,26.855,0,0,1,2.885,2.332l-5.541,4.7a27.263,27.263,0,0,0-2.72-2.4q-1.687-1.327-3.578-2.647T-61.482-36.733ZM-22.17-24.5l5.38-4.305q2.271,1.114,4.91,2.624t5.025,3.046a44.119,44.119,0,0,1,3.976,2.834L-8.618-15.53a36.514,36.514,0,0,0-3.731-2.9q-2.308-1.6-4.9-3.222T-22.17-24.5Z" transform="translate(1620 -712)" fill="#fff"/>
    <g id="グループ_26951" data-name="グループ 26951" transform="translate(1341 -1465)">
      <line id="線_6" data-name="線 6" x2="245" transform="translate(40 612.5)" fill="none" stroke="#fff" stroke-width="1"/>
      <line id="線_7" data-name="線 7" x2="245" transform="translate(40 673)" fill="none" stroke="#fff" stroke-width="1"/>
      <line id="線_8" data-name="線 8" x2="245" transform="translate(40 780)" fill="none" stroke="#fff" stroke-width="1"/>
    </g>
    <g id="マスクグループ_26" data-name="マスクグループ 26" transform="translate(1394.615 -1364.078)" clip-path="url(#clip-path)">
      <g id="グループ_26933" data-name="グループ 26933" transform="translate(-8.615)">
        <g id="グループ_26937" data-name="グループ 26937">
          <path id="パス_65" data-name="パス 65" d="M175.226,31.428c5.029,0,8.8,0,12.571-5.28,7.04-9.806,7.8-11.063,10.563-11.063,3.014,0,26.9,16.846,26.9,19.608,0,3.523-5.029,3.523-13.577,3.523H46.754c-22.122,0-29.414.248-31.928.5-.758,0-4.526.754-5.28.754s-1.257-.754-2.263-1.76L2.506,31.931C1.5,30.922,1.5,30.674,1.5,30.423a.668.668,0,0,1,.754-.758c1.76,0,9.551,1.009,11.063,1.009,12.317.754,22.88.754,34.694.754H94.022c7.543,0,8.294-3.02,8.294-8.3a83.823,83.823,0,0,0-.751-10.56c-.251-1.509-1.509-8.8-1.509-10.305,0-2.015.751-2.266,2.766-2.266,3.52,0,14.834,2.514,18.857,3.523,2.762.751,6.034,1.257,6.034,4.019,0,1.76-.506,2.263-4.78,6.286-2.011,1.76-2.011,5.531-2.011,7.291,0,8.8,1.763,10.309,8.549,10.309Zm-134,101.825c-7.794,0-7.794.751-7.794,22.877,0,8.3,1,49.276,1,58.583,0,8.294-6.031,12.823-14.08,12.823-6.785,0-6.785-2.766-6.785-5.786,0-5.528,1.006-31.928,1.006-37.962,0-13.829,0-34.7-.754-47.768-.251-2.514-1.257-14.331-1.257-15.589,0-1.006.248-3.52,2.011-3.52,2.008,0,15.337,7.037,18.351,8.042a39.682,39.682,0,0,0,10.811,1.509H182.518c3.272,0,5.28-.251,8.049-3.265,5.78-6.537,6.537-7.04,7.794-7.04s18.1,9.554,18.1,14.583c0,1.757-.5,2.514-5.28,8.294-2.011,2.263-2.011,14.331-2.011,18.1,0,6.789.754,40.228.754,47.771,0,5.528,0,10.808-8.8,17.094-5.277,3.771-12.571,6.034-14.328,6.034-3.02,0-4.278-1.757-7.8-7.794a25.534,25.534,0,0,0-15.086-11.063c-3.517-1.006-4.522-2.762-4.522-3.52,0-1,1.76-1,2.766-1,2.514,0,17.1,1,20.362,1,9.306,0,9.306-3.517,9.306-7.791,0-3.771.251-22.377.251-26.651,0-17.851,0-28.914-.251-32.434-.255-5.528-5.283-5.528-8.549-5.528Zm42.488-30.926c-3.269,0-6.034,0-7.04,3.269-1.006,2.514-3.017,8.294-11.566,8.294-8.3,0-8.3-5.277-8.3-11.059,0-2.514.506-15.337.506-18.1,0-6.034-.255-18.857-.506-24.385,0-.758-.751-4.777-.751-5.535,0-1,0-2.766,2.008-2.766,1.006,0,13.074,5.28,14.331,5.786,5.531,2.514,8.8,2.762,13.829,2.762h55.311c4.274,0,5.783-.5,7.543-2.514,2.766-3.269,5.029-5.528,6.537-5.528,1.76,0,17.6,9.051,17.6,12.571,0,1.509-5.783,6.785-6.286,8.294a38.122,38.122,0,0,0-.754,7.543c0,2.766.5,16.846.5,20.114,0,6.034-6.789,11.314-13.577,11.314-4.274,0-4.777-1.76-5.28-5.28-.754-4.777-4.274-4.777-8.046-4.777Zm11.314,93.025c-3.771,0-5.783,0-7.04,4.274-1.257,4.522-2.514,8.8-10.815,8.8-7.037,0-7.539-3.269-7.539-7.291,0-3.021.754-18.1.754-21.371,0-5.029-.251-10.56-.251-16.091,0-1.509-1.006-10.057-1.006-11.814,0-1.512.251-3.52,2.011-3.52.251,0,8.8,4.02,9.554,4.271a32.172,32.172,0,0,0,11.817,2.011h32.179c4.526,0,6.034-.5,7.794-2.762,4.026-4.777,4.526-5.283,5.531-5.283s17.851,7.8,17.851,12.32c0,1.257-.251,1.509-4.526,6.537a6.287,6.287,0,0,0-2.011,5.029c0,2.263.5,23.634.5,24.891,0,8.046-8.8,11.817-12.823,11.817-4.526,0-5.029-2.011-5.783-7.04-.251-2.263-2.26-4.777-7.288-4.777ZM84.216,67.128c-8.3,0-8.3,3.02-8.3,10.309,0,16.594,0,18.354,7.295,18.354h58.076c7.543,0,7.543-.5,7.543-20.366,0-4.019,0-8.3-7.291-8.3ZM95.53,161.158c-8.3,0-8.3,3.017-8.3,12.571,0,12.571,0,15.086,8.3,15.086h28.411c8.042,0,8.042-3.017,8.042-12.571,0-12.823,0-15.086-8.042-15.086Z" transform="translate(3.529 0)" fill="#fff"/>
          <path id="パス_66" data-name="パス 66" d="M75.425,197.909c-1.509,0-14.08,2.514-15.337,2.766-3.52,1.006-3.52,4.02-3.52,6.785,0,11.063,2.011,66.377,2.011,78.945,0,11.566-8.8,15.843-12.823,15.843-6.286,0-6.286-6.54-6.286-7.8,0-8.294,1.257-49.528,1.257-59.082s0-21.117-.251-25.646c0-2.263-.5-4.526-3.017-4.526-1.257,0-18.854,4.026-19.611,4.278-1.509.248-7.791,4.271-9.551,4.271-3.269,0-8.3-20.614-8.3-22.377,0-1.509,1.505-1.757,2.762-1.757,1.257.248,12.823,2.263,14.335,2.263,4.271,0,5.779,0,19.859-17.6,12.571-16.091,28.663-39.725,34.194-54.3,1.509-3.52,2.259-3.52,2.766-3.52,2.514,0,18.857,11.314,18.857,16.591,0,3.771-2.766,3.771-6.034,3.771-2.266,0-3.771,1.006-6.286,4.023-9.3,11.566-24.388,27.154-36.956,40.476-1.763,1.763-8.3,8.8-8.3,9.806,0,2.015,3.272,2.015,5.531,2.015,10.309,0,21.12-.506,31.177-1.257,3.52-.251,4.019-.758,4.019-2.015,0-2.762-5.277-16.091-5.277-16.842a.921.921,0,0,1,1.006-1.006c1.509,0,24.385,12.32,24.385,29.162,0,6.286-4.774,12.571-9.551,12.571-3.771,0-5.029-4.271-6.286-8.549-.506-2.514-1.509-5.779-2.263-6.537a4.886,4.886,0,0,0-2.514-.751M36.956,232.351c0,2.011-1,2.766-3.517,4.526-3.272,2.011-4.278,4.274-12.571,24.637-1.006,2.266-11.569,27.908-17.1,27.908-.758,0-.758-1-.758-1.257,0-1.509,3.771-14.08,4.278-16.842,2.263-9.3,6.034-26.651,6.034-45.006,0-4.023,0-4.522,1-4.522,2.263,0,9.806,2.762,11.314,3.265,11.314,4.023,11.314,5.531,11.314,7.291m8.3-156.633c.251-1.76.5-2.766,2.011-2.766,2.011,0,22.374,9.554,22.374,13.577,0,2.514-1.505,3.014-5.779,4.271-2.766,1.009-4.274,2.769-17.1,17.6-2.514,3.02-14.579,17.1-14.579,17.855,0,1,.248,1.257,3.517,3.517,2.263,1.76,11.063,8.8,11.063,17.6,0,6.034-4.274,10.811-9.551,10.811-6.792,0-9.306-6.286-11.063-11.063C21.871,135.806,18.1,131.784,12.069,126c-3.269-3.265-4.026-4.274-4.026-5.029s.758-.751,1.257-.751c2.263,0,12.32,3.014,14.335,2.263,4.271-1.512,20.865-36.96,21.619-46.765M92.267,253.974c0,7.291-6.031,10.811-9.3,10.811-7.043,0-7.794-9.051-8.3-14.583-1-7.794-2.762-12.571-5.528-19.611-.5-1.257-1.76-3.52-1.76-4.274a1.173,1.173,0,0,1,1.257-1.257c2.259,0,9.051,4.526,14.08,10.057,2.514,3.017,9.551,11.314,9.551,18.857M211.189,143.855c11.566,7.037,16.091,9.048,20.868,11.059,3.269,1.509,3.517,1.509,3.517,2.011,0,2.263-10.305,4.526-12.065,5.528a28.014,28.014,0,0,0-8.549,6.038,2.915,2.915,0,0,1-2.514,1.006c-.754,0-16.594-10.057-31.177-31.428a210.748,210.748,0,0,1-22.377-44.754c-.751-1.757-1.257-2.762-2.26-2.762-1.257,0-1.76.754-4.274,5.531-28.16,51.791-59.334,75.17-63.863,75.17a.663.663,0,0,1-.751-.751c0-.754,4.522-6.537,5.28-7.291,19.105-23.634,39.974-61.6,44.751-85.231,1.006-5.029,1.006-5.531,3.269-5.531,1.006,0,23.882,2.766,23.882,8.549,0,1.006-2.263,4.774-2.263,5.783,0,1.505,12.826,35.2,48.525,57.074m-31.177,69.387c2.766,0,6.286,0,8.8-2.511,4.278-4.278,6.286-6.286,8.049-6.286,3.265,0,16.339,11.311,16.339,14.077,0,1.509-.754,2.015-3.017,3.52-2.514,1.509-3.771,3.771-4.274,7.04,0,2.766.251,48.023.251,55.311,0,4.526,0,10.811-11.566,10.811-5.783,0-6.282-2.011-7.539-7.791-.758-3.02-3.523-3.02-7.794-3.02H134c-4.274,0-6.537,0-8.046,4.278-1.509,4.522-3.017,9.551-11.314,9.551-7.291,0-7.291-5.28-7.291-7.543,0-8.046.754-47.768.754-56.819,0-4.777,0-11.566-.248-15.337,0-2.263-1.257-12.819-1.257-13.577a1.082,1.082,0,0,1,1.006-1.006c1.509,0,10.808,5.283,12.819,6.034,6.537,3.269,8.549,3.269,14.331,3.269Zm-24.385-36.2c-5.535,0-22.88,0-31.677.5a37.768,37.768,0,0,1-5.283.758c-1,0-1.509-.5-2.259-1.76l-4.78-5.783c-1.006-1.006-1.254-1.257-1.254-1.509,0-.506.5-.754,1.006-.754,1.757,0,9.551,1.006,11.059,1.006,10.56.5,22.625.754,33.939.754,11.063,0,14.335,0,17.1-4.026,5.783-8.545,6.534-9.551,8.3-9.551s3.265,1.257,14.831,11.063c1.76,1.509,5.531,4.774,5.531,5.783,0,3.52-5.029,3.52-13.326,3.52ZM181.018,277.6c5.786,0,7.794-2.263,7.794-7.291V226.065c0-6.286-5.28-6.286-7.794-6.286H133.5c-6.286,0-8.046,2.766-8.046,7.543v42.991c0,7.291,5.28,7.291,8.549,7.291Z" transform="translate(0 192.515)" fill="#fff"/>
          <path id="パス_116" data-name="パス 116" d="M8.592-8.4V0H7.032V-3.6H2.688V0H1.128V-8.4h1.56v3.468H7.032V-8.4Zm2.964,0h1.56V0h-1.56ZM21.828-4.3H23.3V-.948a4.693,4.693,0,0,1-1.512.792A5.8,5.8,0,0,1,20.016.12,4.79,4.79,0,0,1,17.7-.438,4.146,4.146,0,0,1,16.08-1.98a4.244,4.244,0,0,1-.588-2.22,4.244,4.244,0,0,1,.588-2.22,4.135,4.135,0,0,1,1.626-1.542A4.85,4.85,0,0,1,20.04-8.52a5.1,5.1,0,0,1,1.92.348,3.768,3.768,0,0,1,1.452,1.02l-.984.96a3.156,3.156,0,0,0-2.316-.96,3.273,3.273,0,0,0-1.578.372,2.713,2.713,0,0,0-1.08,1.044,3,3,0,0,0-.39,1.536,2.957,2.957,0,0,0,.39,1.512,2.8,2.8,0,0,0,1.08,1.056,3.165,3.165,0,0,0,1.566.384,3.379,3.379,0,0,0,1.728-.432Zm11.7-4.1V0h-1.56V-3.6H27.624V0h-1.56V-8.4h1.56v3.468h4.344V-8.4ZM3.732,19.12a6.408,6.408,0,0,1-1.878-.276A3.919,3.919,0,0,1,.42,18.112L.96,16.9a4.254,4.254,0,0,0,1.266.666,4.6,4.6,0,0,0,1.506.258,2.6,2.6,0,0,0,1.4-.3.909.909,0,0,0,.462-.792.767.767,0,0,0-.258-.594,1.811,1.811,0,0,0-.654-.366q-.4-.132-1.08-.3a12.59,12.59,0,0,1-1.554-.456,2.557,2.557,0,0,1-1.02-.714A1.923,1.923,0,0,1,.6,12.988a2.241,2.241,0,0,1,.378-1.266,2.558,2.558,0,0,1,1.14-.906,4.619,4.619,0,0,1,1.866-.336,6.027,6.027,0,0,1,1.512.192,4.179,4.179,0,0,1,1.284.552l-.492,1.212a4.854,4.854,0,0,0-1.152-.492,4.309,4.309,0,0,0-1.164-.168,2.432,2.432,0,0,0-1.374.312.962.962,0,0,0-.45.828.749.749,0,0,0,.258.588,1.864,1.864,0,0,0,.654.36q.4.132,1.08.3a11.365,11.365,0,0,1,1.536.45,2.63,2.63,0,0,1,1.026.714,1.882,1.882,0,0,1,.426,1.3,2.213,2.213,0,0,1-.378,1.26,2.571,2.571,0,0,1-1.146.9A4.662,4.662,0,0,1,3.732,19.12Zm11.1-2.064h-4.2L9.8,19H8.2l3.78-8.4h1.536L17.3,19H15.672Zm-.516-1.224L12.732,12.16,11.16,15.832ZM19.08,10.6h1.56v7.08h4.392V19H19.08Zm13.4,6.456h-4.2L27.456,19H25.848l3.78-8.4h1.536L34.956,19H33.324Zm-.516-1.224L30.384,12.16l-1.572,3.672ZM42.228,19l-1.716-2.46a3.2,3.2,0,0,1-.324.012h-1.9V19h-1.56V10.6h3.456a4.65,4.65,0,0,1,1.9.36,2.766,2.766,0,0,1,1.242,1.032,2.887,2.887,0,0,1,.432,1.6A2.846,2.846,0,0,1,43.3,15.22a2.749,2.749,0,0,1-1.326,1.02L43.908,19Zm-.036-5.412a1.506,1.506,0,0,0-.528-1.236,2.4,2.4,0,0,0-1.548-.432H38.292v3.348h1.824a2.373,2.373,0,0,0,1.548-.438A1.523,1.523,0,0,0,42.192,13.588Zm7.524,2.448V19h-1.56V16.06l-3.3-5.46h1.668l2.46,4.092L51.468,10.6H53Z" transform="translate(216.574 265.078) rotate(90)" fill="#fff"/>
        </g>
      </g>
    </g>
  </g>
</svg>
