<svg xmlns="http://www.w3.org/2000/svg" xmlns:xlink="http://www.w3.org/1999/xlink" width="17" height="17" viewBox="0 0 17 17">
  <defs>
    <clipPath id="clip-path">
      <rect id="長方形_22364" data-name="長方形 22364" width="17" height="17" transform="translate(8027 -1393)" fill="#fff" stroke="#707070" stroke-width="1"/>
    </clipPath>
  </defs>
  <g id="マスクグループ_37" data-name="マスクグループ 37" transform="translate(-8027 1393)" clip-path="url(#clip-path)">
    <path id="パス_202" data-name="パス 202" d="M16.845,6.833l-.038.012a2.232,2.232,0,0,1-2.05-.2c-.066-.2.548-1.047,1.54-1.369l.038-.011A3.387,3.387,0,0,0,11.7,4.171,3.39,3.39,0,0,0,9.252,0c0,.013,0,.026,0,.04a2.231,2.231,0,0,1-.826,1.887C8.212,1.927,7.6,1.082,7.6.04c0-.013,0-.026,0-.04A3.39,3.39,0,0,0,5.154,4.171,3.386,3.386,0,0,0,.518,5.262l.038.011c.991.322,1.6,1.172,1.54,1.369a2.215,2.215,0,0,1-2.05.2L.007,6.833a3.386,3.386,0,0,0,3.214,3.615,3.392,3.392,0,0,0-.448,4.793l.023-.033c.613-.843,1.61-1.163,1.778-1.041a2.213,2.213,0,0,1-.441,2.013l-.023.032a3.39,3.39,0,0,0,4.316-1.673,3.388,3.388,0,0,0,4.316,1.673l-.024-.032a2.232,2.232,0,0,1-.441-2.013c.173-.126,1.165.2,1.778,1.041l.023.033a3.395,3.395,0,0,0-.447-4.793,3.386,3.386,0,0,0,3.214-3.615" transform="translate(8027 -1393)" fill="#e50012"/>
  </g>
</svg>
